<svg xmlns="http://www.w3.org/2000/svg" class="lixoftchart conditionalMean" width="863" height="635" style="font-family: &quot;Source Sans Pro&quot;, -apple-system, BlinkMacSystemFont, &quot;Segoe UI&quot;, Roboto, &quot;Helvetica Neue&quot;, Arial, sans-serif, &quot;Apple Color Emoji&quot;, &quot;Segoe UI Emoji&quot;, &quot;Segoe UI Symbol&quot;; font-weight: normal;"><style>svg {
--primary--1:rgba(21, 140, 186, 0.1);
--primary--2:rgba(21, 140, 186, 0.2);
--primary--3:rgba(21, 140, 186, 0.3);
--primary--4:rgba(21, 140, 186, 0.4);
--primary--5:rgba(21, 140, 186, 0.5);
--primary--6:rgba(21, 140, 186, 0.6);
--primary--7:rgba(21, 140, 186, 0.7);
--primary--8:rgba(21, 140, 186, 0.8);
--primary--9:rgba(21, 140, 186, 0.9);
--secondary--1:rgba(240, 240, 240, 0.1);
--secondary--2:rgba(240, 240, 240, 0.2);
--secondary--3:rgba(240, 240, 240, 0.3);
--secondary--4:rgba(240, 240, 240, 0.4);
--secondary--5:rgba(240, 240, 240, 0.5);
--secondary--6:rgba(240, 240, 240, 0.6);
--secondary--7:rgba(240, 240, 240, 0.7);
--secondary--8:rgba(240, 240, 240, 0.8);
--secondary--9:rgba(240, 240, 240, 0.9);
--success--1:rgba(40, 182, 44, 0.1);
--success--2:rgba(40, 182, 44, 0.2);
--success--3:rgba(40, 182, 44, 0.3);
--success--4:rgba(40, 182, 44, 0.4);
--success--5:rgba(40, 182, 44, 0.5);
--success--6:rgba(40, 182, 44, 0.6);
--success--7:rgba(40, 182, 44, 0.7);
--success--8:rgba(40, 182, 44, 0.8);
--success--9:rgba(40, 182, 44, 0.9);
--info--1:rgba(117, 202, 235, 0.1);
--info--2:rgba(117, 202, 235, 0.2);
--info--3:rgba(117, 202, 235, 0.3);
--info--4:rgba(117, 202, 235, 0.4);
--info--5:rgba(117, 202, 235, 0.5);
--info--6:rgba(117, 202, 235, 0.6);
--info--7:rgba(117, 202, 235, 0.7);
--info--8:rgba(117, 202, 235, 0.8);
--info--9:rgba(117, 202, 235, 0.9);
--warning--1:rgba(255, 133, 27, 0.1);
--warning--2:rgba(255, 133, 27, 0.2);
--warning--3:rgba(255, 133, 27, 0.3);
--warning--4:rgba(255, 133, 27, 0.4);
--warning--5:rgba(255, 133, 27, 0.5);
--warning--6:rgba(255, 133, 27, 0.6);
--warning--7:rgba(255, 133, 27, 0.7);
--warning--8:rgba(255, 133, 27, 0.8);
--warning--9:rgba(255, 133, 27, 0.9);
--danger--1:rgba(255, 65, 54, 0.1);
--danger--2:rgba(255, 65, 54, 0.2);
--danger--3:rgba(255, 65, 54, 0.3);
--danger--4:rgba(255, 65, 54, 0.4);
--danger--5:rgba(255, 65, 54, 0.5);
--danger--6:rgba(255, 65, 54, 0.6);
--danger--7:rgba(255, 65, 54, 0.7);
--danger--8:rgba(255, 65, 54, 0.8);
--danger--9:rgba(255, 65, 54, 0.9);
--light--1:rgba(246, 246, 246, 0.1);
--light--2:rgba(246, 246, 246, 0.2);
--light--3:rgba(246, 246, 246, 0.3);
--light--4:rgba(246, 246, 246, 0.4);
--light--5:rgba(246, 246, 246, 0.5);
--light--6:rgba(246, 246, 246, 0.6);
--light--7:rgba(246, 246, 246, 0.7);
--light--8:rgba(246, 246, 246, 0.8);
--light--9:rgba(246, 246, 246, 0.9);
--dark--1:rgba(85, 85, 85, 0.1);
--dark--2:rgba(85, 85, 85, 0.2);
--dark--3:rgba(85, 85, 85, 0.3);
--dark--4:rgba(85, 85, 85, 0.4);
--dark--5:rgba(85, 85, 85, 0.5);
--dark--6:rgba(85, 85, 85, 0.6);
--dark--7:rgba(85, 85, 85, 0.7);
--dark--8:rgba(85, 85, 85, 0.8);
--dark--9:rgba(85, 85, 85, 0.9);
--theme-scheme--1:#158CBA;
--theme-scheme--2:#3e82bf;
--theme-scheme--3:#6475bc;
--theme-scheme--4:#8566b0;
--theme-scheme--5:#a05599;
--theme-scheme--6:#b0447c;
--theme-scheme-lg--1:#158cba;
--theme-scheme-lg--2:#1dade5;
--theme-scheme-lg--3:#4abeeb;
--theme-scheme-lg--4:#78cef0;
--theme-scheme-lg--5:#b0447c;
--theme-scheme-lg--6:#c36495;
--theme-scheme-lg--7:#d189ae;
--theme-scheme-lg--8:#e0adc7;
--theme-scheme-lg--9:#618f35;
--theme-scheme-lg--10:#7ab443;
--theme-scheme-lg--11:#94c664;
--theme-scheme-lg--12:#aed38a;
--blue:#158CBA;
--indigo:#6610f2;
--purple:#6f42c1;
--pink:#e83e8c;
--red:#FF4136;
--orange:#fd7e14;
--yellow:#FF851B;
--green:#28B62C;
--teal:#20c997;
--cyan:#75CAEB;
--white:#fff;
--gray:#999;
--gray-dark:#333;
--primary:#158CBA;
--secondary:#f0f0f0;
--success:#28B62C;
--info:#75CAEB;
--warning:#FF851B;
--danger:#FF4136;
--light:#f6f6f6;
--dark:#555;
--breakpoint-xs:0;
--breakpoint-sm:576px;
--breakpoint-md:768px;
--breakpoint-lg:992px;
--breakpoint-xl:1200px;
--font-family-sans-serif:"Source Sans Pro", -apple-system, BlinkMacSystemFont, "Segoe UI", Roboto, "Helvetica Neue", Arial, sans-serif, "Apple Color Emoji", "Segoe UI Emoji", "Segoe UI Symbol";
--font-family-monospace:SFMono-Regular, Menlo, Monaco, Consolas, "Liberation Mono", "Courier New", monospace;
--mm-color-background:;
--graphical-mode-icon-display:none;

}
html, body { height: 100%; }
body { margin: 0px; overflow: hidden; }
.lixoftchart-container { display: flex; flex-direction: column; height: 100%; }
.lixoftchart { width: 100%; height: 100%; flex: 1 1 0%; }
.lixoftchart-header { height: 34px; }
.main { flex: 1 1 0%; height: 100%; width: 100%; }
.footer { margin: 0px; }
.checkinit-footer { max-height: 230px; overflow-y: auto; }
.page, .subpage { height: 100%; display: none; }
.page.active, .subpage.active { display: block; }
.axes, .grid { pointer-events: none; }
.axis path, .axis line { fill: none; shape-rendering: crispEdges; }
.tick { font-family: sans-serif; }
.line { fill: none; }
.tick line { stroke-width: 1px; }
.grid line { opacity: 0.2; }
.title { pointer-events: none; font-weight: 400; }
.axis-label { text-anchor: middle; }
.axis-label-unit { font-family: monospace; font-size: smaller; }
.label-subscript { baseline-shift: sub; font-size: 0.8em; }
.zoomable-content, .brushable-content { cursor: crosshair; }
rect.zoom { fill: rgb(221, 221, 221); stroke: steelblue; fill-opacity: 0.5; }
g.brush &gt; rect.selection { stroke-width: 0; }
.handle--custom { fill: rgb(122, 122, 122); fill-opacity: 1; stroke: rgb(122, 122, 122); stroke-width: 2px; display: inline !important; }
.log-filtered { display: none; }
.dot { stroke: none; }
.censObservations.highlighted:not(.lambdaz-observation), .censObservations[data--radius]:not(.lambdaz-observation) { fill: brown !important; }
.spline { fill: none; }
.regressionLine { fill: none; }
.convergence-line { fill: none; }
.percentile-line, .cdf { stroke-width: 1px; }
.bar { shape-rendering: crispEdges; }
.vertical-line, .horizontal-line { shape-rendering: crispEdges; }
.k1, .bound { shape-rendering: crispEdges; }
.outlier.dot { fill: none; }
.boxplot { font-style: normal; font-variant: normal; font-weight: normal; font-stretch: normal; font-size: 10px; line-height: normal; font-family: sans-serif; }
.box-element line, .box-element rect { stroke-opacity: 1; shape-rendering: crispEdges; }
.boxplot .outlier line { fill: none; }
.boxplot .box-underlay { fill: white; fill-opacity: 1; }
.boxplot .label { font-size: 12px; }
.arrow-marker { stroke-width: 0; font-size: 20px; fill: red; dominant-baseline: central; }
.layout-link { padding: 1px 5px !important; }
.sublayout-controls { min-height: 20px; transition: opacity 0.5s ease-in-out; background-color: transparent; opacity: 0.2; cursor: pointer; }
.pagination { transition: opacity 0.5s ease-in-out; }
.sublayout-controls .pagination { opacity: 0; }
.sublayout-controls:hover { transition: none; opacity: 0.9; }
.sublayout-controls:hover .pagination { transition: none; opacity: 1; }
.plot-grid, .subplot-grid { margin: 0px; min-width: 0px; }
.grid-cell { outline: rgb(221, 221, 221) solid 1px; cursor: text; position: absolute; }
.plot-cell { background-color: rgba(119, 33, 111, 0.298039); }
.matrix-diagonal-cell { background-color: rgb(174, 167, 159) !important; }
.plot-cell.selected { background-color: rgb(119, 33, 111); }
.plot-cell:hover, .plot-cell.hovered { background-color: rgb(243, 152, 20); }
.plot-cell.ui-selecting { background-color: rgb(233, 84, 32); }
.cells-selector { cursor: pointer; width: 0px; height: 0px; position: absolute; border: 10px solid rgba(119, 33, 111, 0.298039); }
.cells-selector.selected { border-color: rgb(119, 33, 111); }
.cells-selector.rows, .cells-selector.all { border-top-color: transparent !important; border-bottom-color: transparent !important; border-right-color: transparent !important; }
.cells-selector.cols { border-top-color: transparent !important; border-left-color: transparent !important; border-right-color: transparent !important; }
.cells-selector.all { transform: rotate(-45deg); }
.cells-selector:hover { border-color: rgb(243, 152, 20); }
.layout-grid, .sublayout-grid { padding: 0px; margin: 0px; min-width: 0px; background-color: transparent; border: none; box-shadow: none !important; }
.layout-grid-content { border-collapse: collapse; border: 1px solid rgb(221, 221, 221); }
.layout-cell { background-color: rgba(119, 33, 111, 0.298039); border: 1px solid rgb(221, 221, 221); min-width: 20px; width: 20px; height: 20px; cursor: pointer; }
.layout-cell.selected { background-color: rgb(119, 33, 111); }
.layout-cell.selecting { background-color: rgb(233, 84, 32); }
.layout-container { padding: 10px 15px; align-items: center; }
.layout-controls { display: flex; justify-content: space-between; align-items: center; }
.layout-controls &gt; .layout-controls-wrapper { display: flex; align-items: baseline; }
.layout-controls .btn { border: 0px; border-radius: 0px; white-space: nowrap; padding: 4px 8px !important; }
.layout-controls .btn.toggle-controls-btn { margin-left: 1rem !important; }
.pagination input { color: inherit; background: transparent; border: 0px; outline: none; }
.contrasted-chart-header-btn:not(:hover) { background: rgba(255, 255, 255, 0.2) !important; }
.message-banner { position: fixed; left: 0px; width: 100%; margin-bottom: 0px; z-index: 10; }
.message-banner.top { top: 0px; }
.message-banner.bottom { bottom: 0px; }
.legend { box-shadow: rgba(0, 0, 0, 0.2) 0px 8px 17px 0px, rgba(0, 0, 0, 0.188235) 0px 6px 20px 0px; z-index: 10; }
.legend:not(.no-move) { cursor: move !important; }
.legend-glyph:not(.aa) { shape-rendering: crispEdges; }
.legend-group-label { font-weight: bold; }
.ui-selectable-helper { z-index: 1100; }
.ui-selectable-helper.no-top { border-top: 0px; }
.ui-selectable-helper.no-right { border-right: 0px; }
.ui-selectable-helper.no-bottom { border-bottom: 0px; }
.ui-selectable-helper.no-left { border-left: 0px; }
.print-preview &gt; .modal-dialog { position: absolute; height: auto; bottom: 0px; top: 0px; left: 0px; right: 0px; }
.page-preview { border: 1px dashed rgb(51, 51, 51); margin: 0px auto; }
.page-preview.portrait { height: 60vh; width: 42.42vh; }
.page-preview.landscape { width: 60vw; height: 42.42vw; }
.tooltip-key::after { content: ": "; }
.brushed-out, .bar.brushed-out { fill: rgb(204, 204, 204) !important; }
.infowrapper { pointer-events: none; }
.information { overflow-y: overlay; overflow-x: hidden; padding: 0.5em; font-family: monospace; box-shadow: rgba(0, 0, 0, 0.2) 0px 8px 17px 0px, rgba(0, 0, 0, 0.188235) 0px 6px 20px 0px; display: inline-block; float: right; cursor: move; pointer-events: all; }
.information span { float: left; clear: both; }
.axis path, .axis line, .grid line{
stroke: #636363;
}

.tick text{
fill: #636363;
}

.axis path, .axis line{
stroke-width: 1px;
}

.bar-label{
fill: #000000;
}

.bar-label{
font-size: 10px;
}

.bin-value{
stroke: red;
}

.bin-value{
}

.bin-value{
stroke-width: 1px;
}

.bound{
stroke: red;
}

.bound{
stroke-width: 2px;
}

.bound.bounded{
stroke: limegreen;
}

.baseline{
stroke: #000000;
}

.baseline{
}

.baseline{
stroke-width: 1px;
}

.box-element rect{
fill: #8fbbd9;
}

.boxplot .outlier line{
stroke: #ff0000;
}

.boxplot .outlier line{
stroke-width: 1px;
}

.quartile{
stroke: #000000;
}

.quartile{
stroke-dasharray: 3, 2;
}

.quartile{
stroke-width: 1px;
}

.box-element line{
stroke: #000000;
}

.box-element line{
stroke-width: 1px;
}

.censEvents{
fill: #d44242;
}

.censEvents{
stroke: #d44242;
}

.censObservations{
fill: #d44242;
}
.censObsIntervals{stroke:rgb(212,66,66);stroke-opacity:0.498039;}

.censObsIntervals{
}

.censObsIntervals{
stroke-width: 5px;
}

.convergence-line{
stroke: #4682B4;
}

.cvIndicator-line{
stroke: #990099;
}

.dosingTimes{
stroke: #000000;
}

.dosingTimes{
stroke-dasharray: 8, 8;
}

.dosingTimes{
stroke-width: 2px;
}

line.empirical, path.empirical{
stroke: #4682B4;
}

.dot.empirical{
fill: #4682B4;
}

line.empirical, path.empirical{
}

line.empirical, path.empirical{
stroke-width: 2px;
}

.fisher_linearization&gt;.bar{
fill: #4682B4;
}

.fisher_stochasticApproximation&gt;.bar{
fill: #98abc5;
}

.focus &gt; line, .focus &gt; circle{
stroke: blue;
}

.lixoftchart{
background-color: #ffffff;
}

.sublayout-controls:hover{
background-color: #ffffff;
}

.bar:hover, .band-overlay:hover{
fill: orange !important;
}

g.bar, g.histogram{
fill: #4682B4;
}

g.bar, g.histogram{
stroke: #ffffff;
}

g.bar, g.histogram{
stroke-width: 1px;
}

.information{
background-color: #FFFFCC;
}

.information{
fill: #FFFFCC;
}

.information{
font-size: 12px;
}

.information{
color: #000000;
}

.k1{
stroke: red;
}

.k1{
stroke-width: 1px;
}

.axis-label.global{
fill: #000000;
}

.axis-label.global{
font-size: 14px;
}

.legend-frame{
fill: #ffffff;
}

.legend-frame{
stroke: #000000;
}

.legend-frame{
stroke-width: 0px;
}

.legend text{
fill: #000000;
}

.legend{
font-size: 12px;
}

.ll_importanceSampling&gt;.bar{
fill: #98abc5;
}

.ll_linearization&gt;.bar{
fill: #4682B4;
}

path.median, line.median{
stroke: #000000;
}

path.median, line.median{
stroke-dasharray: 5,3;
}

path.median, line.median{
stroke-width: 1px;
}

.observation{
fill: #4682B4;
}

.observation{
stroke: #4682B4;
}

.observation-line{
stroke-width: 1.5px;
}

.obsStatisticsValues{
font-size: 10px;
}

.outlier.area{
fill: #ff0000;
}

.outlier.dot{
stroke: #ff0000;
}

.outlier.dot{
stroke-width: 1px;
}
.prediction-interval.median{fill:rgb(255,0,0);fill-opacity:0.2;}
.prediction-interval.low, .prediction-interval.up{fill:rgb(0,128,255);fill-opacity:0.298039;}
.plot-background{fill:rgb(250,250,255);fill-opacity:0.6;}
.bar{stroke:rgb(250,250,255);stroke-opacity:0.6;}

.regressionLine{
stroke: #bd2671;
}

.regressionLine{
}

.regressionLine{
stroke-width: 1.5px;
}

.spline{
stroke: #eba213;
}

.spline{
}

.spline{
stroke-width: 1.5px;
}

.axis-label.sublabel, .matrix-diagonal-label{
fill: #000000;
}

.axis-label.sublabel, .matrix-diagonal-label{
font-size: 12px;
}

line.theoretical, path.theoretical{
stroke: #000000;
}

.dot.theoretical{
fill: #000000;
}

line.theoretical, path.theoretical{
stroke-dasharray: 5,3;
}

line.theoretical, path.theoretical{
stroke-width: 1.5px;
}

.tick{
font-size: 10px;
}

.title{
fill: #000000;
}

.title{
font-size: 14px;
}

.axis-label-unit{
fill: #999;
}

.userGuide-dot{
fill: red;
}

.userGuide-line{
stroke: red;
}

.userGuide-dot{
r: 3;
}

.userGuide-line{
}

.userGuide-line{
stroke-width: 1px;
}

.brushed-out, .brushed-out.bar{
fill: #ccc !important;
}
.not-censObservations{display:none;}
.not-grid{display:none;}
.hasCensored,.__hasCensored{display:none;}
.hasIOV,.__hasIOV{display:none;}
.not-hasMean{display:none;}
.not-hasMode{display:none;}
.not-isIndivEstimMean{display:none;}
.legend,.__legend{display:none;}
.linkedZoom,.__linkedZoom{display:none;}
.not-observations{display:none;}
.splitted,.__splitted{display:none;}
.xEqualDomains,.__xEqualDomains{display:none;}
.xLog,.__xLog{display:none;}
.yEqualDomains,.__yEqualDomains{display:none;}
.yLog,.__yLog{display:none;}
.not-bottomAxisLine{display:none;}
.not-bottomAxisTickLabels{display:none;}
.not-leftAxisLine{display:none;}
.not-leftAxisTickLabels{display:none;}
.rightAxisLine,.__rightAxisLine{display:none;}
.not-rightAxisTickLabels{display:none;}
.topAxisLine,.__topAxisLine{display:none;}
.not-topAxisTickLabels{display:none;}
.freehand-guides-layer,.__freehand-guides-layer{display:none;}
</style><g class="lixoftchart-scaler"><g class="lixoftchart-translator" transform="translate(50,40)"><g class="x axis" transform="translate(0, 561)"><text class="x axis-label global" x="386.5" y="-10" style="text-anchor: middle;"><tspan class="axis-label-text"/><tspan class="axis-label-unit"/></text></g><g class="y axis"><text class="y axis-label global" transform="rotate(-90)" x="-280.5" y="-30" style="text-anchor: middle;"><tspan class="axis-label-text"/><tspan class="axis-label-unit"/></text></g><g class="page plot-page active" data-index="0"><g class="plot-container page-element" width="224.33333333333334" height="140.33333333333334" data-index="0" data-col="0" data-row="0" transform="translate(0,0)"><g class="subpage plot-page active" data-index="0"><g class="plot page-element" width="224.33333333333334" height="140.33333333333334" id="Cl" data-index="0" title="E(Cl|y)" transform="translate(0,0)"><rect width="224.33333333333334" height="140.33333333333334" class="plot-background"/><svg class="plot-content zoomable-content" width="224.33333333333334" height="140.33333333333334"><path class="convergence-line line autoscale" stroke="steelblue" d="M10.196969696969699,72.01979584351861L12.299437675726338,70.23983535745558L14.401905654482977,70.87727392853388L16.504373633239616,70.12354783611246L18.606841611996256,71.14587027385781L20.709309590752895,72.66455686613877L22.811777569509534,73.91357355050236L24.914245548266173,74.78120520857493L27.016713527022812,74.88046284254764L29.11918150577945,74.46468823112524L31.22164948453609,74.12387730447772L33.32411746329273,73.9645506170521L35.42658544204937,72.43793191645993L37.529053420806,71.55665229901247L39.631521399562644,71.47382608755328L41.733989378319286,71.49507810931844L43.83645735707592,71.63055823385511L45.938925335832565,70.8877173102362L48.0413933145892,70.87174997981576L50.14386129334584,70.50469551253121L52.24632927210248,70.36013225818614L54.348797250859114,70.15645724429777L56.451265229615764,70.51195607486994L58.55373320837239,70.60828681770191L60.65620118712904,71.2020894926949L62.75866916588567,71.24500357907533L64.86113714464231,71.12708584025401L66.96360512339895,71.07251519707984L69.06607310215558,70.98081183691468L71.16854108091223,71.11110191789727L73.27100905966887,71.58656232517716L75.3734770384255,71.70439399226348L77.47594501718214,71.82281608914626L79.57841299593878,72.33134341913903L81.68088097469543,72.68257904744321L83.78334895345206,72.56087583778923L85.8858169322087,72.82845260194316L87.98828491096533,72.34944885988781L90.09075288972198,72.44439907657419L92.19322086847862,72.2692140966441L94.29568884723525,72.4466314972379L96.39815682599189,72.25866892208468L98.50062480474853,71.93396903902187L100.60309278350518,71.70520777287054L102.70556076226181,71.39535363756511L104.80802874101846,71.42202484992043L106.91049671977508,71.43759720709713L109.01296469853173,71.45175376888993L111.11543267728837,71.41417655812592L113.217900656045,71.34204997333119L115.32036863480164,71.27515465299949L117.42283661355829,71.28906236050072L119.52530459231492,71.05547986654555L121.62777257107156,70.96775649777834L123.7302405498282,70.84941687439692L125.83270852858485,70.8629748140414L127.93517650734148,70.79943231311194L130.03764448609812,70.73732393243634L132.14011246485475,70.72256400238025L134.2425804436114,70.65543561248515L136.34504842236802,70.38763881578049L138.44751640112466,70.29182764941106L140.5499843798813,70.25587260499428L142.65245235863793,70.03449824645651L144.75492033739457,69.70983097089464L146.8573883161512,69.64290073753469L148.95985629490784,69.64148096115069L151.0623242736645,69.73249567602666L153.16479225242114,69.88232655174362L155.26726023117777,69.801230901451L157.3697282099344,69.71921193119127L159.47219618869104,69.80613551417092L161.5746641674477,69.79237176903129L163.67713214620431,69.7930105398043L165.77960012496095,69.8107550715691L167.8820681037176,69.80702708395867L169.98453608247422,69.79288930677481L172.08700406123089,69.87628255773224L174.18947203998752,70.0140427859126L176.29194001874416,70.24348879105857L178.3944079975008,70.32748739612963L180.49687597625746,70.26363199413451L182.5993439550141,70.37167779421334L184.7018119337707,70.57661455663087L186.80427991252733,70.7574812504063L188.90674789128397,70.9351109134369L191.00921587004063,71.06665907108302L193.11168384879727,71.08984418831517L195.2141518275539,70.93514703944716L197.31661980631054,70.80704698320062L199.4190877850672,70.68129804401256L201.52155576382384,70.62837783513102L203.62402374258048,70.53581458350352L205.72649172133708,70.48762032750624L207.82895970009372,70.43331715092042L209.93142767885038,70.33416844995459L212.03389565760702,70.16666666666667" fill="none"/><line class="bound min segment autoscale bounded" x1="109.01296469853173" y1="128.15564738292022" x2="214.13636363636365" y2="128.15564738292022" fill="none"/><line class="bound max segment autoscale bounded" x1="109.01296469853173" y1="12.177685950413121" x2="214.13636363636365" y2="12.177685950413121" fill="none"/><g class="userGuides"/></svg><g class="axes"><g class="bottom axis bottomAxisLine" transform="translate(0,140.33333333333334)" fill="none" text-anchor="middle"><path class="domain" stroke="#000" d="M0.5,6V0.5H224.83333333333334V6" fill="none"/><g class="tick" opacity="1" transform="translate(10.696969696969699,0)"><line stroke="#000" y2="3" fill="none"/><text fill="#000" y="6" dy="0.71em" class="bottomAxisTickLabels transformed-label"><tspan class="label-block"><tspan class="label-subblock">0</tspan></tspan></text></g><g class="tick" opacity="1" transform="translate(52.74632927210248,0)"><line stroke="#000" y2="3" fill="none"/><text fill="#000" y="6" dy="0.71em" class="bottomAxisTickLabels transformed-label"><tspan class="label-block"><tspan class="label-subblock">20</tspan></tspan></text></g><g class="tick" opacity="1" transform="translate(94.79568884723525,0)"><line stroke="#000" y2="3" fill="none"/><text fill="#000" y="6" dy="0.71em" class="bottomAxisTickLabels transformed-label"><tspan class="label-block"><tspan class="label-subblock">40</tspan></tspan></text></g><g class="tick" opacity="1" transform="translate(136.84504842236802,0)"><line stroke="#000" y2="3" fill="none"/><text fill="#000" y="6" dy="0.71em" class="bottomAxisTickLabels transformed-label"><tspan class="label-block"><tspan class="label-subblock">60</tspan></tspan></text></g><g class="tick" opacity="1" transform="translate(178.8944079975008,0)"><line stroke="#000" y2="3" fill="none"/><text fill="#000" y="6" dy="0.71em" class="bottomAxisTickLabels transformed-label"><tspan class="label-block"><tspan class="label-subblock">80</tspan></tspan></text></g><g class="tick" opacity="1" transform="translate(220.9437675726336,0)"><line stroke="#000" y2="3" fill="none"/><text fill="#000" y="6" dy="0.71em" class="bottomAxisTickLabels transformed-label"><tspan class="label-block"><tspan class="label-subblock">100</tspan></tspan></text></g></g><g class="left axis leftAxisLine" fill="none" text-anchor="end"><path class="domain" stroke="#000" d="M-6,140.83333333333334H0.5V0.5H-6" fill="none"/><g class="tick" opacity="1" transform="translate(0,117.90210562751865)"><line stroke="#000" x2="-3" fill="none"/><text fill="#000" x="-6" dy="0.32em" class="leftAxisTickLabels transformed-label"><tspan class="label-block"><tspan class="label-subblock">10.4</tspan></tspan></text></g><g class="tick" opacity="1" transform="translate(0,74.20357121041721)"><line stroke="#000" x2="-3" fill="none"/><text fill="#000" x="-6" dy="0.32em" class="leftAxisTickLabels transformed-label"><tspan class="label-block"><tspan class="label-subblock">10.6</tspan></tspan></text></g><g class="tick" opacity="1" transform="translate(0,30.505036793315398)"><line stroke="#000" x2="-3" fill="none"/><text fill="#000" x="-6" dy="0.32em" class="leftAxisTickLabels transformed-label"><tspan class="label-block"><tspan class="label-subblock">10.8</tspan></tspan></text></g></g></g><g class="grid"><g class="vertical" transform="translate(0,140.33333333333334)" fill="none" font-size="10" font-family="sans-serif" text-anchor="middle"><g class="tick" opacity="1" transform="translate(10.696969696969699,0)"><line stroke="#000" y2="-140.33333333333334" fill="none"/></g><g class="tick" opacity="1" transform="translate(52.74632927210248,0)"><line stroke="#000" y2="-140.33333333333334" fill="none"/></g><g class="tick" opacity="1" transform="translate(94.79568884723525,0)"><line stroke="#000" y2="-140.33333333333334" fill="none"/></g><g class="tick" opacity="1" transform="translate(136.84504842236802,0)"><line stroke="#000" y2="-140.33333333333334" fill="none"/></g><g class="tick" opacity="1" transform="translate(178.8944079975008,0)"><line stroke="#000" y2="-140.33333333333334" fill="none"/></g><g class="tick" opacity="1" transform="translate(220.9437675726336,0)"><line stroke="#000" y2="-140.33333333333334" fill="none"/></g></g><g class="horizontal" fill="none" font-size="10" font-family="sans-serif" text-anchor="end"><g class="tick" opacity="1" transform="translate(0,117.90210562751865)"><line stroke="#000" x2="224.33333333333334" fill="none"/></g><g class="tick" opacity="1" transform="translate(0,74.20357121041721)"><line stroke="#000" x2="224.33333333333334" fill="none"/></g><g class="tick" opacity="1" transform="translate(0,30.505036793315398)"><line stroke="#000" x2="224.33333333333334" fill="none"/></g></g></g><defs><clipPath id="Cl--freehand-guides-clip" class="freehand-guides-clip"><rect x="0" y="0" width="224.33333333333334" height="140.33333333333334"/></clipPath></defs></g></g><text x="112.16666666666667" y="-1em" class="title transformed-label" text-anchor="middle"><tspan class="label-block"><tspan class="label-subblock">E(Cl|y)</tspan></tspan></text></g><g class="plot-container page-element" width="224.33333333333334" height="140.33333333333334" data-index="1" data-col="1" data-row="0" transform="translate(274.33333333333337,0)"><g class="subpage plot-page active" data-index="0"><g class="plot page-element" width="224.33333333333334" height="140.33333333333334" id="V1" data-index="0" title="E(V1|y)" transform="translate(0,0)"><rect width="224.33333333333334" height="140.33333333333334" class="plot-background"/><svg class="plot-content zoomable-content" width="224.33333333333334" height="140.33333333333334"><path class="convergence-line line autoscale" stroke="steelblue" d="M10.196969696969699,79.1636070001237L12.299437675726338,69.17383809751156L14.401905654482977,83.69652640723749L16.504373633239616,80.00724952369218L18.606841611996256,82.24041515246414L20.709309590752895,83.9826688498222L22.811777569509534,86.17100550494527L24.914245548266173,87.25913160153985L27.016713527022812,83.59371512742888L29.11918150577945,81.70085299217354L31.22164948453609,77.83200934822169L33.32411746329273,75.28338620862174L35.42658544204937,77.65955203160891L37.529053420806,78.0370911170139L39.631521399562644,78.68531418478437L41.733989378319286,81.32086082579445L43.83645735707592,85.21316436857394L45.938925335832565,86.0845068608062L48.0413933145892,86.83675925681511L50.14386129334584,86.89870305712984L52.24632927210248,88.79599704435539L54.348797250859114,88.9558132212964L56.451265229615764,87.74573606544267L58.55373320837239,87.53881202355896L60.65620118712904,86.0743619914092L62.75866916588567,84.0983538455138L64.86113714464231,82.45128336832124L66.96360512339895,80.57358974898409L69.06607310215558,78.97455448243991L71.16854108091223,79.66899884476962L73.27100905966887,80.04258224848648L75.3734770384255,80.02164410841777L77.47594501718214,79.44406616020979L79.57841299593878,79.86011456700169L81.68088097469543,78.18512086742761L83.78334895345206,76.18126947463996L85.8858169322087,75.59181487256613L87.98828491096533,75.32159656562986L90.09075288972198,75.91081436119933L92.19322086847862,77.50554985886137L94.29568884723525,77.93066419992411L96.39815682599189,77.85229699478303L98.50062480474853,76.81930556366183L100.60309278350518,76.59754293463206L102.70556076226181,75.68308938652126L104.80802874101846,75.56406114411337L106.91049671977508,75.17490405232738L109.01296469853173,75.01420377778462L111.11543267728837,74.67361747151209L113.217900656045,74.692707110705L115.32036863480164,74.48213035080721L117.42283661355829,74.47444953030198L119.52530459231492,74.23145868623405L121.62777257107156,74.48499289249077L123.7302405498282,75.04428441763851L125.83270852858485,74.72924152960661L127.93517650734148,73.82768868657658L130.03764448609812,73.46456734320076L132.14011246485475,74.26532821135301L134.2425804436114,75.13737202893611L136.34504842236802,75.10766426610769L138.44751640112466,75.17046900768366L140.5499843798813,75.40009815501713L142.65245235863793,75.64863938743062L144.75492033739457,75.82707227666138L146.8573883161512,75.07604016297489L148.95985629490784,74.82695705882612L151.0623242736645,75.46657873908762L153.16479225242114,75.59146036109195L155.26726023117777,75.49485531262135L157.3697282099344,74.81122561561338L159.47219618869104,74.69049224952376L161.5746641674477,74.2112343120325L163.67713214620431,73.46321466093684L165.77960012496095,72.8974791369683L167.8820681037176,72.07507804856272L169.98453608247422,71.53202430306844L172.08700406123089,71.37364180420165L174.18947203998752,71.00708214563399L176.29194001874416,70.90957092104901L178.3944079975008,70.29726333862102L180.49687597625746,69.80408302821603L182.5993439550141,69.36339942707531L184.7018119337707,69.17207924049771L186.80427991252733,68.87602341388501L188.90674789128397,68.71620680592233L191.00921587004063,68.4126542429318L193.11168384879727,68.2853371067909L195.2141518275539,68.20310564175234L197.31661980631054,68.36784048391792L199.4190877850672,68.44333978429965L201.52155576382384,68.84956109995987L203.62402374258048,68.97542904770587L205.72649172133708,69.20572421439066L207.82895970009372,69.33891405947244L209.93142767885038,69.4790677719575L212.03389565760702,70.16666666666667" fill="none"/><line class="bound min segment autoscale bounded" x1="109.01296469853173" y1="128.15564738292002" x2="214.13636363636365" y2="128.15564738292002" fill="none"/><line class="bound max segment autoscale bounded" x1="109.01296469853173" y1="12.17768595041332" x2="214.13636363636365" y2="12.17768595041332" fill="none"/><g class="userGuides"/></svg><g class="axes"><g class="bottom axis bottomAxisLine" transform="translate(0,140.33333333333334)" fill="none" text-anchor="middle"><path class="domain" stroke="#000" d="M0.5,6V0.5H224.83333333333334V6" fill="none"/><g class="tick" opacity="1" transform="translate(10.696969696969699,0)"><line stroke="#000" y2="3" fill="none"/><text fill="#000" y="6" dy="0.71em" class="bottomAxisTickLabels transformed-label"><tspan class="label-block"><tspan class="label-subblock">0</tspan></tspan></text></g><g class="tick" opacity="1" transform="translate(52.74632927210248,0)"><line stroke="#000" y2="3" fill="none"/><text fill="#000" y="6" dy="0.71em" class="bottomAxisTickLabels transformed-label"><tspan class="label-block"><tspan class="label-subblock">20</tspan></tspan></text></g><g class="tick" opacity="1" transform="translate(94.79568884723525,0)"><line stroke="#000" y2="3" fill="none"/><text fill="#000" y="6" dy="0.71em" class="bottomAxisTickLabels transformed-label"><tspan class="label-block"><tspan class="label-subblock">40</tspan></tspan></text></g><g class="tick" opacity="1" transform="translate(136.84504842236802,0)"><line stroke="#000" y2="3" fill="none"/><text fill="#000" y="6" dy="0.71em" class="bottomAxisTickLabels transformed-label"><tspan class="label-block"><tspan class="label-subblock">60</tspan></tspan></text></g><g class="tick" opacity="1" transform="translate(178.8944079975008,0)"><line stroke="#000" y2="3" fill="none"/><text fill="#000" y="6" dy="0.71em" class="bottomAxisTickLabels transformed-label"><tspan class="label-block"><tspan class="label-subblock">80</tspan></tspan></text></g><g class="tick" opacity="1" transform="translate(220.9437675726336,0)"><line stroke="#000" y2="3" fill="none"/><text fill="#000" y="6" dy="0.71em" class="bottomAxisTickLabels transformed-label"><tspan class="label-block"><tspan class="label-subblock">100</tspan></tspan></text></g></g><g class="left axis leftAxisLine" fill="none" text-anchor="end"><path class="domain" stroke="#000" d="M-6,140.83333333333334H0.5V0.5H-6" fill="none"/><g class="tick" opacity="1" transform="translate(0,133.9033757049587)"><line stroke="#000" x2="-3" fill="none"/><text fill="#000" x="-6" dy="0.32em" class="leftAxisTickLabels transformed-label"><tspan class="label-block"><tspan class="label-subblock">42</tspan></tspan></text></g><g class="tick" opacity="1" transform="translate(0,80.18141095229566)"><line stroke="#000" x2="-3" fill="none"/><text fill="#000" x="-6" dy="0.32em" class="leftAxisTickLabels transformed-label"><tspan class="label-block"><tspan class="label-subblock">43</tspan></tspan></text></g><g class="tick" opacity="1" transform="translate(0,26.45944619963265)"><line stroke="#000" x2="-3" fill="none"/><text fill="#000" x="-6" dy="0.32em" class="leftAxisTickLabels transformed-label"><tspan class="label-block"><tspan class="label-subblock">44</tspan></tspan></text></g></g></g><g class="grid"><g class="vertical" transform="translate(0,140.33333333333334)" fill="none" font-size="10" font-family="sans-serif" text-anchor="middle"><g class="tick" opacity="1" transform="translate(10.696969696969699,0)"><line stroke="#000" y2="-140.33333333333334" fill="none"/></g><g class="tick" opacity="1" transform="translate(52.74632927210248,0)"><line stroke="#000" y2="-140.33333333333334" fill="none"/></g><g class="tick" opacity="1" transform="translate(94.79568884723525,0)"><line stroke="#000" y2="-140.33333333333334" fill="none"/></g><g class="tick" opacity="1" transform="translate(136.84504842236802,0)"><line stroke="#000" y2="-140.33333333333334" fill="none"/></g><g class="tick" opacity="1" transform="translate(178.8944079975008,0)"><line stroke="#000" y2="-140.33333333333334" fill="none"/></g><g class="tick" opacity="1" transform="translate(220.9437675726336,0)"><line stroke="#000" y2="-140.33333333333334" fill="none"/></g></g><g class="horizontal" fill="none" font-size="10" font-family="sans-serif" text-anchor="end"><g class="tick" opacity="1" transform="translate(0,133.9033757049587)"><line stroke="#000" x2="224.33333333333334" fill="none"/></g><g class="tick" opacity="1" transform="translate(0,80.18141095229566)"><line stroke="#000" x2="224.33333333333334" fill="none"/></g><g class="tick" opacity="1" transform="translate(0,26.45944619963265)"><line stroke="#000" x2="224.33333333333334" fill="none"/></g></g></g><defs><clipPath id="V1--freehand-guides-clip" class="freehand-guides-clip"><rect x="0" y="0" width="224.33333333333334" height="140.33333333333334"/></clipPath></defs></g></g><text x="112.16666666666667" y="-1em" class="title transformed-label" text-anchor="middle"><tspan class="label-block"><tspan class="label-subblock">E(V1|y)</tspan></tspan></text></g><g class="plot-container page-element" width="224.33333333333334" height="140.33333333333334" data-index="2" data-col="2" data-row="0" transform="translate(548.6666666666667,0)"><g class="subpage plot-page active" data-index="0"><g class="plot page-element" width="224.33333333333334" height="140.33333333333334" id="Q" data-index="0" title="E(Q|y)" transform="translate(0,0)"><rect width="224.33333333333334" height="140.33333333333334" class="plot-background"/><svg class="plot-content zoomable-content" width="224.33333333333334" height="140.33333333333334"><path class="convergence-line line autoscale" stroke="steelblue" d="M10.196969696969699,128.1556473829201L12.299437675726338,122.59941409849822L14.401905654482977,119.36306650149194L16.504373633239616,124.15166156374468L18.606841611996256,111.4408330668302L20.709309590752895,106.23683840400867L22.811777569509534,104.04229553146573L24.914245548266173,102.68068604002437L27.016713527022812,111.62457506245434L29.11918150577945,112.34726357186074L31.22164948453609,103.34280032419801L33.32411746329273,101.90539162091235L35.42658544204937,94.76841753617336L37.529053420806,83.68694117015079L39.631521399562644,77.83872580443258L41.733989378319286,70.88998218032505L43.83645735707592,65.19260646482617L45.938925335832565,57.55932048521734L48.0413933145892,54.02332531775244L50.14386129334584,40.8088319115065L52.24632927210248,35.15066975824293L54.348797250859114,29.679774806074818L56.451265229615764,27.26739011758005L58.55373320837239,31.58884963069569L60.65620118712904,39.17205389438361L62.75866916588567,46.00407818985802L64.86113714464231,49.39904318467971L66.96360512339895,53.75706823366261L69.06607310215558,55.70384059617763L71.16854108091223,55.00134928177461L73.27100905966887,55.67150905118086L75.3734770384255,54.149283983999354L77.47594501718214,56.51270866903381L79.57841299593878,58.072537603488456L81.68088097469543,61.72707912925836L83.78334895345206,63.89365932714682L85.8858169322087,64.72754015423104L87.98828491096533,62.56930827306981L90.09075288972198,62.033006600935636L92.19322086847862,60.06074536927321L94.29568884723525,59.12471749853832L96.39815682599189,57.55702844946333L98.50062480474853,56.02675940126494L100.60309278350518,55.773416725697345L102.70556076226181,56.45243398529553L104.80802874101846,58.05240951108438L106.91049671977508,59.91716019535788L109.01296469853173,60.01426301837833L111.11543267728837,56.80184503959198L113.217900656045,56.776823812702744L115.32036863480164,56.82443741587214L117.42283661355829,57.2653714445909L119.52530459231492,56.14996978576586L121.62777257107156,54.73131078731032L123.7302405498282,54.69621487139213L125.83270852858485,54.717822137526724L127.93517650734148,55.00341272176463L130.03764448609812,54.549834569144664L132.14011246485475,53.52254144662453L134.2425804436114,51.04884369530018L136.34504842236802,49.385425291726165L138.44751640112466,48.685058709182L140.5499843798813,47.616335217790564L142.65245235863793,46.41725558568626L144.75492033739457,45.55075245139149L146.8573883161512,46.61818620635576L148.95985629490784,48.374526193103534L151.0623242736645,48.19330391047565L153.16479225242114,48.77484668977982L155.26726023117777,49.03688413052997L157.3697282099344,48.81890257194898L159.47219618869104,50.4671227594377L161.5746641674477,49.9111438711879L163.67713214620431,51.07494174125624L165.77960012496095,51.18754406445366L167.8820681037176,51.40367136234684L169.98453608247422,51.86717239186808L172.08700406123089,52.70298361117729L174.18947203998752,54.736210390965525L176.29194001874416,55.75152532028635L178.3944079975008,55.67293495645872L180.49687597625746,55.75134605803699L182.5993439550141,56.27126410062155L184.7018119337707,58.09809424977641L186.80427991252733,60.18011364515024L188.90674789128397,61.659801156525745L191.00921587004063,63.39747700636546L193.11168384879727,62.473049634573044L195.2141518275539,62.093187731126605L197.31661980631054,61.24976651891551L199.4190877850672,60.75642653484846L201.52155576382384,59.36795736848937L203.62402374258048,58.48830410776321L205.72649172133708,58.12194970918651L207.82895970009372,57.890838834514426L209.93142767885038,56.063963415717666L212.03389565760702,53.6777195377413" fill="none"/><line class="bound min segment autoscale bounded" x1="109.01296469853173" y1="95.17775312506933" x2="214.13636363636365" y2="95.17775312506933" fill="none"/><line class="bound max segment autoscale bounded" x1="109.01296469853173" y1="12.177685950413235" x2="214.13636363636365" y2="12.177685950413235" fill="none"/><g class="userGuides"/></svg><g class="axes"><g class="bottom axis bottomAxisLine" transform="translate(0,140.33333333333334)" fill="none" text-anchor="middle"><path class="domain" stroke="#000" d="M0.5,6V0.5H224.83333333333334V6" fill="none"/><g class="tick" opacity="1" transform="translate(10.696969696969699,0)"><line stroke="#000" y2="3" fill="none"/><text fill="#000" y="6" dy="0.71em" class="bottomAxisTickLabels transformed-label"><tspan class="label-block"><tspan class="label-subblock">0</tspan></tspan></text></g><g class="tick" opacity="1" transform="translate(52.74632927210248,0)"><line stroke="#000" y2="3" fill="none"/><text fill="#000" y="6" dy="0.71em" class="bottomAxisTickLabels transformed-label"><tspan class="label-block"><tspan class="label-subblock">20</tspan></tspan></text></g><g class="tick" opacity="1" transform="translate(94.79568884723525,0)"><line stroke="#000" y2="3" fill="none"/><text fill="#000" y="6" dy="0.71em" class="bottomAxisTickLabels transformed-label"><tspan class="label-block"><tspan class="label-subblock">40</tspan></tspan></text></g><g class="tick" opacity="1" transform="translate(136.84504842236802,0)"><line stroke="#000" y2="3" fill="none"/><text fill="#000" y="6" dy="0.71em" class="bottomAxisTickLabels transformed-label"><tspan class="label-block"><tspan class="label-subblock">60</tspan></tspan></text></g><g class="tick" opacity="1" transform="translate(178.8944079975008,0)"><line stroke="#000" y2="3" fill="none"/><text fill="#000" y="6" dy="0.71em" class="bottomAxisTickLabels transformed-label"><tspan class="label-block"><tspan class="label-subblock">80</tspan></tspan></text></g><g class="tick" opacity="1" transform="translate(220.9437675726336,0)"><line stroke="#000" y2="3" fill="none"/><text fill="#000" y="6" dy="0.71em" class="bottomAxisTickLabels transformed-label"><tspan class="label-block"><tspan class="label-subblock">100</tspan></tspan></text></g></g><g class="left axis leftAxisLine" fill="none" text-anchor="end"><path class="domain" stroke="#000" d="M-6,140.83333333333334H0.5V0.5H-6" fill="none"/><g class="tick" opacity="1" transform="translate(0,101.80321901145354)"><line stroke="#000" x2="-3" fill="none"/><text fill="#000" x="-6" dy="0.32em" class="leftAxisTickLabels transformed-label"><tspan class="label-block"><tspan class="label-subblock">13.5</tspan></tspan></text></g><g class="tick" opacity="1" transform="translate(0,42.08559515888297)"><line stroke="#000" x2="-3" fill="none"/><text fill="#000" x="-6" dy="0.32em" class="leftAxisTickLabels transformed-label"><tspan class="label-block"><tspan class="label-subblock">14</tspan></tspan></text></g></g></g><g class="grid"><g class="vertical" transform="translate(0,140.33333333333334)" fill="none" font-size="10" font-family="sans-serif" text-anchor="middle"><g class="tick" opacity="1" transform="translate(10.696969696969699,0)"><line stroke="#000" y2="-140.33333333333334" fill="none"/></g><g class="tick" opacity="1" transform="translate(52.74632927210248,0)"><line stroke="#000" y2="-140.33333333333334" fill="none"/></g><g class="tick" opacity="1" transform="translate(94.79568884723525,0)"><line stroke="#000" y2="-140.33333333333334" fill="none"/></g><g class="tick" opacity="1" transform="translate(136.84504842236802,0)"><line stroke="#000" y2="-140.33333333333334" fill="none"/></g><g class="tick" opacity="1" transform="translate(178.8944079975008,0)"><line stroke="#000" y2="-140.33333333333334" fill="none"/></g><g class="tick" opacity="1" transform="translate(220.9437675726336,0)"><line stroke="#000" y2="-140.33333333333334" fill="none"/></g></g><g class="horizontal" fill="none" font-size="10" font-family="sans-serif" text-anchor="end"><g class="tick" opacity="1" transform="translate(0,101.80321901145354)"><line stroke="#000" x2="224.33333333333334" fill="none"/></g><g class="tick" opacity="1" transform="translate(0,42.08559515888297)"><line stroke="#000" x2="224.33333333333334" fill="none"/></g></g></g><defs><clipPath id="Q--freehand-guides-clip" class="freehand-guides-clip"><rect x="0" y="0" width="224.33333333333334" height="140.33333333333334"/></clipPath></defs></g></g><text x="112.16666666666667" y="-1em" class="title transformed-label" text-anchor="middle"><tspan class="label-block"><tspan class="label-subblock">E(Q|y)</tspan></tspan></text></g><g class="plot-container page-element" width="224.33333333333334" height="140.33333333333334" data-index="3" data-col="0" data-row="1" transform="translate(0,190.33333333333334)"><g class="subpage plot-page active" data-index="0"><g class="plot page-element" width="224.33333333333334" height="140.33333333333334" id="V2" data-index="0" title="E(V2|y)" transform="translate(0,0)"><rect width="224.33333333333334" height="140.33333333333334" class="plot-background"/><svg class="plot-content zoomable-content" width="224.33333333333334" height="140.33333333333334"><path class="convergence-line line autoscale" stroke="steelblue" d="M10.196969696969699,57.08234105765209L12.299437675726338,62.14956191770452L14.401905654482977,41.45792885179283L16.504373633239616,57.7765967983141L18.606841611996256,63.53273362152193L20.709309590752895,63.98835814456686L22.811777569509534,63.49684715608083L24.914245548266173,63.58003444759322L27.016713527022812,66.17727306144182L29.11918150577945,65.48955430088013L31.22164948453609,65.75162308032021L33.32411746329273,63.54179365780463L35.42658544204937,71.3479942993918L37.529053420806,74.02882145849875L39.631521399562644,77.91065216218996L41.733989378319286,78.6208747492106L43.83645735707592,78.83436800609834L45.938925335832565,78.66396876853703L48.0413933145892,76.04126020338853L50.14386129334584,71.43606305531868L52.24632927210248,71.23544413529937L54.348797250859114,66.91045606280454L56.451265229615764,67.19557919307385L58.55373320837239,62.85577554862978L60.65620118712904,65.04008333140811L62.75866916588567,63.06968498640839L64.86113714464231,60.051792173863106L66.96360512339895,53.17325218646344L69.06607310215558,48.51940879171973L71.16854108091223,47.93844404649377L73.27100905966887,46.48403467254417L75.3734770384255,43.14286111873878L77.47594501718214,41.89143733548633L79.57841299593878,41.42633307971627L81.68088097469543,43.72906753506797L83.78334895345206,43.13724628870827L85.8858169322087,42.85056885198328L87.98828491096533,42.175464571352606L90.09075288972198,42.74881667901353L92.19322086847862,42.07166771919282L94.29568884723525,41.11582975012085L96.39815682599189,41.63112930383906L98.50062480474853,39.35966623108516L100.60309278350518,40.36922146984334L102.70556076226181,42.08237043522624L104.80802874101846,42.27120558004705L106.91049671977508,41.97048220930934L109.01296469853173,41.85844190035925L111.11543267728837,42.71039247955878L113.217900656045,46.905834536592465L115.32036863480164,51.14234546391771L117.42283661355829,51.820382015855216L119.52530459231492,52.30001892651964L121.62777257107156,53.49447933185817L123.7302405498282,56.55196896239485L125.83270852858485,57.759532774382194L127.93517650734148,60.6153484727581L130.03764448609812,60.84357181631293L132.14011246485475,61.782040783496726L134.2425804436114,61.17459963140426L136.34504842236802,61.55331122637821L138.44751640112466,64.17052965521732L140.5499843798813,65.56714112435337L142.65245235863793,68.24412859396207L144.75492033739457,69.725062652193L146.8573883161512,70.36598154886082L148.95985629490784,70.21615150401932L151.0623242736645,70.42909085666298L153.16479225242114,70.14181795533418L155.26726023117777,70.15136510471226L157.3697282099344,70.04691294814295L159.47219618869104,68.6839828740199L161.5746641674477,67.91122822168455L163.67713214620431,68.78116111762934L165.77960012496095,70.20971180550522L167.8820681037176,71.06101911939022L169.98453608247422,71.57324646590375L172.08700406123089,71.6885201429049L174.18947203998752,70.70605694967188L176.29194001874416,70.95907178773072L178.3944079975008,69.67406842833476L180.49687597625746,68.99540714784521L182.5993439550141,69.07466279383767L184.7018119337707,68.92843584219379L186.80427991252733,67.79264033377835L188.90674789128397,68.51278251823798L191.00921587004063,68.2652653254581L193.11168384879727,68.73172696467044L195.2141518275539,70.0273269391961L197.31661980631054,70.23540819702647L199.4190877850672,71.24833572829188L201.52155576382384,71.9586155178504L203.62402374258048,71.73481884672341L205.72649172133708,71.07757979129273L207.82895970009372,71.38969763041649L209.93142767885038,70.6832323192611L212.03389565760702,70.16666666666667" fill="none"/><line class="bound min segment autoscale bounded" x1="109.01296469853173" y1="128.15564738292025" x2="214.13636363636365" y2="128.15564738292025" fill="none"/><line class="bound max segment autoscale bounded" x1="109.01296469853173" y1="12.177685950413093" x2="214.13636363636365" y2="12.177685950413093" fill="none"/><g class="userGuides"/></svg><g class="axes"><g class="bottom axis bottomAxisLine" transform="translate(0,140.33333333333334)" fill="none" text-anchor="middle"><path class="domain" stroke="#000" d="M0.5,6V0.5H224.83333333333334V6" fill="none"/><g class="tick" opacity="1" transform="translate(10.696969696969699,0)"><line stroke="#000" y2="3" fill="none"/><text fill="#000" y="6" dy="0.71em" class="bottomAxisTickLabels transformed-label"><tspan class="label-block"><tspan class="label-subblock">0</tspan></tspan></text></g><g class="tick" opacity="1" transform="translate(52.74632927210248,0)"><line stroke="#000" y2="3" fill="none"/><text fill="#000" y="6" dy="0.71em" class="bottomAxisTickLabels transformed-label"><tspan class="label-block"><tspan class="label-subblock">20</tspan></tspan></text></g><g class="tick" opacity="1" transform="translate(94.79568884723525,0)"><line stroke="#000" y2="3" fill="none"/><text fill="#000" y="6" dy="0.71em" class="bottomAxisTickLabels transformed-label"><tspan class="label-block"><tspan class="label-subblock">40</tspan></tspan></text></g><g class="tick" opacity="1" transform="translate(136.84504842236802,0)"><line stroke="#000" y2="3" fill="none"/><text fill="#000" y="6" dy="0.71em" class="bottomAxisTickLabels transformed-label"><tspan class="label-block"><tspan class="label-subblock">60</tspan></tspan></text></g><g class="tick" opacity="1" transform="translate(178.8944079975008,0)"><line stroke="#000" y2="3" fill="none"/><text fill="#000" y="6" dy="0.71em" class="bottomAxisTickLabels transformed-label"><tspan class="label-block"><tspan class="label-subblock">80</tspan></tspan></text></g><g class="tick" opacity="1" transform="translate(220.9437675726336,0)"><line stroke="#000" y2="3" fill="none"/><text fill="#000" y="6" dy="0.71em" class="bottomAxisTickLabels transformed-label"><tspan class="label-block"><tspan class="label-subblock">100</tspan></tspan></text></g></g><g class="left axis leftAxisLine" fill="none" text-anchor="end"><path class="domain" stroke="#000" d="M-6,140.83333333333334H0.5V0.5H-6" fill="none"/><g class="tick" opacity="1" transform="translate(0,105.52391040437838)"><line stroke="#000" x2="-3" fill="none"/><text fill="#000" x="-6" dy="0.32em" class="leftAxisTickLabels transformed-label"><tspan class="label-block"><tspan class="label-subblock">50</tspan></tspan></text></g><g class="tick" opacity="1" transform="translate(0,59.82987070612968)"><line stroke="#000" x2="-3" fill="none"/><text fill="#000" x="-6" dy="0.32em" class="leftAxisTickLabels transformed-label"><tspan class="label-block"><tspan class="label-subblock">51</tspan></tspan></text></g><g class="tick" opacity="1" transform="translate(0,14.135831007880967)"><line stroke="#000" x2="-3" fill="none"/><text fill="#000" x="-6" dy="0.32em" class="leftAxisTickLabels transformed-label"><tspan class="label-block"><tspan class="label-subblock">52</tspan></tspan></text></g></g></g><g class="grid"><g class="vertical" transform="translate(0,140.33333333333334)" fill="none" font-size="10" font-family="sans-serif" text-anchor="middle"><g class="tick" opacity="1" transform="translate(10.696969696969699,0)"><line stroke="#000" y2="-140.33333333333334" fill="none"/></g><g class="tick" opacity="1" transform="translate(52.74632927210248,0)"><line stroke="#000" y2="-140.33333333333334" fill="none"/></g><g class="tick" opacity="1" transform="translate(94.79568884723525,0)"><line stroke="#000" y2="-140.33333333333334" fill="none"/></g><g class="tick" opacity="1" transform="translate(136.84504842236802,0)"><line stroke="#000" y2="-140.33333333333334" fill="none"/></g><g class="tick" opacity="1" transform="translate(178.8944079975008,0)"><line stroke="#000" y2="-140.33333333333334" fill="none"/></g><g class="tick" opacity="1" transform="translate(220.9437675726336,0)"><line stroke="#000" y2="-140.33333333333334" fill="none"/></g></g><g class="horizontal" fill="none" font-size="10" font-family="sans-serif" text-anchor="end"><g class="tick" opacity="1" transform="translate(0,105.52391040437838)"><line stroke="#000" x2="224.33333333333334" fill="none"/></g><g class="tick" opacity="1" transform="translate(0,59.82987070612968)"><line stroke="#000" x2="224.33333333333334" fill="none"/></g><g class="tick" opacity="1" transform="translate(0,14.135831007880967)"><line stroke="#000" x2="224.33333333333334" fill="none"/></g></g></g><defs><clipPath id="V2--freehand-guides-clip" class="freehand-guides-clip"><rect x="0" y="0" width="224.33333333333334" height="140.33333333333334"/></clipPath></defs></g></g><text x="112.16666666666667" y="-1em" class="title transformed-label" text-anchor="middle"><tspan class="label-block"><tspan class="label-subblock">E(V2|y)</tspan></tspan></text></g><g class="plot-container page-element" width="224.33333333333334" height="140.33333333333334" data-index="4" data-col="1" data-row="1" transform="translate(274.33333333333337,190.33333333333334)"><g class="subpage plot-page active" data-index="0"><g class="plot page-element" width="224.33333333333334" height="140.33333333333334" id="Cl_sd" data-index="0" title="sd(Cl|y)" transform="translate(0,0)"><rect width="224.33333333333334" height="140.33333333333334" class="plot-background"/><svg class="plot-content zoomable-content" width="224.33333333333334" height="140.33333333333334"><path class="convergence-line line autoscale" stroke="steelblue" d="M10.196969696969699,12.177685950413235L12.299437675726338,58.079828533799216L14.401905654482977,77.39264303412108L16.504373633239616,96.66458145343984L18.606841611996256,111.3337392764895L20.709309590752895,123.13276679648583L22.811777569509534,126.47256745585015L24.914245548266173,128.15564738292014L27.016713527022812,123.443990330991L29.11918150577945,110.72385684825841L31.22164948453609,108.11601762863347L33.32411746329273,108.84213307860895L35.42658544204937,105.23227090014854L37.529053420806,105.18992092949802L39.631521399562644,107.06872993956253L41.733989378319286,106.48024538097475L43.83645735707592,105.67257534574662L45.938925335832565,107.86539066647711L48.0413933145892,108.10468921487745L50.14386129334584,110.94542684491805L52.24632927210248,111.89882220236572L54.348797250859114,111.67694975449338L56.451265229615764,112.03878645500414L58.55373320837239,112.16753115290325L60.65620118712904,109.83785829679725L62.75866916588567,109.69588336274458L64.86113714464231,109.26119893277932L66.96360512339895,108.92146553860968L69.06607310215558,108.1809458780524L71.16854108091223,107.87001356081613L73.27100905966887,108.7278812491813L75.3734770384255,108.09806188348469L77.47594501718214,106.48874563605126L79.57841299593878,107.4640902015989L81.68088097469543,107.50067601637298L83.78334895345206,107.46564681265954L85.8858169322087,108.69812160356776L87.98828491096533,109.2529906456824L90.09075288972198,109.67793002061032L92.19322086847862,109.57154825410387L94.29568884723525,109.08658180185694L96.39815682599189,110.23055394709695L98.50062480474853,110.19222542465766L100.60309278350518,111.91304741766676L102.70556076226181,111.9957299043541L104.80802874101846,112.60268217742097L106.91049671977508,112.46313540010237L109.01296469853173,112.62771139149343L111.11543267728837,112.49836479285739L113.217900656045,112.95452291861177L115.32036863480164,112.79506292655196L117.42283661355829,112.29186648983733L119.52530459231492,111.38989310308432L121.62777257107156,111.31660844568434L123.7302405498282,111.84378933051701L125.83270852858485,111.83663125258178L127.93517650734148,112.20619869651172L130.03764448609812,111.69811921061326L132.14011246485475,110.51952602058645L134.2425804436114,110.4491523335835L136.34504842236802,110.79931538536617L138.44751640112466,110.2990489467592L140.5499843798813,110.59198144196388L142.65245235863793,111.03578275085859L144.75492033739457,110.7900589245974L146.8573883161512,111.09567743057127L148.95985629490784,110.38835956436635L151.0623242736645,109.60184489608578L153.16479225242114,109.82206675350928L155.26726023117777,110.140950223032L157.3697282099344,110.08540405058812L159.47219618869104,109.5864381468895L161.5746641674477,109.82648353716354L163.67713214620431,109.44876266918538L165.77960012496095,109.49061663030075L167.8820681037176,110.00540071223834L169.98453608247422,110.50771120655479L172.08700406123089,110.9281063057943L174.18947203998752,111.26920191537849L176.29194001874416,111.50396760170061L178.3944079975008,111.3645364697027L180.49687597625746,111.26242156810575L182.5993439550141,111.08378764846788L184.7018119337707,111.19746741061468L186.80427991252733,111.58920371635413L188.90674789128397,111.15782979001895L191.00921587004063,111.24637641883558L193.11168384879727,110.98682113408819L195.2141518275539,110.49928359891574L197.31661980631054,110.23949548571916L199.4190877850672,110.02443003056226L201.52155576382384,109.90245639735416L203.62402374258048,109.42958386179276L205.72649172133708,109.01163931509387L207.82895970009372,109.01147194212024L209.93142767885038,108.83665153763462L212.03389565760702,108.614456002449" fill="none"/><line class="bound min segment autoscale bounded" x1="109.01296469853173" y1="116.52208061491821" x2="214.13636363636365" y2="116.52208061491821" fill="none"/><line class="bound max segment autoscale bounded" x1="109.01296469853173" y1="100.70683138997981" x2="214.13636363636365" y2="100.70683138997981" fill="none"/><g class="userGuides"/></svg><g class="axes"><g class="bottom axis bottomAxisLine" transform="translate(0,140.33333333333334)" fill="none" text-anchor="middle"><path class="domain" stroke="#000" d="M0.5,6V0.5H224.83333333333334V6" fill="none"/><g class="tick" opacity="1" transform="translate(10.696969696969699,0)"><line stroke="#000" y2="3" fill="none"/><text fill="#000" y="6" dy="0.71em" class="bottomAxisTickLabels transformed-label"><tspan class="label-block"><tspan class="label-subblock">0</tspan></tspan></text></g><g class="tick" opacity="1" transform="translate(52.74632927210248,0)"><line stroke="#000" y2="3" fill="none"/><text fill="#000" y="6" dy="0.71em" class="bottomAxisTickLabels transformed-label"><tspan class="label-block"><tspan class="label-subblock">20</tspan></tspan></text></g><g class="tick" opacity="1" transform="translate(94.79568884723525,0)"><line stroke="#000" y2="3" fill="none"/><text fill="#000" y="6" dy="0.71em" class="bottomAxisTickLabels transformed-label"><tspan class="label-block"><tspan class="label-subblock">40</tspan></tspan></text></g><g class="tick" opacity="1" transform="translate(136.84504842236802,0)"><line stroke="#000" y2="3" fill="none"/><text fill="#000" y="6" dy="0.71em" class="bottomAxisTickLabels transformed-label"><tspan class="label-block"><tspan class="label-subblock">60</tspan></tspan></text></g><g class="tick" opacity="1" transform="translate(178.8944079975008,0)"><line stroke="#000" y2="3" fill="none"/><text fill="#000" y="6" dy="0.71em" class="bottomAxisTickLabels transformed-label"><tspan class="label-block"><tspan class="label-subblock">80</tspan></tspan></text></g><g class="tick" opacity="1" transform="translate(220.9437675726336,0)"><line stroke="#000" y2="3" fill="none"/><text fill="#000" y="6" dy="0.71em" class="bottomAxisTickLabels transformed-label"><tspan class="label-block"><tspan class="label-subblock">100</tspan></tspan></text></g></g><g class="left axis leftAxisLine" fill="none" text-anchor="end"><path class="domain" stroke="#000" d="M-6,140.83333333333334H0.5V0.5H-6" fill="none"/><g class="tick" opacity="1" transform="translate(0,94.62306941551921)"><line stroke="#000" x2="-3" fill="none"/><text fill="#000" x="-6" dy="0.32em" class="leftAxisTickLabels transformed-label"><tspan class="label-block"><tspan class="label-subblock">0.03</tspan></tspan></text></g><g class="tick" opacity="1" transform="translate(0,39.490340901236166)"><line stroke="#000" x2="-3" fill="none"/><text fill="#000" x="-6" dy="0.32em" class="leftAxisTickLabels transformed-label"><tspan class="label-block"><tspan class="label-subblock">0.035</tspan></tspan></text></g></g></g><g class="grid"><g class="vertical" transform="translate(0,140.33333333333334)" fill="none" font-size="10" font-family="sans-serif" text-anchor="middle"><g class="tick" opacity="1" transform="translate(10.696969696969699,0)"><line stroke="#000" y2="-140.33333333333334" fill="none"/></g><g class="tick" opacity="1" transform="translate(52.74632927210248,0)"><line stroke="#000" y2="-140.33333333333334" fill="none"/></g><g class="tick" opacity="1" transform="translate(94.79568884723525,0)"><line stroke="#000" y2="-140.33333333333334" fill="none"/></g><g class="tick" opacity="1" transform="translate(136.84504842236802,0)"><line stroke="#000" y2="-140.33333333333334" fill="none"/></g><g class="tick" opacity="1" transform="translate(178.8944079975008,0)"><line stroke="#000" y2="-140.33333333333334" fill="none"/></g><g class="tick" opacity="1" transform="translate(220.9437675726336,0)"><line stroke="#000" y2="-140.33333333333334" fill="none"/></g></g><g class="horizontal" fill="none" font-size="10" font-family="sans-serif" text-anchor="end"><g class="tick" opacity="1" transform="translate(0,94.62306941551921)"><line stroke="#000" x2="224.33333333333334" fill="none"/></g><g class="tick" opacity="1" transform="translate(0,39.490340901236166)"><line stroke="#000" x2="224.33333333333334" fill="none"/></g></g></g><defs><clipPath id="Cl_sd--freehand-guides-clip" class="freehand-guides-clip"><rect x="0" y="0" width="224.33333333333334" height="140.33333333333334"/></clipPath></defs></g></g><text x="112.16666666666667" y="-1em" class="title transformed-label" text-anchor="middle"><tspan class="label-block"><tspan class="label-subblock">sd(Cl|y)</tspan></tspan></text></g><g class="plot-container page-element" width="224.33333333333334" height="140.33333333333334" data-index="5" data-col="2" data-row="1" transform="translate(548.6666666666667,190.33333333333334)"><g class="subpage plot-page active" data-index="0"><g class="plot page-element" width="224.33333333333334" height="140.33333333333334" id="V1_sd" data-index="0" title="sd(V1|y)" transform="translate(0,0)"><rect width="224.33333333333334" height="140.33333333333334" class="plot-background"/><svg class="plot-content zoomable-content" width="224.33333333333334" height="140.33333333333334"><path class="convergence-line line autoscale" stroke="steelblue" d="M10.196969696969699,12.177685950413263L12.299437675726338,90.23210818716008L14.401905654482977,120.7149633506219L16.504373633239616,128.1556473829201L18.606841611996256,108.16078455771867L20.709309590752895,100.08909918582631L22.811777569509534,103.15721505212694L24.914245548266173,102.73348732022788L27.016713527022812,103.44346814944141L29.11918150577945,106.06487828958242L31.22164948453609,111.65757657164205L33.32411746329273,115.62604683952536L35.42658544204937,115.5766450825388L37.529053420806,116.27216149087532L39.631521399562644,116.53069765118948L41.733989378319286,113.08825056176886L43.83645735707592,110.16183833447269L45.938925335832565,108.34956598599649L48.0413933145892,108.9918798273396L50.14386129334584,107.48601583521295L52.24632927210248,106.58384223420094L54.348797250859114,104.98634515186251L56.451265229615764,105.86471812021546L58.55373320837239,106.60874091674955L60.65620118712904,107.1000990151818L62.75866916588567,107.35774394013754L64.86113714464231,108.04981063752112L66.96360512339895,109.10163173891749L69.06607310215558,108.27951086246784L71.16854108091223,108.39685175701376L73.27100905966887,110.59310004869062L75.3734770384255,111.35562663112559L77.47594501718214,111.6296844577022L79.57841299593878,112.12972795359713L81.68088097469543,112.52465647198996L83.78334895345206,112.66043536051062L85.8858169322087,113.13485410219444L87.98828491096533,111.13860194366444L90.09075288972198,110.20556477231634L92.19322086847862,109.88416066204213L94.29568884723525,109.49648261484514L96.39815682599189,108.99830264476996L98.50062480474853,109.31120406900159L100.60309278350518,109.90514278248145L102.70556076226181,110.59127853253676L104.80802874101846,111.67599329355203L106.91049671977508,111.58250876600215L109.01296469853173,111.39306721310798L111.11543267728837,111.73548941408487L113.217900656045,112.94904756943828L115.32036863480164,113.60796133377526L117.42283661355829,114.28462262966875L119.52530459231492,114.71926096710307L121.62777257107156,115.02433201027156L123.7302405498282,114.99412939974829L125.83270852858485,114.96740231771486L127.93517650734148,115.47940191455797L130.03764448609812,115.41255830267491L132.14011246485475,115.80254652254999L134.2425804436114,115.94736451987971L136.34504842236802,115.06077168440007L138.44751640112466,115.03581600971818L140.5499843798813,114.84650237951965L142.65245235863793,115.10886694391384L144.75492033739457,115.22959422077895L146.8573883161512,114.86222677526294L148.95985629490784,115.44763834440008L151.0623242736645,116.12881129312203L153.16479225242114,115.98811916656184L155.26726023117777,116.52204422670184L157.3697282099344,116.78311427286336L159.47219618869104,117.34721208984317L161.5746641674477,117.6112612434143L163.67713214620431,117.39997279620484L165.77960012496095,117.21951681200485L167.8820681037176,117.1546049755121L169.98453608247422,116.93004788712014L172.08700406123089,117.37918313054871L174.18947203998752,118.31246144245564L176.29194001874416,118.0893832816426L178.3944079975008,118.66558881332489L180.49687597625746,118.94381076628015L182.5993439550141,119.17194572297635L184.7018119337707,119.83953611658227L186.80427991252733,119.73772257329475L188.90674789128397,119.80282976227012L191.00921587004063,120.14008808756397L193.11168384879727,120.45105936700861L195.2141518275539,121.00471752847179L197.31661980631054,121.36737698461212L199.4190877850672,121.50764728141668L201.52155576382384,121.3833719279446L203.62402374258048,120.64022012018938L205.72649172133708,120.58989441046185L207.82895970009372,120.92416078458932L209.93142767885038,120.59666719646066L212.03389565760702,119.28406814364695" fill="none"/><line class="bound min segment autoscale bounded" x1="109.01296469853173" y1="128.1232743103721" x2="214.13636363636365" y2="128.1232743103721" fill="none"/><line class="bound max segment autoscale bounded" x1="109.01296469853173" y1="110.44486197692181" x2="214.13636363636365" y2="110.44486197692181" fill="none"/><g class="userGuides"/></svg><g class="axes"><g class="bottom axis bottomAxisLine" transform="translate(0,140.33333333333334)" fill="none" text-anchor="middle"><path class="domain" stroke="#000" d="M0.5,6V0.5H224.83333333333334V6" fill="none"/><g class="tick" opacity="1" transform="translate(10.696969696969699,0)"><line stroke="#000" y2="3" fill="none"/><text fill="#000" y="6" dy="0.71em" class="bottomAxisTickLabels transformed-label"><tspan class="label-block"><tspan class="label-subblock">0</tspan></tspan></text></g><g class="tick" opacity="1" transform="translate(52.74632927210248,0)"><line stroke="#000" y2="3" fill="none"/><text fill="#000" y="6" dy="0.71em" class="bottomAxisTickLabels transformed-label"><tspan class="label-block"><tspan class="label-subblock">20</tspan></tspan></text></g><g class="tick" opacity="1" transform="translate(94.79568884723525,0)"><line stroke="#000" y2="3" fill="none"/><text fill="#000" y="6" dy="0.71em" class="bottomAxisTickLabels transformed-label"><tspan class="label-block"><tspan class="label-subblock">40</tspan></tspan></text></g><g class="tick" opacity="1" transform="translate(136.84504842236802,0)"><line stroke="#000" y2="3" fill="none"/><text fill="#000" y="6" dy="0.71em" class="bottomAxisTickLabels transformed-label"><tspan class="label-block"><tspan class="label-subblock">60</tspan></tspan></text></g><g class="tick" opacity="1" transform="translate(178.8944079975008,0)"><line stroke="#000" y2="3" fill="none"/><text fill="#000" y="6" dy="0.71em" class="bottomAxisTickLabels transformed-label"><tspan class="label-block"><tspan class="label-subblock">80</tspan></tspan></text></g><g class="tick" opacity="1" transform="translate(220.9437675726336,0)"><line stroke="#000" y2="3" fill="none"/><text fill="#000" y="6" dy="0.71em" class="bottomAxisTickLabels transformed-label"><tspan class="label-block"><tspan class="label-subblock">100</tspan></tspan></text></g></g><g class="left axis leftAxisLine" fill="none" text-anchor="end"><path class="domain" stroke="#000" d="M-6,140.83333333333334H0.5V0.5H-6" fill="none"/><g class="tick" opacity="1" transform="translate(0,106.27953310115065)"><line stroke="#000" x2="-3" fill="none"/><text fill="#000" x="-6" dy="0.32em" class="leftAxisTickLabels transformed-label"><tspan class="label-block"><tspan class="label-subblock">0.12</tspan></tspan></text></g><g class="tick" opacity="1" transform="translate(0,45.100736149233725)"><line stroke="#000" x2="-3" fill="none"/><text fill="#000" x="-6" dy="0.32em" class="leftAxisTickLabels transformed-label"><tspan class="label-block"><tspan class="label-subblock">0.14</tspan></tspan></text></g></g></g><g class="grid"><g class="vertical" transform="translate(0,140.33333333333334)" fill="none" font-size="10" font-family="sans-serif" text-anchor="middle"><g class="tick" opacity="1" transform="translate(10.696969696969699,0)"><line stroke="#000" y2="-140.33333333333334" fill="none"/></g><g class="tick" opacity="1" transform="translate(52.74632927210248,0)"><line stroke="#000" y2="-140.33333333333334" fill="none"/></g><g class="tick" opacity="1" transform="translate(94.79568884723525,0)"><line stroke="#000" y2="-140.33333333333334" fill="none"/></g><g class="tick" opacity="1" transform="translate(136.84504842236802,0)"><line stroke="#000" y2="-140.33333333333334" fill="none"/></g><g class="tick" opacity="1" transform="translate(178.8944079975008,0)"><line stroke="#000" y2="-140.33333333333334" fill="none"/></g><g class="tick" opacity="1" transform="translate(220.9437675726336,0)"><line stroke="#000" y2="-140.33333333333334" fill="none"/></g></g><g class="horizontal" fill="none" font-size="10" font-family="sans-serif" text-anchor="end"><g class="tick" opacity="1" transform="translate(0,106.27953310115065)"><line stroke="#000" x2="224.33333333333334" fill="none"/></g><g class="tick" opacity="1" transform="translate(0,45.100736149233725)"><line stroke="#000" x2="224.33333333333334" fill="none"/></g></g></g><defs><clipPath id="V1_sd--freehand-guides-clip" class="freehand-guides-clip"><rect x="0" y="0" width="224.33333333333334" height="140.33333333333334"/></clipPath></defs></g></g><text x="112.16666666666667" y="-1em" class="title transformed-label" text-anchor="middle"><tspan class="label-block"><tspan class="label-subblock">sd(V1|y)</tspan></tspan></text></g><g class="plot-container page-element" width="224.33333333333334" height="140.33333333333334" data-index="6" data-col="0" data-row="2" transform="translate(0,380.6666666666667)"><g class="subpage plot-page active" data-index="0"><g class="plot page-element" width="224.33333333333334" height="140.33333333333334" id="Q_sd" data-index="0" title="sd(Q|y)" transform="translate(0,0)"><rect width="224.33333333333334" height="140.33333333333334" class="plot-background"/><svg class="plot-content zoomable-content" width="224.33333333333334" height="140.33333333333334"><path class="convergence-line line autoscale" stroke="steelblue" d="M10.196969696969699,12.177685950413263L12.299437675726338,76.7492814960197L14.401905654482977,110.72033667185005L16.504373633239616,116.7726842076766L18.606841611996256,112.49019348860232L20.709309590752895,111.1214738418889L22.811777569509534,114.40100340975425L24.914245548266173,119.85962802739377L27.016713527022812,126.20000887810336L29.11918150577945,123.98204255437145L31.22164948453609,121.56801131804673L33.32411746329273,116.60999022147229L35.42658544204937,113.59113434403437L37.529053420806,113.93871036320829L39.631521399562644,114.49661702809776L41.733989378319286,114.38432981167048L43.83645735707592,114.60723025913538L45.938925335832565,114.79405426082288L48.0413933145892,116.3492223651076L50.14386129334584,117.19770121104304L52.24632927210248,117.49315744831722L54.348797250859114,115.69127083511215L56.451265229615764,115.0157171706603L58.55373320837239,116.27333979097662L60.65620118712904,116.15490834367789L62.75866916588567,116.14744046271737L64.86113714464231,116.66196394032771L66.96360512339895,117.14098850226813L69.06607310215558,117.7480912744594L71.16854108091223,118.91849945756638L73.27100905966887,119.82782659639278L75.3734770384255,118.60595732474201L77.47594501718214,118.78857407777106L79.57841299593878,118.29733850038532L81.68088097469543,118.05217331257819L83.78334895345206,117.81303788778632L85.8858169322087,118.74389697382458L87.98828491096533,118.84203624363252L90.09075288972198,118.84259685999443L92.19322086847862,118.20510148557959L94.29568884723525,118.32451177603537L96.39815682599189,118.4367584406896L98.50062480474853,119.40735116393449L100.60309278350518,119.71487381606661L102.70556076226181,119.89139058489556L104.80802874101846,120.22302125056078L106.91049671977508,120.01866599928823L109.01296469853173,119.2978646242492L111.11543267728837,118.8834814415703L113.217900656045,119.19502537645461L115.32036863480164,119.53135135287255L117.42283661355829,119.74741869916579L119.52530459231492,119.29432892272635L121.62777257107156,118.6586217665922L123.7302405498282,119.04970493809601L125.83270852858485,118.26106345665048L127.93517650734148,117.72885067065461L130.03764448609812,117.63258870209776L132.14011246485475,117.6351853190865L134.2425804436114,117.95048020242665L136.34504842236802,116.2834284178524L138.44751640112466,114.75115831277846L140.5499843798813,114.20406454263893L142.65245235863793,114.20669678140379L144.75492033739457,114.33143402049163L146.8573883161512,114.79455809982782L148.95985629490784,114.92150626740059L151.0623242736645,115.34796992477749L153.16479225242114,115.55102089962335L155.26726023117777,116.17537497887064L157.3697282099344,116.2267154532946L159.47219618869104,116.42811171613998L161.5746641674477,116.36412313785817L163.67713214620431,115.97445923592667L165.77960012496095,115.64158010735984L167.8820681037176,115.17299031533369L169.98453608247422,114.95016566625628L172.08700406123089,115.43941789235959L174.18947203998752,116.18587138464771L176.29194001874416,116.53861546039279L178.3944079975008,116.96046081590325L180.49687597625746,117.48448974425423L182.5993439550141,117.50005783381481L184.7018119337707,117.83980321236984L186.80427991252733,117.9731283556261L188.90674789128397,117.90449196216909L191.00921587004063,117.87190425441493L193.11168384879727,117.48082564335286L195.2141518275539,117.5946165453028L197.31661980631054,117.9545112277296L199.4190877850672,117.96968700721396L201.52155576382384,118.30234898980065L203.62402374258048,118.01149525578933L205.72649172133708,118.18415940408448L207.82895970009372,118.75695025921972L209.93142767885038,119.04265673595441L212.03389565760702,119.14301845244341" fill="none"/><line class="bound min segment autoscale bounded" x1="109.01296469853173" y1="128.15564738292008" x2="214.13636363636365" y2="128.15564738292008" fill="none"/><line class="bound max segment autoscale bounded" x1="109.01296469853173" y1="110.13038952196675" x2="214.13636363636365" y2="110.13038952196675" fill="none"/><g class="userGuides"/></svg><g class="axes"><g class="bottom axis bottomAxisLine" transform="translate(0,140.33333333333334)" fill="none" text-anchor="middle"><path class="domain" stroke="#000" d="M0.5,6V0.5H224.83333333333334V6" fill="none"/><g class="tick" opacity="1" transform="translate(10.696969696969699,0)"><line stroke="#000" y2="3" fill="none"/><text fill="#000" y="6" dy="0.71em" class="bottomAxisTickLabels transformed-label"><tspan class="label-block"><tspan class="label-subblock">0</tspan></tspan></text></g><g class="tick" opacity="1" transform="translate(52.74632927210248,0)"><line stroke="#000" y2="3" fill="none"/><text fill="#000" y="6" dy="0.71em" class="bottomAxisTickLabels transformed-label"><tspan class="label-block"><tspan class="label-subblock">20</tspan></tspan></text></g><g class="tick" opacity="1" transform="translate(94.79568884723525,0)"><line stroke="#000" y2="3" fill="none"/><text fill="#000" y="6" dy="0.71em" class="bottomAxisTickLabels transformed-label"><tspan class="label-block"><tspan class="label-subblock">40</tspan></tspan></text></g><g class="tick" opacity="1" transform="translate(136.84504842236802,0)"><line stroke="#000" y2="3" fill="none"/><text fill="#000" y="6" dy="0.71em" class="bottomAxisTickLabels transformed-label"><tspan class="label-block"><tspan class="label-subblock">60</tspan></tspan></text></g><g class="tick" opacity="1" transform="translate(178.8944079975008,0)"><line stroke="#000" y2="3" fill="none"/><text fill="#000" y="6" dy="0.71em" class="bottomAxisTickLabels transformed-label"><tspan class="label-block"><tspan class="label-subblock">80</tspan></tspan></text></g><g class="tick" opacity="1" transform="translate(220.9437675726336,0)"><line stroke="#000" y2="3" fill="none"/><text fill="#000" y="6" dy="0.71em" class="bottomAxisTickLabels transformed-label"><tspan class="label-block"><tspan class="label-subblock">100</tspan></tspan></text></g></g><g class="left axis leftAxisLine" fill="none" text-anchor="end"><path class="domain" stroke="#000" d="M-6,140.83333333333334H0.5V0.5H-6" fill="none"/><g class="tick" opacity="1" transform="translate(0,109.97322295587473)"><line stroke="#000" x2="-3" fill="none"/><text fill="#000" x="-6" dy="0.32em" class="leftAxisTickLabels transformed-label"><tspan class="label-block"><tspan class="label-subblock">0.35</tspan></tspan></text></g><g class="tick" opacity="1" transform="translate(0,57.09108685364123)"><line stroke="#000" x2="-3" fill="none"/><text fill="#000" x="-6" dy="0.32em" class="leftAxisTickLabels transformed-label"><tspan class="label-block"><tspan class="label-subblock">0.4</tspan></tspan></text></g><g class="tick" opacity="1" transform="translate(0,4.2089507514077695)"><line stroke="#000" x2="-3" fill="none"/><text fill="#000" x="-6" dy="0.32em" class="leftAxisTickLabels transformed-label"><tspan class="label-block"><tspan class="label-subblock">0.45</tspan></tspan></text></g></g></g><g class="grid"><g class="vertical" transform="translate(0,140.33333333333334)" fill="none" font-size="10" font-family="sans-serif" text-anchor="middle"><g class="tick" opacity="1" transform="translate(10.696969696969699,0)"><line stroke="#000" y2="-140.33333333333334" fill="none"/></g><g class="tick" opacity="1" transform="translate(52.74632927210248,0)"><line stroke="#000" y2="-140.33333333333334" fill="none"/></g><g class="tick" opacity="1" transform="translate(94.79568884723525,0)"><line stroke="#000" y2="-140.33333333333334" fill="none"/></g><g class="tick" opacity="1" transform="translate(136.84504842236802,0)"><line stroke="#000" y2="-140.33333333333334" fill="none"/></g><g class="tick" opacity="1" transform="translate(178.8944079975008,0)"><line stroke="#000" y2="-140.33333333333334" fill="none"/></g><g class="tick" opacity="1" transform="translate(220.9437675726336,0)"><line stroke="#000" y2="-140.33333333333334" fill="none"/></g></g><g class="horizontal" fill="none" font-size="10" font-family="sans-serif" text-anchor="end"><g class="tick" opacity="1" transform="translate(0,109.97322295587473)"><line stroke="#000" x2="224.33333333333334" fill="none"/></g><g class="tick" opacity="1" transform="translate(0,57.09108685364123)"><line stroke="#000" x2="224.33333333333334" fill="none"/></g><g class="tick" opacity="1" transform="translate(0,4.2089507514077695)"><line stroke="#000" x2="224.33333333333334" fill="none"/></g></g></g><defs><clipPath id="Q_sd--freehand-guides-clip" class="freehand-guides-clip"><rect x="0" y="0" width="224.33333333333334" height="140.33333333333334"/></clipPath></defs></g></g><text x="112.16666666666667" y="-1em" class="title transformed-label" text-anchor="middle"><tspan class="label-block"><tspan class="label-subblock">sd(Q|y)</tspan></tspan></text></g><g class="plot-container page-element" width="224.33333333333334" height="140.33333333333334" data-index="7" data-col="1" data-row="2" transform="translate(274.33333333333337,380.6666666666667)"><g class="subpage plot-page active" data-index="0"><g class="plot page-element" width="224.33333333333334" height="140.33333333333334" id="V2_sd" data-index="0" title="sd(V2|y)" transform="translate(0,0)"><rect width="224.33333333333334" height="140.33333333333334" class="plot-background"/><svg class="plot-content zoomable-content" width="224.33333333333334" height="140.33333333333334"><path class="convergence-line line autoscale" stroke="steelblue" d="M10.196969696969699,12.177685950413178L12.299437675726338,81.14422104494017L14.401905654482977,101.52919748712571L16.504373633239616,123.74265213026368L18.606841611996256,127.85248922390964L20.709309590752895,119.07605791908895L22.811777569509534,125.88208331518548L24.914245548266173,121.45388722754639L27.016713527022812,113.09278734517854L29.11918150577945,101.5516307301078L31.22164948453609,99.7416383493392L33.32411746329273,101.2417961344319L35.42658544204937,107.30156544692092L37.529053420806,106.44153515737486L39.631521399562644,109.44301893312355L41.733989378319286,110.04403637326324L43.83645735707592,108.94499774918202L45.938925335832565,109.31385165378933L48.0413933145892,110.99807785388208L50.14386129334584,111.50270045298922L52.24632927210248,112.7394338708136L54.348797250859114,112.03771415838783L56.451265229615764,110.92300900203116L58.55373320837239,108.43599045539472L60.65620118712904,108.12996941425936L62.75866916588567,109.28027406382526L64.86113714464231,109.74797507643751L66.96360512339895,107.75351868480266L69.06607310215558,107.11833004547962L71.16854108091223,106.67829140176454L73.27100905966887,104.72819039653956L75.3734770384255,101.7915948006165L77.47594501718214,99.63085521585585L79.57841299593878,99.77157234685134L81.68088097469543,101.74138189665632L83.78334895345206,103.58374542705027L85.8858169322087,103.96832089151582L87.98828491096533,104.17530558876875L90.09075288972198,105.86573781839132L92.19322086847862,107.76925182768177L94.29568884723525,108.66048550026458L96.39815682599189,109.08260552882109L98.50062480474853,109.71003793785809L100.60309278350518,110.56566926413271L102.70556076226181,112.3332900527057L104.80802874101846,113.95205287041563L106.91049671977508,114.60100657598325L109.01296469853173,114.37625976323666L111.11543267728837,114.8442854290527L113.217900656045,116.04849617533063L115.32036863480164,116.2283624117405L117.42283661355829,116.43039014494627L119.52530459231492,115.48370550352783L121.62777257107156,115.46564317106164L123.7302405498282,115.15226297568465L125.83270852858485,115.25787469079344L127.93517650734148,115.16677930397952L130.03764448609812,114.96455354737714L132.14011246485475,115.49521356041424L134.2425804436114,115.5618265550684L136.34504842236802,116.27630262533326L138.44751640112466,115.98326558066225L140.5499843798813,116.27283072201956L142.65245235863793,116.00103444592474L144.75492033739457,116.05704030622937L146.8573883161512,115.62353065257264L148.95985629490784,115.90636650119674L151.0623242736645,115.8781863231578L153.16479225242114,116.19343996177656L155.26726023117777,115.91347790576147L157.3697282099344,116.04750280622282L159.47219618869104,115.57292159697688L161.5746641674477,115.39379667918655L163.67713214620431,114.80708167273161L165.77960012496095,115.12523291651539L167.8820681037176,115.36755475901019L169.98453608247422,115.72368861399379L172.08700406123089,115.52252410958161L174.18947203998752,115.93212878541117L176.29194001874416,116.53088695350537L178.3944079975008,117.11792714632232L180.49687597625746,117.08654077162272L182.5993439550141,117.18064136064737L184.7018119337707,117.3566221355468L186.80427991252733,117.63181472644999L188.90674789128397,118.31633320610756L191.00921587004063,118.66499743395042L193.11168384879727,117.90994489130648L195.2141518275539,117.67274077079955L197.31661980631054,117.69057918384536L199.4190877850672,117.7872164788612L201.52155576382384,117.71096951626814L203.62402374258048,118.01646912634745L205.72649172133708,117.2559153242034L207.82895970009372,116.8326118779579L209.93142767885038,116.69375862496099L212.03389565760702,117.07037818060056" fill="none"/><line class="bound min segment autoscale bounded" x1="109.01296469853173" y1="128.15564738292014" x2="214.13636363636365" y2="128.15564738292014" fill="none"/><line class="bound max segment autoscale bounded" x1="109.01296469853173" y1="105.98510897828099" x2="214.13636363636365" y2="105.98510897828099" fill="none"/><g class="userGuides"/></svg><g class="axes"><g class="bottom axis bottomAxisLine" transform="translate(0,140.33333333333334)" fill="none" text-anchor="middle"><path class="domain" stroke="#000" d="M0.5,6V0.5H224.83333333333334V6" fill="none"/><g class="tick" opacity="1" transform="translate(10.696969696969699,0)"><line stroke="#000" y2="3" fill="none"/><text fill="#000" y="6" dy="0.71em" class="bottomAxisTickLabels transformed-label"><tspan class="label-block"><tspan class="label-subblock">0</tspan></tspan></text></g><g class="tick" opacity="1" transform="translate(52.74632927210248,0)"><line stroke="#000" y2="3" fill="none"/><text fill="#000" y="6" dy="0.71em" class="bottomAxisTickLabels transformed-label"><tspan class="label-block"><tspan class="label-subblock">20</tspan></tspan></text></g><g class="tick" opacity="1" transform="translate(94.79568884723525,0)"><line stroke="#000" y2="3" fill="none"/><text fill="#000" y="6" dy="0.71em" class="bottomAxisTickLabels transformed-label"><tspan class="label-block"><tspan class="label-subblock">40</tspan></tspan></text></g><g class="tick" opacity="1" transform="translate(136.84504842236802,0)"><line stroke="#000" y2="3" fill="none"/><text fill="#000" y="6" dy="0.71em" class="bottomAxisTickLabels transformed-label"><tspan class="label-block"><tspan class="label-subblock">60</tspan></tspan></text></g><g class="tick" opacity="1" transform="translate(178.8944079975008,0)"><line stroke="#000" y2="3" fill="none"/><text fill="#000" y="6" dy="0.71em" class="bottomAxisTickLabels transformed-label"><tspan class="label-block"><tspan class="label-subblock">80</tspan></tspan></text></g><g class="tick" opacity="1" transform="translate(220.9437675726336,0)"><line stroke="#000" y2="3" fill="none"/><text fill="#000" y="6" dy="0.71em" class="bottomAxisTickLabels transformed-label"><tspan class="label-block"><tspan class="label-subblock">100</tspan></tspan></text></g></g><g class="left axis leftAxisLine" fill="none" text-anchor="end"><path class="domain" stroke="#000" d="M-6,140.83333333333334H0.5V0.5H-6" fill="none"/><g class="tick" opacity="1" transform="translate(0,125.82601113947993)"><line stroke="#000" x2="-3" fill="none"/><text fill="#000" x="-6" dy="0.32em" class="leftAxisTickLabels transformed-label"><tspan class="label-block"><tspan class="label-subblock">0.22</tspan></tspan></text></g><g class="tick" opacity="1" transform="translate(0,86.26645340003418)"><line stroke="#000" x2="-3" fill="none"/><text fill="#000" x="-6" dy="0.32em" class="leftAxisTickLabels transformed-label"><tspan class="label-block"><tspan class="label-subblock">0.24</tspan></tspan></text></g><g class="tick" opacity="1" transform="translate(0,46.70689566058837)"><line stroke="#000" x2="-3" fill="none"/><text fill="#000" x="-6" dy="0.32em" class="leftAxisTickLabels transformed-label"><tspan class="label-block"><tspan class="label-subblock">0.26</tspan></tspan></text></g><g class="tick" opacity="1" transform="translate(0,7.147337921142565)"><line stroke="#000" x2="-3" fill="none"/><text fill="#000" x="-6" dy="0.32em" class="leftAxisTickLabels transformed-label"><tspan class="label-block"><tspan class="label-subblock">0.28</tspan></tspan></text></g></g></g><g class="grid"><g class="vertical" transform="translate(0,140.33333333333334)" fill="none" font-size="10" font-family="sans-serif" text-anchor="middle"><g class="tick" opacity="1" transform="translate(10.696969696969699,0)"><line stroke="#000" y2="-140.33333333333334" fill="none"/></g><g class="tick" opacity="1" transform="translate(52.74632927210248,0)"><line stroke="#000" y2="-140.33333333333334" fill="none"/></g><g class="tick" opacity="1" transform="translate(94.79568884723525,0)"><line stroke="#000" y2="-140.33333333333334" fill="none"/></g><g class="tick" opacity="1" transform="translate(136.84504842236802,0)"><line stroke="#000" y2="-140.33333333333334" fill="none"/></g><g class="tick" opacity="1" transform="translate(178.8944079975008,0)"><line stroke="#000" y2="-140.33333333333334" fill="none"/></g><g class="tick" opacity="1" transform="translate(220.9437675726336,0)"><line stroke="#000" y2="-140.33333333333334" fill="none"/></g></g><g class="horizontal" fill="none" font-size="10" font-family="sans-serif" text-anchor="end"><g class="tick" opacity="1" transform="translate(0,125.82601113947993)"><line stroke="#000" x2="224.33333333333334" fill="none"/></g><g class="tick" opacity="1" transform="translate(0,86.26645340003418)"><line stroke="#000" x2="224.33333333333334" fill="none"/></g><g class="tick" opacity="1" transform="translate(0,46.70689566058837)"><line stroke="#000" x2="224.33333333333334" fill="none"/></g><g class="tick" opacity="1" transform="translate(0,7.147337921142565)"><line stroke="#000" x2="224.33333333333334" fill="none"/></g></g></g><defs><clipPath id="V2_sd--freehand-guides-clip" class="freehand-guides-clip"><rect x="0" y="0" width="224.33333333333334" height="140.33333333333334"/></clipPath></defs></g></g><text x="112.16666666666667" y="-1em" class="title transformed-label" text-anchor="middle"><tspan class="label-block"><tspan class="label-subblock">sd(V2|y)</tspan></tspan></text></g></g></g></g></svg>
