<svg xmlns="http://www.w3.org/2000/svg" class="lixoftchart NPC" width="863" height="635" style="font-family: &quot;Source Sans Pro&quot;, -apple-system, BlinkMacSystemFont, &quot;Segoe UI&quot;, Roboto, &quot;Helvetica Neue&quot;, Arial, sans-serif, &quot;Apple Color Emoji&quot;, &quot;Segoe UI Emoji&quot;, &quot;Segoe UI Symbol&quot;; font-weight: normal;"><style>svg {
--primary--1:rgba(21, 140, 186, 0.1);
--primary--2:rgba(21, 140, 186, 0.2);
--primary--3:rgba(21, 140, 186, 0.3);
--primary--4:rgba(21, 140, 186, 0.4);
--primary--5:rgba(21, 140, 186, 0.5);
--primary--6:rgba(21, 140, 186, 0.6);
--primary--7:rgba(21, 140, 186, 0.7);
--primary--8:rgba(21, 140, 186, 0.8);
--primary--9:rgba(21, 140, 186, 0.9);
--secondary--1:rgba(240, 240, 240, 0.1);
--secondary--2:rgba(240, 240, 240, 0.2);
--secondary--3:rgba(240, 240, 240, 0.3);
--secondary--4:rgba(240, 240, 240, 0.4);
--secondary--5:rgba(240, 240, 240, 0.5);
--secondary--6:rgba(240, 240, 240, 0.6);
--secondary--7:rgba(240, 240, 240, 0.7);
--secondary--8:rgba(240, 240, 240, 0.8);
--secondary--9:rgba(240, 240, 240, 0.9);
--success--1:rgba(40, 182, 44, 0.1);
--success--2:rgba(40, 182, 44, 0.2);
--success--3:rgba(40, 182, 44, 0.3);
--success--4:rgba(40, 182, 44, 0.4);
--success--5:rgba(40, 182, 44, 0.5);
--success--6:rgba(40, 182, 44, 0.6);
--success--7:rgba(40, 182, 44, 0.7);
--success--8:rgba(40, 182, 44, 0.8);
--success--9:rgba(40, 182, 44, 0.9);
--info--1:rgba(117, 202, 235, 0.1);
--info--2:rgba(117, 202, 235, 0.2);
--info--3:rgba(117, 202, 235, 0.3);
--info--4:rgba(117, 202, 235, 0.4);
--info--5:rgba(117, 202, 235, 0.5);
--info--6:rgba(117, 202, 235, 0.6);
--info--7:rgba(117, 202, 235, 0.7);
--info--8:rgba(117, 202, 235, 0.8);
--info--9:rgba(117, 202, 235, 0.9);
--warning--1:rgba(255, 133, 27, 0.1);
--warning--2:rgba(255, 133, 27, 0.2);
--warning--3:rgba(255, 133, 27, 0.3);
--warning--4:rgba(255, 133, 27, 0.4);
--warning--5:rgba(255, 133, 27, 0.5);
--warning--6:rgba(255, 133, 27, 0.6);
--warning--7:rgba(255, 133, 27, 0.7);
--warning--8:rgba(255, 133, 27, 0.8);
--warning--9:rgba(255, 133, 27, 0.9);
--danger--1:rgba(255, 65, 54, 0.1);
--danger--2:rgba(255, 65, 54, 0.2);
--danger--3:rgba(255, 65, 54, 0.3);
--danger--4:rgba(255, 65, 54, 0.4);
--danger--5:rgba(255, 65, 54, 0.5);
--danger--6:rgba(255, 65, 54, 0.6);
--danger--7:rgba(255, 65, 54, 0.7);
--danger--8:rgba(255, 65, 54, 0.8);
--danger--9:rgba(255, 65, 54, 0.9);
--light--1:rgba(246, 246, 246, 0.1);
--light--2:rgba(246, 246, 246, 0.2);
--light--3:rgba(246, 246, 246, 0.3);
--light--4:rgba(246, 246, 246, 0.4);
--light--5:rgba(246, 246, 246, 0.5);
--light--6:rgba(246, 246, 246, 0.6);
--light--7:rgba(246, 246, 246, 0.7);
--light--8:rgba(246, 246, 246, 0.8);
--light--9:rgba(246, 246, 246, 0.9);
--dark--1:rgba(85, 85, 85, 0.1);
--dark--2:rgba(85, 85, 85, 0.2);
--dark--3:rgba(85, 85, 85, 0.3);
--dark--4:rgba(85, 85, 85, 0.4);
--dark--5:rgba(85, 85, 85, 0.5);
--dark--6:rgba(85, 85, 85, 0.6);
--dark--7:rgba(85, 85, 85, 0.7);
--dark--8:rgba(85, 85, 85, 0.8);
--dark--9:rgba(85, 85, 85, 0.9);
--theme-scheme--1:#158CBA;
--theme-scheme--2:#3e82bf;
--theme-scheme--3:#6475bc;
--theme-scheme--4:#8566b0;
--theme-scheme--5:#a05599;
--theme-scheme--6:#b0447c;
--theme-scheme-lg--1:#158cba;
--theme-scheme-lg--2:#1dade5;
--theme-scheme-lg--3:#4abeeb;
--theme-scheme-lg--4:#78cef0;
--theme-scheme-lg--5:#b0447c;
--theme-scheme-lg--6:#c36495;
--theme-scheme-lg--7:#d189ae;
--theme-scheme-lg--8:#e0adc7;
--theme-scheme-lg--9:#618f35;
--theme-scheme-lg--10:#7ab443;
--theme-scheme-lg--11:#94c664;
--theme-scheme-lg--12:#aed38a;
--blue:#158CBA;
--indigo:#6610f2;
--purple:#6f42c1;
--pink:#e83e8c;
--red:#FF4136;
--orange:#fd7e14;
--yellow:#FF851B;
--green:#28B62C;
--teal:#20c997;
--cyan:#75CAEB;
--white:#fff;
--gray:#999;
--gray-dark:#333;
--primary:#158CBA;
--secondary:#f0f0f0;
--success:#28B62C;
--info:#75CAEB;
--warning:#FF851B;
--danger:#FF4136;
--light:#f6f6f6;
--dark:#555;
--breakpoint-xs:0;
--breakpoint-sm:576px;
--breakpoint-md:768px;
--breakpoint-lg:992px;
--breakpoint-xl:1200px;
--font-family-sans-serif:"Source Sans Pro", -apple-system, BlinkMacSystemFont, "Segoe UI", Roboto, "Helvetica Neue", Arial, sans-serif, "Apple Color Emoji", "Segoe UI Emoji", "Segoe UI Symbol";
--font-family-monospace:SFMono-Regular, Menlo, Monaco, Consolas, "Liberation Mono", "Courier New", monospace;
--mm-color-background:;
--graphical-mode-icon-display:none;

}
html, body { height: 100%; }
body { margin: 0px; overflow: hidden; }
.lixoftchart-container { display: flex; flex-direction: column; height: 100%; }
.lixoftchart { width: 100%; height: 100%; flex: 1 1 0%; }
.lixoftchart-header { height: 34px; }
.main { flex: 1 1 0%; height: 100%; width: 100%; }
.footer { margin: 0px; }
.checkinit-footer { max-height: 230px; overflow-y: auto; }
.page, .subpage { height: 100%; display: none; }
.page.active, .subpage.active { display: block; }
.axes, .grid { pointer-events: none; }
.axis path, .axis line { fill: none; shape-rendering: crispEdges; }
.tick { font-family: sans-serif; }
.line { fill: none; }
.tick line { stroke-width: 1px; }
.grid line { opacity: 0.2; }
.title { pointer-events: none; font-weight: 400; }
.axis-label { text-anchor: middle; }
.axis-label-unit { font-family: monospace; font-size: smaller; }
.label-subscript { baseline-shift: sub; font-size: 0.8em; }
.zoomable-content, .brushable-content { cursor: crosshair; }
rect.zoom { fill: rgb(221, 221, 221); stroke: steelblue; fill-opacity: 0.5; }
g.brush &gt; rect.selection { stroke-width: 0; }
.handle--custom { fill: rgb(122, 122, 122); fill-opacity: 1; stroke: rgb(122, 122, 122); stroke-width: 2px; display: inline !important; }
.log-filtered { display: none; }
.dot { stroke: none; }
.censObservations.highlighted:not(.lambdaz-observation), .censObservations[data--radius]:not(.lambdaz-observation) { fill: brown !important; }
.spline { fill: none; }
.regressionLine { fill: none; }
.convergence-line { fill: none; }
.percentile-line, .cdf { stroke-width: 1px; }
.bar { shape-rendering: crispEdges; }
.vertical-line, .horizontal-line { shape-rendering: crispEdges; }
.k1, .bound { shape-rendering: crispEdges; }
.outlier.dot { fill: none; }
.boxplot { font-style: normal; font-variant: normal; font-weight: normal; font-stretch: normal; font-size: 10px; line-height: normal; font-family: sans-serif; }
.box-element line, .box-element rect { stroke-opacity: 1; shape-rendering: crispEdges; }
.boxplot .outlier line { fill: none; }
.boxplot .box-underlay { fill: white; fill-opacity: 1; }
.boxplot .label { font-size: 12px; }
.arrow-marker { stroke-width: 0; font-size: 20px; fill: red; dominant-baseline: central; }
.layout-link { padding: 1px 5px !important; }
.sublayout-controls { min-height: 20px; transition: opacity 0.5s ease-in-out; background-color: transparent; opacity: 0.2; cursor: pointer; }
.pagination { transition: opacity 0.5s ease-in-out; }
.sublayout-controls .pagination { opacity: 0; }
.sublayout-controls:hover { transition: none; opacity: 0.9; }
.sublayout-controls:hover .pagination { transition: none; opacity: 1; }
.plot-grid, .subplot-grid { margin: 0px; min-width: 0px; }
.grid-cell { outline: rgb(221, 221, 221) solid 1px; cursor: text; position: absolute; }
.plot-cell { background-color: rgba(119, 33, 111, 0.298039); }
.matrix-diagonal-cell { background-color: rgb(174, 167, 159) !important; }
.plot-cell.selected { background-color: rgb(119, 33, 111); }
.plot-cell:hover, .plot-cell.hovered { background-color: rgb(243, 152, 20); }
.plot-cell.ui-selecting { background-color: rgb(233, 84, 32); }
.cells-selector { cursor: pointer; width: 0px; height: 0px; position: absolute; border: 10px solid rgba(119, 33, 111, 0.298039); }
.cells-selector.selected { border-color: rgb(119, 33, 111); }
.cells-selector.rows, .cells-selector.all { border-top-color: transparent !important; border-bottom-color: transparent !important; border-right-color: transparent !important; }
.cells-selector.cols { border-top-color: transparent !important; border-left-color: transparent !important; border-right-color: transparent !important; }
.cells-selector.all { transform: rotate(-45deg); }
.cells-selector:hover { border-color: rgb(243, 152, 20); }
.layout-grid, .sublayout-grid { padding: 0px; margin: 0px; min-width: 0px; background-color: transparent; border: none; box-shadow: none !important; }
.layout-grid-content { border-collapse: collapse; border: 1px solid rgb(221, 221, 221); }
.layout-cell { background-color: rgba(119, 33, 111, 0.298039); border: 1px solid rgb(221, 221, 221); min-width: 20px; width: 20px; height: 20px; cursor: pointer; }
.layout-cell.selected { background-color: rgb(119, 33, 111); }
.layout-cell.selecting { background-color: rgb(233, 84, 32); }
.layout-container { padding: 10px 15px; align-items: center; }
.layout-controls { display: flex; justify-content: space-between; align-items: center; }
.layout-controls &gt; .layout-controls-wrapper { display: flex; align-items: baseline; }
.layout-controls .btn { border: 0px; border-radius: 0px; white-space: nowrap; padding: 4px 8px !important; }
.layout-controls .btn.toggle-controls-btn { margin-left: 1rem !important; }
.pagination input { color: inherit; background: transparent; border: 0px; outline: none; }
.contrasted-chart-header-btn:not(:hover) { background: rgba(255, 255, 255, 0.2) !important; }
.message-banner { position: fixed; left: 0px; width: 100%; margin-bottom: 0px; z-index: 10; }
.message-banner.top { top: 0px; }
.message-banner.bottom { bottom: 0px; }
.legend { box-shadow: rgba(0, 0, 0, 0.2) 0px 8px 17px 0px, rgba(0, 0, 0, 0.188235) 0px 6px 20px 0px; z-index: 10; }
.legend:not(.no-move) { cursor: move !important; }
.legend-glyph:not(.aa) { shape-rendering: crispEdges; }
.legend-group-label { font-weight: bold; }
.ui-selectable-helper { z-index: 1100; }
.ui-selectable-helper.no-top { border-top: 0px; }
.ui-selectable-helper.no-right { border-right: 0px; }
.ui-selectable-helper.no-bottom { border-bottom: 0px; }
.ui-selectable-helper.no-left { border-left: 0px; }
.print-preview &gt; .modal-dialog { position: absolute; height: auto; bottom: 0px; top: 0px; left: 0px; right: 0px; }
.page-preview { border: 1px dashed rgb(51, 51, 51); margin: 0px auto; }
.page-preview.portrait { height: 60vh; width: 42.42vh; }
.page-preview.landscape { width: 60vw; height: 42.42vw; }
.tooltip-key::after { content: ": "; }
.brushed-out, .bar.brushed-out { fill: rgb(204, 204, 204) !important; }
.infowrapper { pointer-events: none; }
.information { overflow-y: overlay; overflow-x: hidden; padding: 0.5em; font-family: monospace; box-shadow: rgba(0, 0, 0, 0.2) 0px 8px 17px 0px, rgba(0, 0, 0, 0.188235) 0px 6px 20px 0px; display: inline-block; float: right; cursor: move; pointer-events: all; }
.information span { float: left; clear: both; }
.axis path, .axis line, .grid line{
stroke: #636363;
}

.tick text{
fill: #636363;
}

.axis path, .axis line{
stroke-width: 1px;
}

.bar-label{
fill: #000000;
}

.bar-label{
font-size: 10px;
}

.bin-value{
stroke: red;
}

.bin-value{
}

.bin-value{
stroke-width: 1px;
}

.bound{
stroke: red;
}

.bound{
stroke-width: 2px;
}

.bound.bounded{
stroke: limegreen;
}

.baseline{
stroke: #000000;
}

.baseline{
}

.baseline{
stroke-width: 1px;
}

.box-element rect{
fill: #8fbbd9;
}

.boxplot .outlier line{
stroke: #ff0000;
}

.boxplot .outlier line{
stroke-width: 1px;
}

.quartile{
stroke: #000000;
}

.quartile{
stroke-dasharray: 3, 2;
}

.quartile{
stroke-width: 1px;
}

.box-element line{
stroke: #000000;
}

.box-element line{
stroke-width: 1px;
}

.censEvents{
fill: #d44242;
}

.censEvents{
stroke: #d44242;
}

.censObservations{
fill: #d44242;
}
.censObsIntervals{stroke:rgb(212,66,66);stroke-opacity:0.498039;}

.censObsIntervals{
}

.censObsIntervals{
stroke-width: 5px;
}

.convergence-line{
stroke: #4682B4;
}

.cvIndicator-line{
stroke: #990099;
}

.dosingTimes{
stroke: #000000;
}

.dosingTimes{
stroke-dasharray: 8, 8;
}

.dosingTimes{
stroke-width: 2px;
}

line.empirical, path.empirical{
stroke: #4682B4;
}

.dot.empirical{
fill: #4682B4;
}

line.empirical, path.empirical{
}

line.empirical, path.empirical{
stroke-width: 2px;
}

.fisher_linearization&gt;.bar{
fill: #4682B4;
}

.fisher_stochasticApproximation&gt;.bar{
fill: #98abc5;
}

.focus &gt; line, .focus &gt; circle{
stroke: blue;
}

.lixoftchart{
background-color: #ffffff;
}

.sublayout-controls:hover{
background-color: #ffffff;
}

.bar:hover, .band-overlay:hover{
fill: orange !important;
}

g.bar, g.histogram{
fill: #4682B4;
}

g.bar, g.histogram{
stroke: #ffffff;
}

g.bar, g.histogram{
stroke-width: 1px;
}

.information{
background-color: #FFFFCC;
}

.information{
fill: #FFFFCC;
}

.information{
font-size: 12px;
}

.information{
color: #000000;
}

.k1{
stroke: red;
}

.k1{
stroke-width: 1px;
}

.axis-label.global{
fill: #000000;
}

.axis-label.global{
font-size: 14px;
}

.legend-frame{
fill: #ffffff;
}

.legend-frame{
stroke: #000000;
}

.legend-frame{
stroke-width: 0px;
}

.legend text{
fill: #000000;
}

.legend{
font-size: 12px;
}

.ll_importanceSampling&gt;.bar{
fill: #98abc5;
}

.ll_linearization&gt;.bar{
fill: #4682B4;
}

path.median, line.median{
stroke: #000000;
}

path.median, line.median{
stroke-dasharray: 5,3;
}

path.median, line.median{
stroke-width: 1px;
}

.observation{
fill: #4682B4;
}

.observation{
stroke: #4682B4;
}

.observation-line{
stroke-width: 1.5px;
}

.obsStatisticsValues{
font-size: 10px;
}

.outlier.area{
fill: #ff0000;
}

.outlier.dot{
stroke: #ff0000;
}

.outlier.dot{
stroke-width: 1px;
}
.prediction-interval.median{fill:rgb(255,0,0);fill-opacity:0.2;}
.prediction-interval.low, .prediction-interval.up{fill:rgb(0,128,255);fill-opacity:0.298039;}
.plot-background{fill:rgb(250,250,255);fill-opacity:0.6;}
.bar{stroke:rgb(250,250,255);stroke-opacity:0.6;}

.regressionLine{
stroke: #bd2671;
}

.regressionLine{
}

.regressionLine{
stroke-width: 1.5px;
}

.spline{
stroke: #eba213;
}

.spline{
}

.spline{
stroke-width: 1.5px;
}

.axis-label.sublabel, .matrix-diagonal-label{
fill: #000000;
}

.axis-label.sublabel, .matrix-diagonal-label{
font-size: 12px;
}

line.theoretical, path.theoretical{
stroke: #000000;
}

.dot.theoretical{
fill: #000000;
}

line.theoretical, path.theoretical{
stroke-dasharray: 5,3;
}

line.theoretical, path.theoretical{
stroke-width: 1.5px;
}

.tick{
font-size: 10px;
}

.title{
fill: #000000;
}

.title{
font-size: 14px;
}

.axis-label-unit{
fill: #999;
}

.userGuide-dot{
fill: red;
}

.userGuide-line{
stroke: red;
}

.userGuide-dot{
r: 3;
}

.userGuide-line{
}

.userGuide-line{
stroke-width: 1px;
}

.brushed-out, .brushed-out.bar{
fill: #ccc !important;
}
.not-areaOutliers{display:none;}
.not-censObservations{display:none;}
.not-empirical{display:none;}
.not-grid{display:none;}
.hasCensored,.__hasCensored{display:none;}
.hasIOV,.__hasIOV{display:none;}
.not-hasMean{display:none;}
.not-hasMode{display:none;}
.not-isIndivEstimMean{display:none;}
.legend,.__legend{display:none;}
.linkedZoom,.__linkedZoom{display:none;}
.not-observations{display:none;}
.not-piPercentile{display:none;}
.splitted,.__splitted{display:none;}
.theoretical,.__theoretical{display:none;}
.xEqualDomains,.__xEqualDomains{display:none;}
.xLog,.__xLog{display:none;}
.not-yEqualDomains{display:none;}
.yLog,.__yLog{display:none;}
.not-bottomAxisLine{display:none;}
.not-bottomAxisTickLabels{display:none;}
.not-leftAxisLine{display:none;}
.not-leftAxisTickLabels{display:none;}
.rightAxisLine,.__rightAxisLine{display:none;}
.not-rightAxisTickLabels{display:none;}
.topAxisLine,.__topAxisLine{display:none;}
.not-topAxisTickLabels{display:none;}
.freehand-guides-layer,.__freehand-guides-layer{display:none;}
 
      .cdf.theoritical.line {
        stroke-dasharray: 10, 5;
      }
    </style><g class="lixoftchart-scaler"><g class="lixoftchart-translator" transform="translate(50,40)"><g class="x axis" transform="translate(0, 561)"><text class="x axis-label global" x="386.5" y="-10" style="text-anchor: middle;"><tspan class="axis-label-text">y1</tspan><tspan class="axis-label-unit"/></text></g><g class="y axis"><text class="y axis-label global" transform="rotate(-90)" x="-280.5" y="-30" style="text-anchor: middle;"><tspan class="axis-label-text">Cumulative distribution function</tspan><tspan class="axis-label-unit"/></text></g><g class="page plot-page active" data-index="0"><g class="plot-container page-element" width="773" height="521" data-index="0" data-col="0" data-row="0" transform="translate(0,0)"><g class="subpage plot-page active" data-index="0"><g class="plot page-element" width="773" height="521" id="All" data-index="0" transform="translate(0,0)"><rect width="773" height="521" class="plot-background"/><svg class="plot-content zoomable-content" width="773" height="521"><g class="predictionInterval"><g class="low piPercentile"><polygon class="prediction-interval-mask autoscale low prediction-interval" points="35.13636363636364,521 42.2346189164371,515.0455198537095 49.332874196510566,509.4222222222222 56.43112947658401,503.5357677902622 63.52938475665748,497.84444444444443 70.62764003673094,491.39772727272725 77.7258953168044,480.7004273504274 84.82415059687787,471.2837462082913 91.92240587695133,463.1111111111111 99.02066115702479,452.67009077878646 106.11891643709826,441.9807886754297 113.21717171717172,430.3913043478261 120.31542699724517,417.3725274725275 127.41368227731864,407.12482040229884 134.51193755739212,396.54174901185775 141.61019283746555,385.8176718092567 148.70844811753904,375.94121447028425 155.80670339761252,361.7912549407115 162.90495867768595,351.1086956521739 170.0032139577594,337.79120879120876 177.1014692378329,328.1383732291158 184.19972451790636,314.9566828520317 191.29797979797985,306.13746803069057 198.3962350780533,298.55056179775283 205.49449035812674,289.44444444444446 212.59274563820023,280.76361279170266 219.6910009182737,272.0777777777778 226.78925619834712,261.93131868131877 233.8875114784206,252.00443105281818 240.98576675849407,243.51086956521738 248.0840220385675,237.0813131313132 255.18227731864098,227.7740258187904 262.28053259871444,220.31576541274825 269.3787878787879,212.4857642357643 276.47704315886136,206.1098901098901 283.5752984389348,198.20652173913044 290.6735537190082,191.33275862068967 297.77180899908177,183.53409090909093 304.87006427915526,177.54857642357643 311.9683195592287,170.76114335103108 319.0665748393021,166.032967032967 326.16483011937555,160.30769230769232 333.26308539944904,154.58241758241758 340.36134067952247,150.11187739463605 347.45959595959596,142.61138861138863 354.55785123966945,137.73563218390802 361.6561065197429,132.44578544061307 368.75436179981637,127.22093023255815 375.8526170798898,121.7514184397163 382.9508723599633,117.64516129032262 390.0491276400367,112.87475296442688 397.1473829201102,107.08300395256924 404.2456382001837,102.98837209302326 411.34389348025707,96.04391554222894 418.44214876033055,91.23824431382576 425.54040404040404,86.83333333333331 432.63865932047753,81.95505617977528 439.73691460055096,79.48248081841433 446.83516988062445,74.84206349206352 453.9334251606979,71.86206896551727 461.0316804407713,66.93267066766697 468.1299357208448,64.03551810237207 475.2281910009183,58.539325842696655 482.3264462809918,56.63043478260869 489.42470156106526,52.099999999999966 496.52295684113864,48.465116279069775 503.6212121212121,46.83146067415731 510.71946740128556,45.304347826086996 517.8177226813591,41.44318181818181 524.9159779614325,39.641304347826065 532.014233241506,35.32316138917264 539.1124885215794,33.97826086956519 546.2107438016528,30.2947937795808 553.3089990817264,28.944444444444457 560.4072543617998,27.861759322809462 567.5055096418732,23.681818181818187 574.6037649219468,23.15555555555551 581.7020202020202,17.761363636363626 588.8002754820936,16.989130434782624 595.8985307621671,14.443241551940048 602.9967860422405,11.707865168539342 610.0950413223139,11.577777777777783 617.1932966023875,11.326086956521749 624.2915518824609,11.204301075268802 631.3898071625343,5.920454545454504 638.4880624426079,5.788888888888891 645.5863177226813,5.725274725274744 652.6845730027547,5.6630434782608745 659.7828282828283,5.572351864561938 666.8810835629016,0 673.9793388429752,0 681.0775941230486,0 688.175849403122,0 695.2741046831954,0 702.372359963269,0 709.4706152433425,0 716.5688705234159,0 723.6671258034894,0 730.7653810835628,0 737.8636363636363,0 737.8636363636363,0 730.7653810835628,5.954480146290507 723.6671258034894,11.388318203535619 716.5688705234159,11.840909090909065 709.4706152433425,17.082477305303428 702.372359963269,17.965517241379303 695.2741046831954,23.15555555555551 688.175849403122,23.954022988505756 681.0775941230486,28.78540903540903 673.9793388429752,29.60227272727269 666.8810835629016,33.43411118737134 659.7828282828283,34.92846441947569 652.6845730027547,39.006463051933224 645.5863177226813,40.52222222222218 638.4880624426079,42.65642954856361 631.3898071625343,45.06077606358116 624.2915518824609,49.32717086834731 617.1932966023875,52.10643289294978 610.0950413223139,56.325970079476406 602.9967860422405,58.539325842696655 595.8985307621671,60.233226410050804 588.8002754820936,64.75912921348316 581.7020202020202,68.7032967032967 574.6037649219468,73.19044908285895 567.5055096418732,75.25555555555559 560.4072543617998,77.59574468085106 553.3089990817264,81.04444444444442 546.2107438016528,83.48868916605528 539.1124885215794,86.3562271062271 532.014233241506,90.87209302325579 524.9159779614325,93.66292134831463 517.8177226813591,97.32967032967031 510.71946740128556,101.86969015492258 503.6212121212121,105.37078651685397 496.52295684113864,108.7802197802198 489.42470156106526,114.14355185044838 482.3264462809918,119.34701399300354 475.2281910009183,121.7514184397163 468.1299357208448,127.47872340425528 461.0316804407713,134.4516129032258 453.9334251606979,140.49438202247188 446.83516988062445,144.4143026004728 439.73691460055096,148.43425324675326 432.63865932047753,153.4169960474308 425.54040404040404,158.0561797752809 418.44214876033055,161.88927203065134 411.34389348025707,167.67816091954023 404.2456382001837,173.66666666666669 397.1473829201102,177.54857642357643 390.0491276400367,184.20252932551324 382.9508723599633,190.24393939393946 375.8526170798898,195.7580882352941 368.75436179981637,203.73938030984505 361.6561065197429,209.56515492253874 354.55785123966945,218.5749207188161 347.45959595959596,221.6384201516263 340.36134067952247,232.2247257053292 333.26308539944904,237.3444444444445 326.16483011937555,244.33103448275864 319.0665748393021,252.00443105281818 311.9683195592287,257.6681436842727 304.87006427915526,266.4204545454545 297.77180899908177,273.57704795204796 290.6735537190082,281.45977011494256 283.5752984389348,292.6966292134831 276.47704315886136,299.42528735632186 269.3787878787879,310.2584269662922 262.28053259871444,317.88984674329504 255.18227731864098,325.625 248.0840220385675,332.3095627776479 240.98576675849407,342.6238331560912 233.8875114784206,349.3416443850267 226.78925619834712,362.9438202247191 219.6910009182737,371.28735632183907 212.59274563820023,380.725927268334 205.49449035812674,393.71175710594315 198.3962350780533,401.2298850574713 191.29797979797985,411.0111111111111 184.19972451790636,420.91770939734425 177.1014692378329,429.3956043956044 170.0032139577594,439.5002496878901 162.90495867768595,450.75280898876406 155.80670339761252,456.60674157303373 148.70844811753904,465.1024296675192 141.61019283746555,473.0919540229885 134.51193755739212,480.25012484394506 127.41368227731864,489.2269915883226 120.31542699724517,493.28723404255317 113.21717171717172,503.438202247191 106.11891643709826,509.09103970741904 99.02066115702479,509.67391304347825 91.92240587695133,515.2429181929182 84.82415059687787,521 77.7258953168044,521 70.62764003673094,521 63.52938475665748,521 56.43112947658401,521 49.332874196510566,521 42.2346189164371,521 35.13636363636364,521"/></g></g><g class="distribution-functions"><path data-legend="Empirical distribution" class="empirical line autoscale cdf" d="M35.13636363636364,515.6288659793814L42.2346189164371,510.25773195876286L49.332874196510566,510.25773195876286L56.43112947658401,510.25773195876286L63.52938475665748,504.88659793814435L70.62764003673094,504.88659793814435L77.7258953168044,499.5154639175258L84.82415059687787,499.5154639175258L91.92240587695133,488.77319587628864L99.02066115702479,483.4020618556701L106.11891643709826,478.03092783505156L113.21717171717172,472.659793814433L120.31542699724517,467.2886597938144L127.41368227731864,461.91752577319585L134.51193755739212,456.54639175257734L141.61019283746555,440.4329896907216L148.70844811753904,424.319587628866L155.80670339761252,424.319587628866L162.90495867768595,418.9484536082474L170.0032139577594,397.4639175257732L177.1014692378329,397.4639175257732L184.19972451790636,392.09278350515467L191.29797979797985,365.2371134020618L198.3962350780533,349.1237113402062L205.49449035812674,349.1237113402062L212.59274563820023,343.75257731958766L219.6910009182737,333.0103092783505L226.78925619834712,316.8969072164948L233.8875114784206,311.52577319587624L240.98576675849407,295.41237113402065L248.0840220385675,295.41237113402065L255.18227731864098,290.0412371134021L262.28053259871444,284.6701030927835L269.3787878787879,273.92783505154637L276.47704315886136,268.5567010309278L283.5752984389348,257.8144329896907L290.6735537190082,252.4432989690722L297.77180899908177,247.07216494845358L304.87006427915526,220.21649484536084L311.9683195592287,209.4742268041237L319.0665748393021,193.36082474226805L326.16483011937555,193.36082474226805L333.26308539944904,187.98969072164954L340.36134067952247,171.87628865979383L347.45959595959596,161.1340206185567L354.55785123966945,150.39175257731955L361.6561065197429,145.02061855670104L368.75436179981637,145.02061855670104L375.8526170798898,145.02061855670104L382.9508723599633,145.02061855670104L390.0491276400367,139.64948453608253L397.1473829201102,134.2783505154639L404.2456382001837,134.2783505154639L411.34389348025707,123.53608247422682L418.44214876033055,118.16494845360825L425.54040404040404,112.79381443298968L432.63865932047753,112.79381443298968L439.73691460055096,112.79381443298968L446.83516988062445,107.42268041237116L453.9334251606979,102.05154639175254L461.0316804407713,102.05154639175254L468.1299357208448,96.68041237113403L475.2281910009183,91.30927835051551L482.3264462809918,91.30927835051551L489.42470156106526,80.56701030927837L496.52295684113864,75.1958762886598L503.6212121212121,69.82474226804123L510.71946740128556,64.45360824742266L517.8177226813591,64.45360824742266L524.9159779614325,64.45360824742266L532.014233241506,59.08247422680415L539.1124885215794,42.9690721649485L546.2107438016528,42.9690721649485L553.3089990817264,42.9690721649485L560.4072543617998,32.22680412371136L567.5055096418732,32.22680412371136L574.6037649219468,32.22680412371136L581.7020202020202,32.22680412371136L588.8002754820936,26.85567010309279L595.8985307621671,26.85567010309279L602.9967860422405,21.48453608247422L610.0950413223139,21.48453608247422L617.1932966023875,21.48453608247422L624.2915518824609,16.113402061855652L631.3898071625343,16.113402061855652L638.4880624426079,16.113402061855652L645.5863177226813,16.113402061855652L652.6845730027547,16.113402061855652L659.7828282828283,16.113402061855652L666.8810835629016,16.113402061855652L673.9793388429752,10.74226804123714L681.0775941230486,10.74226804123714L688.175849403122,10.74226804123714L695.2741046831954,10.74226804123714L702.372359963269,10.74226804123714L709.4706152433425,10.74226804123714L716.5688705234159,5.37113402061857L723.6671258034894,5.37113402061857L730.7653810835628,5.37113402061857L737.8636363636363,0" data-legend-class="empirical" fill="none"/></g><g class="userGuides"/></svg><g class="axes"><g class="bottom axis bottomAxisLine" transform="translate(0,521)" fill="none" text-anchor="middle"><path class="domain" stroke="#000" d="M0.5,6V0.5H773.5V6" fill="none"/><g class="tick" opacity="1" transform="translate(13.250073302869415,0)"><line stroke="#000" y2="3" fill="none"/><text fill="#000" y="6" dy="0.71em" class="bottomAxisTickLabels transformed-label"><tspan class="label-block"><tspan class="label-subblock">0</tspan></tspan></text></g><g class="tick" opacity="1" transform="translate(100.4241010812737,0)"><line stroke="#000" y2="3" fill="none"/><text fill="#000" y="6" dy="0.71em" class="bottomAxisTickLabels transformed-label"><tspan class="label-block"><tspan class="label-subblock">5</tspan></tspan></text></g><g class="tick" opacity="1" transform="translate(187.598128859678,0)"><line stroke="#000" y2="3" fill="none"/><text fill="#000" y="6" dy="0.71em" class="bottomAxisTickLabels transformed-label"><tspan class="label-block"><tspan class="label-subblock">10</tspan></tspan></text></g><g class="tick" opacity="1" transform="translate(274.77215663808227,0)"><line stroke="#000" y2="3" fill="none"/><text fill="#000" y="6" dy="0.71em" class="bottomAxisTickLabels transformed-label"><tspan class="label-block"><tspan class="label-subblock">15</tspan></tspan></text></g><g class="tick" opacity="1" transform="translate(361.9461844164866,0)"><line stroke="#000" y2="3" fill="none"/><text fill="#000" y="6" dy="0.71em" class="bottomAxisTickLabels transformed-label"><tspan class="label-block"><tspan class="label-subblock">20</tspan></tspan></text></g><g class="tick" opacity="1" transform="translate(449.1202121948909,0)"><line stroke="#000" y2="3" fill="none"/><text fill="#000" y="6" dy="0.71em" class="bottomAxisTickLabels transformed-label"><tspan class="label-block"><tspan class="label-subblock">25</tspan></tspan></text></g><g class="tick" opacity="1" transform="translate(536.2942399732951,0)"><line stroke="#000" y2="3" fill="none"/><text fill="#000" y="6" dy="0.71em" class="bottomAxisTickLabels transformed-label"><tspan class="label-block"><tspan class="label-subblock">30</tspan></tspan></text></g><g class="tick" opacity="1" transform="translate(623.4682677516994,0)"><line stroke="#000" y2="3" fill="none"/><text fill="#000" y="6" dy="0.71em" class="bottomAxisTickLabels transformed-label"><tspan class="label-block"><tspan class="label-subblock">35</tspan></tspan></text></g><g class="tick" opacity="1" transform="translate(710.6422955301036,0)"><line stroke="#000" y2="3" fill="none"/><text fill="#000" y="6" dy="0.71em" class="bottomAxisTickLabels transformed-label"><tspan class="label-block"><tspan class="label-subblock">40</tspan></tspan></text></g></g><g class="left axis leftAxisLine" fill="none" text-anchor="end"><path class="domain" stroke="#000" d="M-6,521.5H0.5V0.5H-6" fill="none"/><g class="tick" opacity="1" transform="translate(0,521.5)"><line stroke="#000" x2="-3" fill="none"/><text fill="#000" x="-6" dy="0.32em" class="leftAxisTickLabels transformed-label"><tspan class="label-block"><tspan class="label-subblock">0</tspan></tspan></text></g><g class="tick" opacity="1" transform="translate(0,469.4)"><line stroke="#000" x2="-3" fill="none"/><text fill="#000" x="-6" dy="0.32em" class="leftAxisTickLabels transformed-label"><tspan class="label-block"><tspan class="label-subblock">0.1</tspan></tspan></text></g><g class="tick" opacity="1" transform="translate(0,417.3)"><line stroke="#000" x2="-3" fill="none"/><text fill="#000" x="-6" dy="0.32em" class="leftAxisTickLabels transformed-label"><tspan class="label-block"><tspan class="label-subblock">0.2</tspan></tspan></text></g><g class="tick" opacity="1" transform="translate(0,365.20000000000005)"><line stroke="#000" x2="-3" fill="none"/><text fill="#000" x="-6" dy="0.32em" class="leftAxisTickLabels transformed-label"><tspan class="label-block"><tspan class="label-subblock">0.3</tspan></tspan></text></g><g class="tick" opacity="1" transform="translate(0,313.1)"><line stroke="#000" x2="-3" fill="none"/><text fill="#000" x="-6" dy="0.32em" class="leftAxisTickLabels transformed-label"><tspan class="label-block"><tspan class="label-subblock">0.4</tspan></tspan></text></g><g class="tick" opacity="1" transform="translate(0,261)"><line stroke="#000" x2="-3" fill="none"/><text fill="#000" x="-6" dy="0.32em" class="leftAxisTickLabels transformed-label"><tspan class="label-block"><tspan class="label-subblock">0.5</tspan></tspan></text></g><g class="tick" opacity="1" transform="translate(0,208.90000000000003)"><line stroke="#000" x2="-3" fill="none"/><text fill="#000" x="-6" dy="0.32em" class="leftAxisTickLabels transformed-label"><tspan class="label-block"><tspan class="label-subblock">0.6</tspan></tspan></text></g><g class="tick" opacity="1" transform="translate(0,156.8)"><line stroke="#000" x2="-3" fill="none"/><text fill="#000" x="-6" dy="0.32em" class="leftAxisTickLabels transformed-label"><tspan class="label-block"><tspan class="label-subblock">0.7</tspan></tspan></text></g><g class="tick" opacity="1" transform="translate(0,104.69999999999999)"><line stroke="#000" x2="-3" fill="none"/><text fill="#000" x="-6" dy="0.32em" class="leftAxisTickLabels transformed-label"><tspan class="label-block"><tspan class="label-subblock">0.8</tspan></tspan></text></g><g class="tick" opacity="1" transform="translate(0,52.599999999999966)"><line stroke="#000" x2="-3" fill="none"/><text fill="#000" x="-6" dy="0.32em" class="leftAxisTickLabels transformed-label"><tspan class="label-block"><tspan class="label-subblock">0.9</tspan></tspan></text></g><g class="tick" opacity="1" transform="translate(0,0.5)"><line stroke="#000" x2="-3" fill="none"/><text fill="#000" x="-6" dy="0.32em" class="leftAxisTickLabels transformed-label"><tspan class="label-block"><tspan class="label-subblock">1</tspan></tspan></text></g></g></g><g class="grid"><g class="vertical" transform="translate(0,521)" fill="none" font-size="10" font-family="sans-serif" text-anchor="middle"><g class="tick" opacity="1" transform="translate(13.250073302869415,0)"><line stroke="#000" y2="-521" fill="none"/></g><g class="tick" opacity="1" transform="translate(100.4241010812737,0)"><line stroke="#000" y2="-521" fill="none"/></g><g class="tick" opacity="1" transform="translate(187.598128859678,0)"><line stroke="#000" y2="-521" fill="none"/></g><g class="tick" opacity="1" transform="translate(274.77215663808227,0)"><line stroke="#000" y2="-521" fill="none"/></g><g class="tick" opacity="1" transform="translate(361.9461844164866,0)"><line stroke="#000" y2="-521" fill="none"/></g><g class="tick" opacity="1" transform="translate(449.1202121948909,0)"><line stroke="#000" y2="-521" fill="none"/></g><g class="tick" opacity="1" transform="translate(536.2942399732951,0)"><line stroke="#000" y2="-521" fill="none"/></g><g class="tick" opacity="1" transform="translate(623.4682677516994,0)"><line stroke="#000" y2="-521" fill="none"/></g><g class="tick" opacity="1" transform="translate(710.6422955301036,0)"><line stroke="#000" y2="-521" fill="none"/></g></g><g class="horizontal" fill="none" font-size="10" font-family="sans-serif" text-anchor="end"><g class="tick" opacity="1" transform="translate(0,521.5)"><line stroke="#000" x2="773" fill="none"/></g><g class="tick" opacity="1" transform="translate(0,469.4)"><line stroke="#000" x2="773" fill="none"/></g><g class="tick" opacity="1" transform="translate(0,417.3)"><line stroke="#000" x2="773" fill="none"/></g><g class="tick" opacity="1" transform="translate(0,365.20000000000005)"><line stroke="#000" x2="773" fill="none"/></g><g class="tick" opacity="1" transform="translate(0,313.1)"><line stroke="#000" x2="773" fill="none"/></g><g class="tick" opacity="1" transform="translate(0,261)"><line stroke="#000" x2="773" fill="none"/></g><g class="tick" opacity="1" transform="translate(0,208.90000000000003)"><line stroke="#000" x2="773" fill="none"/></g><g class="tick" opacity="1" transform="translate(0,156.8)"><line stroke="#000" x2="773" fill="none"/></g><g class="tick" opacity="1" transform="translate(0,104.69999999999999)"><line stroke="#000" x2="773" fill="none"/></g><g class="tick" opacity="1" transform="translate(0,52.599999999999966)"><line stroke="#000" x2="773" fill="none"/></g><g class="tick" opacity="1" transform="translate(0,0.5)"><line stroke="#000" x2="773" fill="none"/></g></g></g><defs><g id="All-pi-low"><polygon class="prediction-interval autoscale" points="35.13636363636364,521 42.2346189164371,515.0455198537095 49.332874196510566,509.4222222222222 56.43112947658401,503.5357677902622 63.52938475665748,497.84444444444443 70.62764003673094,491.39772727272725 77.7258953168044,480.7004273504274 84.82415059687787,471.2837462082913 91.92240587695133,463.1111111111111 99.02066115702479,452.67009077878646 106.11891643709826,441.9807886754297 113.21717171717172,430.3913043478261 120.31542699724517,417.3725274725275 127.41368227731864,407.12482040229884 134.51193755739212,396.54174901185775 141.61019283746555,385.8176718092567 148.70844811753904,375.94121447028425 155.80670339761252,361.7912549407115 162.90495867768595,351.1086956521739 170.0032139577594,337.79120879120876 177.1014692378329,328.1383732291158 184.19972451790636,314.9566828520317 191.29797979797985,306.13746803069057 198.3962350780533,298.55056179775283 205.49449035812674,289.44444444444446 212.59274563820023,280.76361279170266 219.6910009182737,272.0777777777778 226.78925619834712,261.93131868131877 233.8875114784206,252.00443105281818 240.98576675849407,243.51086956521738 248.0840220385675,237.0813131313132 255.18227731864098,227.7740258187904 262.28053259871444,220.31576541274825 269.3787878787879,212.4857642357643 276.47704315886136,206.1098901098901 283.5752984389348,198.20652173913044 290.6735537190082,191.33275862068967 297.77180899908177,183.53409090909093 304.87006427915526,177.54857642357643 311.9683195592287,170.76114335103108 319.0665748393021,166.032967032967 326.16483011937555,160.30769230769232 333.26308539944904,154.58241758241758 340.36134067952247,150.11187739463605 347.45959595959596,142.61138861138863 354.55785123966945,137.73563218390802 361.6561065197429,132.44578544061307 368.75436179981637,127.22093023255815 375.8526170798898,121.7514184397163 382.9508723599633,117.64516129032262 390.0491276400367,112.87475296442688 397.1473829201102,107.08300395256924 404.2456382001837,102.98837209302326 411.34389348025707,96.04391554222894 418.44214876033055,91.23824431382576 425.54040404040404,86.83333333333331 432.63865932047753,81.95505617977528 439.73691460055096,79.48248081841433 446.83516988062445,74.84206349206352 453.9334251606979,71.86206896551727 461.0316804407713,66.93267066766697 468.1299357208448,64.03551810237207 475.2281910009183,58.539325842696655 482.3264462809918,56.63043478260869 489.42470156106526,52.099999999999966 496.52295684113864,48.465116279069775 503.6212121212121,46.83146067415731 510.71946740128556,45.304347826086996 517.8177226813591,41.44318181818181 524.9159779614325,39.641304347826065 532.014233241506,35.32316138917264 539.1124885215794,33.97826086956519 546.2107438016528,30.2947937795808 553.3089990817264,28.944444444444457 560.4072543617998,27.861759322809462 567.5055096418732,23.681818181818187 574.6037649219468,23.15555555555551 581.7020202020202,17.761363636363626 588.8002754820936,16.989130434782624 595.8985307621671,14.443241551940048 602.9967860422405,11.707865168539342 610.0950413223139,11.577777777777783 617.1932966023875,11.326086956521749 624.2915518824609,11.204301075268802 631.3898071625343,5.920454545454504 638.4880624426079,5.788888888888891 645.5863177226813,5.725274725274744 652.6845730027547,5.6630434782608745 659.7828282828283,5.572351864561938 666.8810835629016,0 673.9793388429752,0 681.0775941230486,0 688.175849403122,0 695.2741046831954,0 702.372359963269,0 709.4706152433425,0 716.5688705234159,0 723.6671258034894,0 730.7653810835628,0 737.8636363636363,0 737.8636363636363,0 730.7653810835628,5.954480146290507 723.6671258034894,11.388318203535619 716.5688705234159,11.840909090909065 709.4706152433425,17.082477305303428 702.372359963269,17.965517241379303 695.2741046831954,23.15555555555551 688.175849403122,23.954022988505756 681.0775941230486,28.78540903540903 673.9793388429752,29.60227272727269 666.8810835629016,33.43411118737134 659.7828282828283,34.92846441947569 652.6845730027547,39.006463051933224 645.5863177226813,40.52222222222218 638.4880624426079,42.65642954856361 631.3898071625343,45.06077606358116 624.2915518824609,49.32717086834731 617.1932966023875,52.10643289294978 610.0950413223139,56.325970079476406 602.9967860422405,58.539325842696655 595.8985307621671,60.233226410050804 588.8002754820936,64.75912921348316 581.7020202020202,68.7032967032967 574.6037649219468,73.19044908285895 567.5055096418732,75.25555555555559 560.4072543617998,77.59574468085106 553.3089990817264,81.04444444444442 546.2107438016528,83.48868916605528 539.1124885215794,86.3562271062271 532.014233241506,90.87209302325579 524.9159779614325,93.66292134831463 517.8177226813591,97.32967032967031 510.71946740128556,101.86969015492258 503.6212121212121,105.37078651685397 496.52295684113864,108.7802197802198 489.42470156106526,114.14355185044838 482.3264462809918,119.34701399300354 475.2281910009183,121.7514184397163 468.1299357208448,127.47872340425528 461.0316804407713,134.4516129032258 453.9334251606979,140.49438202247188 446.83516988062445,144.4143026004728 439.73691460055096,148.43425324675326 432.63865932047753,153.4169960474308 425.54040404040404,158.0561797752809 418.44214876033055,161.88927203065134 411.34389348025707,167.67816091954023 404.2456382001837,173.66666666666669 397.1473829201102,177.54857642357643 390.0491276400367,184.20252932551324 382.9508723599633,190.24393939393946 375.8526170798898,195.7580882352941 368.75436179981637,203.73938030984505 361.6561065197429,209.56515492253874 354.55785123966945,218.5749207188161 347.45959595959596,221.6384201516263 340.36134067952247,232.2247257053292 333.26308539944904,237.3444444444445 326.16483011937555,244.33103448275864 319.0665748393021,252.00443105281818 311.9683195592287,257.6681436842727 304.87006427915526,266.4204545454545 297.77180899908177,273.57704795204796 290.6735537190082,281.45977011494256 283.5752984389348,292.6966292134831 276.47704315886136,299.42528735632186 269.3787878787879,310.2584269662922 262.28053259871444,317.88984674329504 255.18227731864098,325.625 248.0840220385675,332.3095627776479 240.98576675849407,342.6238331560912 233.8875114784206,349.3416443850267 226.78925619834712,362.9438202247191 219.6910009182737,371.28735632183907 212.59274563820023,380.725927268334 205.49449035812674,393.71175710594315 198.3962350780533,401.2298850574713 191.29797979797985,411.0111111111111 184.19972451790636,420.91770939734425 177.1014692378329,429.3956043956044 170.0032139577594,439.5002496878901 162.90495867768595,450.75280898876406 155.80670339761252,456.60674157303373 148.70844811753904,465.1024296675192 141.61019283746555,473.0919540229885 134.51193755739212,480.25012484394506 127.41368227731864,489.2269915883226 120.31542699724517,493.28723404255317 113.21717171717172,503.438202247191 106.11891643709826,509.09103970741904 99.02066115702479,509.67391304347825 91.92240587695133,515.2429181929182 84.82415059687787,521 77.7258953168044,521 70.62764003673094,521 63.52938475665748,521 56.43112947658401,521 49.332874196510566,521 42.2346189164371,521 35.13636363636364,521"/></g><g id="All-pi-low-maskdata"/><mask id="All-pi-low-mask" class="prediction-interval-mask"><rect x="0" y="0" width="100%" height="100%" fill="white"/><use xmlns:xlink="http://www.w3.org/1999/xlink" xlink:href="#All-pi-low-maskdata" fill="black"/></mask><clipPath id="All--freehand-guides-clip" class="freehand-guides-clip"><rect x="0" y="0" width="773" height="521"/></clipPath></defs></g></g><text x="386.5" y="-1em" class="title transformed-label" text-anchor="middle"><tspan class="label-block"/></text></g></g></g></g></svg>
