<svg xmlns="http://www.w3.org/2000/svg" class="lixoftchart NPC" width="720" height="669" style="font-family: &quot;Source Sans Pro&quot;, -apple-system, BlinkMacSystemFont, &quot;Segoe UI&quot;, Roboto, &quot;Helvetica Neue&quot;, Arial, sans-serif, &quot;Apple Color Emoji&quot;, &quot;Segoe UI Emoji&quot;, &quot;Segoe UI Symbol&quot;; font-weight: normal;"><style>svg {
--primary--1:rgba(21, 140, 186, 0.1);
--primary--2:rgba(21, 140, 186, 0.2);
--primary--3:rgba(21, 140, 186, 0.3);
--primary--4:rgba(21, 140, 186, 0.4);
--primary--5:rgba(21, 140, 186, 0.5);
--primary--6:rgba(21, 140, 186, 0.6);
--primary--7:rgba(21, 140, 186, 0.7);
--primary--8:rgba(21, 140, 186, 0.8);
--primary--9:rgba(21, 140, 186, 0.9);
--secondary--1:rgba(240, 240, 240, 0.1);
--secondary--2:rgba(240, 240, 240, 0.2);
--secondary--3:rgba(240, 240, 240, 0.3);
--secondary--4:rgba(240, 240, 240, 0.4);
--secondary--5:rgba(240, 240, 240, 0.5);
--secondary--6:rgba(240, 240, 240, 0.6);
--secondary--7:rgba(240, 240, 240, 0.7);
--secondary--8:rgba(240, 240, 240, 0.8);
--secondary--9:rgba(240, 240, 240, 0.9);
--success--1:rgba(40, 182, 44, 0.1);
--success--2:rgba(40, 182, 44, 0.2);
--success--3:rgba(40, 182, 44, 0.3);
--success--4:rgba(40, 182, 44, 0.4);
--success--5:rgba(40, 182, 44, 0.5);
--success--6:rgba(40, 182, 44, 0.6);
--success--7:rgba(40, 182, 44, 0.7);
--success--8:rgba(40, 182, 44, 0.8);
--success--9:rgba(40, 182, 44, 0.9);
--info--1:rgba(117, 202, 235, 0.1);
--info--2:rgba(117, 202, 235, 0.2);
--info--3:rgba(117, 202, 235, 0.3);
--info--4:rgba(117, 202, 235, 0.4);
--info--5:rgba(117, 202, 235, 0.5);
--info--6:rgba(117, 202, 235, 0.6);
--info--7:rgba(117, 202, 235, 0.7);
--info--8:rgba(117, 202, 235, 0.8);
--info--9:rgba(117, 202, 235, 0.9);
--warning--1:rgba(255, 133, 27, 0.1);
--warning--2:rgba(255, 133, 27, 0.2);
--warning--3:rgba(255, 133, 27, 0.3);
--warning--4:rgba(255, 133, 27, 0.4);
--warning--5:rgba(255, 133, 27, 0.5);
--warning--6:rgba(255, 133, 27, 0.6);
--warning--7:rgba(255, 133, 27, 0.7);
--warning--8:rgba(255, 133, 27, 0.8);
--warning--9:rgba(255, 133, 27, 0.9);
--danger--1:rgba(255, 65, 54, 0.1);
--danger--2:rgba(255, 65, 54, 0.2);
--danger--3:rgba(255, 65, 54, 0.3);
--danger--4:rgba(255, 65, 54, 0.4);
--danger--5:rgba(255, 65, 54, 0.5);
--danger--6:rgba(255, 65, 54, 0.6);
--danger--7:rgba(255, 65, 54, 0.7);
--danger--8:rgba(255, 65, 54, 0.8);
--danger--9:rgba(255, 65, 54, 0.9);
--light--1:rgba(246, 246, 246, 0.1);
--light--2:rgba(246, 246, 246, 0.2);
--light--3:rgba(246, 246, 246, 0.3);
--light--4:rgba(246, 246, 246, 0.4);
--light--5:rgba(246, 246, 246, 0.5);
--light--6:rgba(246, 246, 246, 0.6);
--light--7:rgba(246, 246, 246, 0.7);
--light--8:rgba(246, 246, 246, 0.8);
--light--9:rgba(246, 246, 246, 0.9);
--dark--1:rgba(85, 85, 85, 0.1);
--dark--2:rgba(85, 85, 85, 0.2);
--dark--3:rgba(85, 85, 85, 0.3);
--dark--4:rgba(85, 85, 85, 0.4);
--dark--5:rgba(85, 85, 85, 0.5);
--dark--6:rgba(85, 85, 85, 0.6);
--dark--7:rgba(85, 85, 85, 0.7);
--dark--8:rgba(85, 85, 85, 0.8);
--dark--9:rgba(85, 85, 85, 0.9);
--theme-scheme--1:#158CBA;
--theme-scheme--2:#3e82bf;
--theme-scheme--3:#6475bc;
--theme-scheme--4:#8566b0;
--theme-scheme--5:#a05599;
--theme-scheme--6:#b0447c;
--theme-scheme-lg--1:#158cba;
--theme-scheme-lg--2:#1dade5;
--theme-scheme-lg--3:#4abeeb;
--theme-scheme-lg--4:#78cef0;
--theme-scheme-lg--5:#b0447c;
--theme-scheme-lg--6:#c36495;
--theme-scheme-lg--7:#d189ae;
--theme-scheme-lg--8:#e0adc7;
--theme-scheme-lg--9:#618f35;
--theme-scheme-lg--10:#7ab443;
--theme-scheme-lg--11:#94c664;
--theme-scheme-lg--12:#aed38a;
--blue:#158CBA;
--indigo:#6610f2;
--purple:#6f42c1;
--pink:#e83e8c;
--red:#FF4136;
--orange:#fd7e14;
--yellow:#FF851B;
--green:#28B62C;
--teal:#20c997;
--cyan:#75CAEB;
--white:#fff;
--gray:#999;
--gray-dark:#333;
--primary:#158CBA;
--secondary:#f0f0f0;
--success:#28B62C;
--info:#75CAEB;
--warning:#FF851B;
--danger:#FF4136;
--light:#f6f6f6;
--dark:#555;
--breakpoint-xs:0;
--breakpoint-sm:576px;
--breakpoint-md:768px;
--breakpoint-lg:992px;
--breakpoint-xl:1200px;
--font-family-sans-serif:"Source Sans Pro", -apple-system, BlinkMacSystemFont, "Segoe UI", Roboto, "Helvetica Neue", Arial, sans-serif, "Apple Color Emoji", "Segoe UI Emoji", "Segoe UI Symbol";
--font-family-monospace:SFMono-Regular, Menlo, Monaco, Consolas, "Liberation Mono", "Courier New", monospace;
--mm-color-background:;
--graphical-mode-icon-display:none;

}
html, body { height: 100%; }
body { margin: 0px; overflow: hidden; }
.lixoftchart-container { display: flex; flex-direction: column; height: 100%; }
.lixoftchart { width: 100%; height: 100%; flex: 1 1 0%; }
.lixoftchart-header { height: 34px; }
.main { flex: 1 1 0%; height: 100%; width: 100%; }
.footer { margin: 0px; }
.checkinit-footer { max-height: 230px; overflow-y: auto; }
.page, .subpage { height: 100%; display: none; }
.page.active, .subpage.active { display: block; }
.axes, .grid { pointer-events: none; }
.axis path, .axis line { fill: none; shape-rendering: crispEdges; }
.tick { font-family: sans-serif; }
.line { fill: none; }
.tick line { stroke-width: 1px; }
.grid line { opacity: 0.2; }
.title { pointer-events: none; font-weight: 400; }
.axis-label { text-anchor: middle; }
.axis-label-unit { font-family: monospace; font-size: smaller; }
.label-subscript { baseline-shift: sub; font-size: 0.8em; }
.zoomable-content, .brushable-content { cursor: crosshair; }
rect.zoom { fill: rgb(221, 221, 221); stroke: steelblue; fill-opacity: 0.5; }
g.brush &gt; rect.selection { stroke-width: 0; }
.handle--custom { fill: rgb(122, 122, 122); fill-opacity: 1; stroke: rgb(122, 122, 122); stroke-width: 2px; display: inline !important; }
.log-filtered { display: none; }
.dot { stroke: none; }
.censObservations.highlighted:not(.lambdaz-observation), .censObservations[data--radius]:not(.lambdaz-observation) { fill: brown !important; }
.spline { fill: none; }
.regressionLine { fill: none; }
.convergence-line { fill: none; }
.percentile-line, .cdf { stroke-width: 1px; }
.bar { shape-rendering: crispEdges; }
.vertical-line, .horizontal-line { shape-rendering: crispEdges; }
.k1, .bound { shape-rendering: crispEdges; }
.outlier.dot { fill: none; }
.boxplot { font-style: normal; font-variant: normal; font-weight: normal; font-stretch: normal; font-size: 10px; line-height: normal; font-family: sans-serif; }
.box-element line, .box-element rect { stroke-opacity: 1; shape-rendering: crispEdges; }
.boxplot .outlier line { fill: none; }
.boxplot .box-underlay { fill: white; fill-opacity: 1; }
.boxplot .label { font-size: 12px; }
.arrow-marker { stroke-width: 0; font-size: 20px; fill: red; dominant-baseline: central; }
.layout-link { padding: 1px 5px !important; }
.sublayout-controls { min-height: 20px; transition: opacity 0.5s ease-in-out; background-color: transparent; opacity: 0.2; cursor: pointer; }
.pagination { transition: opacity 0.5s ease-in-out; }
.sublayout-controls .pagination { opacity: 0; }
.sublayout-controls:hover { transition: none; opacity: 0.9; }
.sublayout-controls:hover .pagination { transition: none; opacity: 1; }
.plot-grid, .subplot-grid { margin: 0px; min-width: 0px; }
.grid-cell { outline: rgb(221, 221, 221) solid 1px; cursor: text; position: absolute; }
.plot-cell { background-color: rgba(119, 33, 111, 0.298039); }
.matrix-diagonal-cell { background-color: rgb(174, 167, 159) !important; }
.plot-cell.selected { background-color: rgb(119, 33, 111); }
.plot-cell:hover, .plot-cell.hovered { background-color: rgb(243, 152, 20); }
.plot-cell.ui-selecting { background-color: rgb(233, 84, 32); }
.cells-selector { cursor: pointer; width: 0px; height: 0px; position: absolute; border: 10px solid rgba(119, 33, 111, 0.298039); }
.cells-selector.selected { border-color: rgb(119, 33, 111); }
.cells-selector.rows, .cells-selector.all { border-top-color: transparent !important; border-bottom-color: transparent !important; border-right-color: transparent !important; }
.cells-selector.cols { border-top-color: transparent !important; border-left-color: transparent !important; border-right-color: transparent !important; }
.cells-selector.all { transform: rotate(-45deg); }
.cells-selector:hover { border-color: rgb(243, 152, 20); }
.layout-grid, .sublayout-grid { padding: 0px; margin: 0px; min-width: 0px; background-color: transparent; border: none; box-shadow: none !important; }
.layout-grid-content { border-collapse: collapse; border: 1px solid rgb(221, 221, 221); }
.layout-cell { background-color: rgba(119, 33, 111, 0.298039); border: 1px solid rgb(221, 221, 221); min-width: 20px; width: 20px; height: 20px; cursor: pointer; }
.layout-cell.selected { background-color: rgb(119, 33, 111); }
.layout-cell.selecting { background-color: rgb(233, 84, 32); }
.layout-container { padding: 10px 15px; align-items: center; }
.layout-controls { display: flex; justify-content: space-between; align-items: center; }
.layout-controls &gt; .layout-controls-wrapper { display: flex; align-items: baseline; }
.layout-controls .btn { border: 0px; border-radius: 0px; white-space: nowrap; padding: 4px 8px !important; }
.layout-controls .btn.toggle-controls-btn { margin-left: 1rem !important; }
.pagination input { color: inherit; background: transparent; border: 0px; outline: none; }
.contrasted-chart-header-btn:not(:hover) { background: rgba(255, 255, 255, 0.2) !important; }
.message-banner { position: fixed; left: 0px; width: 100%; margin-bottom: 0px; z-index: 10; }
.message-banner.top { top: 0px; }
.message-banner.bottom { bottom: 0px; }
.legend { box-shadow: rgba(0, 0, 0, 0.2) 0px 8px 17px 0px, rgba(0, 0, 0, 0.188235) 0px 6px 20px 0px; z-index: 10; }
.legend:not(.no-move) { cursor: move !important; }
.legend-glyph:not(.aa) { shape-rendering: crispEdges; }
.legend-group-label { font-weight: bold; }
.ui-selectable-helper { z-index: 1100; }
.ui-selectable-helper.no-top { border-top: 0px; }
.ui-selectable-helper.no-right { border-right: 0px; }
.ui-selectable-helper.no-bottom { border-bottom: 0px; }
.ui-selectable-helper.no-left { border-left: 0px; }
.print-preview &gt; .modal-dialog { position: absolute; height: auto; bottom: 0px; top: 0px; left: 0px; right: 0px; }
.page-preview { border: 1px dashed rgb(51, 51, 51); margin: 0px auto; }
.page-preview.portrait { height: 60vh; width: 42.42vh; }
.page-preview.landscape { width: 60vw; height: 42.42vw; }
.tooltip-key::after { content: ": "; }
.brushed-out, .bar.brushed-out { fill: rgb(204, 204, 204) !important; }
.infowrapper { pointer-events: none; }
.information { overflow-y: overlay; overflow-x: hidden; padding: 0.5em; font-family: monospace; box-shadow: rgba(0, 0, 0, 0.2) 0px 8px 17px 0px, rgba(0, 0, 0, 0.188235) 0px 6px 20px 0px; display: inline-block; float: right; cursor: move; pointer-events: all; }
.information span { float: left; clear: both; }
.axis path, .axis line, .grid line{
stroke: #636363;
}

.tick text{
fill: #636363;
}

.axis path, .axis line{
stroke-width: 1px;
}

.bar-label{
fill: #000000;
}

.bar-label{
font-size: 10px;
}

.bin-value{
stroke: red;
}

.bin-value{
}

.bin-value{
stroke-width: 1px;
}

.bound{
stroke: red;
}

.bound{
stroke-width: 2px;
}

.bound.bounded{
stroke: limegreen;
}

.baseline{
stroke: #000000;
}

.baseline{
}

.baseline{
stroke-width: 1px;
}

.box-element rect{
fill: #8fbbd9;
}

.boxplot .outlier line{
stroke: #ff0000;
}

.boxplot .outlier line{
stroke-width: 1px;
}

.quartile{
stroke: #000000;
}

.quartile{
stroke-dasharray: 3, 2;
}

.quartile{
stroke-width: 1px;
}

.box-element line{
stroke: #000000;
}

.box-element line{
stroke-width: 1px;
}

.censEvents{
fill: #d44242;
}

.censEvents{
stroke: #d44242;
}

.censObservations{
fill: #d44242;
}
.censObsIntervals{stroke:rgb(212,66,66);stroke-opacity:0.498039;}

.censObsIntervals{
}

.censObsIntervals{
stroke-width: 5px;
}

.convergence-line{
stroke: #4682B4;
}

.cvIndicator-line{
stroke: #990099;
}

.dosingTimes{
stroke: #000000;
}

.dosingTimes{
stroke-dasharray: 8, 8;
}

.dosingTimes{
stroke-width: 2px;
}

line.empirical, path.empirical{
stroke: #4682B4;
}

.dot.empirical{
fill: #4682B4;
}

line.empirical, path.empirical{
}

line.empirical, path.empirical{
stroke-width: 2px;
}

.fisher_linearization&gt;.bar{
fill: #4682B4;
}

.fisher_stochasticApproximation&gt;.bar{
fill: #98abc5;
}

.focus &gt; line, .focus &gt; circle{
stroke: blue;
}

.lixoftchart{
background-color: #ffffff;
}

.sublayout-controls:hover{
background-color: #ffffff;
}

.bar:hover, .band-overlay:hover{
fill: orange !important;
}

g.bar, g.histogram{
fill: #4682B4;
}

g.bar, g.histogram{
stroke: #ffffff;
}

g.bar, g.histogram{
stroke-width: 1px;
}

.information{
background-color: #FFFFCC;
}

.information{
fill: #FFFFCC;
}

.information{
font-size: 12px;
}

.information{
color: #000000;
}

.k1{
stroke: red;
}

.k1{
stroke-width: 1px;
}

.axis-label.global{
fill: #000000;
}

.axis-label.global{
font-size: 14px;
}

.legend-frame{
fill: #ffffff;
}

.legend-frame{
stroke: #000000;
}

.legend-frame{
stroke-width: 0px;
}

.legend text{
fill: #000000;
}

.legend{
font-size: 12px;
}

.ll_importanceSampling&gt;.bar{
fill: #98abc5;
}

.ll_linearization&gt;.bar{
fill: #4682B4;
}

path.median, line.median{
stroke: #000000;
}

path.median, line.median{
stroke-dasharray: 5,3;
}

path.median, line.median{
stroke-width: 1px;
}

.observation{
fill: #4682B4;
}

.observation{
stroke: #4682B4;
}

.observation-line{
stroke-width: 1.5px;
}

.obsStatisticsValues{
font-size: 10px;
}

.outlier.area{
fill: #ff0000;
}

.outlier.dot{
stroke: #ff0000;
}

.outlier.dot{
stroke-width: 1px;
}
.prediction-interval.median{fill:rgb(255,0,0);fill-opacity:0.2;}
.prediction-interval.low, .prediction-interval.up{fill:rgb(0,128,255);fill-opacity:0.298039;}
.plot-background{fill:rgb(250,250,255);fill-opacity:0.6;}
.bar{stroke:rgb(250,250,255);stroke-opacity:0.6;}

.regressionLine{
stroke: #bd2671;
}

.regressionLine{
}

.regressionLine{
stroke-width: 1.5px;
}

.spline{
stroke: #eba213;
}

.spline{
}

.spline{
stroke-width: 1.5px;
}

.axis-label.sublabel, .matrix-diagonal-label{
fill: #000000;
}

.axis-label.sublabel, .matrix-diagonal-label{
font-size: 12px;
}

line.theoretical, path.theoretical{
stroke: #000000;
}

.dot.theoretical{
fill: #000000;
}

line.theoretical, path.theoretical{
stroke-dasharray: 5,3;
}

line.theoretical, path.theoretical{
stroke-width: 1.5px;
}

.tick{
font-size: 10px;
}

.title{
fill: #000000;
}

.title{
font-size: 14px;
}

.axis-label-unit{
fill: #999;
}

.userGuide-dot{
fill: red;
}

.userGuide-line{
stroke: red;
}

.userGuide-dot{
r: 3;
}

.userGuide-line{
}

.userGuide-line{
stroke-width: 1px;
}

.brushed-out, .brushed-out.bar{
fill: #ccc !important;
}
.not-areaOutliers{display:none;}
.not-censObservations{display:none;}
.not-empirical{display:none;}
.not-grid{display:none;}
.hasCensored,.__hasCensored{display:none;}
.hasIOV,.__hasIOV{display:none;}
.not-hasMean{display:none;}
.not-hasMode{display:none;}
.not-isIndivEstimMean{display:none;}
.legend,.__legend{display:none;}
.linkedZoom,.__linkedZoom{display:none;}
.not-observations{display:none;}
.not-piPercentile{display:none;}
.splitted,.__splitted{display:none;}
.theoretical,.__theoretical{display:none;}
.xEqualDomains,.__xEqualDomains{display:none;}
.xLog,.__xLog{display:none;}
.not-yEqualDomains{display:none;}
.yLog,.__yLog{display:none;}
.not-bottomAxisLine{display:none;}
.not-bottomAxisTickLabels{display:none;}
.not-leftAxisLine{display:none;}
.not-leftAxisTickLabels{display:none;}
.rightAxisLine,.__rightAxisLine{display:none;}
.not-rightAxisTickLabels{display:none;}
.topAxisLine,.__topAxisLine{display:none;}
.not-topAxisTickLabels{display:none;}
.freehand-guides-layer,.__freehand-guides-layer{display:none;}
 
      .cdf.theoritical.line {
        stroke-dasharray: 10, 5;
      }
    </style><g class="lixoftchart-scaler"><g class="lixoftchart-translator" transform="translate(50,40)"><g class="x axis" transform="translate(0, 595)"><text class="x axis-label global" x="315" y="-10" style="text-anchor: middle;"><tspan class="axis-label-text">y2</tspan><tspan class="axis-label-unit"/></text></g><g class="y axis"><text class="y axis-label global" transform="rotate(-90)" x="-297.5" y="-30" style="text-anchor: middle;"><tspan class="axis-label-text">Cumulative distribution function</tspan><tspan class="axis-label-unit"/></text></g><g class="page plot-page active" data-index="0"><g class="plot-container page-element" width="630" height="555" data-index="0" data-col="0" data-row="0" transform="translate(0,0)"><g class="subpage plot-page active" data-index="0"><g class="plot page-element" width="630" height="555" id="All" data-index="0" transform="translate(0,0)"><rect width="630" height="555" class="plot-background"/><svg class="plot-content zoomable-content" width="630" height="555"><g class="predictionInterval"><g class="low piPercentile"><polygon class="prediction-interval-mask autoscale low prediction-interval" points="28.636363636363637,514.53125 34.421487603305785,502.96875 40.206611570247944,488.51562500000017 45.99173553719008,474.0625 51.77685950413223,456.71875 57.56198347107438,439.375 63.34710743801653,427.8125 69.13223140495869,410.46875 74.91735537190081,393.125 80.70247933884296,375.78125 86.48760330578513,364.21875 92.27272727272727,346.875 98.05785123966942,329.53125 103.84297520661157,317.96875 109.62809917355371,306.40625 115.41322314049586,294.84375 121.19834710743802,283.28125 126.98347107438016,271.71875 132.7685950413223,265.9375 138.55371900826447,254.375 144.3388429752066,248.59375 150.12396694214877,237.03125 155.9090909090909,225.46875 161.69421487603307,219.6875 167.47933884297518,211.01562500000017 173.26446280991735,202.34375 179.04958677685948,190.78125 184.83471074380162,185 190.6198347107438,179.21875 196.40495867768595,167.65625 202.19008264462812,159.80592105263167 207.97520661157023,150.3125 213.7603305785124,144.53125 219.54545454545456,138.75 225.33057851239673,130.74753289473705 231.1157024793389,121.40625 236.90082644628094,115.625 242.6859504132231,104.0625 248.47107438016525,98.28125 254.25619834710741,92.5 260.0413223140496,86.71875 265.8264462809917,83.82812500000017 271.61157024793386,80.9375 277.39669421487605,75.15625 283.1818181818182,69.375 288.9669421487603,63.59375 294.7520661157025,57.8125 300.53719008264466,52.03125 306.32231404958674,52.03125 312.1074380165289,46.25 317.892561983471,46.25 323.67768595041315,40.46875 329.46280991735534,34.6875 335.2479338842975,34.6875 341.0330578512397,29.058388157894797 346.81818181818176,28.90625 352.6033057851239,23.125 358.3884297520661,23.125 364.1735537190082,23.125 369.95867768595036,17.34375 375.74380165289256,17.34375 381.5289256198347,11.5625 387.3140495867769,11.5625 393.099173553719,11.5625 398.88429752066116,11.5625 404.66942148760336,5.78125 410.45454545454544,5.78125 416.2396694214876,5.78125 422.02479338842977,5.78125 427.8099173553719,5.78125 433.5950413223141,0 439.3801652892561,0 445.16528925619826,0 450.9504132231404,0 456.7355371900826,0 462.52066115702473,0 468.3057851239668,0 474.090909090909,0 479.87603305785115,0 485.66115702479334,0 491.4462809917355,0 497.2314049586776,0 503.0165289256198,0 508.80165289256195,0 514.5867768595041,0 520.3719008264463,0 526.1570247933885,0 531.9421487603305,0 537.7272727272727,0 543.5123966942149,0 549.297520661157,0 555.0826446280992,0 560.8677685950413,0 566.6528925619835,0 572.4380165289257,0 578.2231404958678,0 584.0082644628098,0 589.7933884297519,0 595.5785123966941,0 601.3636363636363,0 601.3636363636363,0 595.5785123966941,0 589.7933884297519,0 584.0082644628098,0 578.2231404958678,0 572.4380165289257,5.78125 566.6528925619835,5.78125 560.8677685950413,5.78125 555.0826446280992,5.78125 549.297520661157,5.78125 543.5123966942149,5.78125 537.7272727272727,5.78125 531.9421487603305,5.78125 526.1570247933885,5.78125 520.3719008264463,5.842105263157919 514.5867768595041,11.5625 508.80165289256195,11.5625 503.0165289256198,11.5625 497.2314049586776,11.5625 491.4462809917355,11.5625 485.66115702479334,11.684210526315724 479.87603305785115,17.34375 474.090909090909,17.34375 468.3057851239668,17.34375 462.52066115702473,17.526315789473642 456.7355371900826,23.125 450.9504132231404,23.125 445.16528925619826,23.36842105263156 439.3801652892561,28.90625 433.5950413223141,28.90625 427.8099173553719,34.6875 422.02479338842977,34.6875 416.2396694214876,34.6875 410.45454545454544,40.46875 404.66942148760336,40.46875 398.88429752066116,46.25 393.099173553719,46.25 387.3140495867769,46.73684210526318 381.5289256198347,52.03125 375.74380165289256,52.30509868421052 369.95867768595036,57.8125 364.1735537190082,63.59375 358.3884297520661,63.92845394736844 352.6033057851239,69.375 346.81818181818176,75.15625 341.0330578512397,80.9375 335.2479338842975,80.9375 329.46280991735534,86.71875 323.67768595041315,92.5 317.892561983471,98.28125 312.1074380165289,98.28125 306.32231404958674,104.0625 300.53719008264466,109.84375 294.7520661157025,115.625 288.9669421487603,121.40625 283.1818181818182,127.1875 277.39669421487605,132.96875 271.61157024793386,138.75 265.8264462809917,146.0526315789474 260.0413223140496,151.10361842105266 254.25619834710741,161.875 248.47107438016525,167.65625 242.6859504132231,173.4375 236.90082644628094,185 231.1157024793389,190.78125 225.33057851239673,202.34375 219.54545454545456,208.125 213.7603305785124,213.90625 207.97520661157023,225.46875 202.19008264462812,237.03125 196.40495867768595,242.8125 190.6198347107438,254.375 184.83471074380162,260.15625 179.04958677685948,265.9375 173.26446280991735,278.9605263157895 167.47933884297518,289.0625 161.69421487603307,296.3955592105263 155.9090909090909,312.1875 150.12396694214877,323.75 144.3388429752066,335.3125 138.55371900826447,346.875 132.7685950413223,358.4375 126.98347107438016,371.94736842105266 121.19834710743802,387.34375 115.41322314049586,393.125 109.62809917355371,410.46875 103.84297520661157,422.03125 98.05785123966942,439.375 92.27272727272727,456.71875 86.48760330578513,468.28125 80.70247933884296,479.84375 74.91735537190081,491.40625 69.13223140495869,502.96875 63.34710743801653,514.53125 57.56198347107438,526.09375 51.77685950413223,537.65625 45.99173553719008,543.4375 40.206611570247944,549.21875 34.421487603305785,555 28.636363636363637,555"/></g></g><g class="distribution-functions"><path data-legend="Empirical distribution" class="empirical line autoscale cdf" d="M28.636363636363637,549.2783505154639L34.421487603305785,537.8350515463917L40.206611570247944,520.6701030927835L45.99173553719008,503.50515463917526L51.77685950413223,486.340206185567L57.56198347107438,486.340206185567L63.34710743801653,452.0103092783505L69.13223140495869,429.12371134020617L74.91735537190081,423.4020618556701L80.70247933884296,411.9587628865979L86.48760330578513,400.5154639175258L92.27272727272727,389.07216494845363L98.05785123966942,377.62886597938143L103.84297520661157,354.74226804123714L109.62809917355371,326.13402061855675L115.41322314049586,308.96907216494844L121.19834710743802,303.24742268041234L126.98347107438016,297.5257731958763L132.7685950413223,286.08247422680415L138.55371900826447,280.36082474226805L144.3388429752066,274.63917525773195L150.12396694214877,263.1958762886598L155.9090909090909,246.03092783505156L161.69421487603307,234.5876288659794L167.47933884297518,228.8659793814433L173.26446280991735,228.8659793814433L179.04958677685948,223.1443298969072L184.83471074380162,211.70103092783506L190.6198347107438,205.97938144329896L196.40495867768595,188.81443298969072L202.19008264462812,183.09278350515467L207.97520661157023,183.09278350515467L213.7603305785124,171.64948453608247L219.54545454545456,160.20618556701032L225.33057851239673,154.48453608247422L231.1157024793389,148.76288659793818L236.90082644628094,143.04123711340202L242.6859504132231,143.04123711340202L248.47107438016525,137.31958762886597L254.25619834710741,131.59793814432993L260.0413223140496,131.59793814432993L265.8264462809917,125.87628865979377L271.61157024793386,120.15463917525773L277.39669421487605,120.15463917525773L283.1818181818182,114.43298969072168L288.9669421487603,102.98969072164948L294.7520661157025,91.54639175257728L300.53719008264466,91.54639175257728L306.32231404958674,85.82474226804123L312.1074380165289,74.38144329896903L317.892561983471,68.65979381443299L323.67768595041315,68.65979381443299L329.46280991735534,57.216494845360785L335.2479338842975,51.49484536082474L341.0330578512397,45.773195876288696L346.81818181818176,40.051546391752595L352.6033057851239,40.051546391752595L358.3884297520661,22.88659793814429L364.1735537190082,22.88659793814429L369.95867768595036,17.164948453608304L375.74380165289256,17.164948453608304L381.5289256198347,17.164948453608304L387.3140495867769,17.164948453608304L393.099173553719,17.164948453608304L398.88429752066116,17.164948453608304L404.66942148760336,17.164948453608304L410.45454545454544,17.164948453608304L416.2396694214876,17.164948453608304L422.02479338842977,17.164948453608304L427.8099173553719,17.164948453608304L433.5950413223141,17.164948453608304L439.3801652892561,17.164948453608304L445.16528925619826,17.164948453608304L450.9504132231404,17.164948453608304L456.7355371900826,17.164948453608304L462.52066115702473,17.164948453608304L468.3057851239668,11.443298969072202L474.090909090909,11.443298969072202L479.87603305785115,11.443298969072202L485.66115702479334,11.443298969072202L491.4462809917355,11.443298969072202L497.2314049586776,11.443298969072202L503.0165289256198,11.443298969072202L508.80165289256195,11.443298969072202L514.5867768595041,11.443298969072202L520.3719008264463,11.443298969072202L526.1570247933885,5.721649484536101L531.9421487603305,5.721649484536101L537.7272727272727,5.721649484536101L543.5123966942149,5.721649484536101L549.297520661157,5.721649484536101L555.0826446280992,5.721649484536101L560.8677685950413,5.721649484536101L566.6528925619835,5.721649484536101L572.4380165289257,5.721649484536101L578.2231404958678,5.721649484536101L584.0082644628098,5.721649484536101L589.7933884297519,5.721649484536101L595.5785123966941,5.721649484536101L601.3636363636363,0" data-legend-class="empirical" fill="none"/></g><g class="userGuides"/></svg><g class="axes"><g class="bottom axis bottomAxisLine" transform="translate(0,555)" fill="none" text-anchor="middle"><path class="domain" stroke="#000" d="M0.5,6V0.5H630.5V6" fill="none"/><g class="tick" opacity="1" transform="translate(37.67797007247606,0)"><line stroke="#000" y2="3" fill="none"/><text fill="#000" y="6" dy="0.71em" class="bottomAxisTickLabels transformed-label"><tspan class="label-block"><tspan class="label-subblock">5</tspan></tspan></text></g><g class="tick" opacity="1" transform="translate(90.01624480355703,0)"><line stroke="#000" y2="3" fill="none"/><text fill="#000" y="6" dy="0.71em" class="bottomAxisTickLabels transformed-label"><tspan class="label-block"><tspan class="label-subblock">10</tspan></tspan></text></g><g class="tick" opacity="1" transform="translate(142.354519534638,0)"><line stroke="#000" y2="3" fill="none"/><text fill="#000" y="6" dy="0.71em" class="bottomAxisTickLabels transformed-label"><tspan class="label-block"><tspan class="label-subblock">15</tspan></tspan></text></g><g class="tick" opacity="1" transform="translate(194.692794265719,0)"><line stroke="#000" y2="3" fill="none"/><text fill="#000" y="6" dy="0.71em" class="bottomAxisTickLabels transformed-label"><tspan class="label-block"><tspan class="label-subblock">20</tspan></tspan></text></g><g class="tick" opacity="1" transform="translate(247.03106899679995,0)"><line stroke="#000" y2="3" fill="none"/><text fill="#000" y="6" dy="0.71em" class="bottomAxisTickLabels transformed-label"><tspan class="label-block"><tspan class="label-subblock">25</tspan></tspan></text></g><g class="tick" opacity="1" transform="translate(299.3693437278809,0)"><line stroke="#000" y2="3" fill="none"/><text fill="#000" y="6" dy="0.71em" class="bottomAxisTickLabels transformed-label"><tspan class="label-block"><tspan class="label-subblock">30</tspan></tspan></text></g><g class="tick" opacity="1" transform="translate(351.70761845896186,0)"><line stroke="#000" y2="3" fill="none"/><text fill="#000" y="6" dy="0.71em" class="bottomAxisTickLabels transformed-label"><tspan class="label-block"><tspan class="label-subblock">35</tspan></tspan></text></g><g class="tick" opacity="1" transform="translate(404.0458931900428,0)"><line stroke="#000" y2="3" fill="none"/><text fill="#000" y="6" dy="0.71em" class="bottomAxisTickLabels transformed-label"><tspan class="label-block"><tspan class="label-subblock">40</tspan></tspan></text></g><g class="tick" opacity="1" transform="translate(456.3841679211238,0)"><line stroke="#000" y2="3" fill="none"/><text fill="#000" y="6" dy="0.71em" class="bottomAxisTickLabels transformed-label"><tspan class="label-block"><tspan class="label-subblock">45</tspan></tspan></text></g><g class="tick" opacity="1" transform="translate(508.72244265220473,0)"><line stroke="#000" y2="3" fill="none"/><text fill="#000" y="6" dy="0.71em" class="bottomAxisTickLabels transformed-label"><tspan class="label-block"><tspan class="label-subblock">50</tspan></tspan></text></g><g class="tick" opacity="1" transform="translate(561.0607173832857,0)"><line stroke="#000" y2="3" fill="none"/><text fill="#000" y="6" dy="0.71em" class="bottomAxisTickLabels transformed-label"><tspan class="label-block"><tspan class="label-subblock">55</tspan></tspan></text></g><g class="tick" opacity="1" transform="translate(613.3989921143667,0)"><line stroke="#000" y2="3" fill="none"/><text fill="#000" y="6" dy="0.71em" class="bottomAxisTickLabels transformed-label"><tspan class="label-block"><tspan class="label-subblock">60</tspan></tspan></text></g></g><g class="left axis leftAxisLine" fill="none" text-anchor="end"><path class="domain" stroke="#000" d="M-6,555.5H0.5V0.5H-6" fill="none"/><g class="tick" opacity="1" transform="translate(0,555.5)"><line stroke="#000" x2="-3" fill="none"/><text fill="#000" x="-6" dy="0.32em" class="leftAxisTickLabels transformed-label"><tspan class="label-block"><tspan class="label-subblock">0</tspan></tspan></text></g><g class="tick" opacity="1" transform="translate(0,500)"><line stroke="#000" x2="-3" fill="none"/><text fill="#000" x="-6" dy="0.32em" class="leftAxisTickLabels transformed-label"><tspan class="label-block"><tspan class="label-subblock">0.1</tspan></tspan></text></g><g class="tick" opacity="1" transform="translate(0,444.5)"><line stroke="#000" x2="-3" fill="none"/><text fill="#000" x="-6" dy="0.32em" class="leftAxisTickLabels transformed-label"><tspan class="label-block"><tspan class="label-subblock">0.2</tspan></tspan></text></g><g class="tick" opacity="1" transform="translate(0,389)"><line stroke="#000" x2="-3" fill="none"/><text fill="#000" x="-6" dy="0.32em" class="leftAxisTickLabels transformed-label"><tspan class="label-block"><tspan class="label-subblock">0.3</tspan></tspan></text></g><g class="tick" opacity="1" transform="translate(0,333.5)"><line stroke="#000" x2="-3" fill="none"/><text fill="#000" x="-6" dy="0.32em" class="leftAxisTickLabels transformed-label"><tspan class="label-block"><tspan class="label-subblock">0.4</tspan></tspan></text></g><g class="tick" opacity="1" transform="translate(0,278)"><line stroke="#000" x2="-3" fill="none"/><text fill="#000" x="-6" dy="0.32em" class="leftAxisTickLabels transformed-label"><tspan class="label-block"><tspan class="label-subblock">0.5</tspan></tspan></text></g><g class="tick" opacity="1" transform="translate(0,222.5)"><line stroke="#000" x2="-3" fill="none"/><text fill="#000" x="-6" dy="0.32em" class="leftAxisTickLabels transformed-label"><tspan class="label-block"><tspan class="label-subblock">0.6</tspan></tspan></text></g><g class="tick" opacity="1" transform="translate(0,167)"><line stroke="#000" x2="-3" fill="none"/><text fill="#000" x="-6" dy="0.32em" class="leftAxisTickLabels transformed-label"><tspan class="label-block"><tspan class="label-subblock">0.7</tspan></tspan></text></g><g class="tick" opacity="1" transform="translate(0,111.5)"><line stroke="#000" x2="-3" fill="none"/><text fill="#000" x="-6" dy="0.32em" class="leftAxisTickLabels transformed-label"><tspan class="label-block"><tspan class="label-subblock">0.8</tspan></tspan></text></g><g class="tick" opacity="1" transform="translate(0,56)"><line stroke="#000" x2="-3" fill="none"/><text fill="#000" x="-6" dy="0.32em" class="leftAxisTickLabels transformed-label"><tspan class="label-block"><tspan class="label-subblock">0.9</tspan></tspan></text></g><g class="tick" opacity="1" transform="translate(0,0.5)"><line stroke="#000" x2="-3" fill="none"/><text fill="#000" x="-6" dy="0.32em" class="leftAxisTickLabels transformed-label"><tspan class="label-block"><tspan class="label-subblock">1</tspan></tspan></text></g></g></g><g class="grid"><g class="vertical" transform="translate(0,555)" fill="none" font-size="10" font-family="sans-serif" text-anchor="middle"><g class="tick" opacity="1" transform="translate(37.67797007247606,0)"><line stroke="#000" y2="-555" fill="none"/></g><g class="tick" opacity="1" transform="translate(90.01624480355703,0)"><line stroke="#000" y2="-555" fill="none"/></g><g class="tick" opacity="1" transform="translate(142.354519534638,0)"><line stroke="#000" y2="-555" fill="none"/></g><g class="tick" opacity="1" transform="translate(194.692794265719,0)"><line stroke="#000" y2="-555" fill="none"/></g><g class="tick" opacity="1" transform="translate(247.03106899679995,0)"><line stroke="#000" y2="-555" fill="none"/></g><g class="tick" opacity="1" transform="translate(299.3693437278809,0)"><line stroke="#000" y2="-555" fill="none"/></g><g class="tick" opacity="1" transform="translate(351.70761845896186,0)"><line stroke="#000" y2="-555" fill="none"/></g><g class="tick" opacity="1" transform="translate(404.0458931900428,0)"><line stroke="#000" y2="-555" fill="none"/></g><g class="tick" opacity="1" transform="translate(456.3841679211238,0)"><line stroke="#000" y2="-555" fill="none"/></g><g class="tick" opacity="1" transform="translate(508.72244265220473,0)"><line stroke="#000" y2="-555" fill="none"/></g><g class="tick" opacity="1" transform="translate(561.0607173832857,0)"><line stroke="#000" y2="-555" fill="none"/></g><g class="tick" opacity="1" transform="translate(613.3989921143667,0)"><line stroke="#000" y2="-555" fill="none"/></g></g><g class="horizontal" fill="none" font-size="10" font-family="sans-serif" text-anchor="end"><g class="tick" opacity="1" transform="translate(0,555.5)"><line stroke="#000" x2="630" fill="none"/></g><g class="tick" opacity="1" transform="translate(0,500)"><line stroke="#000" x2="630" fill="none"/></g><g class="tick" opacity="1" transform="translate(0,444.5)"><line stroke="#000" x2="630" fill="none"/></g><g class="tick" opacity="1" transform="translate(0,389)"><line stroke="#000" x2="630" fill="none"/></g><g class="tick" opacity="1" transform="translate(0,333.5)"><line stroke="#000" x2="630" fill="none"/></g><g class="tick" opacity="1" transform="translate(0,278)"><line stroke="#000" x2="630" fill="none"/></g><g class="tick" opacity="1" transform="translate(0,222.5)"><line stroke="#000" x2="630" fill="none"/></g><g class="tick" opacity="1" transform="translate(0,167)"><line stroke="#000" x2="630" fill="none"/></g><g class="tick" opacity="1" transform="translate(0,111.5)"><line stroke="#000" x2="630" fill="none"/></g><g class="tick" opacity="1" transform="translate(0,56)"><line stroke="#000" x2="630" fill="none"/></g><g class="tick" opacity="1" transform="translate(0,0.5)"><line stroke="#000" x2="630" fill="none"/></g></g></g><defs><g id="All-pi-low"><polygon class="prediction-interval autoscale" points="28.636363636363637,514.53125 34.421487603305785,502.96875 40.206611570247944,488.51562500000017 45.99173553719008,474.0625 51.77685950413223,456.71875 57.56198347107438,439.375 63.34710743801653,427.8125 69.13223140495869,410.46875 74.91735537190081,393.125 80.70247933884296,375.78125 86.48760330578513,364.21875 92.27272727272727,346.875 98.05785123966942,329.53125 103.84297520661157,317.96875 109.62809917355371,306.40625 115.41322314049586,294.84375 121.19834710743802,283.28125 126.98347107438016,271.71875 132.7685950413223,265.9375 138.55371900826447,254.375 144.3388429752066,248.59375 150.12396694214877,237.03125 155.9090909090909,225.46875 161.69421487603307,219.6875 167.47933884297518,211.01562500000017 173.26446280991735,202.34375 179.04958677685948,190.78125 184.83471074380162,185 190.6198347107438,179.21875 196.40495867768595,167.65625 202.19008264462812,159.80592105263167 207.97520661157023,150.3125 213.7603305785124,144.53125 219.54545454545456,138.75 225.33057851239673,130.74753289473705 231.1157024793389,121.40625 236.90082644628094,115.625 242.6859504132231,104.0625 248.47107438016525,98.28125 254.25619834710741,92.5 260.0413223140496,86.71875 265.8264462809917,83.82812500000017 271.61157024793386,80.9375 277.39669421487605,75.15625 283.1818181818182,69.375 288.9669421487603,63.59375 294.7520661157025,57.8125 300.53719008264466,52.03125 306.32231404958674,52.03125 312.1074380165289,46.25 317.892561983471,46.25 323.67768595041315,40.46875 329.46280991735534,34.6875 335.2479338842975,34.6875 341.0330578512397,29.058388157894797 346.81818181818176,28.90625 352.6033057851239,23.125 358.3884297520661,23.125 364.1735537190082,23.125 369.95867768595036,17.34375 375.74380165289256,17.34375 381.5289256198347,11.5625 387.3140495867769,11.5625 393.099173553719,11.5625 398.88429752066116,11.5625 404.66942148760336,5.78125 410.45454545454544,5.78125 416.2396694214876,5.78125 422.02479338842977,5.78125 427.8099173553719,5.78125 433.5950413223141,0 439.3801652892561,0 445.16528925619826,0 450.9504132231404,0 456.7355371900826,0 462.52066115702473,0 468.3057851239668,0 474.090909090909,0 479.87603305785115,0 485.66115702479334,0 491.4462809917355,0 497.2314049586776,0 503.0165289256198,0 508.80165289256195,0 514.5867768595041,0 520.3719008264463,0 526.1570247933885,0 531.9421487603305,0 537.7272727272727,0 543.5123966942149,0 549.297520661157,0 555.0826446280992,0 560.8677685950413,0 566.6528925619835,0 572.4380165289257,0 578.2231404958678,0 584.0082644628098,0 589.7933884297519,0 595.5785123966941,0 601.3636363636363,0 601.3636363636363,0 595.5785123966941,0 589.7933884297519,0 584.0082644628098,0 578.2231404958678,0 572.4380165289257,5.78125 566.6528925619835,5.78125 560.8677685950413,5.78125 555.0826446280992,5.78125 549.297520661157,5.78125 543.5123966942149,5.78125 537.7272727272727,5.78125 531.9421487603305,5.78125 526.1570247933885,5.78125 520.3719008264463,5.842105263157919 514.5867768595041,11.5625 508.80165289256195,11.5625 503.0165289256198,11.5625 497.2314049586776,11.5625 491.4462809917355,11.5625 485.66115702479334,11.684210526315724 479.87603305785115,17.34375 474.090909090909,17.34375 468.3057851239668,17.34375 462.52066115702473,17.526315789473642 456.7355371900826,23.125 450.9504132231404,23.125 445.16528925619826,23.36842105263156 439.3801652892561,28.90625 433.5950413223141,28.90625 427.8099173553719,34.6875 422.02479338842977,34.6875 416.2396694214876,34.6875 410.45454545454544,40.46875 404.66942148760336,40.46875 398.88429752066116,46.25 393.099173553719,46.25 387.3140495867769,46.73684210526318 381.5289256198347,52.03125 375.74380165289256,52.30509868421052 369.95867768595036,57.8125 364.1735537190082,63.59375 358.3884297520661,63.92845394736844 352.6033057851239,69.375 346.81818181818176,75.15625 341.0330578512397,80.9375 335.2479338842975,80.9375 329.46280991735534,86.71875 323.67768595041315,92.5 317.892561983471,98.28125 312.1074380165289,98.28125 306.32231404958674,104.0625 300.53719008264466,109.84375 294.7520661157025,115.625 288.9669421487603,121.40625 283.1818181818182,127.1875 277.39669421487605,132.96875 271.61157024793386,138.75 265.8264462809917,146.0526315789474 260.0413223140496,151.10361842105266 254.25619834710741,161.875 248.47107438016525,167.65625 242.6859504132231,173.4375 236.90082644628094,185 231.1157024793389,190.78125 225.33057851239673,202.34375 219.54545454545456,208.125 213.7603305785124,213.90625 207.97520661157023,225.46875 202.19008264462812,237.03125 196.40495867768595,242.8125 190.6198347107438,254.375 184.83471074380162,260.15625 179.04958677685948,265.9375 173.26446280991735,278.9605263157895 167.47933884297518,289.0625 161.69421487603307,296.3955592105263 155.9090909090909,312.1875 150.12396694214877,323.75 144.3388429752066,335.3125 138.55371900826447,346.875 132.7685950413223,358.4375 126.98347107438016,371.94736842105266 121.19834710743802,387.34375 115.41322314049586,393.125 109.62809917355371,410.46875 103.84297520661157,422.03125 98.05785123966942,439.375 92.27272727272727,456.71875 86.48760330578513,468.28125 80.70247933884296,479.84375 74.91735537190081,491.40625 69.13223140495869,502.96875 63.34710743801653,514.53125 57.56198347107438,526.09375 51.77685950413223,537.65625 45.99173553719008,543.4375 40.206611570247944,549.21875 34.421487603305785,555 28.636363636363637,555"/></g><g id="All-pi-low-maskdata"/><mask id="All-pi-low-mask" class="prediction-interval-mask"><rect x="0" y="0" width="100%" height="100%" fill="white"/><use xmlns:xlink="http://www.w3.org/1999/xlink" xlink:href="#All-pi-low-maskdata" fill="black"/></mask><clipPath id="All--freehand-guides-clip" class="freehand-guides-clip"><rect x="0" y="0" width="630" height="555"/></clipPath></defs></g></g><text x="315" y="-1em" class="title transformed-label" text-anchor="middle"><tspan class="label-block"/></text></g></g></g></g></svg>
