<svg xmlns="http://www.w3.org/2000/svg" class="lixoftchart NPC" width="863" height="643" style="font-family: &quot;Source Sans Pro&quot;, -apple-system, BlinkMacSystemFont, &quot;Segoe UI&quot;, Roboto, &quot;Helvetica Neue&quot;, Arial, sans-serif, &quot;Apple Color Emoji&quot;, &quot;Segoe UI Emoji&quot;, &quot;Segoe UI Symbol&quot;; font-weight: normal;"><style>svg {
--primary--1:rgba(21, 140, 186, 0.1);
--primary--2:rgba(21, 140, 186, 0.2);
--primary--3:rgba(21, 140, 186, 0.3);
--primary--4:rgba(21, 140, 186, 0.4);
--primary--5:rgba(21, 140, 186, 0.5);
--primary--6:rgba(21, 140, 186, 0.6);
--primary--7:rgba(21, 140, 186, 0.7);
--primary--8:rgba(21, 140, 186, 0.8);
--primary--9:rgba(21, 140, 186, 0.9);
--secondary--1:rgba(240, 240, 240, 0.1);
--secondary--2:rgba(240, 240, 240, 0.2);
--secondary--3:rgba(240, 240, 240, 0.3);
--secondary--4:rgba(240, 240, 240, 0.4);
--secondary--5:rgba(240, 240, 240, 0.5);
--secondary--6:rgba(240, 240, 240, 0.6);
--secondary--7:rgba(240, 240, 240, 0.7);
--secondary--8:rgba(240, 240, 240, 0.8);
--secondary--9:rgba(240, 240, 240, 0.9);
--success--1:rgba(40, 182, 44, 0.1);
--success--2:rgba(40, 182, 44, 0.2);
--success--3:rgba(40, 182, 44, 0.3);
--success--4:rgba(40, 182, 44, 0.4);
--success--5:rgba(40, 182, 44, 0.5);
--success--6:rgba(40, 182, 44, 0.6);
--success--7:rgba(40, 182, 44, 0.7);
--success--8:rgba(40, 182, 44, 0.8);
--success--9:rgba(40, 182, 44, 0.9);
--info--1:rgba(117, 202, 235, 0.1);
--info--2:rgba(117, 202, 235, 0.2);
--info--3:rgba(117, 202, 235, 0.3);
--info--4:rgba(117, 202, 235, 0.4);
--info--5:rgba(117, 202, 235, 0.5);
--info--6:rgba(117, 202, 235, 0.6);
--info--7:rgba(117, 202, 235, 0.7);
--info--8:rgba(117, 202, 235, 0.8);
--info--9:rgba(117, 202, 235, 0.9);
--warning--1:rgba(255, 133, 27, 0.1);
--warning--2:rgba(255, 133, 27, 0.2);
--warning--3:rgba(255, 133, 27, 0.3);
--warning--4:rgba(255, 133, 27, 0.4);
--warning--5:rgba(255, 133, 27, 0.5);
--warning--6:rgba(255, 133, 27, 0.6);
--warning--7:rgba(255, 133, 27, 0.7);
--warning--8:rgba(255, 133, 27, 0.8);
--warning--9:rgba(255, 133, 27, 0.9);
--danger--1:rgba(255, 65, 54, 0.1);
--danger--2:rgba(255, 65, 54, 0.2);
--danger--3:rgba(255, 65, 54, 0.3);
--danger--4:rgba(255, 65, 54, 0.4);
--danger--5:rgba(255, 65, 54, 0.5);
--danger--6:rgba(255, 65, 54, 0.6);
--danger--7:rgba(255, 65, 54, 0.7);
--danger--8:rgba(255, 65, 54, 0.8);
--danger--9:rgba(255, 65, 54, 0.9);
--light--1:rgba(246, 246, 246, 0.1);
--light--2:rgba(246, 246, 246, 0.2);
--light--3:rgba(246, 246, 246, 0.3);
--light--4:rgba(246, 246, 246, 0.4);
--light--5:rgba(246, 246, 246, 0.5);
--light--6:rgba(246, 246, 246, 0.6);
--light--7:rgba(246, 246, 246, 0.7);
--light--8:rgba(246, 246, 246, 0.8);
--light--9:rgba(246, 246, 246, 0.9);
--dark--1:rgba(85, 85, 85, 0.1);
--dark--2:rgba(85, 85, 85, 0.2);
--dark--3:rgba(85, 85, 85, 0.3);
--dark--4:rgba(85, 85, 85, 0.4);
--dark--5:rgba(85, 85, 85, 0.5);
--dark--6:rgba(85, 85, 85, 0.6);
--dark--7:rgba(85, 85, 85, 0.7);
--dark--8:rgba(85, 85, 85, 0.8);
--dark--9:rgba(85, 85, 85, 0.9);
--theme-scheme--1:#158CBA;
--theme-scheme--2:#3e82bf;
--theme-scheme--3:#6475bc;
--theme-scheme--4:#8566b0;
--theme-scheme--5:#a05599;
--theme-scheme--6:#b0447c;
--theme-scheme-lg--1:#158cba;
--theme-scheme-lg--2:#1dade5;
--theme-scheme-lg--3:#4abeeb;
--theme-scheme-lg--4:#78cef0;
--theme-scheme-lg--5:#b0447c;
--theme-scheme-lg--6:#c36495;
--theme-scheme-lg--7:#d189ae;
--theme-scheme-lg--8:#e0adc7;
--theme-scheme-lg--9:#618f35;
--theme-scheme-lg--10:#7ab443;
--theme-scheme-lg--11:#94c664;
--theme-scheme-lg--12:#aed38a;
--blue:#158CBA;
--indigo:#6610f2;
--purple:#6f42c1;
--pink:#e83e8c;
--red:#FF4136;
--orange:#fd7e14;
--yellow:#FF851B;
--green:#28B62C;
--teal:#20c997;
--cyan:#75CAEB;
--white:#fff;
--gray:#999;
--gray-dark:#333;
--primary:#158CBA;
--secondary:#f0f0f0;
--success:#28B62C;
--info:#75CAEB;
--warning:#FF851B;
--danger:#FF4136;
--light:#f6f6f6;
--dark:#555;
--breakpoint-xs:0;
--breakpoint-sm:576px;
--breakpoint-md:768px;
--breakpoint-lg:992px;
--breakpoint-xl:1200px;
--font-family-sans-serif:"Source Sans Pro", -apple-system, BlinkMacSystemFont, "Segoe UI", Roboto, "Helvetica Neue", Arial, sans-serif, "Apple Color Emoji", "Segoe UI Emoji", "Segoe UI Symbol";
--font-family-monospace:SFMono-Regular, Menlo, Monaco, Consolas, "Liberation Mono", "Courier New", monospace;
--mm-color-background:;
--graphical-mode-icon-display:none;

}
html, body { height: 100%; }
body { margin: 0px; overflow: hidden; }
.lixoftchart-container { display: flex; flex-direction: column; height: 100%; }
.lixoftchart { width: 100%; height: 100%; flex: 1 1 0%; }
.lixoftchart-header { height: 34px; }
.main { flex: 1 1 0%; height: 100%; width: 100%; }
.footer { margin: 0px; }
.checkinit-footer { max-height: 230px; overflow-y: auto; }
.page, .subpage { height: 100%; display: none; }
.page.active, .subpage.active { display: block; }
.axes, .grid { pointer-events: none; }
.axis path, .axis line { fill: none; shape-rendering: crispEdges; }
.tick { font-family: sans-serif; }
.line { fill: none; }
.tick line { stroke-width: 1px; }
.grid line { opacity: 0.2; }
.title { pointer-events: none; font-weight: 400; }
.axis-label { text-anchor: middle; }
.axis-label-unit { font-family: monospace; font-size: smaller; }
.label-subscript { baseline-shift: sub; font-size: 0.8em; }
.zoomable-content, .brushable-content { cursor: crosshair; }
rect.zoom { fill: rgb(221, 221, 221); stroke: steelblue; fill-opacity: 0.5; }
g.brush &gt; rect.selection { stroke-width: 0; }
.handle--custom { fill: rgb(122, 122, 122); fill-opacity: 1; stroke: rgb(122, 122, 122); stroke-width: 2px; display: inline !important; }
.log-filtered { display: none; }
.dot { stroke: none; }
.censObservations.highlighted:not(.lambdaz-observation), .censObservations[data--radius]:not(.lambdaz-observation) { fill: brown !important; }
.spline { fill: none; }
.regressionLine { fill: none; }
.convergence-line { fill: none; }
.percentile-line, .cdf { stroke-width: 1px; }
.bar { shape-rendering: crispEdges; }
.vertical-line, .horizontal-line { shape-rendering: crispEdges; }
.k1, .bound { shape-rendering: crispEdges; }
.outlier.dot { fill: none; }
.boxplot { font-style: normal; font-variant: normal; font-weight: normal; font-stretch: normal; font-size: 10px; line-height: normal; font-family: sans-serif; }
.box-element line, .box-element rect { stroke-opacity: 1; shape-rendering: crispEdges; }
.boxplot .outlier line { fill: none; }
.boxplot .box-underlay { fill: white; fill-opacity: 1; }
.boxplot .label { font-size: 12px; }
.arrow-marker { stroke-width: 0; font-size: 20px; fill: red; dominant-baseline: central; }
.layout-link { padding: 1px 5px !important; }
.sublayout-controls { min-height: 20px; transition: opacity 0.5s ease-in-out; background-color: transparent; opacity: 0.2; cursor: pointer; }
.pagination { transition: opacity 0.5s ease-in-out; }
.sublayout-controls .pagination { opacity: 0; }
.sublayout-controls:hover { transition: none; opacity: 0.9; }
.sublayout-controls:hover .pagination { transition: none; opacity: 1; }
.plot-grid, .subplot-grid { margin: 0px; min-width: 0px; }
.grid-cell { outline: rgb(221, 221, 221) solid 1px; cursor: text; position: absolute; }
.plot-cell { background-color: rgba(119, 33, 111, 0.298039); }
.matrix-diagonal-cell { background-color: rgb(174, 167, 159) !important; }
.plot-cell.selected { background-color: rgb(119, 33, 111); }
.plot-cell:hover, .plot-cell.hovered { background-color: rgb(243, 152, 20); }
.plot-cell.ui-selecting { background-color: rgb(233, 84, 32); }
.cells-selector { cursor: pointer; width: 0px; height: 0px; position: absolute; border: 10px solid rgba(119, 33, 111, 0.298039); }
.cells-selector.selected { border-color: rgb(119, 33, 111); }
.cells-selector.rows, .cells-selector.all { border-top-color: transparent !important; border-bottom-color: transparent !important; border-right-color: transparent !important; }
.cells-selector.cols { border-top-color: transparent !important; border-left-color: transparent !important; border-right-color: transparent !important; }
.cells-selector.all { transform: rotate(-45deg); }
.cells-selector:hover { border-color: rgb(243, 152, 20); }
.layout-grid, .sublayout-grid { padding: 0px; margin: 0px; min-width: 0px; background-color: transparent; border: none; box-shadow: none !important; }
.layout-grid-content { border-collapse: collapse; border: 1px solid rgb(221, 221, 221); }
.layout-cell { background-color: rgba(119, 33, 111, 0.298039); border: 1px solid rgb(221, 221, 221); min-width: 20px; width: 20px; height: 20px; cursor: pointer; }
.layout-cell.selected { background-color: rgb(119, 33, 111); }
.layout-cell.selecting { background-color: rgb(233, 84, 32); }
.layout-container { padding: 10px 15px; align-items: center; }
.layout-controls { display: flex; justify-content: space-between; align-items: center; }
.layout-controls &gt; .layout-controls-wrapper { display: flex; align-items: baseline; }
.layout-controls .btn { border: 0px; border-radius: 0px; white-space: nowrap; padding: 4px 8px !important; }
.layout-controls .btn.toggle-controls-btn { margin-left: 1rem !important; }
.pagination input { color: inherit; background: transparent; border: 0px; outline: none; }
.contrasted-chart-header-btn:not(:hover) { background: rgba(255, 255, 255, 0.2) !important; }
.message-banner { position: fixed; left: 0px; width: 100%; margin-bottom: 0px; z-index: 10; }
.message-banner.top { top: 0px; }
.message-banner.bottom { bottom: 0px; }
.legend { box-shadow: rgba(0, 0, 0, 0.2) 0px 8px 17px 0px, rgba(0, 0, 0, 0.188235) 0px 6px 20px 0px; z-index: 10; }
.legend:not(.no-move) { cursor: move !important; }
.legend-glyph:not(.aa) { shape-rendering: crispEdges; }
.legend-group-label { font-weight: bold; }
.ui-selectable-helper { z-index: 1100; }
.ui-selectable-helper.no-top { border-top: 0px; }
.ui-selectable-helper.no-right { border-right: 0px; }
.ui-selectable-helper.no-bottom { border-bottom: 0px; }
.ui-selectable-helper.no-left { border-left: 0px; }
.print-preview &gt; .modal-dialog { position: absolute; height: auto; bottom: 0px; top: 0px; left: 0px; right: 0px; }
.page-preview { border: 1px dashed rgb(51, 51, 51); margin: 0px auto; }
.page-preview.portrait { height: 60vh; width: 42.42vh; }
.page-preview.landscape { width: 60vw; height: 42.42vw; }
.tooltip-key::after { content: ": "; }
.brushed-out, .bar.brushed-out { fill: rgb(204, 204, 204) !important; }
.infowrapper { pointer-events: none; }
.information { overflow-y: overlay; overflow-x: hidden; padding: 0.5em; font-family: monospace; box-shadow: rgba(0, 0, 0, 0.2) 0px 8px 17px 0px, rgba(0, 0, 0, 0.188235) 0px 6px 20px 0px; display: inline-block; float: right; cursor: move; pointer-events: all; }
.information span { float: left; clear: both; }
.axis path, .axis line, .grid line{
stroke: #636363;
}

.tick text{
fill: #636363;
}

.axis path, .axis line{
stroke-width: 1px;
}

.bar-label{
fill: #000000;
}

.bar-label{
font-size: 10px;
}

.bin-value{
stroke: red;
}

.bin-value{
}

.bin-value{
stroke-width: 1px;
}

.bound{
stroke: red;
}

.bound{
stroke-width: 2px;
}

.bound.bounded{
stroke: limegreen;
}

.baseline{
stroke: #000000;
}

.baseline{
}

.baseline{
stroke-width: 1px;
}

.box-element rect{
fill: #8fbbd9;
}

.boxplot .outlier line{
stroke: #ff0000;
}

.boxplot .outlier line{
stroke-width: 1px;
}

.quartile{
stroke: #000000;
}

.quartile{
stroke-dasharray: 3, 2;
}

.quartile{
stroke-width: 1px;
}

.box-element line{
stroke: #000000;
}

.box-element line{
stroke-width: 1px;
}

.censEvents{
fill: #d44242;
}

.censEvents{
stroke: #d44242;
}

.censObservations{
fill: #d44242;
}
.censObsIntervals{stroke:rgb(212,66,66);stroke-opacity:0.498039;}

.censObsIntervals{
}

.censObsIntervals{
stroke-width: 5px;
}

.convergence-line{
stroke: #4682B4;
}

.cvIndicator-line{
stroke: #990099;
}

.dosingTimes{
stroke: #000000;
}

.dosingTimes{
stroke-dasharray: 8, 8;
}

.dosingTimes{
stroke-width: 2px;
}

line.empirical, path.empirical{
stroke: #4682B4;
}

.dot.empirical{
fill: #4682B4;
}

line.empirical, path.empirical{
}

line.empirical, path.empirical{
stroke-width: 2px;
}

.fisher_linearization&gt;.bar{
fill: #4682B4;
}

.fisher_stochasticApproximation&gt;.bar{
fill: #98abc5;
}

.focus &gt; line, .focus &gt; circle{
stroke: blue;
}

.lixoftchart{
background-color: #ffffff;
}

.sublayout-controls:hover{
background-color: #ffffff;
}

.bar:hover, .band-overlay:hover{
fill: orange !important;
}

g.bar, g.histogram{
fill: #4682B4;
}

g.bar, g.histogram{
stroke: #ffffff;
}

g.bar, g.histogram{
stroke-width: 1px;
}

.information{
background-color: #FFFFCC;
}

.information{
fill: #FFFFCC;
}

.information{
font-size: 12px;
}

.information{
color: #000000;
}

.k1{
stroke: red;
}

.k1{
stroke-width: 1px;
}

.axis-label.global{
fill: #000000;
}

.axis-label.global{
font-size: 14px;
}

.legend-frame{
fill: #ffffff;
}

.legend-frame{
stroke: #000000;
}

.legend-frame{
stroke-width: 0px;
}

.legend text{
fill: #000000;
}

.legend{
font-size: 12px;
}

.ll_importanceSampling&gt;.bar{
fill: #98abc5;
}

.ll_linearization&gt;.bar{
fill: #4682B4;
}

path.median, line.median{
stroke: #000000;
}

path.median, line.median{
stroke-dasharray: 5,3;
}

path.median, line.median{
stroke-width: 1px;
}

.observation{
fill: #4682B4;
}

.observation{
stroke: #4682B4;
}

.observation-line{
stroke-width: 1.5px;
}

.obsStatisticsValues{
font-size: 10px;
}

.outlier.area{
fill: #ff0000;
}

.outlier.dot{
stroke: #ff0000;
}

.outlier.dot{
stroke-width: 1px;
}
.prediction-interval.median{fill:rgb(255,0,0);fill-opacity:0.2;}
.prediction-interval.low, .prediction-interval.up{fill:rgb(0,128,255);fill-opacity:0.298039;}
.plot-background{fill:rgb(250,250,255);fill-opacity:0.6;}
.bar{stroke:rgb(250,250,255);stroke-opacity:0.6;}

.regressionLine{
stroke: #bd2671;
}

.regressionLine{
}

.regressionLine{
stroke-width: 1.5px;
}

.spline{
stroke: #eba213;
}

.spline{
}

.spline{
stroke-width: 1.5px;
}

.axis-label.sublabel, .matrix-diagonal-label{
fill: #000000;
}

.axis-label.sublabel, .matrix-diagonal-label{
font-size: 12px;
}

line.theoretical, path.theoretical{
stroke: #000000;
}

.dot.theoretical{
fill: #000000;
}

line.theoretical, path.theoretical{
stroke-dasharray: 5,3;
}

line.theoretical, path.theoretical{
stroke-width: 1.5px;
}

.tick{
font-size: 10px;
}

.title{
fill: #000000;
}

.title{
font-size: 14px;
}

.axis-label-unit{
fill: #999;
}

.userGuide-dot{
fill: red;
}

.userGuide-line{
stroke: red;
}

.userGuide-dot{
r: 3;
}

.userGuide-line{
}

.userGuide-line{
stroke-width: 1px;
}

.brushed-out, .brushed-out.bar{
fill: #ccc !important;
}
.not-areaOutliers{display:none;}
.not-censObservations{display:none;}
.not-empirical{display:none;}
.not-grid{display:none;}
.hasCensored,.__hasCensored{display:none;}
.hasIOV,.__hasIOV{display:none;}
.not-hasMean{display:none;}
.not-hasMode{display:none;}
.not-isIndivEstimMean{display:none;}
.legend,.__legend{display:none;}
.linkedZoom,.__linkedZoom{display:none;}
.not-observations{display:none;}
.not-piPercentile{display:none;}
.splitted,.__splitted{display:none;}
.theoretical,.__theoretical{display:none;}
.xEqualDomains,.__xEqualDomains{display:none;}
.xLog,.__xLog{display:none;}
.not-yEqualDomains{display:none;}
.yLog,.__yLog{display:none;}
.not-bottomAxisLine{display:none;}
.not-bottomAxisTickLabels{display:none;}
.not-leftAxisLine{display:none;}
.not-leftAxisTickLabels{display:none;}
.rightAxisLine,.__rightAxisLine{display:none;}
.not-rightAxisTickLabels{display:none;}
.topAxisLine,.__topAxisLine{display:none;}
.not-topAxisTickLabels{display:none;}
.freehand-guides-layer,.__freehand-guides-layer{display:none;}
 
      .cdf.theoritical.line {
        stroke-dasharray: 10, 5;
      }
    </style><g class="lixoftchart-scaler"><g class="lixoftchart-translator" transform="translate(50,40)"><g class="x axis" transform="translate(0, 569)"><text class="x axis-label global" x="386.5" y="-10" style="text-anchor: middle;"><tspan class="axis-label-text">y1</tspan><tspan class="axis-label-unit"/></text></g><g class="y axis"><text class="y axis-label global" transform="rotate(-90)" x="-284.5" y="-30" style="text-anchor: middle;"><tspan class="axis-label-text">Cumulative distribution function</tspan><tspan class="axis-label-unit"/></text></g><g class="page plot-page active" data-index="0"><g class="plot-container page-element" width="773" height="529" data-index="0" data-col="0" data-row="0" transform="translate(0,0)"><g class="subpage plot-page active" data-index="0"><g class="plot page-element" width="773" height="529" id="All" data-index="0" transform="translate(0,0)"><rect width="773" height="529" class="plot-background"/><svg class="plot-content zoomable-content" width="773" height="529"><g class="predictionInterval"><g class="low piPercentile"><polygon class="prediction-interval-mask autoscale low prediction-interval" points="35.13636363636364,523.1868131868132 42.2346189164371,517.5 49.332874196510566,516.7683774391874 56.43112947658401,510.7586206896552 63.52938475665748,500.092032967033 70.62764003673094,494.1208791208791 77.7258953168044,486.4367816091954 84.82415059687787,476.1 91.92240587695133,467.8418871959369 99.02066115702479,456.0344827586207 106.11891643709826,444.8409090909091 113.21717171717172,432.3010752688172 120.31542699724517,419.55172413793105 127.41368227731864,410.12359550561797 134.51193755739212,397.4610215053764 141.61019283746555,384.72727272727275 148.70844811753904,376.1777777777778 155.80670339761252,364.4222222222222 162.90495867768595,350.685393258427 170.0032139577594,338.7977528089888 177.1014692378329,331.35164835164835 184.19972451790636,320.96629213483146 191.29797979797985,309.07865168539325 198.3962350780533,297.5667699857936 205.49449035812674,290.37805742644457 212.59274563820023,279.032967032967 219.6910009182737,270.44457070707074 226.78925619834712,261.5280898876404 233.8875114784206,254.06187739463604 240.98576675849407,246.46590909090912 248.0840220385675,238.34065934065933 255.18227731864098,229.61666666666673 262.28053259871444,220.65888278388275 269.3787878787879,214.04828785446762 276.47704315886136,208.03370786516854 283.5752984389348,198.7305107526882 290.6735537190082,192.36363636363637 297.77180899908177,186.021978021978 304.87006427915526,180.34090909090912 311.9683195592287,174.39560439560444 319.0665748393021,168.58241758241758 326.16483011937555,162.30681818181813 333.26308539944904,156.2954545454545 340.36134067952247,149.43979826353427 347.45959595959596,145.32967032967036 354.55785123966945,138.88892357642357 361.6561065197429,132.9766483516484 368.75436179981637,126.23863636363637 375.8526170798898,121.6091954022989 382.9508723599633,115.26436781609192 390.0491276400367,110.45054945054949 397.1473829201102,106.39438202247197 404.2456382001837,102.19318181818187 411.34389348025707,98.62139023766935 418.44214876033055,90.1704545454545 425.54040404040404,88.16666666666663 432.63865932047753,82.75118601747818 439.73691460055096,78.14772727272725 446.83516988062445,74.75 453.9334251606979,70.5333333333333 461.0316804407713,67.57156099369672 468.1299357208448,63.25 475.2281910009183,58.77777777777783 482.3264462809918,56.01951827242527 489.42470156106526,53.49438202247194 496.52295684113864,48.9264902432505 503.6212121212121,47.02222222222224 510.71946740128556,44.08333333333337 517.8177226813591,41.60674157303367 524.9159779614325,40.69230769230768 532.014233241506,36.06818181818187 539.1124885215794,34.5 546.2107438016528,29.71910112359552 553.3089990817264,29.065934065934073 560.4072543617998,24.045454545454504 567.5055096418732,23.511111111111063 574.6037649219468,22.75268817204301 581.7020202020202,18.034090909090878 588.8002754820936,17.43956043956041 595.8985307621671,12.303989181879729 602.9967860422405,11.887640449438209 610.0950413223139,11.755555555555588 617.1932966023875,11.755555555555588 624.2915518824609,8.794030808729303 631.3898071625343,6.011363636363626 638.4880624426079,5.943820224719161 645.5863177226813,5.877777777777737 652.6845730027547,5.813186813186803 659.7828282828283,5.75 666.8810835629016,0 673.9793388429752,0 681.0775941230486,0 688.175849403122,0 695.2741046831954,0 702.372359963269,0 709.4706152433425,0 716.5688705234159,0 723.6671258034894,0 730.7653810835628,0 737.8636363636363,0 737.8636363636363,0 730.7653810835628,6.080459770114885 723.6671258034894,11.626373626373606 716.5688705234159,12.091823406478511 709.4706152433425,17.43956043956041 702.372359963269,18.034090909090878 695.2741046831954,23 688.175849403122,23.775280898876417 681.0775941230486,28.44086021505376 673.9793388429752,29.388888888888914 666.8810835629016,30.40229885057471 659.7828282828283,35.26666666666665 652.6845730027547,36.06818181818187 645.5863177226813,40.69230769230768 638.4880624426079,41.60674157303367 631.3898071625343,46 624.2915518824609,48.09090909090912 617.1932966023875,52.89999999999998 610.0950413223139,56.27659574468089 602.9967860422405,58.45482295482299 595.8985307621671,60.80459770114942 588.8002754820936,63.94505494505495 581.7020202020202,67.66279069767444 574.6037649219468,71.3258426966292 567.5055096418732,74.34811827956992 560.4072543617998,77.2696629213483 553.3089990817264,80.94230769230774 546.2107438016528,84.2869922630561 539.1124885215794,89.15730337078651 532.014233241506,93.01098901098902 524.9159779614325,96.18181818181813 517.8177226813591,98.82417582417582 510.71946740128556,103.43390804597703 503.6212121212121,108.07526881720435 496.52295684113864,112.7428878795123 489.42470156106526,116.26373626373623 482.3264462809918,121.6091954022989 475.2281910009183,126.5 468.1299357208448,129.17441860465118 461.0316804407713,133.7032967032967 453.9334251606979,139.6835291145636 446.83516988062445,143.75 439.73691460055096,147.89247311827955 432.63865932047753,154.53932584269666 425.54040404040404,159.26881720430106 418.44214876033055,164.57777777777778 411.34389348025707,170.25287356321843 404.2456382001837,178.25 397.1473829201102,182.2111111111111 390.0491276400367,187.70967741935488 382.9508723599633,193.39784946236557 375.8526170798898,199.08602150537632 368.75436179981637,206.73563218390802 361.6561065197429,215.08791208791206 354.55785123966945,219.40895001937236 347.45959595959596,226.71428571428572 340.36134067952247,235.1111111111111 333.26308539944904,241.24444444444447 326.16483011937555,249.29885057471262 319.0665748393021,252.47727272727275 311.9683195592287,258.75 304.87006427915526,268.8339447297628 297.77180899908177,276.80232558139534 290.6735537190082,285.07476231633535 283.5752984389348,293.56944444444446 276.47704315886136,302.28571428571433 269.3787878787879,311.52222222222224 262.28053259871444,320.96629213483146 255.18227731864098,328.0474137931035 248.0840220385675,336.9005994005994 240.98576675849407,344.7415730337078 233.8875114784206,354.6374250749251 226.78925619834712,364.8275862068965 219.6910009182737,374.4606741573034 212.59274563820023,383.6703296703297 205.49449035812674,392.29213483146066 198.3962350780533,402.5 191.29797979797985,411.44444444444446 184.19972451790636,421.40334525025537 177.1014692378329,429.0777777777778 170.0032139577594,440.83333333333337 162.90495867768595,447.61538461538464 155.80670339761252,458.0704119850187 148.70844811753904,465.75 141.61019283746555,476.68131868131866 134.51193755739212,487.39325842696627 127.41368227731864,493.73333333333335 120.31542699724517,500.55913978494624 113.21717171717172,506 106.11891643709826,511.75 99.02066115702479,517.3736263736264 91.92240587695133,523.056179775281 84.82415059687787,529 77.7258953168044,529 70.62764003673094,529 63.52938475665748,529 56.43112947658401,529 49.332874196510566,529 42.2346189164371,529 35.13636363636364,529"/></g></g><g class="distribution-functions"><path data-legend="Empirical distribution" class="empirical line autoscale cdf" d="M35.13636363636364,523.5463917525773L42.2346189164371,518.0927835051547L49.332874196510566,518.0927835051547L56.43112947658401,518.0927835051547L63.52938475665748,512.639175257732L70.62764003673094,512.639175257732L77.7258953168044,507.1855670103093L84.82415059687787,507.1855670103093L91.92240587695133,496.2783505154639L99.02066115702479,490.82474226804123L106.11891643709826,485.37113402061857L113.21717171717172,479.91752577319585L120.31542699724517,474.4639175257732L127.41368227731864,469.0103092783505L134.51193755739212,463.5567010309278L141.61019283746555,447.1958762886598L148.70844811753904,430.83505154639175L155.80670339761252,430.83505154639175L162.90495867768595,425.3814432989691L170.0032139577594,403.5670103092784L177.1014692378329,403.5670103092784L184.19972451790636,398.11340206185565L191.29797979797985,370.8453608247423L198.3962350780533,354.4845360824742L205.49449035812674,354.4845360824742L212.59274563820023,349.03092783505156L219.6910009182737,338.1237113402062L226.78925619834712,321.7628865979382L233.8875114784206,316.30927835051546L240.98576675849407,299.9484536082474L248.0840220385675,299.9484536082474L255.18227731864098,294.49484536082474L262.28053259871444,289.0412371134021L269.3787878787879,278.13402061855675L276.47704315886136,272.680412371134L283.5752984389348,261.7731958762887L290.6735537190082,256.31958762886603L297.77180899908177,250.8659793814433L304.87006427915526,223.59793814432993L311.9683195592287,212.69072164948454L319.0665748393021,196.3298969072165L326.16483011937555,196.3298969072165L333.26308539944904,190.87628865979383L340.36134067952247,174.51546391752578L347.45959595959596,163.6082474226804L354.55785123966945,152.70103092783506L361.6561065197429,147.2474226804124L368.75436179981637,147.2474226804124L375.8526170798898,147.2474226804124L382.9508723599633,147.2474226804124L390.0491276400367,141.79381443298973L397.1473829201102,136.340206185567L404.2456382001837,136.340206185567L411.34389348025707,125.43298969072168L418.44214876033055,119.97938144329896L425.54040404040404,114.5257731958763L432.63865932047753,114.5257731958763L439.73691460055096,114.5257731958763L446.83516988062445,109.07216494845363L453.9334251606979,103.61855670103091L461.0316804407713,103.61855670103091L468.1299357208448,98.16494845360825L475.2281910009183,92.71134020618558L482.3264462809918,92.71134020618558L489.42470156106526,81.8041237113402L496.52295684113864,76.35051546391753L503.6212121212121,70.89690721649481L510.71946740128556,65.44329896907215L517.8177226813591,65.44329896907215L524.9159779614325,65.44329896907215L532.014233241506,59.98969072164948L539.1124885215794,43.62886597938149L546.2107438016528,43.62886597938149L553.3089990817264,43.62886597938149L560.4072543617998,32.7216494845361L567.5055096418732,32.7216494845361L574.6037649219468,32.7216494845361L581.7020202020202,32.7216494845361L588.8002754820936,27.268041237113437L595.8985307621671,27.268041237113437L602.9967860422405,21.814432989690715L610.0950413223139,21.814432989690715L617.1932966023875,21.814432989690715L624.2915518824609,16.36082474226805L631.3898071625343,16.36082474226805L638.4880624426079,16.36082474226805L645.5863177226813,16.36082474226805L652.6845730027547,16.36082474226805L659.7828282828283,16.36082474226805L666.8810835629016,16.36082474226805L673.9793388429752,10.90721649484533L681.0775941230486,10.90721649484533L688.175849403122,10.90721649484533L695.2741046831954,10.90721649484533L702.372359963269,10.90721649484533L709.4706152433425,10.90721649484533L716.5688705234159,5.453608247422608L723.6671258034894,5.453608247422608L730.7653810835628,5.453608247422608L737.8636363636363,0" data-legend-class="empirical" fill="none"/></g><g class="userGuides"/></svg><g class="axes"><g class="bottom axis bottomAxisLine" transform="translate(0,529)" fill="none" text-anchor="middle"><path class="domain" stroke="#000" d="M0.5,6V0.5H773.5V6" fill="none"/><g class="tick" opacity="1" transform="translate(13.250073302869415,0)"><line stroke="#000" y2="3" fill="none"/><text fill="#000" y="6" dy="0.71em" class="bottomAxisTickLabels transformed-label"><tspan class="label-block"><tspan class="label-subblock">0</tspan></tspan></text></g><g class="tick" opacity="1" transform="translate(100.4241010812737,0)"><line stroke="#000" y2="3" fill="none"/><text fill="#000" y="6" dy="0.71em" class="bottomAxisTickLabels transformed-label"><tspan class="label-block"><tspan class="label-subblock">5</tspan></tspan></text></g><g class="tick" opacity="1" transform="translate(187.598128859678,0)"><line stroke="#000" y2="3" fill="none"/><text fill="#000" y="6" dy="0.71em" class="bottomAxisTickLabels transformed-label"><tspan class="label-block"><tspan class="label-subblock">10</tspan></tspan></text></g><g class="tick" opacity="1" transform="translate(274.77215663808227,0)"><line stroke="#000" y2="3" fill="none"/><text fill="#000" y="6" dy="0.71em" class="bottomAxisTickLabels transformed-label"><tspan class="label-block"><tspan class="label-subblock">15</tspan></tspan></text></g><g class="tick" opacity="1" transform="translate(361.9461844164866,0)"><line stroke="#000" y2="3" fill="none"/><text fill="#000" y="6" dy="0.71em" class="bottomAxisTickLabels transformed-label"><tspan class="label-block"><tspan class="label-subblock">20</tspan></tspan></text></g><g class="tick" opacity="1" transform="translate(449.1202121948909,0)"><line stroke="#000" y2="3" fill="none"/><text fill="#000" y="6" dy="0.71em" class="bottomAxisTickLabels transformed-label"><tspan class="label-block"><tspan class="label-subblock">25</tspan></tspan></text></g><g class="tick" opacity="1" transform="translate(536.2942399732951,0)"><line stroke="#000" y2="3" fill="none"/><text fill="#000" y="6" dy="0.71em" class="bottomAxisTickLabels transformed-label"><tspan class="label-block"><tspan class="label-subblock">30</tspan></tspan></text></g><g class="tick" opacity="1" transform="translate(623.4682677516994,0)"><line stroke="#000" y2="3" fill="none"/><text fill="#000" y="6" dy="0.71em" class="bottomAxisTickLabels transformed-label"><tspan class="label-block"><tspan class="label-subblock">35</tspan></tspan></text></g><g class="tick" opacity="1" transform="translate(710.6422955301036,0)"><line stroke="#000" y2="3" fill="none"/><text fill="#000" y="6" dy="0.71em" class="bottomAxisTickLabels transformed-label"><tspan class="label-block"><tspan class="label-subblock">40</tspan></tspan></text></g></g><g class="left axis leftAxisLine" fill="none" text-anchor="end"><path class="domain" stroke="#000" d="M-6,529.5H0.5V0.5H-6" fill="none"/><g class="tick" opacity="1" transform="translate(0,529.5)"><line stroke="#000" x2="-3" fill="none"/><text fill="#000" x="-6" dy="0.32em" class="leftAxisTickLabels transformed-label"><tspan class="label-block"><tspan class="label-subblock">0</tspan></tspan></text></g><g class="tick" opacity="1" transform="translate(0,476.6)"><line stroke="#000" x2="-3" fill="none"/><text fill="#000" x="-6" dy="0.32em" class="leftAxisTickLabels transformed-label"><tspan class="label-block"><tspan class="label-subblock">0.1</tspan></tspan></text></g><g class="tick" opacity="1" transform="translate(0,423.7)"><line stroke="#000" x2="-3" fill="none"/><text fill="#000" x="-6" dy="0.32em" class="leftAxisTickLabels transformed-label"><tspan class="label-block"><tspan class="label-subblock">0.2</tspan></tspan></text></g><g class="tick" opacity="1" transform="translate(0,370.8)"><line stroke="#000" x2="-3" fill="none"/><text fill="#000" x="-6" dy="0.32em" class="leftAxisTickLabels transformed-label"><tspan class="label-block"><tspan class="label-subblock">0.3</tspan></tspan></text></g><g class="tick" opacity="1" transform="translate(0,317.9)"><line stroke="#000" x2="-3" fill="none"/><text fill="#000" x="-6" dy="0.32em" class="leftAxisTickLabels transformed-label"><tspan class="label-block"><tspan class="label-subblock">0.4</tspan></tspan></text></g><g class="tick" opacity="1" transform="translate(0,265)"><line stroke="#000" x2="-3" fill="none"/><text fill="#000" x="-6" dy="0.32em" class="leftAxisTickLabels transformed-label"><tspan class="label-block"><tspan class="label-subblock">0.5</tspan></tspan></text></g><g class="tick" opacity="1" transform="translate(0,212.10000000000002)"><line stroke="#000" x2="-3" fill="none"/><text fill="#000" x="-6" dy="0.32em" class="leftAxisTickLabels transformed-label"><tspan class="label-block"><tspan class="label-subblock">0.6</tspan></tspan></text></g><g class="tick" opacity="1" transform="translate(0,159.20000000000005)"><line stroke="#000" x2="-3" fill="none"/><text fill="#000" x="-6" dy="0.32em" class="leftAxisTickLabels transformed-label"><tspan class="label-block"><tspan class="label-subblock">0.7</tspan></tspan></text></g><g class="tick" opacity="1" transform="translate(0,106.29999999999995)"><line stroke="#000" x2="-3" fill="none"/><text fill="#000" x="-6" dy="0.32em" class="leftAxisTickLabels transformed-label"><tspan class="label-block"><tspan class="label-subblock">0.8</tspan></tspan></text></g><g class="tick" opacity="1" transform="translate(0,53.39999999999998)"><line stroke="#000" x2="-3" fill="none"/><text fill="#000" x="-6" dy="0.32em" class="leftAxisTickLabels transformed-label"><tspan class="label-block"><tspan class="label-subblock">0.9</tspan></tspan></text></g><g class="tick" opacity="1" transform="translate(0,0.5)"><line stroke="#000" x2="-3" fill="none"/><text fill="#000" x="-6" dy="0.32em" class="leftAxisTickLabels transformed-label"><tspan class="label-block"><tspan class="label-subblock">1</tspan></tspan></text></g></g></g><g class="grid"><g class="vertical" transform="translate(0,529)" fill="none" font-size="10" font-family="sans-serif" text-anchor="middle"><g class="tick" opacity="1" transform="translate(13.250073302869415,0)"><line stroke="#000" y2="-529" fill="none"/></g><g class="tick" opacity="1" transform="translate(100.4241010812737,0)"><line stroke="#000" y2="-529" fill="none"/></g><g class="tick" opacity="1" transform="translate(187.598128859678,0)"><line stroke="#000" y2="-529" fill="none"/></g><g class="tick" opacity="1" transform="translate(274.77215663808227,0)"><line stroke="#000" y2="-529" fill="none"/></g><g class="tick" opacity="1" transform="translate(361.9461844164866,0)"><line stroke="#000" y2="-529" fill="none"/></g><g class="tick" opacity="1" transform="translate(449.1202121948909,0)"><line stroke="#000" y2="-529" fill="none"/></g><g class="tick" opacity="1" transform="translate(536.2942399732951,0)"><line stroke="#000" y2="-529" fill="none"/></g><g class="tick" opacity="1" transform="translate(623.4682677516994,0)"><line stroke="#000" y2="-529" fill="none"/></g><g class="tick" opacity="1" transform="translate(710.6422955301036,0)"><line stroke="#000" y2="-529" fill="none"/></g></g><g class="horizontal" fill="none" font-size="10" font-family="sans-serif" text-anchor="end"><g class="tick" opacity="1" transform="translate(0,529.5)"><line stroke="#000" x2="773" fill="none"/></g><g class="tick" opacity="1" transform="translate(0,476.6)"><line stroke="#000" x2="773" fill="none"/></g><g class="tick" opacity="1" transform="translate(0,423.7)"><line stroke="#000" x2="773" fill="none"/></g><g class="tick" opacity="1" transform="translate(0,370.8)"><line stroke="#000" x2="773" fill="none"/></g><g class="tick" opacity="1" transform="translate(0,317.9)"><line stroke="#000" x2="773" fill="none"/></g><g class="tick" opacity="1" transform="translate(0,265)"><line stroke="#000" x2="773" fill="none"/></g><g class="tick" opacity="1" transform="translate(0,212.10000000000002)"><line stroke="#000" x2="773" fill="none"/></g><g class="tick" opacity="1" transform="translate(0,159.20000000000005)"><line stroke="#000" x2="773" fill="none"/></g><g class="tick" opacity="1" transform="translate(0,106.29999999999995)"><line stroke="#000" x2="773" fill="none"/></g><g class="tick" opacity="1" transform="translate(0,53.39999999999998)"><line stroke="#000" x2="773" fill="none"/></g><g class="tick" opacity="1" transform="translate(0,0.5)"><line stroke="#000" x2="773" fill="none"/></g></g></g><defs><g id="All-pi-low"><polygon class="prediction-interval autoscale" points="35.13636363636364,523.1868131868132 42.2346189164371,517.5 49.332874196510566,516.7683774391874 56.43112947658401,510.7586206896552 63.52938475665748,500.092032967033 70.62764003673094,494.1208791208791 77.7258953168044,486.4367816091954 84.82415059687787,476.1 91.92240587695133,467.8418871959369 99.02066115702479,456.0344827586207 106.11891643709826,444.8409090909091 113.21717171717172,432.3010752688172 120.31542699724517,419.55172413793105 127.41368227731864,410.12359550561797 134.51193755739212,397.4610215053764 141.61019283746555,384.72727272727275 148.70844811753904,376.1777777777778 155.80670339761252,364.4222222222222 162.90495867768595,350.685393258427 170.0032139577594,338.7977528089888 177.1014692378329,331.35164835164835 184.19972451790636,320.96629213483146 191.29797979797985,309.07865168539325 198.3962350780533,297.5667699857936 205.49449035812674,290.37805742644457 212.59274563820023,279.032967032967 219.6910009182737,270.44457070707074 226.78925619834712,261.5280898876404 233.8875114784206,254.06187739463604 240.98576675849407,246.46590909090912 248.0840220385675,238.34065934065933 255.18227731864098,229.61666666666673 262.28053259871444,220.65888278388275 269.3787878787879,214.04828785446762 276.47704315886136,208.03370786516854 283.5752984389348,198.7305107526882 290.6735537190082,192.36363636363637 297.77180899908177,186.021978021978 304.87006427915526,180.34090909090912 311.9683195592287,174.39560439560444 319.0665748393021,168.58241758241758 326.16483011937555,162.30681818181813 333.26308539944904,156.2954545454545 340.36134067952247,149.43979826353427 347.45959595959596,145.32967032967036 354.55785123966945,138.88892357642357 361.6561065197429,132.9766483516484 368.75436179981637,126.23863636363637 375.8526170798898,121.6091954022989 382.9508723599633,115.26436781609192 390.0491276400367,110.45054945054949 397.1473829201102,106.39438202247197 404.2456382001837,102.19318181818187 411.34389348025707,98.62139023766935 418.44214876033055,90.1704545454545 425.54040404040404,88.16666666666663 432.63865932047753,82.75118601747818 439.73691460055096,78.14772727272725 446.83516988062445,74.75 453.9334251606979,70.5333333333333 461.0316804407713,67.57156099369672 468.1299357208448,63.25 475.2281910009183,58.77777777777783 482.3264462809918,56.01951827242527 489.42470156106526,53.49438202247194 496.52295684113864,48.9264902432505 503.6212121212121,47.02222222222224 510.71946740128556,44.08333333333337 517.8177226813591,41.60674157303367 524.9159779614325,40.69230769230768 532.014233241506,36.06818181818187 539.1124885215794,34.5 546.2107438016528,29.71910112359552 553.3089990817264,29.065934065934073 560.4072543617998,24.045454545454504 567.5055096418732,23.511111111111063 574.6037649219468,22.75268817204301 581.7020202020202,18.034090909090878 588.8002754820936,17.43956043956041 595.8985307621671,12.303989181879729 602.9967860422405,11.887640449438209 610.0950413223139,11.755555555555588 617.1932966023875,11.755555555555588 624.2915518824609,8.794030808729303 631.3898071625343,6.011363636363626 638.4880624426079,5.943820224719161 645.5863177226813,5.877777777777737 652.6845730027547,5.813186813186803 659.7828282828283,5.75 666.8810835629016,0 673.9793388429752,0 681.0775941230486,0 688.175849403122,0 695.2741046831954,0 702.372359963269,0 709.4706152433425,0 716.5688705234159,0 723.6671258034894,0 730.7653810835628,0 737.8636363636363,0 737.8636363636363,0 730.7653810835628,6.080459770114885 723.6671258034894,11.626373626373606 716.5688705234159,12.091823406478511 709.4706152433425,17.43956043956041 702.372359963269,18.034090909090878 695.2741046831954,23 688.175849403122,23.775280898876417 681.0775941230486,28.44086021505376 673.9793388429752,29.388888888888914 666.8810835629016,30.40229885057471 659.7828282828283,35.26666666666665 652.6845730027547,36.06818181818187 645.5863177226813,40.69230769230768 638.4880624426079,41.60674157303367 631.3898071625343,46 624.2915518824609,48.09090909090912 617.1932966023875,52.89999999999998 610.0950413223139,56.27659574468089 602.9967860422405,58.45482295482299 595.8985307621671,60.80459770114942 588.8002754820936,63.94505494505495 581.7020202020202,67.66279069767444 574.6037649219468,71.3258426966292 567.5055096418732,74.34811827956992 560.4072543617998,77.2696629213483 553.3089990817264,80.94230769230774 546.2107438016528,84.2869922630561 539.1124885215794,89.15730337078651 532.014233241506,93.01098901098902 524.9159779614325,96.18181818181813 517.8177226813591,98.82417582417582 510.71946740128556,103.43390804597703 503.6212121212121,108.07526881720435 496.52295684113864,112.7428878795123 489.42470156106526,116.26373626373623 482.3264462809918,121.6091954022989 475.2281910009183,126.5 468.1299357208448,129.17441860465118 461.0316804407713,133.7032967032967 453.9334251606979,139.6835291145636 446.83516988062445,143.75 439.73691460055096,147.89247311827955 432.63865932047753,154.53932584269666 425.54040404040404,159.26881720430106 418.44214876033055,164.57777777777778 411.34389348025707,170.25287356321843 404.2456382001837,178.25 397.1473829201102,182.2111111111111 390.0491276400367,187.70967741935488 382.9508723599633,193.39784946236557 375.8526170798898,199.08602150537632 368.75436179981637,206.73563218390802 361.6561065197429,215.08791208791206 354.55785123966945,219.40895001937236 347.45959595959596,226.71428571428572 340.36134067952247,235.1111111111111 333.26308539944904,241.24444444444447 326.16483011937555,249.29885057471262 319.0665748393021,252.47727272727275 311.9683195592287,258.75 304.87006427915526,268.8339447297628 297.77180899908177,276.80232558139534 290.6735537190082,285.07476231633535 283.5752984389348,293.56944444444446 276.47704315886136,302.28571428571433 269.3787878787879,311.52222222222224 262.28053259871444,320.96629213483146 255.18227731864098,328.0474137931035 248.0840220385675,336.9005994005994 240.98576675849407,344.7415730337078 233.8875114784206,354.6374250749251 226.78925619834712,364.8275862068965 219.6910009182737,374.4606741573034 212.59274563820023,383.6703296703297 205.49449035812674,392.29213483146066 198.3962350780533,402.5 191.29797979797985,411.44444444444446 184.19972451790636,421.40334525025537 177.1014692378329,429.0777777777778 170.0032139577594,440.83333333333337 162.90495867768595,447.61538461538464 155.80670339761252,458.0704119850187 148.70844811753904,465.75 141.61019283746555,476.68131868131866 134.51193755739212,487.39325842696627 127.41368227731864,493.73333333333335 120.31542699724517,500.55913978494624 113.21717171717172,506 106.11891643709826,511.75 99.02066115702479,517.3736263736264 91.92240587695133,523.056179775281 84.82415059687787,529 77.7258953168044,529 70.62764003673094,529 63.52938475665748,529 56.43112947658401,529 49.332874196510566,529 42.2346189164371,529 35.13636363636364,529"/></g><g id="All-pi-low-maskdata"/><mask id="All-pi-low-mask" class="prediction-interval-mask"><rect x="0" y="0" width="100%" height="100%" fill="white"/><use xmlns:xlink="http://www.w3.org/1999/xlink" xlink:href="#All-pi-low-maskdata" fill="black"/></mask><clipPath id="All--freehand-guides-clip" class="freehand-guides-clip"><rect x="0" y="0" width="773" height="529"/></clipPath></defs></g></g><text x="386.5" y="-1em" class="title transformed-label" text-anchor="middle"><tspan class="label-block"/></text></g></g></g></g></svg>
