<svg xmlns="http://www.w3.org/2000/svg" class="lixoftchart importanceSampling" width="1366" height="614.21875" style="font-family: &quot;Source Sans Pro&quot;, -apple-system, BlinkMacSystemFont, &quot;Segoe UI&quot;, Roboto, &quot;Helvetica Neue&quot;, Arial, sans-serif, &quot;Apple Color Emoji&quot;, &quot;Segoe UI Emoji&quot;, &quot;Segoe UI Symbol&quot;; font-weight: normal;"><style>svg {
--primary--1:rgba(21, 140, 186, 0.1);
--primary--2:rgba(21, 140, 186, 0.2);
--primary--3:rgba(21, 140, 186, 0.3);
--primary--4:rgba(21, 140, 186, 0.4);
--primary--5:rgba(21, 140, 186, 0.5);
--primary--6:rgba(21, 140, 186, 0.6);
--primary--7:rgba(21, 140, 186, 0.7);
--primary--8:rgba(21, 140, 186, 0.8);
--primary--9:rgba(21, 140, 186, 0.9);
--secondary--1:rgba(240, 240, 240, 0.1);
--secondary--2:rgba(240, 240, 240, 0.2);
--secondary--3:rgba(240, 240, 240, 0.3);
--secondary--4:rgba(240, 240, 240, 0.4);
--secondary--5:rgba(240, 240, 240, 0.5);
--secondary--6:rgba(240, 240, 240, 0.6);
--secondary--7:rgba(240, 240, 240, 0.7);
--secondary--8:rgba(240, 240, 240, 0.8);
--secondary--9:rgba(240, 240, 240, 0.9);
--success--1:rgba(40, 182, 44, 0.1);
--success--2:rgba(40, 182, 44, 0.2);
--success--3:rgba(40, 182, 44, 0.3);
--success--4:rgba(40, 182, 44, 0.4);
--success--5:rgba(40, 182, 44, 0.5);
--success--6:rgba(40, 182, 44, 0.6);
--success--7:rgba(40, 182, 44, 0.7);
--success--8:rgba(40, 182, 44, 0.8);
--success--9:rgba(40, 182, 44, 0.9);
--info--1:rgba(117, 202, 235, 0.1);
--info--2:rgba(117, 202, 235, 0.2);
--info--3:rgba(117, 202, 235, 0.3);
--info--4:rgba(117, 202, 235, 0.4);
--info--5:rgba(117, 202, 235, 0.5);
--info--6:rgba(117, 202, 235, 0.6);
--info--7:rgba(117, 202, 235, 0.7);
--info--8:rgba(117, 202, 235, 0.8);
--info--9:rgba(117, 202, 235, 0.9);
--warning--1:rgba(255, 133, 27, 0.1);
--warning--2:rgba(255, 133, 27, 0.2);
--warning--3:rgba(255, 133, 27, 0.3);
--warning--4:rgba(255, 133, 27, 0.4);
--warning--5:rgba(255, 133, 27, 0.5);
--warning--6:rgba(255, 133, 27, 0.6);
--warning--7:rgba(255, 133, 27, 0.7);
--warning--8:rgba(255, 133, 27, 0.8);
--warning--9:rgba(255, 133, 27, 0.9);
--danger--1:rgba(255, 65, 54, 0.1);
--danger--2:rgba(255, 65, 54, 0.2);
--danger--3:rgba(255, 65, 54, 0.3);
--danger--4:rgba(255, 65, 54, 0.4);
--danger--5:rgba(255, 65, 54, 0.5);
--danger--6:rgba(255, 65, 54, 0.6);
--danger--7:rgba(255, 65, 54, 0.7);
--danger--8:rgba(255, 65, 54, 0.8);
--danger--9:rgba(255, 65, 54, 0.9);
--light--1:rgba(246, 246, 246, 0.1);
--light--2:rgba(246, 246, 246, 0.2);
--light--3:rgba(246, 246, 246, 0.3);
--light--4:rgba(246, 246, 246, 0.4);
--light--5:rgba(246, 246, 246, 0.5);
--light--6:rgba(246, 246, 246, 0.6);
--light--7:rgba(246, 246, 246, 0.7);
--light--8:rgba(246, 246, 246, 0.8);
--light--9:rgba(246, 246, 246, 0.9);
--dark--1:rgba(85, 85, 85, 0.1);
--dark--2:rgba(85, 85, 85, 0.2);
--dark--3:rgba(85, 85, 85, 0.3);
--dark--4:rgba(85, 85, 85, 0.4);
--dark--5:rgba(85, 85, 85, 0.5);
--dark--6:rgba(85, 85, 85, 0.6);
--dark--7:rgba(85, 85, 85, 0.7);
--dark--8:rgba(85, 85, 85, 0.8);
--dark--9:rgba(85, 85, 85, 0.9);
--theme-scheme--1:#158CBA;
--theme-scheme--2:#3e82bf;
--theme-scheme--3:#6475bc;
--theme-scheme--4:#8566b0;
--theme-scheme--5:#a05599;
--theme-scheme--6:#b0447c;
--theme-scheme-lg--1:#158cba;
--theme-scheme-lg--2:#1dade5;
--theme-scheme-lg--3:#4abeeb;
--theme-scheme-lg--4:#78cef0;
--theme-scheme-lg--5:#b0447c;
--theme-scheme-lg--6:#c36495;
--theme-scheme-lg--7:#d189ae;
--theme-scheme-lg--8:#e0adc7;
--theme-scheme-lg--9:#618f35;
--theme-scheme-lg--10:#7ab443;
--theme-scheme-lg--11:#94c664;
--theme-scheme-lg--12:#aed38a;
--blue:#158CBA;
--indigo:#6610f2;
--purple:#6f42c1;
--pink:#e83e8c;
--red:#FF4136;
--orange:#fd7e14;
--yellow:#FF851B;
--green:#28B62C;
--teal:#20c997;
--cyan:#75CAEB;
--white:#fff;
--gray:#999;
--gray-dark:#333;
--primary:#158CBA;
--secondary:#f0f0f0;
--success:#28B62C;
--info:#75CAEB;
--warning:#FF851B;
--danger:#FF4136;
--light:#f6f6f6;
--dark:#555;
--breakpoint-xs:0;
--breakpoint-sm:576px;
--breakpoint-md:768px;
--breakpoint-lg:992px;
--breakpoint-xl:1200px;
--font-family-sans-serif:"Source Sans Pro", -apple-system, BlinkMacSystemFont, "Segoe UI", Roboto, "Helvetica Neue", Arial, sans-serif, "Apple Color Emoji", "Segoe UI Emoji", "Segoe UI Symbol";
--font-family-monospace:SFMono-Regular, Menlo, Monaco, Consolas, "Liberation Mono", "Courier New", monospace;
--mm-color-background:;
--graphical-mode-icon-display:none;

}
html, body { height: 100%; }
body { margin: 0px; overflow: hidden; }
.lixoftchart-container { display: flex; flex-direction: column; height: 100%; }
.lixoftchart { width: 100%; height: 100%; flex: 1 1 0%; }
.lixoftchart-header { height: 34px; }
.main { flex: 1 1 0%; height: 100%; width: 100%; }
.footer { margin: 0px; }
.checkinit-footer { max-height: 230px; overflow-y: auto; }
.page, .subpage { height: 100%; display: none; }
.page.active, .subpage.active { display: block; }
.axes, .grid { pointer-events: none; }
.axis path, .axis line { fill: none; shape-rendering: crispEdges; }
.tick { font-family: sans-serif; }
.line { fill: none; }
.tick line { stroke-width: 1px; }
.grid line { opacity: 0.2; }
.title { pointer-events: none; font-weight: 400; }
.axis-label { text-anchor: middle; }
.axis-label-unit { font-family: monospace; font-size: smaller; }
.label-subscript { baseline-shift: sub; font-size: 0.8em; }
.zoomable-content, .brushable-content { cursor: crosshair; }
rect.zoom { fill: rgb(221, 221, 221); stroke: steelblue; fill-opacity: 0.5; }
g.brush &gt; rect.selection { stroke-width: 0; }
.handle--custom { fill: rgb(122, 122, 122); fill-opacity: 1; stroke: rgb(122, 122, 122); stroke-width: 2px; display: inline !important; }
.log-filtered { display: none; }
.dot { stroke: none; }
.censObservations.highlighted:not(.lambdaz-observation), .censObservations[data--radius]:not(.lambdaz-observation) { fill: brown !important; }
.spline { fill: none; }
.regressionLine { fill: none; }
.convergence-line { fill: none; }
.percentile-line, .cdf { stroke-width: 1px; }
.bar { shape-rendering: crispEdges; }
.vertical-line, .horizontal-line { shape-rendering: crispEdges; }
.k1, .bound { shape-rendering: crispEdges; }
.outlier.dot { fill: none; }
.boxplot { font-style: normal; font-variant: normal; font-weight: normal; font-stretch: normal; font-size: 10px; line-height: normal; font-family: sans-serif; }
.box-element line, .box-element rect { stroke-opacity: 1; shape-rendering: crispEdges; }
.boxplot .outlier line { fill: none; }
.boxplot .box-underlay { fill: white; fill-opacity: 1; }
.boxplot .label { font-size: 12px; }
.arrow-marker { stroke-width: 0; font-size: 20px; fill: red; dominant-baseline: central; }
.layout-link { padding: 1px 5px !important; }
.sublayout-controls { min-height: 20px; transition: opacity 0.5s ease-in-out; background-color: transparent; opacity: 0.2; cursor: pointer; }
.pagination { transition: opacity 0.5s ease-in-out; }
.sublayout-controls .pagination { opacity: 0; }
.sublayout-controls:hover { transition: none; opacity: 0.9; }
.sublayout-controls:hover .pagination { transition: none; opacity: 1; }
.plot-grid, .subplot-grid { margin: 0px; min-width: 0px; }
.grid-cell { outline: rgb(221, 221, 221) solid 1px; cursor: text; position: absolute; }
.plot-cell { background-color: rgba(119, 33, 111, 0.298039); }
.matrix-diagonal-cell { background-color: rgb(174, 167, 159) !important; }
.plot-cell.selected { background-color: rgb(119, 33, 111); }
.plot-cell:hover, .plot-cell.hovered { background-color: rgb(243, 152, 20); }
.plot-cell.ui-selecting { background-color: rgb(233, 84, 32); }
.cells-selector { cursor: pointer; width: 0px; height: 0px; position: absolute; border: 10px solid rgba(119, 33, 111, 0.298039); }
.cells-selector.selected { border-color: rgb(119, 33, 111); }
.cells-selector.rows, .cells-selector.all { border-top-color: transparent !important; border-bottom-color: transparent !important; border-right-color: transparent !important; }
.cells-selector.cols { border-top-color: transparent !important; border-left-color: transparent !important; border-right-color: transparent !important; }
.cells-selector.all { transform: rotate(-45deg); }
.cells-selector:hover { border-color: rgb(243, 152, 20); }
.layout-grid, .sublayout-grid { padding: 0px; margin: 0px; min-width: 0px; background-color: transparent; border: none; box-shadow: none !important; }
.layout-grid-content { border-collapse: collapse; border: 1px solid rgb(221, 221, 221); }
.layout-cell { background-color: rgba(119, 33, 111, 0.298039); border: 1px solid rgb(221, 221, 221); min-width: 20px; width: 20px; height: 20px; cursor: pointer; }
.layout-cell.selected { background-color: rgb(119, 33, 111); }
.layout-cell.selecting { background-color: rgb(233, 84, 32); }
.layout-container { padding: 10px 15px; align-items: center; }
.layout-controls { display: flex; justify-content: space-between; align-items: center; }
.layout-controls &gt; .layout-controls-wrapper { display: flex; align-items: baseline; }
.layout-controls .btn { border: 0px; border-radius: 0px; white-space: nowrap; padding: 4px 8px !important; }
.layout-controls .btn.toggle-controls-btn { margin-left: 1rem !important; }
.pagination input { color: inherit; background: transparent; border: 0px; outline: none; }
.contrasted-chart-header-btn:not(:hover) { background: rgba(255, 255, 255, 0.2) !important; }
.message-banner { position: fixed; left: 0px; width: 100%; margin-bottom: 0px; z-index: 10; }
.message-banner.top { top: 0px; }
.message-banner.bottom { bottom: 0px; }
.legend { box-shadow: rgba(0, 0, 0, 0.2) 0px 8px 17px 0px, rgba(0, 0, 0, 0.188235) 0px 6px 20px 0px; z-index: 10; }
.legend:not(.no-move) { cursor: move !important; }
.legend-glyph:not(.aa) { shape-rendering: crispEdges; }
.legend-group-label { font-weight: bold; }
.ui-selectable-helper { z-index: 1100; }
.ui-selectable-helper.no-top { border-top: 0px; }
.ui-selectable-helper.no-right { border-right: 0px; }
.ui-selectable-helper.no-bottom { border-bottom: 0px; }
.ui-selectable-helper.no-left { border-left: 0px; }
.print-preview &gt; .modal-dialog { position: absolute; height: auto; bottom: 0px; top: 0px; left: 0px; right: 0px; }
.page-preview { border: 1px dashed rgb(51, 51, 51); margin: 0px auto; }
.page-preview.portrait { height: 60vh; width: 42.42vh; }
.page-preview.landscape { width: 60vw; height: 42.42vw; }
.tooltip-key::after { content: ": "; }
.brushed-out, .bar.brushed-out { fill: rgb(204, 204, 204) !important; }
.infowrapper { pointer-events: none; }
.information { overflow-y: overlay; overflow-x: hidden; padding: 0.5em; font-family: monospace; box-shadow: rgba(0, 0, 0, 0.2) 0px 8px 17px 0px, rgba(0, 0, 0, 0.188235) 0px 6px 20px 0px; display: inline-block; float: right; cursor: move; pointer-events: all; }
.information span { float: left; clear: both; }
.axis path, .axis line, .grid line{
stroke: #636363;
}

.tick text{
fill: #636363;
}

.axis path, .axis line{
stroke-width: 1px;
}

.bound{
stroke: red;
}

.bound{
stroke-width: 2px;
}

.bound.bounded{
stroke: limegreen;
}

.convergence-line{
stroke: #4682B4;
}

.cvIndicator-line{
stroke: #990099;
}

.lixoftchart{
background-color: #ffffff;
}

.sublayout-controls:hover{
background-color: #ffffff;
}

.information{
background-color: #FFFFCC;
}

.information{
fill: #FFFFCC;
}

.information{
font-size: 12px;
}

.information{
color: #000000;
}

.k1{
stroke: red;
}

.k1{
stroke-width: 1px;
}

.axis-label.global{
fill: #000000;
}

.axis-label.global{
font-size: 14px;
}

.legend-frame{
fill: #ffffff;
}

.legend-frame{
stroke: #000000;
}

.legend-frame{
stroke-width: 0px;
}

.legend text{
fill: #000000;
}

.legend{
font-size: 12px;
}
.plot-background{fill:rgb(250,250,255);fill-opacity:0.6;}
.bar{stroke:rgb(250,250,255);stroke-opacity:0.6;}

.axis-label.sublabel, .matrix-diagonal-label{
fill: #000000;
}

.axis-label.sublabel, .matrix-diagonal-label{
font-size: 12px;
}

.tick{
font-size: 10px;
}

.title{
fill: #000000;
}

.title{
font-size: 14px;
}

.axis-label-unit{
fill: #999;
}

.brushed-out, .brushed-out.bar{
fill: #ccc !important;
}
.legend,.__legend{display:none;}
.not-grid{display:none;}
.not-bottomAxisLine{display:none;}
.not-bottomAxisTickLabels{display:none;}
.not-leftAxisLine{display:none;}
.not-leftAxisTickLabels{display:none;}
.rightAxisLine,.__rightAxisLine{display:none;}
.not-rightAxisTickLabels{display:none;}
.topAxisLine,.__topAxisLine{display:none;}
.not-topAxisTickLabels{display:none;}
.freehand-guides-layer,.__freehand-guides-layer{display:none;}
</style><g class="lixoftchart-scaler"><g class="lixoftchart-translator" transform="translate(50,40)"><g class="x axis" transform="translate(0, 540.21875)"><text class="x axis-label global" x="638" y="-10" style="text-anchor: middle;"><tspan class="axis-label-text">Monte Carlo size</tspan><tspan class="axis-label-unit"/></text></g><g class="y axis"><text class="y axis-label global" transform="rotate(-90)" x="-270.109375" y="-30" style="text-anchor: middle;"><tspan class="axis-label-text">-2LL</tspan><tspan class="axis-label-unit"/></text></g><g class="page plot-page active" data-index="0"><g class="plot-container page-element" width="1276" height="500.21875" data-index="0" data-col="0" data-row="0" transform="translate(0,0)"><g class="subpage plot-page active" data-index="0"><g class="plot page-element" width="1276" height="500.21875" id="importanceSampling" data-index="0" title="Importance sampling" transform="translate(0,0)"><rect width="1276" height="500.21875" class="plot-background"/><svg class="plot-content" width="1276" height="500.21875"><path class="convergence-line line autoscale" data-legend="Run #1" data-legend-pos="0" d="M0,364.5874961964952L67.1578947368421,385.6914182158521L134.3157894736842,403.66905023680016L201.4736842105263,401.31382922535425L268.6315789473684,389.4105873248494L335.7894736842105,392.77872952115797L402.9473684210526,394.7319521557388L470.1052631578947,396.1879577875061L537.2631578947368,391.75911962221306L604.421052631579,390.4772927861235L671.578947368421,391.51729211357423L738.7368421052632,390.79343752230784L805.8947368421052,392.79806183520884L873.0526315789474,390.0187828350513L940.2105263157894,391.5116551348445L1007.3684210526316,392.51060419433327L1074.5263157894735,388.83770339625795L1141.6842105263158,392.44949221441675L1208.842105263158,394.28162199258446L1276,392.96719106491867" data-legend-class="Run #1" style="stroke: rgb(51, 102, 204);" fill="none"/><path class="convergence-line line autoscale" data-legend="Run #2" data-legend-pos="1" d="M0,308.12989893268593L67.1578947368421,340.8036557738962L134.3157894736842,339.82468845662476L201.4736842105263,340.9506729093964L268.6315789473684,341.36733401806316L335.7894736842105,333.6970155683435L402.9473684210526,341.1662268797138L470.1052631578947,344.2237519747263L537.2631578947368,341.36624554141156L604.421052631579,354.2684730227676L671.578947368421,354.1005768517767L738.7368421052632,366.8402788157538L805.8947368421052,366.570268518248L873.0526315789474,367.89545430599094L940.2105263157894,371.4814402254773L1007.3684210526316,375.28003098548015L1074.5263157894735,378.34202206950033L1141.6842105263158,378.1882316786039L1208.842105263158,381.5799309356888L1276,382.6699065286482" data-legend-class="Run #2" style="stroke: rgb(220, 57, 18);" fill="none"/><path class="convergence-line line autoscale" data-legend="Run #3" data-legend-pos="2" d="M0,413.8325790776587L67.1578947368421,433.7192566671095L134.3157894736842,429.23127945053517L201.4736842105263,420.7642008301061L268.6315789473684,415.2535932170793L335.7894736842105,417.9033850654057L402.9473684210526,421.4058206347024L470.1052631578947,427.10383642966275L537.2631578947368,426.0493905573579L604.421052631579,425.940346548311L671.578947368421,420.04407730843144L738.7368421052632,416.98955413395225L805.8947368421052,417.2392794456186L873.0526315789474,417.0621101877619L940.2105263157894,419.64921040867677L1007.3684210526316,417.9856416680438L1074.5263157894735,417.3779190235599L1141.6842105263158,415.37681747665505L1208.842105263158,413.7400935034491L1276,415.0625076157834" data-legend-class="Run #3" style="stroke: rgb(255, 153, 0);" fill="none"/><path class="convergence-line line autoscale" data-legend="Run #4" data-legend-pos="3" d="M0,300.0506824323603L67.1578947368421,377.8059297154855L134.3157894736842,415.59623751622576L201.4736842105263,404.29409090098073L268.6315789473684,400.21490754464855L335.7894736842105,391.0386204676683L402.9473684210526,392.3284749308468L470.1052631578947,386.57604277851203L537.2631578947368,384.7045530237547L604.421052631579,383.21257662621616L671.578947368421,381.23874131244656L738.7368421052632,380.62740797197023L805.8947368421052,372.90249400398636L873.0526315789474,370.2647993899642L940.2105263157894,372.91534815576506L1007.3684210526316,373.84199446147005L1074.5263157894735,371.0831096429538L1141.6842105263158,372.3231681651633L1208.842105263158,373.6211890419695L1276,370.8567074505745" data-legend-class="Run #4" style="stroke: rgb(16, 150, 24);" fill="none"/><path class="convergence-line line autoscale" data-legend="Run #5" data-legend-pos="4" d="M0,200.63300906007345L67.1578947368421,248.62886902791203L134.3157894736842,279.4135652763409L201.4736842105263,286.2751623054147L268.6315789473684,294.9513250940103L335.7894736842105,296.60587114734676L402.9473684210526,315.7981279022674L470.1052631578947,310.77551461529794L537.2631578947368,309.96119784086414L604.421052631579,305.62459826768685L671.578947368421,304.7820435112395L738.7368421052632,312.9031903082243L805.8947368421052,310.5816970670312L873.0526315789474,305.54239646341637L940.2105263157894,306.83898020053016L1007.3684210526316,303.55211618816816L1074.5263157894735,311.48791761252505L1141.6842105263158,314.5684079478092L1208.842105263158,315.5339270651375L1276,316.3364200619318" data-legend-class="Run #5" style="stroke: rgb(153, 0, 153);" fill="none"/><path class="convergence-line line autoscale" data-legend="Run #6" data-legend-pos="5" d="M0,22.73721590909122L67.1578947368421,35.35905361324927L134.3157894736842,41.94080451659721L201.4736842105263,47.09634993271396L268.6315789473684,53.52283962564525L335.7894736842105,55.734847819900324L402.9473684210526,61.892360754428864L470.1052631578947,59.80415945645092L537.2631578947368,61.784111901397694L604.421052631579,60.20977422385931L671.578947368421,60.76653493170551L738.7368421052632,62.905022202269436L805.8947368421052,60.84046009287226L873.0526315789474,59.36043251366618L940.2105263157894,56.931548210644166L1007.3684210526316,57.95783577629203L1074.5263157894735,58.819486370496065L1141.6842105263158,59.68601531904869L1208.842105263158,60.18528296232341L1276,57.60993475094199" data-legend-class="Run #6" style="stroke: rgb(0, 153, 198);" fill="none"/><path class="convergence-line line autoscale" data-legend="Run #7" data-legend-pos="6" d="M0,330.98202385945825L67.1578947368421,340.2182847255566L134.3157894736842,331.09530493187333L201.4736842105263,326.49239930334124L268.6315789473684,337.89186483868355L335.7894736842105,337.8353307425771L402.9473684210526,337.1725573888523L470.1052631578947,333.7317984179568L537.2631578947368,337.49810013475155L604.421052631579,336.76897187040686L671.578947368421,335.17018848376824L738.7368421052632,335.0062857154491L805.8947368421052,335.1203835557638L873.0526315789474,334.74511630379965L940.2105263157894,335.95639033404416L1007.3684210526316,338.4466361167862L1074.5263157894735,336.5896993199923L1141.6842105263158,341.1718459902513L1208.842105263158,340.99166731629055L1276,339.95155266481777" data-legend-class="Run #7" style="stroke: rgb(221, 68, 119);" fill="none"/><path class="convergence-line line autoscale" data-legend="Run #8" data-legend-pos="7" d="M0,390.09440922340417L67.1578947368421,387.70939255917926L134.3157894736842,425.79541513053664L201.4736842105263,422.27236502490683L268.6315789473684,419.48890113862626L335.7894736842105,414.1741658506785L402.9473684210526,409.71077612868635L470.1052631578947,410.05092601998297L537.2631578947368,408.6775730687792L604.421052631579,405.1990393401248L671.578947368421,406.08673323452086L738.7368421052632,409.0189311500345L805.8947368421052,406.05703045149085L873.0526315789474,403.93687587583037L940.2105263157894,401.32491815868786L1007.3684210526316,399.7844798924085L1074.5263157894735,400.2433478262808L1141.6842105263158,400.6657446035967L1208.842105263158,400.7082095976455L1276,400.76584465443125" data-legend-class="Run #8" style="stroke: rgb(102, 170, 0);" fill="none"/><path class="convergence-line line autoscale" data-legend="Run #9" data-legend-pos="8" d="M0,282.47671248719496L67.1578947368421,288.77707830062195L134.3157894736842,287.454032758164L201.4736842105263,286.45964740253703L268.6315789473684,288.2103635805809L335.7894736842105,307.8854378037194L402.9473684210526,304.548090673155L470.1052631578947,297.5863755286807L537.2631578947368,295.7882765816368L604.421052631579,302.60972894834214L671.578947368421,301.4324536960854L738.7368421052632,300.8096129877548L805.8947368421052,299.78685159438317L873.0526315789474,298.8274456104915L940.2105263157894,297.8208804475994L1007.3684210526316,298.28847281607284L1074.5263157894735,297.48912769213507L1141.6842105263158,297.67595416295933L1208.842105263158,297.3417433905296L1276,297.83355931587244" data-legend-class="Run #9" style="stroke: rgb(184, 46, 46);" fill="none"/><path class="convergence-line line autoscale" data-legend="Run #10" data-legend-pos="9" d="M0,361.372889574018L67.1578947368421,351.9547657310719L134.3157894736842,360.883808945635L201.4736842105263,372.6759351818778L268.6315789473684,377.2846381543985L335.7894736842105,382.3876497063007L402.9473684210526,380.3254529868496L470.1052631578947,380.64898788422556L537.2631578947368,386.6473263973671L604.421052631579,387.0983571949402L671.578947368421,386.7052260484306L738.7368421052632,386.16669907464143L805.8947368421052,386.8426830759909L873.0526315789474,385.0081891974211L940.2105263157894,387.1623719024152L1007.3684210526316,389.89799401619956L1074.5263157894735,388.2303102634624L1141.6842105263158,389.82126329193545L1208.842105263158,390.99337262566996L1276,392.0553743324847" data-legend-class="Run #10" style="stroke: rgb(49, 99, 149);" fill="none"/><path class="convergence-line line autoscale" data-legend="Run #11" data-legend-pos="10" d="M0,295.6759518449986L67.1578947368421,294.22372643264384L134.3157894736842,294.01043998861815L201.4736842105263,302.04700476385324L268.6315789473684,298.9454968415615L335.7894736842105,292.6337914453777L402.9473684210526,298.62573878882984L470.1052631578947,301.58079809098587L537.2631578947368,300.8575482549477L604.421052631579,301.99515316458815L671.578947368421,300.00270855493596L738.7368421052632,297.933977513023L805.8947368421052,294.524055848933L873.0526315789474,294.7299341701572L940.2105263157894,292.6503606895378L1007.3684210526316,292.4138257662331L1074.5263157894735,292.42889319808063L1141.6842105263158,294.5036172832017L1208.842105263158,293.2770614533712L1276,292.5898802225123" data-legend-class="Run #11" style="stroke: rgb(153, 68, 153);" fill="none"/><path class="convergence-line line autoscale" data-legend="Run #12" data-legend-pos="11" d="M0,474.6261227695978L67.1578947368421,477.4815340909088L134.3157894736842,474.3051544929613L201.4736842105263,460.72290012034097L268.6315789473684,450.4338637177168L335.7894736842105,452.5210839416661L402.9473684210526,445.32619441795543L470.1052631578947,441.8563979750589L537.2631578947368,444.35278410260014L604.421052631579,446.3856184965743L671.578947368421,443.4310278900712L738.7368421052632,440.9397498305344L805.8947368421052,438.6229639025978L873.0526315789474,436.67241111648804L940.2105263157894,435.1788758106176L1007.3684210526316,433.3609074628447L1074.5263157894735,432.75483264419915L1141.6842105263158,429.5443348526039L1208.842105263158,429.0898019429581L1276,426.2263187022914" data-legend-class="Run #12" style="stroke: rgb(34, 170, 153);" fill="none"/><path class="convergence-line line autoscale" data-legend="Run #13" data-legend-pos="12" d="M0,171.3830215426358L67.1578947368421,173.11018062935864L134.3157894736842,173.41723600835542L201.4736842105263,187.5828312366737L268.6315789473684,189.2766418285919L335.7894736842105,183.33769135320074L402.9473684210526,187.08212658179332L470.1052631578947,184.28809859165852L537.2631578947368,185.8731130573275L604.421052631579,183.84699270451L671.578947368421,181.1521011697272L738.7368421052632,180.47836320560896L805.8947368421052,180.4190736532795L873.0526315789474,180.50141812086815L940.2105263157894,180.21174250415822L1007.3684210526316,179.21486922676036L1074.5263157894735,178.73141932163395L1141.6842105263158,178.35978708224576L1208.842105263158,178.20192799874013L1276,178.13016521756663" data-legend-class="Run #13" style="stroke: rgb(170, 170, 17);" fill="none"/><path class="convergence-line line autoscale" data-legend="Run #14" data-legend-pos="13" d="M0,382.09622854747147L67.1578947368421,401.35386111647875L134.3157894736842,407.36028225383905L201.4736842105263,409.02271951311275L268.6315789473684,405.1130446840507L335.7894736842105,411.0428384741463L402.9473684210526,408.5605645403526L470.1052631578947,408.28870509010096L537.2631578947368,408.6140643606679L604.421052631579,407.3947788380104L671.578947368421,408.54188396232536L738.7368421052632,409.33973073709313L805.8947368421052,408.89200582592423L873.0526315789474,411.4588668055328L940.2105263157894,412.81754288449406L1007.3684210526316,413.9716224851087L1074.5263157894735,415.2519303803838L1141.6842105263158,415.1649648769038L1208.842105263158,416.9398758645457L1276,416.521059747089" data-legend-class="Run #14" style="stroke: rgb(102, 51, 204);" fill="none"/><path class="convergence-line line autoscale" data-legend="Run #15" data-legend-pos="14" d="M0,385.24020851255034L67.1578947368421,376.97891173235575L134.3157894736842,383.87116508946053L201.4736842105263,390.79850790355493L268.6315789473684,395.33863344664337L335.7894736842105,401.69800540809484L402.9473684210526,400.75909399301264L470.1052631578947,398.7468812398761L537.2631578947368,397.1445251588968L604.421052631579,397.0563569704399L671.578947368421,401.6384700585837L738.7368421052632,405.09977276733116L805.8947368421052,402.2447530969305L873.0526315789474,402.199533381925L940.2105263157894,401.49364048014803L1007.3684210526316,401.60975732902324L1074.5263157894735,404.2552021378322L1141.6842105263158,404.26758721438006L1208.842105263158,403.8131565202564L1276,406.4134249234072" data-legend-class="Run #15" style="stroke: rgb(230, 115, 0);" fill="none"/><path class="convergence-line line autoscale" data-legend="Run #16" data-legend-pos="15" d="M0,117.13630027857619L67.1578947368421,105.21922901675362L134.3157894736842,89.38397259935175L201.4736842105263,86.1691508949562L268.6315789473684,84.52587010381876L335.7894736842105,81.05222027780383L402.9473684210526,80.21070862998607L470.1052631578947,80.98895181174794L537.2631578947368,81.36369544167263L604.421052631579,82.79563899607837L671.578947368421,84.43565271394158L738.7368421052632,83.73856426590146L805.8947368421052,81.82611922319848L873.0526315789474,83.78700756825987L940.2105263157894,86.89831876922489L1007.3684210526316,86.91755083844436L1074.5263157894735,87.48054787714216L1141.6842105263158,87.0341129193888L1208.842105263158,86.3072627397284L1276,86.27951036607863" data-legend-class="Run #16" style="stroke: rgb(139, 7, 7);" fill="none"/><path class="convergence-line line autoscale" data-legend="Run #17" data-legend-pos="16" d="M0,411.1070378521313L67.1578947368421,432.89957868944873L134.3157894736842,436.5532106826526L201.4736842105263,421.5904054661341L268.6315789473684,424.1473487904466L335.7894736842105,416.40573545969266L402.9473684210526,417.38400741760466L470.1052631578947,420.27052264492306L537.2631578947368,424.97391456522263L604.421052631579,421.46697738738L671.578947368421,421.69474895539514L738.7368421052632,421.30327784076957L805.8947368421052,415.81277994325677L873.0526315789474,418.10855833980014L940.2105263157894,415.5171247948742L1007.3684210526316,415.0536270965053L1074.5263157894735,414.77388191002973L1141.6842105263158,415.82663780999167L1208.842105263158,414.94754272386626L1276,415.331216101505" data-legend-class="Run #17" style="stroke: rgb(101, 16, 103);" fill="none"/><path class="convergence-line line autoscale" data-legend="Run #18" data-legend-pos="17" d="M0,419.04307394380965L67.1578947368421,422.57294607637084L134.3157894736842,430.5928400625798L201.4736842105263,423.87625563572055L268.6315789473684,418.49183429364643L335.7894736842105,417.0540758775982L402.9473684210526,412.7675000655913L470.1052631578947,408.172735510559L537.2631578947368,406.830371215353L604.421052631579,414.24176109234634L671.578947368421,416.88095483557026L738.7368421052632,419.2679423937343L805.8947368421052,416.5373876857688L873.0526315789474,416.0110723557399L940.2105263157894,414.27302786683L1007.3684210526316,414.98126289457605L1074.5263157894735,416.4237997785648L1141.6842105263158,418.2917023645791L1208.842105263158,417.2266162375539L1276,416.64327664638495" data-legend-class="Run #18" style="stroke: rgb(50, 146, 98);" fill="none"/><path class="convergence-line line autoscale" data-legend="Run #19" data-legend-pos="18" d="M0,298.05745399450495L67.1578947368421,296.071873122713L134.3157894736842,297.55203502076176L201.4736842105263,292.24136763059823L268.6315789473684,290.3120819914829L335.7894736842105,292.39365749981835L402.9473684210526,289.22963653541296L470.1052631578947,292.3306772204793L537.2631578947368,292.6259018835607L604.421052631579,290.3316721343772L671.578947368421,288.3342193938805L738.7368421052632,287.0034074150914L805.8947368421052,288.20231903340243L873.0526315789474,288.69894431756L940.2105263157894,288.1521254648166L1007.3684210526316,288.2066446997585L1074.5263157894735,288.9293103990849L1141.6842105263158,288.7459027114659L1208.842105263158,287.582262727062L1276,290.6321949710985" data-legend-class="Run #19" style="stroke: rgb(85, 116, 166);" fill="none"/><path class="convergence-line line autoscale" data-legend="Run #20" data-legend-pos="19" d="M0,356.5467922611442L67.1578947368421,347.08316538578873L134.3157894736842,338.3562095695664L201.4736842105263,350.207303549558L268.6315789473684,356.5488187950795L335.7894736842105,358.60821143177066L402.9473684210526,363.2931867897315L470.1052631578947,361.17910539965L537.2631578947368,364.18327775059447L604.421052631579,365.85264076839917L671.578947368421,367.13682164341105L738.7368421052632,366.7918272267416L805.8947368421052,370.8843543448373L873.0526315789474,391.4801058275046L940.2105263157894,391.25101471999136L1007.3684210526316,393.307265954099L1074.5263157894735,392.80248976005663L1141.6842105263158,396.2784465888372L1208.842105263158,395.66159026918984L1276,396.15213048659484" data-legend-class="Run #20" style="stroke: rgb(59, 62, 172);" fill="none"/><path class="convergence-line line autoscale" data-legend="Run #21" data-legend-pos="20" d="M0,368.30936552329615L67.1578947368421,370.0672689886758L134.3157894736842,377.20109148639165L201.4736842105263,397.34972345948677L268.6315789473684,405.88587559268717L335.7894736842105,401.6997603009283L402.9473684210526,401.9730929504051L470.1052631578947,398.2304112019921L537.2631578947368,397.67490786976015L604.421052631579,402.82539590353315L671.578947368421,401.5662105889084L738.7368421052632,402.5809350654038L805.8947368421052,402.95840438811433L873.0526315789474,404.83838790800775L940.2105263157894,405.1299294805922L1007.3684210526316,405.1668646742521L1074.5263157894735,406.79639031152146L1141.6842105263158,406.76031774139494L1208.842105263158,406.09016520763447L1276,404.9610078481869" data-legend-class="Run #21" style="stroke: rgb(51, 102, 204);" fill="none"/><path class="convergence-line line autoscale" data-legend="Run #22" data-legend-pos="21" d="M0,172.35812712976372L67.1578947368421,153.23833448470373L134.3157894736842,149.24066762461547L201.4736842105263,159.1354572363436L268.6315789473684,162.3984204861444L335.7894736842105,161.5970529572345L402.9473684210526,165.5769691002659L470.1052631578947,166.97515002409745L537.2631578947368,164.91861772161963L604.421052631579,162.73619061372273L671.578947368421,160.3780628926665L738.7368421052632,157.67075028074777L805.8947368421052,155.83476041457175L873.0526315789474,157.84595798321442L940.2105263157894,155.59829114581032L1007.3684210526316,154.96106283364264L1074.5263157894735,155.55219100525198L1141.6842105263158,155.1416006053089L1208.842105263158,154.56686408766512L1276,156.28817121205333" data-legend-class="Run #22" style="stroke: rgb(220, 57, 18);" fill="none"/><path class="convergence-line line autoscale" data-legend="Run #23" data-legend-pos="22" d="M0,408.4866373773229L67.1578947368421,383.12343242489465L134.3157894736842,380.18906746625566L201.4736842105263,398.82329588765424L268.6315789473684,415.07815217857785L335.7894736842105,414.0253766445391L402.9473684210526,415.227917087723L470.1052631578947,415.37846096376325L537.2631578947368,418.8892471526346L604.421052631579,417.7185082490715L671.578947368421,419.1843564352284L738.7368421052632,418.90088774032523L805.8947368421052,423.37378876594346L873.0526315789474,421.3466580168322L940.2105263157894,419.21384327293754L1007.3684210526316,417.4415220577684L1074.5263157894735,418.0640888655994L1141.6842105263158,417.0558616392176L1208.842105263158,415.61966814342696L1276,414.2723897602043" data-legend-class="Run #23" style="stroke: rgb(255, 153, 0);" fill="none"/><path class="convergence-line line autoscale" data-legend="Run #24" data-legend-pos="23" d="M0,104.54387791037902L67.1578947368421,123.28696867274778L134.3157894736842,131.9802598436084L201.4736842105263,136.14540188648948L268.6315789473684,148.59076430319527L335.7894736842105,158.16235606378763L402.9473684210526,156.46906513066432L470.1052631578947,161.28214874675336L537.2631578947368,156.1771711306298L604.421052631579,154.7929755338713L671.578947368421,154.84358222575207L738.7368421052632,152.28201394220525L805.8947368421052,151.04791675196208L873.0526315789474,150.19195870721921L940.2105263157894,149.4228226792133L1007.3684210526316,154.262337264177L1074.5263157894735,153.33283475351226L1141.6842105263158,153.36671484510651L1208.842105263158,156.11802574653387L1276,152.51171146227097" data-legend-class="Run #24" style="stroke: rgb(16, 150, 24);" fill="none"/><path class="convergence-line line autoscale" data-legend="Run #25" data-legend-pos="24" d="M0,204.84503667913174L67.1578947368421,214.6581436593708L134.3157894736842,223.40410909605384L201.4736842105263,223.91143204272015L268.6315789473684,232.7620624573508L335.7894736842105,257.73100973337625L402.9473684210526,249.93015305052253L470.1052631578947,246.95833519685942L537.2631578947368,249.84616499263666L604.421052631579,243.97587246087892L671.578947368421,234.18598430216832L738.7368421052632,240.0014090878808L805.8947368421052,239.03199563754055L873.0526315789474,239.05683998189767L940.2105263157894,240.4447035177377L1007.3684210526316,238.982720267344L1074.5263157894735,243.32780034817603L1141.6842105263158,241.54988822299788L1208.842105263158,239.6465215420434L1276,238.26846799183136" data-legend-class="Run #25" style="stroke: rgb(153, 0, 153);" fill="none"/><path class="convergence-line line autoscale" data-legend="Run #26" data-legend-pos="25" d="M0,303.3788093776576L67.1578947368421,344.6413784534525L134.3157894736842,380.3147667455805L201.4736842105263,367.23855070901504L268.6315789473684,362.89389277463704L335.7894736842105,360.68303440224304L402.9473684210526,387.12584663988923L470.1052631578947,393.1845174122824L537.2631578947368,391.8296511043777L604.421052631579,395.2329876370103L671.578947368421,393.106095069132L738.7368421052632,392.97630757527946L805.8947368421052,392.1398261691598L873.0526315789474,390.52402874911314L940.2105263157894,392.5801465231674L1007.3684210526316,392.57115049591573L1074.5263157894735,391.587352884478L1141.6842105263158,390.1236778458747L1208.842105263158,386.0819147781028L1276,385.3206804495595" data-legend-class="Run #26" style="stroke: rgb(0, 153, 198);" fill="none"/><path class="convergence-line line autoscale" data-legend="Run #27" data-legend-pos="26" d="M0,354.89880298019864L67.1578947368421,378.57067888794904L134.3157894736842,393.70769816945545L201.4736842105263,393.6847810517383L268.6315789473684,389.00897574664106L335.7894736842105,387.61432879571026L402.9473684210526,396.94761797606725L470.1052631578947,390.9130274181753L537.2631578947368,387.91029260562937L604.421052631579,387.72071676762675L671.578947368421,388.9794788816562L738.7368421052632,390.7124102368417L805.8947368421052,389.17639166850824L873.0526315789474,387.25796367805845L940.2105263157894,388.0322144737527L1007.3684210526316,391.9633646144837L1074.5263157894735,388.9946165491897L1141.6842105263158,387.4321353389082L1208.842105263158,388.5358905357426L1276,389.75599506575145" data-legend-class="Run #27" style="stroke: rgb(221, 68, 119);" fill="none"/><path class="convergence-line line autoscale" data-legend="Run #28" data-legend-pos="27" d="M0,222.6405050677098L67.1578947368421,232.5470325169174L134.3157894736842,229.87079779044922L201.4736842105263,234.2740308592417L268.6315789473684,238.64309667187803L335.7894736842105,241.32215708941857L402.9473684210526,248.1052256017345L470.1052631578947,246.93619809120256L537.2631578947368,242.29249512154422L604.421052631579,242.48938161346354L671.578947368421,239.4184228381111L738.7368421052632,238.51874404714118L805.8947368421052,235.4937961137295L873.0526315789474,233.33055711098768L940.2105263157894,237.00299243255228L1007.3684210526316,236.39163840476516L1074.5263157894735,236.96712540662128L1141.6842105263158,235.97042902854787L1208.842105263158,236.8349059770738L1276,236.4828572924402" data-legend-class="Run #28" style="stroke: rgb(102, 170, 0);" fill="none"/><path class="convergence-line line autoscale" data-legend="Run #29" data-legend-pos="28" d="M0,350.3107054862881L67.1578947368421,358.2946720505529L134.3157894736842,364.8233328883399L201.4736842105263,354.48596113250346L268.6315789473684,344.57006035221536L335.7894736842105,341.99880744847235L402.9473684210526,343.5404457202917L470.1052631578947,343.8145869418197L537.2631578947368,338.28829200566804L604.421052631579,336.8561056708771L671.578947368421,334.50163504959966L738.7368421052632,363.6864348902121L805.8947368421052,362.81269043038697L873.0526315789474,362.9553419928926L940.2105263157894,359.1420640247302L1007.3684210526316,358.03350564618574L1074.5263157894735,374.02767743947265L1141.6842105263158,372.9557742797493L1208.842105263158,370.50401879159375L1276,369.02930086738286" data-legend-class="Run #29" style="stroke: rgb(184, 46, 46);" fill="none"/><path class="convergence-line line autoscale" data-legend="Run #30" data-legend-pos="29" d="M0,347.86601711235653L67.1578947368421,348.63539272322873L134.3157894736842,355.77266808952686L201.4736842105263,366.6742415201928L268.6315789473684,362.13716181558465L335.7894736842105,360.89053471194757L402.9473684210526,361.01022989271996L470.1052631578947,360.631162885448L537.2631578947368,361.86413797761287L604.421052631579,358.8477513230098L671.578947368421,357.09371228815314L738.7368421052632,356.59527949415417L805.8947368421052,357.4382580445541L873.0526315789474,360.1576672229064L940.2105263157894,364.4240789417007L1007.3684210526316,365.3652604637583L1074.5263157894735,364.59202432527763L1141.6842105263158,363.0351850061843L1208.842105263158,365.00349473176834L1276,364.1162533751421" data-legend-class="Run #30" style="stroke: rgb(49, 99, 149);" fill="none"/><path class="convergence-line line autoscale" data-legend="Run #31" data-legend-pos="30" d="M0,242.46817858122944L67.1578947368421,306.05421163709525L134.3157894736842,299.2640918042471L201.4736842105263,322.6665913690108L268.6315789473684,309.7580313649548L335.7894736842105,306.51781225518454L402.9473684210526,317.4603954401727L470.1052631578947,318.99166691008384L537.2631578947368,309.76854881989925L604.421052631579,301.273286310623L671.578947368421,332.41094964862197L738.7368421052632,329.8701225070016L805.8947368421052,327.73911330781925L873.0526315789474,331.45187113904353L940.2105263157894,333.54255946258195L1007.3684210526316,329.6718874772573L1074.5263157894735,328.2252571981437L1141.6842105263158,325.6083478152923L1208.842105263158,322.9583994765159L1276,330.1291102475461" data-legend-class="Run #31" style="stroke: rgb(153, 68, 153);" fill="none"/><path class="convergence-line line autoscale" data-legend="Run #32" data-legend-pos="31" d="M0,347.92934422889743L67.1578947368421,367.33729723712304L134.3157894736842,366.0733852698668L201.4736842105263,366.29077919349913L268.6315789473684,367.29141120525753L335.7894736842105,378.2380001283408L402.9473684210526,378.8453224904049L470.1052631578947,374.2719558736914L537.2631578947368,373.7931602621124L604.421052631579,370.2429514224945L671.578947368421,372.2691620784192L738.7368421052632,374.9287405477947L805.8947368421052,371.0493305211719L873.0526315789474,368.6475541247919L940.2105263157894,367.980089909491L1007.3684210526316,367.85590487022887L1074.5263157894735,365.338785408991L1141.6842105263158,366.4006355451728L1208.842105263158,368.27466404312156L1276,368.72528275980335" data-legend-class="Run #32" style="stroke: rgb(34, 170, 153);" fill="none"/><path class="convergence-line line autoscale" data-legend="Run #33" data-legend-pos="32" d="M0,264.2570190994337L67.1578947368421,316.10824644829256L134.3157894736842,319.8884668448396L201.4736842105263,318.02624602564504L268.6315789473684,337.66197367564604L335.7894736842105,367.44585268415716L402.9473684210526,358.1265741824111L470.1052631578947,362.39787536326463L537.2631578947368,362.4847461432123L604.421052631579,356.73613568958746L671.578947368421,363.0991009737219L738.7368421052632,364.5549627838898L805.8947368421052,360.3013194217577L873.0526315789474,362.5718940662196L940.2105263157894,358.191923359367L1007.3684210526316,357.7622932263877L1074.5263157894735,359.0505598121746L1141.6842105263158,355.5584945413349L1208.842105263158,355.4226645492049L1276,351.8216138774758" data-legend-class="Run #33" style="stroke: rgb(170, 170, 17);" fill="none"/><path class="convergence-line line autoscale" data-legend="Run #34" data-legend-pos="33" d="M0,311.01960877011953L67.1578947368421,340.10776857237687L134.3157894736842,339.2496262344995L201.4736842105263,348.8394389585228L268.6315789473684,366.38283826900727L335.7894736842105,363.23285089071925L402.9473684210526,363.2327176523675L470.1052631578947,362.90225029773455L537.2631578947368,361.23204944959366L604.421052631579,361.04946804725927L671.578947368421,359.9617649138978L738.7368421052632,356.5754715225943L805.8947368421052,357.72143096725677L873.0526315789474,360.1430787882409L940.2105263157894,360.73002572054696L1007.3684210526316,358.6453808875011L1074.5263157894735,360.8715002753876L1141.6842105263158,360.8820393880882L1208.842105263158,361.6186289258158L1276,361.3192574819278" data-legend-class="Run #34" style="stroke: rgb(102, 51, 204);" fill="none"/><path class="convergence-line line autoscale" data-legend="Run #35" data-legend-pos="34" d="M0,364.80070277110065L67.1578947368421,423.4692549799903L134.3157894736842,429.36808377379117L201.4736842105263,425.1641495127821L268.6315789473684,415.17627401054335L335.7894736842105,416.840198138206L402.9473684210526,424.3229125310939L470.1052631578947,424.283557202619L537.2631578947368,420.9254296033989L604.421052631579,423.65073552911326L671.578947368421,424.7375935115286L738.7368421052632,422.09134171655796L805.8947368421052,421.4772002639255L873.0526315789474,418.795712678575L940.2105263157894,418.8425816769632L1007.3684210526316,418.3529259232488L1074.5263157894735,417.46350584645035L1141.6842105263158,420.2188691478029L1208.842105263158,420.47710780453326L1276,417.1466772346156" data-legend-class="Run #35" style="stroke: rgb(230, 115, 0);" fill="none"/><path class="convergence-line line autoscale" data-legend="Run #36" data-legend-pos="35" d="M0,318.67990364054964L67.1578947368421,354.2820116341783L134.3157894736842,348.90062056879333L201.4736842105263,360.451289150589L268.6315789473684,346.88708464121237L335.7894736842105,343.94736021599056L402.9473684210526,341.5450604186427L470.1052631578947,341.1911513447212L537.2631578947368,339.5853972257198L604.421052631579,355.2219823147035L671.578947368421,353.26162193825L738.7368421052632,348.38566570033026L805.8947368421052,347.05222541441196L873.0526315789474,350.4936989467235L940.2105263157894,351.7611901506691L1007.3684210526316,348.43186582186L1074.5263157894735,347.0482097415172L1141.6842105263158,346.8779133341891L1208.842105263158,343.17614920595685L1276,341.3674175382023" data-legend-class="Run #36" style="stroke: rgb(139, 7, 7);" fill="none"/><path class="convergence-line line autoscale" data-legend="Run #37" data-legend-pos="36" d="M0,323.18015614836656L67.1578947368421,326.0737058004354L134.3157894736842,327.70438220051085L201.4736842105263,331.4589244246556L268.6315789473684,338.0315258828979L335.7894736842105,335.8420025963852L402.9473684210526,342.0880356282031L470.1052631578947,340.68605757038324L537.2631578947368,348.1693050262267L604.421052631579,348.73278318567395L671.578947368421,348.25707207832363L738.7368421052632,347.31134993264936L805.8947368421052,346.76625846408024L873.0526315789474,346.73747492376015L940.2105263157894,345.07193504247675L1007.3684210526316,344.9361181452829L1074.5263157894735,343.32067856521996L1141.6842105263158,345.04241167088173L1208.842105263158,344.962286267919L1276,345.3909451015153" data-legend-class="Run #37" style="stroke: rgb(101, 16, 103);" fill="none"/><path class="convergence-line line autoscale" data-legend="Run #38" data-legend-pos="37" d="M0,309.597188639465L67.1578947368421,289.7261037557412L134.3157894736842,308.0917070442709L201.4736842105263,298.0810123436357L268.6315789473684,291.23168230753834L335.7894736842105,297.62100737529204L402.9473684210526,294.8509024859474L470.1052631578947,303.590322522114L537.2631578947368,312.5550604393668L604.421052631579,307.496195586576L671.578947368421,301.8089454949867L738.7368421052632,307.9349636735997L805.8947368421052,313.0975675312985L873.0526315789474,305.9556956578135L940.2105263157894,304.3866433151114L1007.3684210526316,300.5886419562305L1074.5263157894735,300.9756006344585L1141.6842105263158,300.19942568058525L1208.842105263158,302.1440349729784L1276,301.24483162808" data-legend-class="Run #38" style="stroke: rgb(50, 146, 98);" fill="none"/><path class="convergence-line line autoscale" data-legend="Run #39" data-legend-pos="38" d="M0,435.63425402028423L67.1578947368421,428.6580395293423L134.3157894736842,423.93103642720234L201.4736842105263,416.9802065492658L268.6315789473684,415.98007689544914L335.7894736842105,417.2740994163804L402.9473684210526,413.98349298672406L470.1052631578947,415.60941944916317L537.2631578947368,413.3235873427186L604.421052631579,415.26159241627647L671.578947368421,416.6710862883439L738.7368421052632,416.72595314976434L805.8947368421052,418.24312183453696L873.0526315789474,419.0542830538599L940.2105263157894,416.07683180224313L1007.3684210526316,416.0953281843425L1074.5263157894735,415.5524246172792L1141.6842105263158,416.25905823044786L1208.842105263158,417.0080339075288L1276,416.10504827842726" data-legend-class="Run #39" style="stroke: rgb(85, 116, 166);" fill="none"/><path class="convergence-line line autoscale" data-legend="Run #40" data-legend-pos="39" d="M0,434.61359937315615L67.1578947368421,408.06432932224413L134.3157894736842,396.36768169892423L201.4736842105263,396.4908875286874L268.6315789473684,400.6267591324188L335.7894736842105,397.3422545595236L402.9473684210526,394.46169486538065L470.1052631578947,397.6246523094311L537.2631578947368,396.56012828536575L604.421052631579,396.25335784016863L671.578947368421,398.0794263252821L738.7368421052632,403.17748243542724L805.8947368421052,405.8649335452405L873.0526315789474,403.9609122427205L940.2105263157894,401.6507899140766L1007.3684210526316,400.6006275360966L1074.5263157894735,399.53716734346125L1141.6842105263158,402.5130506403691L1208.842105263158,400.14025999132144L1276,400.26742252324095" data-legend-class="Run #40" style="stroke: rgb(59, 62, 172);" fill="none"/></svg><g class="axes"><g class="bottom axis bottomAxisLine" transform="translate(0,500.21875)" fill="none" text-anchor="middle"><path class="domain" stroke="#000" d="M0.5,6V0.5H1276.5V6" fill="none"/><g class="tick" opacity="1" transform="translate(67.6578947368421,0)"><line stroke="#000" y2="3" fill="none"/><text fill="#000" y="6" dy="0.71em" class="bottomAxisTickLabels transformed-label"><tspan class="label-block"><tspan class="label-subblock">1,000</tspan></tspan></text></g><g class="tick" opacity="1" transform="translate(201.9736842105263,0)"><line stroke="#000" y2="3" fill="none"/><text fill="#000" y="6" dy="0.71em" class="bottomAxisTickLabels transformed-label"><tspan class="label-block"><tspan class="label-subblock">2,000</tspan></tspan></text></g><g class="tick" opacity="1" transform="translate(336.2894736842105,0)"><line stroke="#000" y2="3" fill="none"/><text fill="#000" y="6" dy="0.71em" class="bottomAxisTickLabels transformed-label"><tspan class="label-block"><tspan class="label-subblock">3,000</tspan></tspan></text></g><g class="tick" opacity="1" transform="translate(470.6052631578947,0)"><line stroke="#000" y2="3" fill="none"/><text fill="#000" y="6" dy="0.71em" class="bottomAxisTickLabels transformed-label"><tspan class="label-block"><tspan class="label-subblock">4,000</tspan></tspan></text></g><g class="tick" opacity="1" transform="translate(604.921052631579,0)"><line stroke="#000" y2="3" fill="none"/><text fill="#000" y="6" dy="0.71em" class="bottomAxisTickLabels transformed-label"><tspan class="label-block"><tspan class="label-subblock">5,000</tspan></tspan></text></g><g class="tick" opacity="1" transform="translate(739.2368421052632,0)"><line stroke="#000" y2="3" fill="none"/><text fill="#000" y="6" dy="0.71em" class="bottomAxisTickLabels transformed-label"><tspan class="label-block"><tspan class="label-subblock">6,000</tspan></tspan></text></g><g class="tick" opacity="1" transform="translate(873.5526315789474,0)"><line stroke="#000" y2="3" fill="none"/><text fill="#000" y="6" dy="0.71em" class="bottomAxisTickLabels transformed-label"><tspan class="label-block"><tspan class="label-subblock">7,000</tspan></tspan></text></g><g class="tick" opacity="1" transform="translate(1007.8684210526316,0)"><line stroke="#000" y2="3" fill="none"/><text fill="#000" y="6" dy="0.71em" class="bottomAxisTickLabels transformed-label"><tspan class="label-block"><tspan class="label-subblock">8,000</tspan></tspan></text></g><g class="tick" opacity="1" transform="translate(1142.1842105263158,0)"><line stroke="#000" y2="3" fill="none"/><text fill="#000" y="6" dy="0.71em" class="bottomAxisTickLabels transformed-label"><tspan class="label-block"><tspan class="label-subblock">9,000</tspan></tspan></text></g><g class="tick" opacity="1" transform="translate(1276.5,0)"><line stroke="#000" y2="3" fill="none"/><text fill="#000" y="6" dy="0.71em" class="bottomAxisTickLabels transformed-label"><tspan class="label-block"><tspan class="label-subblock">10,000</tspan></tspan></text></g></g><g class="left axis leftAxisLine" fill="none" text-anchor="end"><path class="domain" stroke="#000" d="M-6,500.71875H0.5V0.5H-6" fill="none"/><g class="tick" opacity="1" transform="translate(0,479.6362530541818)"><line stroke="#000" x2="-3" fill="none"/><text fill="#000" x="-6" dy="0.32em" class="leftAxisTickLabels transformed-label"><tspan class="label-block"><tspan class="label-subblock">925</tspan></tspan></text></g><g class="tick" opacity="1" transform="translate(0,421.04803357748455)"><line stroke="#000" x2="-3" fill="none"/><text fill="#000" x="-6" dy="0.32em" class="leftAxisTickLabels transformed-label"><tspan class="label-block"><tspan class="label-subblock">930</tspan></tspan></text></g><g class="tick" opacity="1" transform="translate(0,362.45981410078724)"><line stroke="#000" x2="-3" fill="none"/><text fill="#000" x="-6" dy="0.32em" class="leftAxisTickLabels transformed-label"><tspan class="label-block"><tspan class="label-subblock">935</tspan></tspan></text></g><g class="tick" opacity="1" transform="translate(0,303.87159462409)"><line stroke="#000" x2="-3" fill="none"/><text fill="#000" x="-6" dy="0.32em" class="leftAxisTickLabels transformed-label"><tspan class="label-block"><tspan class="label-subblock">940</tspan></tspan></text></g><g class="tick" opacity="1" transform="translate(0,245.28337514739272)"><line stroke="#000" x2="-3" fill="none"/><text fill="#000" x="-6" dy="0.32em" class="leftAxisTickLabels transformed-label"><tspan class="label-block"><tspan class="label-subblock">945</tspan></tspan></text></g><g class="tick" opacity="1" transform="translate(0,186.69515567069544)"><line stroke="#000" x2="-3" fill="none"/><text fill="#000" x="-6" dy="0.32em" class="leftAxisTickLabels transformed-label"><tspan class="label-block"><tspan class="label-subblock">950</tspan></tspan></text></g><g class="tick" opacity="1" transform="translate(0,128.1069361939982)"><line stroke="#000" x2="-3" fill="none"/><text fill="#000" x="-6" dy="0.32em" class="leftAxisTickLabels transformed-label"><tspan class="label-block"><tspan class="label-subblock">955</tspan></tspan></text></g><g class="tick" opacity="1" transform="translate(0,69.51871671730089)"><line stroke="#000" x2="-3" fill="none"/><text fill="#000" x="-6" dy="0.32em" class="leftAxisTickLabels transformed-label"><tspan class="label-block"><tspan class="label-subblock">960</tspan></tspan></text></g><g class="tick" opacity="1" transform="translate(0,10.930497240603643)"><line stroke="#000" x2="-3" fill="none"/><text fill="#000" x="-6" dy="0.32em" class="leftAxisTickLabels transformed-label"><tspan class="label-block"><tspan class="label-subblock">965</tspan></tspan></text></g></g></g><g class="grid"><g class="vertical" transform="translate(0,500.21875)" fill="none" font-size="10" font-family="sans-serif" text-anchor="middle"><g class="tick" opacity="1" transform="translate(67.6578947368421,0)"><line stroke="#000" y2="-500.21875" fill="none"/></g><g class="tick" opacity="1" transform="translate(201.9736842105263,0)"><line stroke="#000" y2="-500.21875" fill="none"/></g><g class="tick" opacity="1" transform="translate(336.2894736842105,0)"><line stroke="#000" y2="-500.21875" fill="none"/></g><g class="tick" opacity="1" transform="translate(470.6052631578947,0)"><line stroke="#000" y2="-500.21875" fill="none"/></g><g class="tick" opacity="1" transform="translate(604.921052631579,0)"><line stroke="#000" y2="-500.21875" fill="none"/></g><g class="tick" opacity="1" transform="translate(739.2368421052632,0)"><line stroke="#000" y2="-500.21875" fill="none"/></g><g class="tick" opacity="1" transform="translate(873.5526315789474,0)"><line stroke="#000" y2="-500.21875" fill="none"/></g><g class="tick" opacity="1" transform="translate(1007.8684210526316,0)"><line stroke="#000" y2="-500.21875" fill="none"/></g><g class="tick" opacity="1" transform="translate(1142.1842105263158,0)"><line stroke="#000" y2="-500.21875" fill="none"/></g><g class="tick" opacity="1" transform="translate(1276.5,0)"><line stroke="#000" y2="-500.21875" fill="none"/></g></g><g class="horizontal" fill="none" font-size="10" font-family="sans-serif" text-anchor="end"><g class="tick" opacity="1" transform="translate(0,479.6362530541818)"><line stroke="#000" x2="1276" fill="none"/></g><g class="tick" opacity="1" transform="translate(0,421.04803357748455)"><line stroke="#000" x2="1276" fill="none"/></g><g class="tick" opacity="1" transform="translate(0,362.45981410078724)"><line stroke="#000" x2="1276" fill="none"/></g><g class="tick" opacity="1" transform="translate(0,303.87159462409)"><line stroke="#000" x2="1276" fill="none"/></g><g class="tick" opacity="1" transform="translate(0,245.28337514739272)"><line stroke="#000" x2="1276" fill="none"/></g><g class="tick" opacity="1" transform="translate(0,186.69515567069544)"><line stroke="#000" x2="1276" fill="none"/></g><g class="tick" opacity="1" transform="translate(0,128.1069361939982)"><line stroke="#000" x2="1276" fill="none"/></g><g class="tick" opacity="1" transform="translate(0,69.51871671730089)"><line stroke="#000" x2="1276" fill="none"/></g><g class="tick" opacity="1" transform="translate(0,10.930497240603643)"><line stroke="#000" x2="1276" fill="none"/></g></g></g><defs><clipPath id="importanceSampling--freehand-guides-clip" class="freehand-guides-clip"><rect x="0" y="0" width="1276" height="500.21875"/></clipPath></defs></g></g><text x="638" y="-1em" class="title transformed-label" text-anchor="middle"><tspan class="label-block"><tspan class="label-subblock">Importance </tspan></tspan><tspan class="label-block"><tspan class="label-subblock">sampling</tspan></tspan></text></g></g></g></g></svg>
