<svg xmlns="http://www.w3.org/2000/svg" class="lixoftchart conditionalMean" width="863" height="635" style="font-family: &quot;Source Sans Pro&quot;, -apple-system, BlinkMacSystemFont, &quot;Segoe UI&quot;, Roboto, &quot;Helvetica Neue&quot;, Arial, sans-serif, &quot;Apple Color Emoji&quot;, &quot;Segoe UI Emoji&quot;, &quot;Segoe UI Symbol&quot;; font-weight: normal;"><style>svg {
--primary--1:rgba(21, 140, 186, 0.1);
--primary--2:rgba(21, 140, 186, 0.2);
--primary--3:rgba(21, 140, 186, 0.3);
--primary--4:rgba(21, 140, 186, 0.4);
--primary--5:rgba(21, 140, 186, 0.5);
--primary--6:rgba(21, 140, 186, 0.6);
--primary--7:rgba(21, 140, 186, 0.7);
--primary--8:rgba(21, 140, 186, 0.8);
--primary--9:rgba(21, 140, 186, 0.9);
--secondary--1:rgba(240, 240, 240, 0.1);
--secondary--2:rgba(240, 240, 240, 0.2);
--secondary--3:rgba(240, 240, 240, 0.3);
--secondary--4:rgba(240, 240, 240, 0.4);
--secondary--5:rgba(240, 240, 240, 0.5);
--secondary--6:rgba(240, 240, 240, 0.6);
--secondary--7:rgba(240, 240, 240, 0.7);
--secondary--8:rgba(240, 240, 240, 0.8);
--secondary--9:rgba(240, 240, 240, 0.9);
--success--1:rgba(40, 182, 44, 0.1);
--success--2:rgba(40, 182, 44, 0.2);
--success--3:rgba(40, 182, 44, 0.3);
--success--4:rgba(40, 182, 44, 0.4);
--success--5:rgba(40, 182, 44, 0.5);
--success--6:rgba(40, 182, 44, 0.6);
--success--7:rgba(40, 182, 44, 0.7);
--success--8:rgba(40, 182, 44, 0.8);
--success--9:rgba(40, 182, 44, 0.9);
--info--1:rgba(117, 202, 235, 0.1);
--info--2:rgba(117, 202, 235, 0.2);
--info--3:rgba(117, 202, 235, 0.3);
--info--4:rgba(117, 202, 235, 0.4);
--info--5:rgba(117, 202, 235, 0.5);
--info--6:rgba(117, 202, 235, 0.6);
--info--7:rgba(117, 202, 235, 0.7);
--info--8:rgba(117, 202, 235, 0.8);
--info--9:rgba(117, 202, 235, 0.9);
--warning--1:rgba(255, 133, 27, 0.1);
--warning--2:rgba(255, 133, 27, 0.2);
--warning--3:rgba(255, 133, 27, 0.3);
--warning--4:rgba(255, 133, 27, 0.4);
--warning--5:rgba(255, 133, 27, 0.5);
--warning--6:rgba(255, 133, 27, 0.6);
--warning--7:rgba(255, 133, 27, 0.7);
--warning--8:rgba(255, 133, 27, 0.8);
--warning--9:rgba(255, 133, 27, 0.9);
--danger--1:rgba(255, 65, 54, 0.1);
--danger--2:rgba(255, 65, 54, 0.2);
--danger--3:rgba(255, 65, 54, 0.3);
--danger--4:rgba(255, 65, 54, 0.4);
--danger--5:rgba(255, 65, 54, 0.5);
--danger--6:rgba(255, 65, 54, 0.6);
--danger--7:rgba(255, 65, 54, 0.7);
--danger--8:rgba(255, 65, 54, 0.8);
--danger--9:rgba(255, 65, 54, 0.9);
--light--1:rgba(246, 246, 246, 0.1);
--light--2:rgba(246, 246, 246, 0.2);
--light--3:rgba(246, 246, 246, 0.3);
--light--4:rgba(246, 246, 246, 0.4);
--light--5:rgba(246, 246, 246, 0.5);
--light--6:rgba(246, 246, 246, 0.6);
--light--7:rgba(246, 246, 246, 0.7);
--light--8:rgba(246, 246, 246, 0.8);
--light--9:rgba(246, 246, 246, 0.9);
--dark--1:rgba(85, 85, 85, 0.1);
--dark--2:rgba(85, 85, 85, 0.2);
--dark--3:rgba(85, 85, 85, 0.3);
--dark--4:rgba(85, 85, 85, 0.4);
--dark--5:rgba(85, 85, 85, 0.5);
--dark--6:rgba(85, 85, 85, 0.6);
--dark--7:rgba(85, 85, 85, 0.7);
--dark--8:rgba(85, 85, 85, 0.8);
--dark--9:rgba(85, 85, 85, 0.9);
--theme-scheme--1:#158CBA;
--theme-scheme--2:#3e82bf;
--theme-scheme--3:#6475bc;
--theme-scheme--4:#8566b0;
--theme-scheme--5:#a05599;
--theme-scheme--6:#b0447c;
--theme-scheme-lg--1:#158cba;
--theme-scheme-lg--2:#1dade5;
--theme-scheme-lg--3:#4abeeb;
--theme-scheme-lg--4:#78cef0;
--theme-scheme-lg--5:#b0447c;
--theme-scheme-lg--6:#c36495;
--theme-scheme-lg--7:#d189ae;
--theme-scheme-lg--8:#e0adc7;
--theme-scheme-lg--9:#618f35;
--theme-scheme-lg--10:#7ab443;
--theme-scheme-lg--11:#94c664;
--theme-scheme-lg--12:#aed38a;
--blue:#158CBA;
--indigo:#6610f2;
--purple:#6f42c1;
--pink:#e83e8c;
--red:#FF4136;
--orange:#fd7e14;
--yellow:#FF851B;
--green:#28B62C;
--teal:#20c997;
--cyan:#75CAEB;
--white:#fff;
--gray:#999;
--gray-dark:#333;
--primary:#158CBA;
--secondary:#f0f0f0;
--success:#28B62C;
--info:#75CAEB;
--warning:#FF851B;
--danger:#FF4136;
--light:#f6f6f6;
--dark:#555;
--breakpoint-xs:0;
--breakpoint-sm:576px;
--breakpoint-md:768px;
--breakpoint-lg:992px;
--breakpoint-xl:1200px;
--font-family-sans-serif:"Source Sans Pro", -apple-system, BlinkMacSystemFont, "Segoe UI", Roboto, "Helvetica Neue", Arial, sans-serif, "Apple Color Emoji", "Segoe UI Emoji", "Segoe UI Symbol";
--font-family-monospace:SFMono-Regular, Menlo, Monaco, Consolas, "Liberation Mono", "Courier New", monospace;
--mm-color-background:;
--graphical-mode-icon-display:none;

}
html, body { height: 100%; }
body { margin: 0px; overflow: hidden; }
.lixoftchart-container { display: flex; flex-direction: column; height: 100%; }
.lixoftchart { width: 100%; height: 100%; flex: 1 1 0%; }
.lixoftchart-header { height: 34px; }
.main { flex: 1 1 0%; height: 100%; width: 100%; }
.footer { margin: 0px; }
.checkinit-footer { max-height: 230px; overflow-y: auto; }
.page, .subpage { height: 100%; display: none; }
.page.active, .subpage.active { display: block; }
.axes, .grid { pointer-events: none; }
.axis path, .axis line { fill: none; shape-rendering: crispEdges; }
.tick { font-family: sans-serif; }
.line { fill: none; }
.tick line { stroke-width: 1px; }
.grid line { opacity: 0.2; }
.title { pointer-events: none; font-weight: 400; }
.axis-label { text-anchor: middle; }
.axis-label-unit { font-family: monospace; font-size: smaller; }
.label-subscript { baseline-shift: sub; font-size: 0.8em; }
.zoomable-content, .brushable-content { cursor: crosshair; }
rect.zoom { fill: rgb(221, 221, 221); stroke: steelblue; fill-opacity: 0.5; }
g.brush &gt; rect.selection { stroke-width: 0; }
.handle--custom { fill: rgb(122, 122, 122); fill-opacity: 1; stroke: rgb(122, 122, 122); stroke-width: 2px; display: inline !important; }
.log-filtered { display: none; }
.dot { stroke: none; }
.censObservations.highlighted:not(.lambdaz-observation), .censObservations[data--radius]:not(.lambdaz-observation) { fill: brown !important; }
.spline { fill: none; }
.regressionLine { fill: none; }
.convergence-line { fill: none; }
.percentile-line, .cdf { stroke-width: 1px; }
.bar { shape-rendering: crispEdges; }
.vertical-line, .horizontal-line { shape-rendering: crispEdges; }
.k1, .bound { shape-rendering: crispEdges; }
.outlier.dot { fill: none; }
.boxplot { font-style: normal; font-variant: normal; font-weight: normal; font-stretch: normal; font-size: 10px; line-height: normal; font-family: sans-serif; }
.box-element line, .box-element rect { stroke-opacity: 1; shape-rendering: crispEdges; }
.boxplot .outlier line { fill: none; }
.boxplot .box-underlay { fill: white; fill-opacity: 1; }
.boxplot .label { font-size: 12px; }
.arrow-marker { stroke-width: 0; font-size: 20px; fill: red; dominant-baseline: central; }
.layout-link { padding: 1px 5px !important; }
.sublayout-controls { min-height: 20px; transition: opacity 0.5s ease-in-out; background-color: transparent; opacity: 0.2; cursor: pointer; }
.pagination { transition: opacity 0.5s ease-in-out; }
.sublayout-controls .pagination { opacity: 0; }
.sublayout-controls:hover { transition: none; opacity: 0.9; }
.sublayout-controls:hover .pagination { transition: none; opacity: 1; }
.plot-grid, .subplot-grid { margin: 0px; min-width: 0px; }
.grid-cell { outline: rgb(221, 221, 221) solid 1px; cursor: text; position: absolute; }
.plot-cell { background-color: rgba(119, 33, 111, 0.298039); }
.matrix-diagonal-cell { background-color: rgb(174, 167, 159) !important; }
.plot-cell.selected { background-color: rgb(119, 33, 111); }
.plot-cell:hover, .plot-cell.hovered { background-color: rgb(243, 152, 20); }
.plot-cell.ui-selecting { background-color: rgb(233, 84, 32); }
.cells-selector { cursor: pointer; width: 0px; height: 0px; position: absolute; border: 10px solid rgba(119, 33, 111, 0.298039); }
.cells-selector.selected { border-color: rgb(119, 33, 111); }
.cells-selector.rows, .cells-selector.all { border-top-color: transparent !important; border-bottom-color: transparent !important; border-right-color: transparent !important; }
.cells-selector.cols { border-top-color: transparent !important; border-left-color: transparent !important; border-right-color: transparent !important; }
.cells-selector.all { transform: rotate(-45deg); }
.cells-selector:hover { border-color: rgb(243, 152, 20); }
.layout-grid, .sublayout-grid { padding: 0px; margin: 0px; min-width: 0px; background-color: transparent; border: none; box-shadow: none !important; }
.layout-grid-content { border-collapse: collapse; border: 1px solid rgb(221, 221, 221); }
.layout-cell { background-color: rgba(119, 33, 111, 0.298039); border: 1px solid rgb(221, 221, 221); min-width: 20px; width: 20px; height: 20px; cursor: pointer; }
.layout-cell.selected { background-color: rgb(119, 33, 111); }
.layout-cell.selecting { background-color: rgb(233, 84, 32); }
.layout-container { padding: 10px 15px; align-items: center; }
.layout-controls { display: flex; justify-content: space-between; align-items: center; }
.layout-controls &gt; .layout-controls-wrapper { display: flex; align-items: baseline; }
.layout-controls .btn { border: 0px; border-radius: 0px; white-space: nowrap; padding: 4px 8px !important; }
.layout-controls .btn.toggle-controls-btn { margin-left: 1rem !important; }
.pagination input { color: inherit; background: transparent; border: 0px; outline: none; }
.contrasted-chart-header-btn:not(:hover) { background: rgba(255, 255, 255, 0.2) !important; }
.message-banner { position: fixed; left: 0px; width: 100%; margin-bottom: 0px; z-index: 10; }
.message-banner.top { top: 0px; }
.message-banner.bottom { bottom: 0px; }
.legend { box-shadow: rgba(0, 0, 0, 0.2) 0px 8px 17px 0px, rgba(0, 0, 0, 0.188235) 0px 6px 20px 0px; z-index: 10; }
.legend:not(.no-move) { cursor: move !important; }
.legend-glyph:not(.aa) { shape-rendering: crispEdges; }
.legend-group-label { font-weight: bold; }
.ui-selectable-helper { z-index: 1100; }
.ui-selectable-helper.no-top { border-top: 0px; }
.ui-selectable-helper.no-right { border-right: 0px; }
.ui-selectable-helper.no-bottom { border-bottom: 0px; }
.ui-selectable-helper.no-left { border-left: 0px; }
.print-preview &gt; .modal-dialog { position: absolute; height: auto; bottom: 0px; top: 0px; left: 0px; right: 0px; }
.page-preview { border: 1px dashed rgb(51, 51, 51); margin: 0px auto; }
.page-preview.portrait { height: 60vh; width: 42.42vh; }
.page-preview.landscape { width: 60vw; height: 42.42vw; }
.tooltip-key::after { content: ": "; }
.brushed-out, .bar.brushed-out { fill: rgb(204, 204, 204) !important; }
.infowrapper { pointer-events: none; }
.information { overflow-y: overlay; overflow-x: hidden; padding: 0.5em; font-family: monospace; box-shadow: rgba(0, 0, 0, 0.2) 0px 8px 17px 0px, rgba(0, 0, 0, 0.188235) 0px 6px 20px 0px; display: inline-block; float: right; cursor: move; pointer-events: all; }
.information span { float: left; clear: both; }
.axis path, .axis line, .grid line{
stroke: #636363;
}

.tick text{
fill: #636363;
}

.axis path, .axis line{
stroke-width: 1px;
}

.bar-label{
fill: #000000;
}

.bar-label{
font-size: 10px;
}

.bin-value{
stroke: red;
}

.bin-value{
}

.bin-value{
stroke-width: 1px;
}

.bound{
stroke: red;
}

.bound{
stroke-width: 2px;
}

.bound.bounded{
stroke: limegreen;
}

.baseline{
stroke: #000000;
}

.baseline{
}

.baseline{
stroke-width: 1px;
}

.box-element rect{
fill: #8fbbd9;
}

.boxplot .outlier line{
stroke: #ff0000;
}

.boxplot .outlier line{
stroke-width: 1px;
}

.quartile{
stroke: #000000;
}

.quartile{
stroke-dasharray: 3, 2;
}

.quartile{
stroke-width: 1px;
}

.box-element line{
stroke: #000000;
}

.box-element line{
stroke-width: 1px;
}

.censEvents{
fill: #d44242;
}

.censEvents{
stroke: #d44242;
}

.censObservations{
fill: #d44242;
}
.censObsIntervals{stroke:rgb(212,66,66);stroke-opacity:0.498039;}

.censObsIntervals{
}

.censObsIntervals{
stroke-width: 5px;
}

.convergence-line{
stroke: #4682B4;
}

.cvIndicator-line{
stroke: #990099;
}

.dosingTimes{
stroke: #000000;
}

.dosingTimes{
stroke-dasharray: 8, 8;
}

.dosingTimes{
stroke-width: 2px;
}

line.empirical, path.empirical{
stroke: #4682B4;
}

.dot.empirical{
fill: #4682B4;
}

line.empirical, path.empirical{
}

line.empirical, path.empirical{
stroke-width: 2px;
}

.fisher_linearization&gt;.bar{
fill: #4682B4;
}

.fisher_stochasticApproximation&gt;.bar{
fill: #98abc5;
}

.focus &gt; line, .focus &gt; circle{
stroke: blue;
}

.lixoftchart{
background-color: #ffffff;
}

.sublayout-controls:hover{
background-color: #ffffff;
}

.bar:hover, .band-overlay:hover{
fill: orange !important;
}

g.bar, g.histogram{
fill: #4682B4;
}

g.bar, g.histogram{
stroke: #ffffff;
}

g.bar, g.histogram{
stroke-width: 1px;
}

.information{
background-color: #FFFFCC;
}

.information{
fill: #FFFFCC;
}

.information{
font-size: 12px;
}

.information{
color: #000000;
}

.k1{
stroke: red;
}

.k1{
stroke-width: 1px;
}

.axis-label.global{
fill: #000000;
}

.axis-label.global{
font-size: 14px;
}

.legend-frame{
fill: #ffffff;
}

.legend-frame{
stroke: #000000;
}

.legend-frame{
stroke-width: 0px;
}

.legend text{
fill: #000000;
}

.legend{
font-size: 12px;
}

.ll_importanceSampling&gt;.bar{
fill: #98abc5;
}

.ll_linearization&gt;.bar{
fill: #4682B4;
}

path.median, line.median{
stroke: #000000;
}

path.median, line.median{
stroke-dasharray: 5,3;
}

path.median, line.median{
stroke-width: 1px;
}

.observation{
fill: #4682B4;
}

.observation{
stroke: #4682B4;
}

.observation-line{
stroke-width: 1.5px;
}

.obsStatisticsValues{
font-size: 10px;
}

.outlier.area{
fill: #ff0000;
}

.outlier.dot{
stroke: #ff0000;
}

.outlier.dot{
stroke-width: 1px;
}
.prediction-interval.median{fill:rgb(255,0,0);fill-opacity:0.2;}
.prediction-interval.low, .prediction-interval.up{fill:rgb(0,128,255);fill-opacity:0.298039;}
.plot-background{fill:rgb(250,250,255);fill-opacity:0.6;}
.bar{stroke:rgb(250,250,255);stroke-opacity:0.6;}

.regressionLine{
stroke: #bd2671;
}

.regressionLine{
}

.regressionLine{
stroke-width: 1.5px;
}

.spline{
stroke: #eba213;
}

.spline{
}

.spline{
stroke-width: 1.5px;
}

.axis-label.sublabel, .matrix-diagonal-label{
fill: #000000;
}

.axis-label.sublabel, .matrix-diagonal-label{
font-size: 12px;
}

line.theoretical, path.theoretical{
stroke: #000000;
}

.dot.theoretical{
fill: #000000;
}

line.theoretical, path.theoretical{
stroke-dasharray: 5,3;
}

line.theoretical, path.theoretical{
stroke-width: 1.5px;
}

.tick{
font-size: 10px;
}

.title{
fill: #000000;
}

.title{
font-size: 14px;
}

.axis-label-unit{
fill: #999;
}

.userGuide-dot{
fill: red;
}

.userGuide-line{
stroke: red;
}

.userGuide-dot{
r: 3;
}

.userGuide-line{
}

.userGuide-line{
stroke-width: 1px;
}

.brushed-out, .brushed-out.bar{
fill: #ccc !important;
}
.not-censObservations{display:none;}
.not-grid{display:none;}
.hasCensored,.__hasCensored{display:none;}
.hasIOV,.__hasIOV{display:none;}
.not-hasMean{display:none;}
.not-hasMode{display:none;}
.not-isIndivEstimMean{display:none;}
.legend,.__legend{display:none;}
.linkedZoom,.__linkedZoom{display:none;}
.not-observations{display:none;}
.splitted,.__splitted{display:none;}
.xEqualDomains,.__xEqualDomains{display:none;}
.xLog,.__xLog{display:none;}
.yEqualDomains,.__yEqualDomains{display:none;}
.yLog,.__yLog{display:none;}
.not-bottomAxisLine{display:none;}
.not-bottomAxisTickLabels{display:none;}
.not-leftAxisLine{display:none;}
.not-leftAxisTickLabels{display:none;}
.rightAxisLine,.__rightAxisLine{display:none;}
.not-rightAxisTickLabels{display:none;}
.topAxisLine,.__topAxisLine{display:none;}
.not-topAxisTickLabels{display:none;}
.freehand-guides-layer,.__freehand-guides-layer{display:none;}
</style><g class="lixoftchart-scaler"><g class="lixoftchart-translator" transform="translate(50,40)"><g class="x axis" transform="translate(0, 561)"><text class="x axis-label global" x="386.5" y="-10" style="text-anchor: middle;"><tspan class="axis-label-text"/><tspan class="axis-label-unit"/></text></g><g class="y axis"><text class="y axis-label global" transform="rotate(-90)" x="-280.5" y="-30" style="text-anchor: middle;"><tspan class="axis-label-text"/><tspan class="axis-label-unit"/></text></g><g class="page plot-page active" data-index="0"><g class="plot-container page-element" width="224.33333333333334" height="140.33333333333334" data-index="0" data-col="0" data-row="0" transform="translate(0,0)"><g class="subpage plot-page active" data-index="0"><g class="plot page-element" width="224.33333333333334" height="140.33333333333334" id="Cl" data-index="0" title="E(Cl|y)" transform="translate(0,0)"><rect width="224.33333333333334" height="140.33333333333334" class="plot-background"/><svg class="plot-content zoomable-content" width="224.33333333333334" height="140.33333333333334"><path class="convergence-line line autoscale" stroke="steelblue" d="M10.196969696969697,72.31007948718835L12.13924963924964,72.23785439314818L14.081529581529582,72.42912988126828L16.023809523809522,73.2533718913028L17.966089466089464,75.18680838286696L19.90836940836941,74.4902501905163L21.850649350649352,74.81708527290623L23.792929292929294,74.96461780558755L25.735209235209236,73.74789375951929L27.67748917748918,73.62036823357195L29.61976911976912,72.92973026806828L31.562049062049066,72.37677884339037L33.504329004329,72.01245418062165L35.44660894660895,72.48823507896586L37.388888888888886,73.18838069766373L39.33116883116883,73.52255966957787L41.27344877344877,73.88672732030363L43.215728715728716,72.84577393198043L45.15800865800866,72.77179465224914L47.1002886002886,72.46458702041468L49.042568542568546,72.06399622386284L50.984848484848484,71.73709256189251L52.92712842712843,71.98198319335525L54.86940836940837,71.9716623862119L56.81168831168831,72.67023808926787L58.75396825396826,72.64459465882607L60.6962481962482,72.6606237697929L62.63852813852814,72.54625027479509L64.58080808080808,72.5395975672159L66.52308802308802,72.89694203545223L68.46536796536796,73.10893620691971L70.4076479076479,73.28799046144043L72.34992784992785,73.03624893465282L74.29220779220779,72.76150796193913L76.23448773448773,72.79992485114683L78.17676767676768,72.50658000592945L80.11904761904762,72.61555836123699L82.06132756132756,72.35423243528663L84.0036075036075,72.05039777446372L85.94588744588745,71.74941982961617L87.88816738816739,71.83522869791445L89.83044733044733,71.55330591362869L91.77272727272728,71.55807156520709L93.71500721500722,71.45370745892893L95.65728715728716,71.22990232142584L97.5995670995671,71.028098900856L99.54184704184705,70.92649358719642L101.48412698412699,70.78181238485398L103.42640692640693,70.78473583151313L105.36868686868688,70.77255033260593L107.31096681096682,70.9565733187953L109.25324675324676,70.97892506355733L111.1955266955267,70.78210885226682L113.13780663780663,70.84991851684181L115.08008658008659,70.87969851886828L117.02236652236654,71.04620648812191L118.96464646464646,71.03019982582153L120.90692640692642,70.97204976903112L122.84920634920637,70.93060074880044L124.7914862914863,71.01047775494179L126.73376623376625,70.91754106618528L128.67604617604616,70.77804812060336L130.6183261183261,70.69876676540564L132.56060606060606,70.55085751674133L134.502886002886,70.17625474605036L136.44516594516594,69.98786879995113L138.3874458874459,69.94198847864511L140.32972582972582,69.78481794809224L142.27200577200577,69.7374627838226L144.21428571428572,69.55782329195246L146.15656565656565,69.53943129423034L148.0988455988456,69.48825591142142L150.04112554112552,69.57382148712753L151.98340548340548,69.73758652777009L153.92568542568543,69.77464605423474L155.86796536796535,69.70798697494743L157.8102453102453,69.77832208034343L159.75252525252526,69.7952674719001L161.69480519480518,69.93019498513573L163.63708513708514,70.13017623803884L165.5793650793651,70.29689144327622L167.521645021645,70.34302190567017L169.46392496392497,70.49797391535415L171.40620490620492,70.76324841503272L173.34848484848484,70.91441356189922L175.2907647907648,70.89703746478136L177.23304473304472,70.89778514673118L179.17532467532467,70.86215158429864L181.11760461760463,70.75745259704709L183.05988455988455,70.70306626694408L185.0021645021645,70.60664126674871L186.94444444444446,70.58407417645954L188.88672438672438,70.3791010576546L190.82900432900433,70.32946426252725L192.7712842712843,70.20301774593678L194.7135642135642,70.08127891697339L196.65584415584416,70.01259990342531L198.59812409812412,70.12922290612944L200.54040404040404,70.12721534662349L202.482683982684,70.01968558572973L204.42496392496392,70.07965979416707L206.36724386724387,70.20388058373588L208.30952380952382,70.18708143051758L210.25180375180375,70.15841889467106L212.1940836940837,70.16666666666667" fill="none"/><line class="bound min segment autoscale bounded" x1="117.02236652236654" y1="128.15564738292008" x2="214.13636363636365" y2="128.15564738292008" fill="none"/><line class="bound max segment autoscale bounded" x1="117.02236652236654" y1="12.177685950413263" x2="214.13636363636365" y2="12.177685950413263" fill="none"/><g class="userGuides"/></svg><g class="axes"><g class="bottom axis bottomAxisLine" transform="translate(0,140.33333333333334)" fill="none" text-anchor="middle"><path class="domain" stroke="#000" d="M0.5,6V0.5H224.83333333333334V6" fill="none"/><g class="tick" opacity="1" transform="translate(10.696969696969697,0)"><line stroke="#000" y2="3" fill="none"/><text fill="#000" y="6" dy="0.71em" class="bottomAxisTickLabels transformed-label"><tspan class="label-block"><tspan class="label-subblock">0</tspan></tspan></text></g><g class="tick" opacity="1" transform="translate(49.542568542568546,0)"><line stroke="#000" y2="3" fill="none"/><text fill="#000" y="6" dy="0.71em" class="bottomAxisTickLabels transformed-label"><tspan class="label-block"><tspan class="label-subblock">20</tspan></tspan></text></g><g class="tick" opacity="1" transform="translate(88.38816738816739,0)"><line stroke="#000" y2="3" fill="none"/><text fill="#000" y="6" dy="0.71em" class="bottomAxisTickLabels transformed-label"><tspan class="label-block"><tspan class="label-subblock">40</tspan></tspan></text></g><g class="tick" opacity="1" transform="translate(127.23376623376625,0)"><line stroke="#000" y2="3" fill="none"/><text fill="#000" y="6" dy="0.71em" class="bottomAxisTickLabels transformed-label"><tspan class="label-block"><tspan class="label-subblock">60</tspan></tspan></text></g><g class="tick" opacity="1" transform="translate(166.0793650793651,0)"><line stroke="#000" y2="3" fill="none"/><text fill="#000" y="6" dy="0.71em" class="bottomAxisTickLabels transformed-label"><tspan class="label-block"><tspan class="label-subblock">80</tspan></tspan></text></g><g class="tick" opacity="1" transform="translate(204.92496392496392,0)"><line stroke="#000" y2="3" fill="none"/><text fill="#000" y="6" dy="0.71em" class="bottomAxisTickLabels transformed-label"><tspan class="label-block"><tspan class="label-subblock">100</tspan></tspan></text></g></g><g class="left axis leftAxisLine" fill="none" text-anchor="end"><path class="domain" stroke="#000" d="M-6,140.83333333333334H0.5V0.5H-6" fill="none"/><g class="tick" opacity="1" transform="translate(0,113.55854576093593)"><line stroke="#000" x2="-3" fill="none"/><text fill="#000" x="-6" dy="0.32em" class="leftAxisTickLabels transformed-label"><tspan class="label-block"><tspan class="label-subblock">10.4</tspan></tspan></text></g><g class="tick" opacity="1" transform="translate(0,69.77648134640023)"><line stroke="#000" x2="-3" fill="none"/><text fill="#000" x="-6" dy="0.32em" class="leftAxisTickLabels transformed-label"><tspan class="label-block"><tspan class="label-subblock">10.6</tspan></tspan></text></g><g class="tick" opacity="1" transform="translate(0,25.99441693186415)"><line stroke="#000" x2="-3" fill="none"/><text fill="#000" x="-6" dy="0.32em" class="leftAxisTickLabels transformed-label"><tspan class="label-block"><tspan class="label-subblock">10.8</tspan></tspan></text></g></g></g><g class="grid"><g class="vertical" transform="translate(0,140.33333333333334)" fill="none" font-size="10" font-family="sans-serif" text-anchor="middle"><g class="tick" opacity="1" transform="translate(10.696969696969697,0)"><line stroke="#000" y2="-140.33333333333334" fill="none"/></g><g class="tick" opacity="1" transform="translate(49.542568542568546,0)"><line stroke="#000" y2="-140.33333333333334" fill="none"/></g><g class="tick" opacity="1" transform="translate(88.38816738816739,0)"><line stroke="#000" y2="-140.33333333333334" fill="none"/></g><g class="tick" opacity="1" transform="translate(127.23376623376625,0)"><line stroke="#000" y2="-140.33333333333334" fill="none"/></g><g class="tick" opacity="1" transform="translate(166.0793650793651,0)"><line stroke="#000" y2="-140.33333333333334" fill="none"/></g><g class="tick" opacity="1" transform="translate(204.92496392496392,0)"><line stroke="#000" y2="-140.33333333333334" fill="none"/></g></g><g class="horizontal" fill="none" font-size="10" font-family="sans-serif" text-anchor="end"><g class="tick" opacity="1" transform="translate(0,113.55854576093593)"><line stroke="#000" x2="224.33333333333334" fill="none"/></g><g class="tick" opacity="1" transform="translate(0,69.77648134640023)"><line stroke="#000" x2="224.33333333333334" fill="none"/></g><g class="tick" opacity="1" transform="translate(0,25.99441693186415)"><line stroke="#000" x2="224.33333333333334" fill="none"/></g></g></g><defs><clipPath id="Cl--freehand-guides-clip" class="freehand-guides-clip"><rect x="0" y="0" width="224.33333333333334" height="140.33333333333334"/></clipPath></defs></g></g><text x="112.16666666666667" y="-1em" class="title transformed-label" text-anchor="middle"><tspan class="label-block"><tspan class="label-subblock">E(Cl|y)</tspan></tspan></text></g><g class="plot-container page-element" width="224.33333333333334" height="140.33333333333334" data-index="1" data-col="1" data-row="0" transform="translate(274.33333333333337,0)"><g class="subpage plot-page active" data-index="0"><g class="plot page-element" width="224.33333333333334" height="140.33333333333334" id="V1" data-index="0" title="E(V1|y)" transform="translate(0,0)"><rect width="224.33333333333334" height="140.33333333333334" class="plot-background"/><svg class="plot-content zoomable-content" width="224.33333333333334" height="140.33333333333334"><path class="convergence-line line autoscale" stroke="steelblue" d="M10.196969696969697,101.24408156281915L12.13924963924964,81.30611110203017L14.081529581529582,72.01014552118261L16.023809523809522,56.83221515616184L17.966089466089464,51.00278688818659L19.90836940836941,43.95740539349117L21.850649350649352,39.92580182868015L23.792929292929294,38.19365963592465L25.735209235209236,34.15072500108505L27.67748917748918,37.49016039941641L29.61976911976912,37.71016339149429L31.562049062049066,39.2340859819778L33.504329004329,44.189127319081265L35.44660894660895,47.26620715058367L37.388888888888886,51.11302314493568L39.33116883116883,53.41176483465125L41.27344877344877,58.77468982667442L43.215728715728716,60.33699437392774L45.15800865800866,62.09497544680228L47.1002886002886,64.54241690731214L49.042568542568546,68.42455355875153L50.984848484848484,71.12760594530756L52.92712842712843,72.61131198242248L54.86940836940837,73.77905612334301L56.81168831168831,74.32514635525196L58.75396825396826,74.47854282115749L60.6962481962482,73.75226406314324L62.63852813852814,73.13821956211483L64.58080808080808,72.16289972012936L66.52308802308802,72.94933184439988L68.46536796536796,73.6870908211631L70.4076479076479,74.600514973527L72.34992784992785,74.61979302985802L74.29220779220779,75.06631667624261L76.23448773448773,74.43058205592075L78.17676767676768,73.66300259326569L80.11904761904762,73.30892228208758L82.06132756132756,73.06040000977906L84.0036075036075,73.63577110008609L85.94588744588745,75.3201832739249L87.88816738816739,75.92014413992811L89.83044733044733,75.24491830184955L91.77272727272728,74.98913088547913L93.71500721500722,75.28790735311047L95.65728715728716,74.83282017555076L97.5995670995671,74.61043812572392L99.54184704184705,74.21632652108389L101.48412698412699,74.04308694823834L103.42640692640693,73.18105970561533L105.36868686868688,72.87332349685913L107.31096681096682,72.80224481681665L109.25324675324676,73.9763300412573L111.1955266955267,74.48380114670962L113.13780663780663,75.31128200640129L115.08008658008659,75.77166493799167L117.02236652236654,75.8263275355793L118.96464646464646,75.75222429338108L120.90692640692642,75.45960800775819L122.84920634920637,76.26880897299964L124.7914862914863,77.1236623665987L126.73376623376625,77.3197151947498L128.67604617604616,77.54155497280479L130.6183261183261,77.71321716050804L132.56060606060606,77.67033653045914L134.502886002886,77.21659815806049L136.44516594516594,76.32133315471879L138.3874458874459,75.77459571945847L140.32972582972582,75.98362826589356L142.27200577200577,76.10625804277876L144.21428571428572,76.29463027003509L146.15656565656565,75.68725289170585L148.0988455988456,75.66185034736873L150.04112554112552,75.20442721998897L151.98340548340548,74.6047791772119L153.92568542568543,74.5175140795525L155.86796536796535,73.68979250139597L157.8102453102453,73.01090259664466L159.75252525252526,72.36681763347224L161.69480519480518,71.86870245331049L163.63708513708514,72.08538337033282L165.5793650793651,72.04478732676891L167.521645021645,71.82632371791301L169.46392496392497,71.71408793206163L171.40620490620492,71.4347696724575L173.34848484848484,71.02431669671991L175.2907647907648,70.45696707302604L177.23304473304472,69.91586688524045L179.17532467532467,69.47999757315475L181.11760461760463,69.1595625292578L183.05988455988455,68.73255233827784L185.0021645021645,68.81543927813784L186.94444444444446,68.88164129060318L188.88672438672438,68.58409194362721L190.82900432900433,68.70085781928528L192.7712842712843,68.53821466329006L194.7135642135642,68.26659480253251L196.65584415584416,67.92094500443629L198.59812409812412,67.69038988148212L200.54040404040404,67.45673548515806L202.482683982684,67.57355186300543L204.42496392496392,68.29773370725577L206.36724386724387,68.86980248516946L208.30952380952382,69.04829889321095L210.25180375180375,69.58446185437452L212.1940836940837,70.16666666666667" fill="none"/><line class="bound min segment autoscale bounded" x1="117.02236652236654" y1="128.15564738292014" x2="214.13636363636365" y2="128.15564738292014" fill="none"/><line class="bound max segment autoscale bounded" x1="117.02236652236654" y1="12.177685950413206" x2="214.13636363636365" y2="12.177685950413206" fill="none"/><g class="userGuides"/></svg><g class="axes"><g class="bottom axis bottomAxisLine" transform="translate(0,140.33333333333334)" fill="none" text-anchor="middle"><path class="domain" stroke="#000" d="M0.5,6V0.5H224.83333333333334V6" fill="none"/><g class="tick" opacity="1" transform="translate(10.696969696969697,0)"><line stroke="#000" y2="3" fill="none"/><text fill="#000" y="6" dy="0.71em" class="bottomAxisTickLabels transformed-label"><tspan class="label-block"><tspan class="label-subblock">0</tspan></tspan></text></g><g class="tick" opacity="1" transform="translate(49.542568542568546,0)"><line stroke="#000" y2="3" fill="none"/><text fill="#000" y="6" dy="0.71em" class="bottomAxisTickLabels transformed-label"><tspan class="label-block"><tspan class="label-subblock">20</tspan></tspan></text></g><g class="tick" opacity="1" transform="translate(88.38816738816739,0)"><line stroke="#000" y2="3" fill="none"/><text fill="#000" y="6" dy="0.71em" class="bottomAxisTickLabels transformed-label"><tspan class="label-block"><tspan class="label-subblock">40</tspan></tspan></text></g><g class="tick" opacity="1" transform="translate(127.23376623376625,0)"><line stroke="#000" y2="3" fill="none"/><text fill="#000" y="6" dy="0.71em" class="bottomAxisTickLabels transformed-label"><tspan class="label-block"><tspan class="label-subblock">60</tspan></tspan></text></g><g class="tick" opacity="1" transform="translate(166.0793650793651,0)"><line stroke="#000" y2="3" fill="none"/><text fill="#000" y="6" dy="0.71em" class="bottomAxisTickLabels transformed-label"><tspan class="label-block"><tspan class="label-subblock">80</tspan></tspan></text></g><g class="tick" opacity="1" transform="translate(204.92496392496392,0)"><line stroke="#000" y2="3" fill="none"/><text fill="#000" y="6" dy="0.71em" class="bottomAxisTickLabels transformed-label"><tspan class="label-block"><tspan class="label-subblock">100</tspan></tspan></text></g></g><g class="left axis leftAxisLine" fill="none" text-anchor="end"><path class="domain" stroke="#000" d="M-6,140.83333333333334H0.5V0.5H-6" fill="none"/><g class="tick" opacity="1" transform="translate(0,127.89609159532877)"><line stroke="#000" x2="-3" fill="none"/><text fill="#000" x="-6" dy="0.32em" class="leftAxisTickLabels transformed-label"><tspan class="label-block"><tspan class="label-subblock">41</tspan></tspan></text></g><g class="tick" opacity="1" transform="translate(0,72.71731589480505)"><line stroke="#000" x2="-3" fill="none"/><text fill="#000" x="-6" dy="0.32em" class="leftAxisTickLabels transformed-label"><tspan class="label-block"><tspan class="label-subblock">42</tspan></tspan></text></g><g class="tick" opacity="1" transform="translate(0,17.53854019428134)"><line stroke="#000" x2="-3" fill="none"/><text fill="#000" x="-6" dy="0.32em" class="leftAxisTickLabels transformed-label"><tspan class="label-block"><tspan class="label-subblock">43</tspan></tspan></text></g></g></g><g class="grid"><g class="vertical" transform="translate(0,140.33333333333334)" fill="none" font-size="10" font-family="sans-serif" text-anchor="middle"><g class="tick" opacity="1" transform="translate(10.696969696969697,0)"><line stroke="#000" y2="-140.33333333333334" fill="none"/></g><g class="tick" opacity="1" transform="translate(49.542568542568546,0)"><line stroke="#000" y2="-140.33333333333334" fill="none"/></g><g class="tick" opacity="1" transform="translate(88.38816738816739,0)"><line stroke="#000" y2="-140.33333333333334" fill="none"/></g><g class="tick" opacity="1" transform="translate(127.23376623376625,0)"><line stroke="#000" y2="-140.33333333333334" fill="none"/></g><g class="tick" opacity="1" transform="translate(166.0793650793651,0)"><line stroke="#000" y2="-140.33333333333334" fill="none"/></g><g class="tick" opacity="1" transform="translate(204.92496392496392,0)"><line stroke="#000" y2="-140.33333333333334" fill="none"/></g></g><g class="horizontal" fill="none" font-size="10" font-family="sans-serif" text-anchor="end"><g class="tick" opacity="1" transform="translate(0,127.89609159532877)"><line stroke="#000" x2="224.33333333333334" fill="none"/></g><g class="tick" opacity="1" transform="translate(0,72.71731589480505)"><line stroke="#000" x2="224.33333333333334" fill="none"/></g><g class="tick" opacity="1" transform="translate(0,17.53854019428134)"><line stroke="#000" x2="224.33333333333334" fill="none"/></g></g></g><defs><clipPath id="V1--freehand-guides-clip" class="freehand-guides-clip"><rect x="0" y="0" width="224.33333333333334" height="140.33333333333334"/></clipPath></defs></g></g><text x="112.16666666666667" y="-1em" class="title transformed-label" text-anchor="middle"><tspan class="label-block"><tspan class="label-subblock">E(V1|y)</tspan></tspan></text></g><g class="plot-container page-element" width="224.33333333333334" height="140.33333333333334" data-index="2" data-col="2" data-row="0" transform="translate(548.6666666666667,0)"><g class="subpage plot-page active" data-index="0"><g class="plot page-element" width="224.33333333333334" height="140.33333333333334" id="Q" data-index="0" title="E(Q|y)" transform="translate(0,0)"><rect width="224.33333333333334" height="140.33333333333334" class="plot-background"/><svg class="plot-content zoomable-content" width="224.33333333333334" height="140.33333333333334"><path class="convergence-line line autoscale" stroke="steelblue" d="M10.196969696969697,12.177685950413235L12.13924963924964,55.61586636647465L14.081529581529582,77.25523910718941L16.023809523809522,99.3731794575553L17.966089466089464,106.2937615061177L19.90836940836941,118.45311454803054L21.850649350649352,124.59417448372423L23.792929292929294,125.95884218004272L25.735209235209236,128.1556473829201L27.67748917748918,126.82713596443547L29.61976911976912,119.06421715168779L31.562049062049066,116.2847199737119L33.504329004329,110.95746768155152L35.44660894660895,101.22498839142091L37.388888888888886,95.7464510040833L39.33116883116883,90.25685552406165L41.27344877344877,80.09569020980464L43.215728715728716,74.12558821320535L45.15800865800866,67.40487200833432L47.1002886002886,61.379458512111384L49.042568542568546,57.05965425956116L50.984848484848484,52.74485412725714L52.92712842712843,49.697620597233595L54.86940836940837,49.5365608508376L56.81168831168831,50.81206934226891L58.75396825396826,51.59271489909894L60.6962481962482,52.79742055462749L62.63852813852814,54.33146101823591L64.58080808080808,54.15815198767814L66.52308802308802,54.003828509409516L68.46536796536796,53.777595821877554L70.4076479076479,54.10570410194572L72.34992784992785,52.79980967465015L74.29220779220779,53.42930094876061L76.23448773448773,52.9382990230484L78.17676767676768,52.44751886743133L80.11904761904762,50.973606287101504L82.06132756132756,47.8802859529751L84.0036075036075,46.12023976772677L85.94588744588745,44.53859047717653L87.88816738816739,44.38111730398411L89.83044733044733,44.447252522925936L91.77272727272728,43.33302646810618L93.71500721500722,43.936520938085266L95.65728715728716,44.77061214340826L97.5995670995671,45.6513486359388L99.54184704184705,47.280662934200336L101.48412698412699,47.13878652398809L103.42640692640693,46.85409570029941L105.36868686868688,47.117290606576105L107.31096681096682,47.5949062366426L109.25324675324676,47.580947562321555L111.1955266955267,47.084571786751354L113.13780663780663,47.009779081664846L115.08008658008659,47.6111742265809L117.02236652236654,47.19183652599176L118.96464646464646,46.898874505844375L120.90692640692642,46.175640366260936L122.84920634920637,45.55092544026844L124.7914862914863,44.85490680137704L126.73376623376625,43.058145927527676L128.67604617604616,43.31676515481293L130.6183261183261,43.64668486493082L132.56060606060606,43.687051527403355L134.502886002886,44.22437249352605L136.44516594516594,44.67805844440129L138.3874458874459,45.610348225458225L140.32972582972582,45.50010667924026L142.27200577200577,45.624871086569286L144.21428571428572,45.581774314739135L146.15656565656565,45.98351780716831L148.0988455988456,46.579791579776526L150.04112554112552,46.541745726414376L151.98340548340548,47.83307037696797L153.92568542568543,47.511296560233774L155.86796536796535,47.333633099708905L157.8102453102453,48.52508693268118L159.75252525252526,49.697892214443726L161.69480519480518,51.409483521843086L163.63708513708514,51.78501675240207L165.5793650793651,52.098345212132344L167.521645021645,51.40882534216091L169.46392496392497,50.838234500831575L171.40620490620492,51.62922163615029L173.34848484848484,52.97397763438386L175.2907647907648,53.92682463370629L177.23304473304472,54.888463227083264L179.17532467532467,54.91224269171761L181.11760461760463,55.32519643429461L183.05988455988455,55.186648089973446L185.0021645021645,55.28208398919038L186.94444444444446,53.806701059641114L188.88672438672438,52.37935416831711L190.82900432900433,52.43935954193499L192.7712842712843,52.1851217139219L194.7135642135642,52.11784147668034L196.65584415584416,52.65013426008491L198.59812409812412,53.15076795532315L200.54040404040404,53.28916111594219L202.482683982684,54.00496193192835L204.42496392496392,53.75174715384574L206.36724386724387,53.85534375009394L208.30952380952382,53.11798068534179L210.25180375180375,52.592067972196176L212.1940836940837,52.25463281512113" fill="none"/><line class="bound min segment autoscale bounded" x1="117.02236652236654" y1="76.0432938098688" x2="214.13636363636365" y2="76.0432938098688" fill="none"/><line class="bound max segment autoscale bounded" x1="117.02236652236654" y1="28.465971820373454" x2="214.13636363636365" y2="28.465971820373454" fill="none"/><g class="userGuides"/></svg><g class="axes"><g class="bottom axis bottomAxisLine" transform="translate(0,140.33333333333334)" fill="none" text-anchor="middle"><path class="domain" stroke="#000" d="M0.5,6V0.5H224.83333333333334V6" fill="none"/><g class="tick" opacity="1" transform="translate(10.696969696969697,0)"><line stroke="#000" y2="3" fill="none"/><text fill="#000" y="6" dy="0.71em" class="bottomAxisTickLabels transformed-label"><tspan class="label-block"><tspan class="label-subblock">0</tspan></tspan></text></g><g class="tick" opacity="1" transform="translate(49.542568542568546,0)"><line stroke="#000" y2="3" fill="none"/><text fill="#000" y="6" dy="0.71em" class="bottomAxisTickLabels transformed-label"><tspan class="label-block"><tspan class="label-subblock">20</tspan></tspan></text></g><g class="tick" opacity="1" transform="translate(88.38816738816739,0)"><line stroke="#000" y2="3" fill="none"/><text fill="#000" y="6" dy="0.71em" class="bottomAxisTickLabels transformed-label"><tspan class="label-block"><tspan class="label-subblock">40</tspan></tspan></text></g><g class="tick" opacity="1" transform="translate(127.23376623376625,0)"><line stroke="#000" y2="3" fill="none"/><text fill="#000" y="6" dy="0.71em" class="bottomAxisTickLabels transformed-label"><tspan class="label-block"><tspan class="label-subblock">60</tspan></tspan></text></g><g class="tick" opacity="1" transform="translate(166.0793650793651,0)"><line stroke="#000" y2="3" fill="none"/><text fill="#000" y="6" dy="0.71em" class="bottomAxisTickLabels transformed-label"><tspan class="label-block"><tspan class="label-subblock">80</tspan></tspan></text></g><g class="tick" opacity="1" transform="translate(204.92496392496392,0)"><line stroke="#000" y2="3" fill="none"/><text fill="#000" y="6" dy="0.71em" class="bottomAxisTickLabels transformed-label"><tspan class="label-block"><tspan class="label-subblock">100</tspan></tspan></text></g></g><g class="left axis leftAxisLine" fill="none" text-anchor="end"><path class="domain" stroke="#000" d="M-6,140.83333333333334H0.5V0.5H-6" fill="none"/><g class="tick" opacity="1" transform="translate(0,124.46860764997712)"><line stroke="#000" x2="-3" fill="none"/><text fill="#000" x="-6" dy="0.32em" class="leftAxisTickLabels transformed-label"><tspan class="label-block"><tspan class="label-subblock">14</tspan></tspan></text></g><g class="tick" opacity="1" transform="translate(0,61.623431581759036)"><line stroke="#000" x2="-3" fill="none"/><text fill="#000" x="-6" dy="0.32em" class="leftAxisTickLabels transformed-label"><tspan class="label-block"><tspan class="label-subblock">15</tspan></tspan></text></g></g></g><g class="grid"><g class="vertical" transform="translate(0,140.33333333333334)" fill="none" font-size="10" font-family="sans-serif" text-anchor="middle"><g class="tick" opacity="1" transform="translate(10.696969696969697,0)"><line stroke="#000" y2="-140.33333333333334" fill="none"/></g><g class="tick" opacity="1" transform="translate(49.542568542568546,0)"><line stroke="#000" y2="-140.33333333333334" fill="none"/></g><g class="tick" opacity="1" transform="translate(88.38816738816739,0)"><line stroke="#000" y2="-140.33333333333334" fill="none"/></g><g class="tick" opacity="1" transform="translate(127.23376623376625,0)"><line stroke="#000" y2="-140.33333333333334" fill="none"/></g><g class="tick" opacity="1" transform="translate(166.0793650793651,0)"><line stroke="#000" y2="-140.33333333333334" fill="none"/></g><g class="tick" opacity="1" transform="translate(204.92496392496392,0)"><line stroke="#000" y2="-140.33333333333334" fill="none"/></g></g><g class="horizontal" fill="none" font-size="10" font-family="sans-serif" text-anchor="end"><g class="tick" opacity="1" transform="translate(0,124.46860764997712)"><line stroke="#000" x2="224.33333333333334" fill="none"/></g><g class="tick" opacity="1" transform="translate(0,61.623431581759036)"><line stroke="#000" x2="224.33333333333334" fill="none"/></g></g></g><defs><clipPath id="Q--freehand-guides-clip" class="freehand-guides-clip"><rect x="0" y="0" width="224.33333333333334" height="140.33333333333334"/></clipPath></defs></g></g><text x="112.16666666666667" y="-1em" class="title transformed-label" text-anchor="middle"><tspan class="label-block"><tspan class="label-subblock">E(Q|y)</tspan></tspan></text></g><g class="plot-container page-element" width="224.33333333333334" height="140.33333333333334" data-index="3" data-col="0" data-row="1" transform="translate(0,190.33333333333334)"><g class="subpage plot-page active" data-index="0"><g class="plot page-element" width="224.33333333333334" height="140.33333333333334" id="V2" data-index="0" title="E(V2|y)" transform="translate(0,0)"><rect width="224.33333333333334" height="140.33333333333334" class="plot-background"/><svg class="plot-content zoomable-content" width="224.33333333333334" height="140.33333333333334"><path class="convergence-line line autoscale" stroke="steelblue" d="M10.196969696969697,45.55311158587544L12.13924963924964,56.58435220968198L14.081529581529582,46.24673214913331L16.023809523809522,57.40733139370755L17.966089466089464,56.07726345249321L19.90836940836941,61.17008986460225L21.850649350649352,59.602780613612055L23.792929292929294,61.93549465508697L25.735209235209236,65.2387457472552L27.67748917748918,67.15948761372309L29.61976911976912,68.3093456352359L31.562049062049066,66.71020326306974L33.504329004329,70.81177234564089L35.44660894660895,72.48275096257017L37.388888888888886,72.14616724854181L39.33116883116883,69.75924991590844L41.27344877344877,67.85250370705043L43.215728715728716,68.69776636202448L45.15800865800866,68.36475738134052L47.1002886002886,66.98653243150113L49.042568542568546,68.69693457405728L50.984848484848484,65.09294067899877L52.92712842712843,66.50964194011044L54.86940836940837,64.48484915090238L56.81168831168831,64.49400313156146L58.75396825396826,62.53445382314641L60.6962481962482,59.78806369145684L62.63852813852814,56.805507858147095L64.58080808080808,54.87264469998591L66.52308802308802,55.40883455695628L68.46536796536796,55.696357602456246L70.4076479076479,53.92521404889554L72.34992784992785,54.83383138833452L74.29220779220779,53.96136939463496L76.23448773448773,53.592125290725676L78.17676767676768,50.97227844728043L80.11904761904762,51.89679829569063L82.06132756132756,49.23005417225389L84.0036075036075,48.488587685824044L85.94588744588745,47.07335202169551L87.88816738816739,44.788038576461204L89.83044733044733,44.50834972664303L91.77272727272728,42.99706283653302L93.71500721500722,44.657907768443266L95.65728715728716,46.63397207980185L97.5995670995671,48.7343809380463L99.54184704184705,50.062424060593585L101.48412698412699,51.24795541383567L103.42640692640693,53.09786584434802L105.36868686868688,54.708179798517904L107.31096681096682,56.84763767505352L109.25324675324676,58.11802392661758L111.1955266955267,59.35885035183155L113.13780663780663,60.63502292168924L115.08008658008659,62.32440982875768L117.02236652236654,63.22264711726935L118.96464646464646,64.37904045763086L120.90692640692642,64.52256747672733L122.84920634920637,66.25984318726171L124.7914862914863,67.21666964349014L126.73376623376625,67.67050070675762L128.67604617604616,70.05481496776504L130.6183261183261,71.4512652233938L132.56060606060606,72.92967644780356L134.502886002886,73.59696601569088L136.44516594516594,73.78410017052961L138.3874458874459,73.35594728255128L140.32972582972582,74.5842707678319L142.27200577200577,74.87237562787018L144.21428571428572,75.86124581407864L146.15656565656565,76.3685472369932L148.0988455988456,76.23778307188415L150.04112554112552,75.6224077279098L151.98340548340548,75.86277811771575L153.92568542568543,77.08570105847963L155.86796536796535,77.20185326147077L157.8102453102453,76.59690567334086L159.75252525252526,75.90906201551986L161.69480519480518,75.59825908373061L163.63708513708514,75.35486724012677L165.5793650793651,75.32585587903333L167.521645021645,74.55286452589465L169.46392496392497,74.00705397592807L171.40620490620492,72.58358611237618L173.34848484848484,70.23739088240464L175.2907647907648,70.28717096933009L177.23304473304472,68.51001928002677L179.17532467532467,69.01590617604543L181.11760461760463,69.67532290147108L183.05988455988455,69.9763621064117L185.0021645021645,69.8275279948917L186.94444444444446,70.08108930893594L188.88672438672438,69.59852268251676L190.82900432900433,69.41456247196048L192.7712842712843,69.23424924554394L194.7135642135642,68.56149742488458L196.65584415584416,67.7719895611808L198.59812409812412,67.4125034313989L200.54040404040404,66.36667617106768L202.482683982684,66.58301883942372L204.42496392496392,68.25333748029212L206.36724386724387,69.4718846711172L208.30952380952382,70.61978881976304L210.25180375180375,70.24716125310147L212.1940836940837,70.16666666666667" fill="none"/><line class="bound min segment autoscale bounded" x1="117.02236652236654" y1="128.1556473829201" x2="214.13636363636365" y2="128.1556473829201" fill="none"/><line class="bound max segment autoscale bounded" x1="117.02236652236654" y1="12.177685950413235" x2="214.13636363636365" y2="12.177685950413235" fill="none"/><g class="userGuides"/></svg><g class="axes"><g class="bottom axis bottomAxisLine" transform="translate(0,140.33333333333334)" fill="none" text-anchor="middle"><path class="domain" stroke="#000" d="M0.5,6V0.5H224.83333333333334V6" fill="none"/><g class="tick" opacity="1" transform="translate(10.696969696969697,0)"><line stroke="#000" y2="3" fill="none"/><text fill="#000" y="6" dy="0.71em" class="bottomAxisTickLabels transformed-label"><tspan class="label-block"><tspan class="label-subblock">0</tspan></tspan></text></g><g class="tick" opacity="1" transform="translate(49.542568542568546,0)"><line stroke="#000" y2="3" fill="none"/><text fill="#000" y="6" dy="0.71em" class="bottomAxisTickLabels transformed-label"><tspan class="label-block"><tspan class="label-subblock">20</tspan></tspan></text></g><g class="tick" opacity="1" transform="translate(88.38816738816739,0)"><line stroke="#000" y2="3" fill="none"/><text fill="#000" y="6" dy="0.71em" class="bottomAxisTickLabels transformed-label"><tspan class="label-block"><tspan class="label-subblock">40</tspan></tspan></text></g><g class="tick" opacity="1" transform="translate(127.23376623376625,0)"><line stroke="#000" y2="3" fill="none"/><text fill="#000" y="6" dy="0.71em" class="bottomAxisTickLabels transformed-label"><tspan class="label-block"><tspan class="label-subblock">60</tspan></tspan></text></g><g class="tick" opacity="1" transform="translate(166.0793650793651,0)"><line stroke="#000" y2="3" fill="none"/><text fill="#000" y="6" dy="0.71em" class="bottomAxisTickLabels transformed-label"><tspan class="label-block"><tspan class="label-subblock">80</tspan></tspan></text></g><g class="tick" opacity="1" transform="translate(204.92496392496392,0)"><line stroke="#000" y2="3" fill="none"/><text fill="#000" y="6" dy="0.71em" class="bottomAxisTickLabels transformed-label"><tspan class="label-block"><tspan class="label-subblock">100</tspan></tspan></text></g></g><g class="left axis leftAxisLine" fill="none" text-anchor="end"><path class="domain" stroke="#000" d="M-6,140.83333333333334H0.5V0.5H-6" fill="none"/><g class="tick" opacity="1" transform="translate(0,100.78696170157917)"><line stroke="#000" x2="-3" fill="none"/><text fill="#000" x="-6" dy="0.32em" class="leftAxisTickLabels transformed-label"><tspan class="label-block"><tspan class="label-subblock">51</tspan></tspan></text></g><g class="tick" opacity="1" transform="translate(0,55.89600221892762)"><line stroke="#000" x2="-3" fill="none"/><text fill="#000" x="-6" dy="0.32em" class="leftAxisTickLabels transformed-label"><tspan class="label-block"><tspan class="label-subblock">52</tspan></tspan></text></g><g class="tick" opacity="1" transform="translate(0,11.005042736276067)"><line stroke="#000" x2="-3" fill="none"/><text fill="#000" x="-6" dy="0.32em" class="leftAxisTickLabels transformed-label"><tspan class="label-block"><tspan class="label-subblock">53</tspan></tspan></text></g></g></g><g class="grid"><g class="vertical" transform="translate(0,140.33333333333334)" fill="none" font-size="10" font-family="sans-serif" text-anchor="middle"><g class="tick" opacity="1" transform="translate(10.696969696969697,0)"><line stroke="#000" y2="-140.33333333333334" fill="none"/></g><g class="tick" opacity="1" transform="translate(49.542568542568546,0)"><line stroke="#000" y2="-140.33333333333334" fill="none"/></g><g class="tick" opacity="1" transform="translate(88.38816738816739,0)"><line stroke="#000" y2="-140.33333333333334" fill="none"/></g><g class="tick" opacity="1" transform="translate(127.23376623376625,0)"><line stroke="#000" y2="-140.33333333333334" fill="none"/></g><g class="tick" opacity="1" transform="translate(166.0793650793651,0)"><line stroke="#000" y2="-140.33333333333334" fill="none"/></g><g class="tick" opacity="1" transform="translate(204.92496392496392,0)"><line stroke="#000" y2="-140.33333333333334" fill="none"/></g></g><g class="horizontal" fill="none" font-size="10" font-family="sans-serif" text-anchor="end"><g class="tick" opacity="1" transform="translate(0,100.78696170157917)"><line stroke="#000" x2="224.33333333333334" fill="none"/></g><g class="tick" opacity="1" transform="translate(0,55.89600221892762)"><line stroke="#000" x2="224.33333333333334" fill="none"/></g><g class="tick" opacity="1" transform="translate(0,11.005042736276067)"><line stroke="#000" x2="224.33333333333334" fill="none"/></g></g></g><defs><clipPath id="V2--freehand-guides-clip" class="freehand-guides-clip"><rect x="0" y="0" width="224.33333333333334" height="140.33333333333334"/></clipPath></defs></g></g><text x="112.16666666666667" y="-1em" class="title transformed-label" text-anchor="middle"><tspan class="label-block"><tspan class="label-subblock">E(V2|y)</tspan></tspan></text></g><g class="plot-container page-element" width="224.33333333333334" height="140.33333333333334" data-index="4" data-col="1" data-row="1" transform="translate(274.33333333333337,190.33333333333334)"><g class="subpage plot-page active" data-index="0"><g class="plot page-element" width="224.33333333333334" height="140.33333333333334" id="Cl_sd" data-index="0" title="sd(Cl|y)" transform="translate(0,0)"><rect width="224.33333333333334" height="140.33333333333334" class="plot-background"/><svg class="plot-content zoomable-content" width="224.33333333333334" height="140.33333333333334"><path class="convergence-line line autoscale" stroke="steelblue" d="M10.196969696969697,12.177685950413235L12.13924963924964,56.36802190086382L14.081529581529582,79.9401678985258L16.023809523809522,89.34953811441491L17.966089466089464,94.45126969425672L19.90836940836941,98.24410474722379L21.850649350649352,100.31603592602372L23.792929292929294,104.55461532360923L25.735209235209236,107.94741821545834L27.67748917748918,104.94708967647455L29.61976911976912,105.75502828153253L31.562049062049066,110.84549994138067L33.504329004329,111.68376108924265L35.44660894660895,112.0196445910195L37.388888888888886,113.47570815449176L39.33116883116883,115.32917321656144L41.27344877344877,114.23691513874763L43.215728715728716,114.02564325292958L45.15800865800866,113.91721304487362L47.1002886002886,113.98494012470478L49.042568542568546,113.91881886745605L50.984848484848484,115.10719284082181L52.92712842712843,115.72880917927671L54.86940836940837,116.85942917886356L56.81168831168831,114.4751214743752L58.75396825396826,114.14344594729283L60.6962481962482,113.89220957553249L62.63852813852814,114.54125138853776L64.58080808080808,114.81387061556525L66.52308802308802,115.40808857072102L68.46536796536796,115.46344506823664L70.4076479076479,115.71531672894453L72.34992784992785,116.17022391307196L74.29220779220779,116.165731844745L76.23448773448773,116.90104061618631L78.17676767676768,118.35186331868077L80.11904761904762,119.77177326116187L82.06132756132756,120.70562476798477L84.0036075036075,121.80636130250231L85.94588744588745,121.31646773246695L87.88816738816739,121.01861181772045L89.83044733044733,120.85904406433954L91.77272727272728,119.86015209591024L93.71500721500722,118.33660440614909L95.65728715728716,117.96222027287139L97.5995670995671,118.49427794210277L99.54184704184705,118.60159461929686L101.48412698412699,118.30633995182018L103.42640692640693,118.26394654019958L105.36868686868688,118.60442995320881L107.31096681096682,118.55404042430652L109.25324675324676,117.16485596226332L111.1955266955267,116.6538839050632L113.13780663780663,116.06840764489158L115.08008658008659,116.21566159795552L117.02236652236654,116.29685550288197L118.96464646464646,116.25763749614514L120.90692640692642,115.85159691270889L122.84920634920637,115.41255454553914L124.7914862914863,115.51183378552692L126.73376623376625,115.5960758949341L128.67604617604616,115.2574552174266L130.6183261183261,115.65665656324401L132.56060606060606,116.22249697157005L134.502886002886,116.19369231776119L136.44516594516594,116.47365654134414L138.3874458874459,115.5413125634146L140.32972582972582,115.24437064521297L142.27200577200577,115.7337493700718L144.21428571428572,115.66641498746688L146.15656565656565,115.62458039800678L148.0988455988456,116.15719720843481L150.04112554112552,116.77684169172673L151.98340548340548,116.9406255053569L153.92568542568543,117.0129513487073L155.86796536796535,117.29326964631784L157.8102453102453,117.57539698827757L159.75252525252526,117.7747916994532L161.69480519480518,118.38580036724616L163.63708513708514,118.81897728276606L165.5793650793651,119.1256918912874L167.521645021645,119.2135056809064L169.46392496392497,118.9505659985991L171.40620490620492,119.07389583334724L173.34848484848484,119.49783819831092L175.2907647907648,119.93692039112344L177.23304473304472,119.87089550994084L179.17532467532467,120.20917037123075L181.11760461760463,119.990045313569L183.05988455988455,120.03426539877994L185.0021645021645,120.4704799158623L186.94444444444446,120.60118471189995L188.88672438672438,120.34270847035366L190.82900432900433,120.25840525010804L192.7712842712843,120.38577564517925L194.7135642135642,120.45022356683867L196.65584415584416,120.68496989411491L198.59812409812412,120.75965072087044L200.54040404040404,121.15135896211795L202.482683982684,121.5808213414646L204.42496392496392,121.16923218452368L206.36724386724387,121.13257370555232L208.30952380952382,121.21404375239429L210.25180375180375,121.17979659565822L212.1940836940837,121.370286626799" fill="none"/><line class="bound min segment autoscale bounded" x1="117.02236652236654" y1="128.15564738292014" x2="214.13636363636365" y2="128.15564738292014" fill="none"/><line class="bound max segment autoscale bounded" x1="117.02236652236654" y1="114.58492587067786" x2="214.13636363636365" y2="114.58492587067786" fill="none"/><g class="userGuides"/></svg><g class="axes"><g class="bottom axis bottomAxisLine" transform="translate(0,140.33333333333334)" fill="none" text-anchor="middle"><path class="domain" stroke="#000" d="M0.5,6V0.5H224.83333333333334V6" fill="none"/><g class="tick" opacity="1" transform="translate(10.696969696969697,0)"><line stroke="#000" y2="3" fill="none"/><text fill="#000" y="6" dy="0.71em" class="bottomAxisTickLabels transformed-label"><tspan class="label-block"><tspan class="label-subblock">0</tspan></tspan></text></g><g class="tick" opacity="1" transform="translate(49.542568542568546,0)"><line stroke="#000" y2="3" fill="none"/><text fill="#000" y="6" dy="0.71em" class="bottomAxisTickLabels transformed-label"><tspan class="label-block"><tspan class="label-subblock">20</tspan></tspan></text></g><g class="tick" opacity="1" transform="translate(88.38816738816739,0)"><line stroke="#000" y2="3" fill="none"/><text fill="#000" y="6" dy="0.71em" class="bottomAxisTickLabels transformed-label"><tspan class="label-block"><tspan class="label-subblock">40</tspan></tspan></text></g><g class="tick" opacity="1" transform="translate(127.23376623376625,0)"><line stroke="#000" y2="3" fill="none"/><text fill="#000" y="6" dy="0.71em" class="bottomAxisTickLabels transformed-label"><tspan class="label-block"><tspan class="label-subblock">60</tspan></tspan></text></g><g class="tick" opacity="1" transform="translate(166.0793650793651,0)"><line stroke="#000" y2="3" fill="none"/><text fill="#000" y="6" dy="0.71em" class="bottomAxisTickLabels transformed-label"><tspan class="label-block"><tspan class="label-subblock">80</tspan></tspan></text></g><g class="tick" opacity="1" transform="translate(204.92496392496392,0)"><line stroke="#000" y2="3" fill="none"/><text fill="#000" y="6" dy="0.71em" class="bottomAxisTickLabels transformed-label"><tspan class="label-block"><tspan class="label-subblock">100</tspan></tspan></text></g></g><g class="left axis leftAxisLine" fill="none" text-anchor="end"><path class="domain" stroke="#000" d="M-6,140.83333333333334H0.5V0.5H-6" fill="none"/><g class="tick" opacity="1" transform="translate(0,138.19835723160924)"><line stroke="#000" x2="-3" fill="none"/><text fill="#000" x="-6" dy="0.32em" class="leftAxisTickLabels transformed-label"><tspan class="label-block"><tspan class="label-subblock">0.025</tspan></tspan></text></g><g class="tick" opacity="1" transform="translate(0,87.18108530360234)"><line stroke="#000" x2="-3" fill="none"/><text fill="#000" x="-6" dy="0.32em" class="leftAxisTickLabels transformed-label"><tspan class="label-block"><tspan class="label-subblock">0.03</tspan></tspan></text></g><g class="tick" opacity="1" transform="translate(0,36.16381337559535)"><line stroke="#000" x2="-3" fill="none"/><text fill="#000" x="-6" dy="0.32em" class="leftAxisTickLabels transformed-label"><tspan class="label-block"><tspan class="label-subblock">0.035</tspan></tspan></text></g></g></g><g class="grid"><g class="vertical" transform="translate(0,140.33333333333334)" fill="none" font-size="10" font-family="sans-serif" text-anchor="middle"><g class="tick" opacity="1" transform="translate(10.696969696969697,0)"><line stroke="#000" y2="-140.33333333333334" fill="none"/></g><g class="tick" opacity="1" transform="translate(49.542568542568546,0)"><line stroke="#000" y2="-140.33333333333334" fill="none"/></g><g class="tick" opacity="1" transform="translate(88.38816738816739,0)"><line stroke="#000" y2="-140.33333333333334" fill="none"/></g><g class="tick" opacity="1" transform="translate(127.23376623376625,0)"><line stroke="#000" y2="-140.33333333333334" fill="none"/></g><g class="tick" opacity="1" transform="translate(166.0793650793651,0)"><line stroke="#000" y2="-140.33333333333334" fill="none"/></g><g class="tick" opacity="1" transform="translate(204.92496392496392,0)"><line stroke="#000" y2="-140.33333333333334" fill="none"/></g></g><g class="horizontal" fill="none" font-size="10" font-family="sans-serif" text-anchor="end"><g class="tick" opacity="1" transform="translate(0,138.19835723160924)"><line stroke="#000" x2="224.33333333333334" fill="none"/></g><g class="tick" opacity="1" transform="translate(0,87.18108530360234)"><line stroke="#000" x2="224.33333333333334" fill="none"/></g><g class="tick" opacity="1" transform="translate(0,36.16381337559535)"><line stroke="#000" x2="224.33333333333334" fill="none"/></g></g></g><defs><clipPath id="Cl_sd--freehand-guides-clip" class="freehand-guides-clip"><rect x="0" y="0" width="224.33333333333334" height="140.33333333333334"/></clipPath></defs></g></g><text x="112.16666666666667" y="-1em" class="title transformed-label" text-anchor="middle"><tspan class="label-block"><tspan class="label-subblock">sd(Cl|y)</tspan></tspan></text></g><g class="plot-container page-element" width="224.33333333333334" height="140.33333333333334" data-index="5" data-col="2" data-row="1" transform="translate(548.6666666666667,190.33333333333334)"><g class="subpage plot-page active" data-index="0"><g class="plot page-element" width="224.33333333333334" height="140.33333333333334" id="V1_sd" data-index="0" title="sd(V1|y)" transform="translate(0,0)"><rect width="224.33333333333334" height="140.33333333333334" class="plot-background"/><svg class="plot-content zoomable-content" width="224.33333333333334" height="140.33333333333334"><path class="convergence-line line autoscale" stroke="steelblue" d="M10.196969696969697,12.177685950413178L12.13924963924964,57.0556001608101L14.081529581529582,82.91051381494992L16.023809523809522,97.49847300213494L17.966089466089464,92.95926471613592L19.90836940836941,100.79671517797325L21.850649350649352,110.15739160366473L23.792929292929294,118.74889477496939L25.735209235209236,124.56251830748931L27.67748917748918,127.64779353862777L29.61976911976912,128.1556473829201L31.562049062049066,125.43736866187973L33.504329004329,122.50838633771102L35.44660894660895,123.28914153093204L37.388888888888886,123.49315207056983L39.33116883116883,122.19598727335335L41.27344877344877,122.18318396124792L43.215728715728716,123.35965563919316L45.15800865800866,121.73119284664384L47.1002886002886,121.49534262778272L49.042568542568546,120.99860610991482L50.984848484848484,119.76555230343496L52.92712842712843,120.65437181432577L54.86940836940837,121.33705657803846L56.81168831168831,121.90022882548571L58.75396825396826,121.9388024460875L60.6962481962482,123.59203558515794L62.63852813852814,123.58575214617619L64.58080808080808,122.2382522414644L66.52308802308802,121.77456205998898L68.46536796536796,121.91781937136437L70.4076479076479,123.29294232440209L72.34992784992785,124.87897687191911L74.29220779220779,125.42750036012647L76.23448773448773,125.12617467530588L78.17676767676768,123.85882429824993L80.11904761904762,123.74171748471892L82.06132756132756,121.83000382260553L84.0036075036075,120.79178622775945L85.94588744588745,118.67307042957836L87.88816738816739,117.78471960906239L89.83044733044733,116.30192572853375L91.77272727272728,115.06061199228019L93.71500721500722,114.9729789354249L95.65728715728716,115.22923621094003L97.5995670995671,114.86745554090815L99.54184704184705,114.99917705154856L101.48412698412699,115.2212037067408L103.42640692640693,115.40699623974793L105.36868686868688,116.3028160133135L107.31096681096682,115.8018696531876L109.25324675324676,116.18597222469671L111.1955266955267,116.01705660054259L113.13780663780663,116.0330292363298L115.08008658008659,115.5396272050874L117.02236652236654,113.20759294945773L118.96464646464646,112.64264338960335L120.90692640692642,112.9041507665775L122.84920634920637,112.53814566931598L124.7914862914863,112.29121745789949L126.73376623376625,111.98494258720345L128.67604617604616,111.51657207473451L130.6183261183261,110.59631445321064L132.56060606060606,110.46389743797785L134.502886002886,110.20188855246369L136.44516594516594,109.88059519075496L138.3874458874459,109.584541726798L140.32972582972582,109.67921035897021L142.27200577200577,109.64784522016514L144.21428571428572,108.79435996422475L146.15656565656565,108.51564589760427L148.0988455988456,108.65449317037259L150.04112554112552,108.15520526979432L151.98340548340548,107.24499406858192L153.92568542568543,106.61610393310484L155.86796536796535,106.08072303350428L157.8102453102453,105.54883427960903L159.75252525252526,105.19897272900236L161.69480519480518,105.45574732510397L163.63708513708514,105.20585073277726L165.5793650793651,105.63457851953218L167.521645021645,105.89654480809739L169.46392496392497,105.92850241291768L171.40620490620492,106.34753959660402L173.34848484848484,105.92521985869672L175.2907647907648,106.14476916525706L177.23304473304472,106.18740611579994L179.17532467532467,106.26652747542897L181.11760461760463,105.97588823917789L183.05988455988455,106.02868139977915L185.0021645021645,105.73436899575447L186.94444444444446,105.09469861059304L188.88672438672438,104.7348894511506L190.82900432900433,104.45089212904611L192.7712842712843,104.18270999326964L194.7135642135642,103.38744186152282L196.65584415584416,102.72422341889852L198.59812409812412,102.89067325106768L200.54040404040404,102.82276330270739L202.482683982684,103.00244094707654L204.42496392496392,103.33894996724192L206.36724386724387,103.88294733310912L208.30952380952382,104.13959733307678L210.25180375180375,104.16552025169034L212.1940836940837,103.64002385022454" fill="none"/><line class="bound min segment autoscale bounded" x1="117.02236652236654" y1="113.273276232261" x2="214.13636363636365" y2="113.273276232261" fill="none"/><line class="bound max segment autoscale bounded" x1="117.02236652236654" y1="94.00677146818808" x2="214.13636363636365" y2="94.00677146818808" fill="none"/><g class="userGuides"/></svg><g class="axes"><g class="bottom axis bottomAxisLine" transform="translate(0,140.33333333333334)" fill="none" text-anchor="middle"><path class="domain" stroke="#000" d="M0.5,6V0.5H224.83333333333334V6" fill="none"/><g class="tick" opacity="1" transform="translate(10.696969696969697,0)"><line stroke="#000" y2="3" fill="none"/><text fill="#000" y="6" dy="0.71em" class="bottomAxisTickLabels transformed-label"><tspan class="label-block"><tspan class="label-subblock">0</tspan></tspan></text></g><g class="tick" opacity="1" transform="translate(49.542568542568546,0)"><line stroke="#000" y2="3" fill="none"/><text fill="#000" y="6" dy="0.71em" class="bottomAxisTickLabels transformed-label"><tspan class="label-block"><tspan class="label-subblock">20</tspan></tspan></text></g><g class="tick" opacity="1" transform="translate(88.38816738816739,0)"><line stroke="#000" y2="3" fill="none"/><text fill="#000" y="6" dy="0.71em" class="bottomAxisTickLabels transformed-label"><tspan class="label-block"><tspan class="label-subblock">40</tspan></tspan></text></g><g class="tick" opacity="1" transform="translate(127.23376623376625,0)"><line stroke="#000" y2="3" fill="none"/><text fill="#000" y="6" dy="0.71em" class="bottomAxisTickLabels transformed-label"><tspan class="label-block"><tspan class="label-subblock">60</tspan></tspan></text></g><g class="tick" opacity="1" transform="translate(166.0793650793651,0)"><line stroke="#000" y2="3" fill="none"/><text fill="#000" y="6" dy="0.71em" class="bottomAxisTickLabels transformed-label"><tspan class="label-block"><tspan class="label-subblock">80</tspan></tspan></text></g><g class="tick" opacity="1" transform="translate(204.92496392496392,0)"><line stroke="#000" y2="3" fill="none"/><text fill="#000" y="6" dy="0.71em" class="bottomAxisTickLabels transformed-label"><tspan class="label-block"><tspan class="label-subblock">100</tspan></tspan></text></g></g><g class="left axis leftAxisLine" fill="none" text-anchor="end"><path class="domain" stroke="#000" d="M-6,140.83333333333334H0.5V0.5H-6" fill="none"/><g class="tick" opacity="1" transform="translate(0,92.97933394064077)"><line stroke="#000" x2="-3" fill="none"/><text fill="#000" x="-6" dy="0.32em" class="leftAxisTickLabels transformed-label"><tspan class="label-block"><tspan class="label-subblock">0.12</tspan></tspan></text></g><g class="tick" opacity="1" transform="translate(0,26.89753640880032)"><line stroke="#000" x2="-3" fill="none"/><text fill="#000" x="-6" dy="0.32em" class="leftAxisTickLabels transformed-label"><tspan class="label-block"><tspan class="label-subblock">0.14</tspan></tspan></text></g></g></g><g class="grid"><g class="vertical" transform="translate(0,140.33333333333334)" fill="none" font-size="10" font-family="sans-serif" text-anchor="middle"><g class="tick" opacity="1" transform="translate(10.696969696969697,0)"><line stroke="#000" y2="-140.33333333333334" fill="none"/></g><g class="tick" opacity="1" transform="translate(49.542568542568546,0)"><line stroke="#000" y2="-140.33333333333334" fill="none"/></g><g class="tick" opacity="1" transform="translate(88.38816738816739,0)"><line stroke="#000" y2="-140.33333333333334" fill="none"/></g><g class="tick" opacity="1" transform="translate(127.23376623376625,0)"><line stroke="#000" y2="-140.33333333333334" fill="none"/></g><g class="tick" opacity="1" transform="translate(166.0793650793651,0)"><line stroke="#000" y2="-140.33333333333334" fill="none"/></g><g class="tick" opacity="1" transform="translate(204.92496392496392,0)"><line stroke="#000" y2="-140.33333333333334" fill="none"/></g></g><g class="horizontal" fill="none" font-size="10" font-family="sans-serif" text-anchor="end"><g class="tick" opacity="1" transform="translate(0,92.97933394064077)"><line stroke="#000" x2="224.33333333333334" fill="none"/></g><g class="tick" opacity="1" transform="translate(0,26.89753640880032)"><line stroke="#000" x2="224.33333333333334" fill="none"/></g></g></g><defs><clipPath id="V1_sd--freehand-guides-clip" class="freehand-guides-clip"><rect x="0" y="0" width="224.33333333333334" height="140.33333333333334"/></clipPath></defs></g></g><text x="112.16666666666667" y="-1em" class="title transformed-label" text-anchor="middle"><tspan class="label-block"><tspan class="label-subblock">sd(V1|y)</tspan></tspan></text></g><g class="plot-container page-element" width="224.33333333333334" height="140.33333333333334" data-index="6" data-col="0" data-row="2" transform="translate(0,380.6666666666667)"><g class="subpage plot-page active" data-index="0"><g class="plot page-element" width="224.33333333333334" height="140.33333333333334" id="Q_sd" data-index="0" title="sd(Q|y)" transform="translate(0,0)"><rect width="224.33333333333334" height="140.33333333333334" class="plot-background"/><svg class="plot-content zoomable-content" width="224.33333333333334" height="140.33333333333334"><path class="convergence-line line autoscale" stroke="steelblue" d="M10.196969696969697,12.177685950413235L12.13924963924964,59.751799084232175L14.081529581529582,87.28061529305964L16.023809523809522,102.74753269891775L17.966089466089464,110.29870643361889L19.90836940836941,113.6883828227987L21.850649350649352,117.88920005662176L23.792929292929294,125.91815972653774L25.735209235209236,128.1556473829201L27.67748917748918,127.19703205452646L29.61976911976912,123.66539135565755L31.562049062049066,120.65171315734594L33.504329004329,117.7519447278947L35.44660894660895,117.3644904945187L37.388888888888886,116.82125600074109L39.33116883116883,114.82001140612189L41.27344877344877,113.64091074005374L43.215728715728716,114.93695089195468L45.15800865800866,115.3002379776589L47.1002886002886,114.97239678008201L49.042568542568546,114.67323722488392L50.984848484848484,114.13398031092527L52.92712842712843,114.54831872158533L54.86940836940837,114.06847318404301L56.81168831168831,113.48197373176536L58.75396825396826,113.23411383999482L60.6962481962482,114.53135739848484L62.63852813852814,114.30337388939071L64.58080808080808,114.0399686797237L66.52308802308802,114.37415613176924L68.46536796536796,113.42298982489454L70.4076479076479,112.7968539930813L72.34992784992785,113.10679119284998L74.29220779220779,113.56192534587423L76.23448773448773,112.95411670721339L78.17676767676768,113.16270037342935L80.11904761904762,112.50616879811713L82.06132756132756,111.66444478936835L84.0036075036075,110.15948985289845L85.94588744588745,109.54094704035032L87.88816738816739,108.95855778349468L89.83044733044733,109.17177211637704L91.77272727272728,108.48303233053717L93.71500721500722,108.59450477923038L95.65728715728716,107.90174141871596L97.5995670995671,107.30283511228316L99.54184704184705,106.83813563019473L101.48412698412699,106.32306131781819L103.42640692640693,105.56887569402102L105.36868686868688,105.12267694835344L107.31096681096682,104.58504107381705L109.25324675324676,103.74223546381717L111.1955266955267,103.48305738501499L113.13780663780663,102.85648585236184L115.08008658008659,102.73534893905241L117.02236652236654,102.02460299788957L118.96464646464646,100.37390055869785L120.90692640692642,99.26034689122383L122.84920634920637,98.58830694477066L124.7914862914863,98.82956229969398L126.73376623376625,98.03735818838213L128.67604617604616,97.20479771454899L130.6183261183261,96.84333749883558L132.56060606060606,96.51299464414537L134.502886002886,96.38102385957143L136.44516594516594,95.89037751497486L138.3874458874459,95.43902753552754L140.32972582972582,95.2267433170301L142.27200577200577,95.00107464157398L144.21428571428572,94.95352073402447L146.15656565656565,94.42592350411533L148.0988455988456,94.03585130064351L150.04112554112552,93.77367547191142L151.98340548340548,93.34874771378344L153.92568542568543,92.86361832142569L155.86796536796535,92.69441713413138L157.8102453102453,92.18885310859841L159.75252525252526,92.77994473336656L161.69480519480518,93.41180841205033L163.63708513708514,93.56452076413997L165.5793650793651,94.00771234629799L167.521645021645,93.89374739241887L169.46392496392497,93.47158138786847L171.40620490620492,93.61840730111004L173.34848484848484,93.7946698692443L175.2907647907648,94.28192730982698L177.23304473304472,94.50556824481916L179.17532467532467,94.15938654449126L181.11760461760463,94.02627334070348L183.05988455988455,94.13690246814488L185.0021645021645,94.22521919915798L186.94444444444446,94.21422308427383L188.88672438672438,94.11435882927623L190.82900432900433,94.35856466465046L192.7712842712843,94.66304002982457L194.7135642135642,95.05345672344897L196.65584415584416,95.40973491839569L198.59812409812412,95.45698501558792L200.54040404040404,95.64024361882137L202.482683982684,95.9284427429993L204.42496392496392,96.08955543176774L206.36724386724387,96.37477856436558L208.30952380952382,96.4309715266012L210.25180375180375,96.70569907401317L212.1940836940837,96.9895653067766" fill="none"/><line class="bound min segment autoscale bounded" x1="117.02236652236654" y1="102.98388446237186" x2="214.13636363636365" y2="102.98388446237186" fill="none"/><line class="bound max segment autoscale bounded" x1="117.02236652236654" y1="90.9952461511813" x2="214.13636363636365" y2="90.9952461511813" fill="none"/><g class="userGuides"/></svg><g class="axes"><g class="bottom axis bottomAxisLine" transform="translate(0,140.33333333333334)" fill="none" text-anchor="middle"><path class="domain" stroke="#000" d="M0.5,6V0.5H224.83333333333334V6" fill="none"/><g class="tick" opacity="1" transform="translate(10.696969696969697,0)"><line stroke="#000" y2="3" fill="none"/><text fill="#000" y="6" dy="0.71em" class="bottomAxisTickLabels transformed-label"><tspan class="label-block"><tspan class="label-subblock">0</tspan></tspan></text></g><g class="tick" opacity="1" transform="translate(49.542568542568546,0)"><line stroke="#000" y2="3" fill="none"/><text fill="#000" y="6" dy="0.71em" class="bottomAxisTickLabels transformed-label"><tspan class="label-block"><tspan class="label-subblock">20</tspan></tspan></text></g><g class="tick" opacity="1" transform="translate(88.38816738816739,0)"><line stroke="#000" y2="3" fill="none"/><text fill="#000" y="6" dy="0.71em" class="bottomAxisTickLabels transformed-label"><tspan class="label-block"><tspan class="label-subblock">40</tspan></tspan></text></g><g class="tick" opacity="1" transform="translate(127.23376623376625,0)"><line stroke="#000" y2="3" fill="none"/><text fill="#000" y="6" dy="0.71em" class="bottomAxisTickLabels transformed-label"><tspan class="label-block"><tspan class="label-subblock">60</tspan></tspan></text></g><g class="tick" opacity="1" transform="translate(166.0793650793651,0)"><line stroke="#000" y2="3" fill="none"/><text fill="#000" y="6" dy="0.71em" class="bottomAxisTickLabels transformed-label"><tspan class="label-block"><tspan class="label-subblock">80</tspan></tspan></text></g><g class="tick" opacity="1" transform="translate(204.92496392496392,0)"><line stroke="#000" y2="3" fill="none"/><text fill="#000" y="6" dy="0.71em" class="bottomAxisTickLabels transformed-label"><tspan class="label-block"><tspan class="label-subblock">100</tspan></tspan></text></g></g><g class="left axis leftAxisLine" fill="none" text-anchor="end"><path class="domain" stroke="#000" d="M-6,140.83333333333334H0.5V0.5H-6" fill="none"/><g class="tick" opacity="1" transform="translate(0,122.19360276571726)"><line stroke="#000" x2="-3" fill="none"/><text fill="#000" x="-6" dy="0.32em" class="leftAxisTickLabels transformed-label"><tspan class="label-block"><tspan class="label-subblock">0.3</tspan></tspan></text></g><g class="tick" opacity="1" transform="translate(0,86.34881463823896)"><line stroke="#000" x2="-3" fill="none"/><text fill="#000" x="-6" dy="0.32em" class="leftAxisTickLabels transformed-label"><tspan class="label-block"><tspan class="label-subblock">0.35</tspan></tspan></text></g><g class="tick" opacity="1" transform="translate(0,50.50402651076064)"><line stroke="#000" x2="-3" fill="none"/><text fill="#000" x="-6" dy="0.32em" class="leftAxisTickLabels transformed-label"><tspan class="label-block"><tspan class="label-subblock">0.4</tspan></tspan></text></g><g class="tick" opacity="1" transform="translate(0,14.659238383282329)"><line stroke="#000" x2="-3" fill="none"/><text fill="#000" x="-6" dy="0.32em" class="leftAxisTickLabels transformed-label"><tspan class="label-block"><tspan class="label-subblock">0.45</tspan></tspan></text></g></g></g><g class="grid"><g class="vertical" transform="translate(0,140.33333333333334)" fill="none" font-size="10" font-family="sans-serif" text-anchor="middle"><g class="tick" opacity="1" transform="translate(10.696969696969697,0)"><line stroke="#000" y2="-140.33333333333334" fill="none"/></g><g class="tick" opacity="1" transform="translate(49.542568542568546,0)"><line stroke="#000" y2="-140.33333333333334" fill="none"/></g><g class="tick" opacity="1" transform="translate(88.38816738816739,0)"><line stroke="#000" y2="-140.33333333333334" fill="none"/></g><g class="tick" opacity="1" transform="translate(127.23376623376625,0)"><line stroke="#000" y2="-140.33333333333334" fill="none"/></g><g class="tick" opacity="1" transform="translate(166.0793650793651,0)"><line stroke="#000" y2="-140.33333333333334" fill="none"/></g><g class="tick" opacity="1" transform="translate(204.92496392496392,0)"><line stroke="#000" y2="-140.33333333333334" fill="none"/></g></g><g class="horizontal" fill="none" font-size="10" font-family="sans-serif" text-anchor="end"><g class="tick" opacity="1" transform="translate(0,122.19360276571726)"><line stroke="#000" x2="224.33333333333334" fill="none"/></g><g class="tick" opacity="1" transform="translate(0,86.34881463823896)"><line stroke="#000" x2="224.33333333333334" fill="none"/></g><g class="tick" opacity="1" transform="translate(0,50.50402651076064)"><line stroke="#000" x2="224.33333333333334" fill="none"/></g><g class="tick" opacity="1" transform="translate(0,14.659238383282329)"><line stroke="#000" x2="224.33333333333334" fill="none"/></g></g></g><defs><clipPath id="Q_sd--freehand-guides-clip" class="freehand-guides-clip"><rect x="0" y="0" width="224.33333333333334" height="140.33333333333334"/></clipPath></defs></g></g><text x="112.16666666666667" y="-1em" class="title transformed-label" text-anchor="middle"><tspan class="label-block"><tspan class="label-subblock">sd(Q|y)</tspan></tspan></text></g><g class="plot-container page-element" width="224.33333333333334" height="140.33333333333334" data-index="7" data-col="1" data-row="2" transform="translate(274.33333333333337,380.6666666666667)"><g class="subpage plot-page active" data-index="0"><g class="plot page-element" width="224.33333333333334" height="140.33333333333334" id="V2_sd" data-index="0" title="sd(V2|y)" transform="translate(0,0)"><rect width="224.33333333333334" height="140.33333333333334" class="plot-background"/><svg class="plot-content zoomable-content" width="224.33333333333334" height="140.33333333333334"><path class="convergence-line line autoscale" stroke="steelblue" d="M10.196969696969697,12.177685950413206L12.13924963924964,100.10087739655194L14.081529581529582,128.1556473829201L16.023809523809522,125.74146365029311L17.966089466089464,123.20808295420747L19.90836940836941,118.39177104829936L21.850649350649352,116.54099309349365L23.792929292929294,102.39859077585933L25.735209235209236,89.97054471478154L27.67748917748918,82.75721426502635L29.61976911976912,85.19915007282718L31.562049062049066,90.2097783296835L33.504329004329,96.19029793343434L35.44660894660895,98.93673076137469L37.388888888888886,99.91502919629045L39.33116883116883,97.79010815334985L41.27344877344877,99.65696657631165L43.215728715728716,105.03775731378457L45.15800865800866,108.17065798638889L47.1002886002886,108.01230552450261L49.042568542568546,108.16065621794706L50.984848484848484,109.10578611187233L52.92712842712843,111.0620006872868L54.86940836940837,113.18264023708184L56.81168831168831,113.17360234359191L58.75396825396826,114.44880788646816L60.6962481962482,114.90082151411237L62.63852813852814,114.79445357823994L64.58080808080808,113.8488135776203L66.52308802308802,111.52684993459899L68.46536796536796,108.93229715580397L70.4076479076479,105.66422942523317L72.34992784992785,104.10372038414584L74.29220779220779,105.11482724767403L76.23448773448773,105.97214368492497L78.17676767676768,105.97996444419161L80.11904761904762,104.91943937440357L82.06132756132756,104.67665315360415L84.0036075036075,103.19840171949488L85.94588744588745,102.6043175192386L87.88816738816739,102.4026569738993L89.83044733044733,103.13657496881157L91.77272727272728,104.08632325799874L93.71500721500722,103.06906567846218L95.65728715728716,104.22003797061382L97.5995670995671,105.32838402927989L99.54184704184705,105.25810364900501L101.48412698412699,104.40680413220315L103.42640692640693,103.93140618862589L105.36868686868688,102.76703217923708L107.31096681096682,101.53862387815806L109.25324675324676,101.83418330896698L111.1955266955267,101.21637435840218L113.13780663780663,100.8586530194635L115.08008658008659,101.3782835934911L117.02236652236654,100.71193111974415L118.96464646464646,100.26120826370214L120.90692640692642,100.23267283714515L122.84920634920637,99.49000141865562L124.7914862914863,100.39130402923443L126.73376623376625,102.14720793197228L128.67604617604616,103.17332781222643L130.6183261183261,103.96474414736338L132.56060606060606,103.8252643845031L134.502886002886,104.70850996536315L136.44516594516594,105.10131719958707L138.3874458874459,105.87902397863084L140.32972582972582,105.99475612023502L142.27200577200577,106.48708600660186L144.21428571428572,107.552653403303L146.15656565656565,107.35114438637889L148.0988455988456,105.9442433492691L150.04112554112552,105.25995759737918L151.98340548340548,104.3216022041635L153.92568542568543,104.204882471672L155.86796536796535,103.05579283137952L157.8102453102453,102.49348624709572L159.75252525252526,101.56747467024525L161.69480519480518,101.73720445551209L163.63708513708514,101.47117587134599L165.5793650793651,102.59992400461505L167.521645021645,101.61652510534401L169.46392496392497,100.63462991584302L171.40620490620492,100.15989883033441L173.34848484848484,99.75794899604864L175.2907647907648,100.27120151503584L177.23304473304472,100.17780624033779L179.17532467532467,99.20576956331996L181.11760461760463,98.02574595005103L183.05988455988455,97.63462347299449L185.0021645021645,97.00338886811548L186.94444444444446,97.1051115250022L188.88672438672438,97.4889743262071L190.82900432900433,97.51737878591292L192.7712842712843,96.81860436570535L194.7135642135642,96.30970319091075L196.65584415584416,96.41279845658526L198.59812409812412,95.5896012076966L200.54040404040404,94.71970941376743L202.482683982684,93.91590629513588L204.42496392496392,93.05713130927481L206.36724386724387,92.8226146624308L208.30952380952382,93.31739163677398L210.25180375180375,93.4920487382368L212.1940836940837,93.92587471224712" fill="none"/><line class="bound min segment autoscale bounded" x1="117.02236652236654" y1="108.08242400513993" x2="214.13636363636365" y2="108.08242400513993" fill="none"/><line class="bound max segment autoscale bounded" x1="117.02236652236654" y1="79.76932541935432" x2="214.13636363636365" y2="79.76932541935432" fill="none"/><g class="userGuides"/></svg><g class="axes"><g class="bottom axis bottomAxisLine" transform="translate(0,140.33333333333334)" fill="none" text-anchor="middle"><path class="domain" stroke="#000" d="M0.5,6V0.5H224.83333333333334V6" fill="none"/><g class="tick" opacity="1" transform="translate(10.696969696969697,0)"><line stroke="#000" y2="3" fill="none"/><text fill="#000" y="6" dy="0.71em" class="bottomAxisTickLabels transformed-label"><tspan class="label-block"><tspan class="label-subblock">0</tspan></tspan></text></g><g class="tick" opacity="1" transform="translate(49.542568542568546,0)"><line stroke="#000" y2="3" fill="none"/><text fill="#000" y="6" dy="0.71em" class="bottomAxisTickLabels transformed-label"><tspan class="label-block"><tspan class="label-subblock">20</tspan></tspan></text></g><g class="tick" opacity="1" transform="translate(88.38816738816739,0)"><line stroke="#000" y2="3" fill="none"/><text fill="#000" y="6" dy="0.71em" class="bottomAxisTickLabels transformed-label"><tspan class="label-block"><tspan class="label-subblock">40</tspan></tspan></text></g><g class="tick" opacity="1" transform="translate(127.23376623376625,0)"><line stroke="#000" y2="3" fill="none"/><text fill="#000" y="6" dy="0.71em" class="bottomAxisTickLabels transformed-label"><tspan class="label-block"><tspan class="label-subblock">60</tspan></tspan></text></g><g class="tick" opacity="1" transform="translate(166.0793650793651,0)"><line stroke="#000" y2="3" fill="none"/><text fill="#000" y="6" dy="0.71em" class="bottomAxisTickLabels transformed-label"><tspan class="label-block"><tspan class="label-subblock">80</tspan></tspan></text></g><g class="tick" opacity="1" transform="translate(204.92496392496392,0)"><line stroke="#000" y2="3" fill="none"/><text fill="#000" y="6" dy="0.71em" class="bottomAxisTickLabels transformed-label"><tspan class="label-block"><tspan class="label-subblock">100</tspan></tspan></text></g></g><g class="left axis leftAxisLine" fill="none" text-anchor="end"><path class="domain" stroke="#000" d="M-6,140.83333333333334H0.5V0.5H-6" fill="none"/><g class="tick" opacity="1" transform="translate(0,134.4300913061222)"><line stroke="#000" x2="-3" fill="none"/><text fill="#000" x="-6" dy="0.32em" class="leftAxisTickLabels transformed-label"><tspan class="label-block"><tspan class="label-subblock">0.18</tspan></tspan></text></g><g class="tick" opacity="1" transform="translate(0,75.9570074036958)"><line stroke="#000" x2="-3" fill="none"/><text fill="#000" x="-6" dy="0.32em" class="leftAxisTickLabels transformed-label"><tspan class="label-block"><tspan class="label-subblock">0.2</tspan></tspan></text></g><g class="tick" opacity="1" transform="translate(0,17.483923501269487)"><line stroke="#000" x2="-3" fill="none"/><text fill="#000" x="-6" dy="0.32em" class="leftAxisTickLabels transformed-label"><tspan class="label-block"><tspan class="label-subblock">0.22</tspan></tspan></text></g></g></g><g class="grid"><g class="vertical" transform="translate(0,140.33333333333334)" fill="none" font-size="10" font-family="sans-serif" text-anchor="middle"><g class="tick" opacity="1" transform="translate(10.696969696969697,0)"><line stroke="#000" y2="-140.33333333333334" fill="none"/></g><g class="tick" opacity="1" transform="translate(49.542568542568546,0)"><line stroke="#000" y2="-140.33333333333334" fill="none"/></g><g class="tick" opacity="1" transform="translate(88.38816738816739,0)"><line stroke="#000" y2="-140.33333333333334" fill="none"/></g><g class="tick" opacity="1" transform="translate(127.23376623376625,0)"><line stroke="#000" y2="-140.33333333333334" fill="none"/></g><g class="tick" opacity="1" transform="translate(166.0793650793651,0)"><line stroke="#000" y2="-140.33333333333334" fill="none"/></g><g class="tick" opacity="1" transform="translate(204.92496392496392,0)"><line stroke="#000" y2="-140.33333333333334" fill="none"/></g></g><g class="horizontal" fill="none" font-size="10" font-family="sans-serif" text-anchor="end"><g class="tick" opacity="1" transform="translate(0,134.4300913061222)"><line stroke="#000" x2="224.33333333333334" fill="none"/></g><g class="tick" opacity="1" transform="translate(0,75.9570074036958)"><line stroke="#000" x2="224.33333333333334" fill="none"/></g><g class="tick" opacity="1" transform="translate(0,17.483923501269487)"><line stroke="#000" x2="224.33333333333334" fill="none"/></g></g></g><defs><clipPath id="V2_sd--freehand-guides-clip" class="freehand-guides-clip"><rect x="0" y="0" width="224.33333333333334" height="140.33333333333334"/></clipPath></defs></g></g><text x="112.16666666666667" y="-1em" class="title transformed-label" text-anchor="middle"><tspan class="label-block"><tspan class="label-subblock">sd(V2|y)</tspan></tspan></text></g></g></g></g></svg>
