<svg xmlns="http://www.w3.org/2000/svg" class="lixoftchart NPC" width="863" height="635" style="font-family: &quot;Source Sans Pro&quot;, -apple-system, BlinkMacSystemFont, &quot;Segoe UI&quot;, Roboto, &quot;Helvetica Neue&quot;, Arial, sans-serif, &quot;Apple Color Emoji&quot;, &quot;Segoe UI Emoji&quot;, &quot;Segoe UI Symbol&quot;; font-weight: normal;"><style>svg {
--primary--1:rgba(21, 140, 186, 0.1);
--primary--2:rgba(21, 140, 186, 0.2);
--primary--3:rgba(21, 140, 186, 0.3);
--primary--4:rgba(21, 140, 186, 0.4);
--primary--5:rgba(21, 140, 186, 0.5);
--primary--6:rgba(21, 140, 186, 0.6);
--primary--7:rgba(21, 140, 186, 0.7);
--primary--8:rgba(21, 140, 186, 0.8);
--primary--9:rgba(21, 140, 186, 0.9);
--secondary--1:rgba(240, 240, 240, 0.1);
--secondary--2:rgba(240, 240, 240, 0.2);
--secondary--3:rgba(240, 240, 240, 0.3);
--secondary--4:rgba(240, 240, 240, 0.4);
--secondary--5:rgba(240, 240, 240, 0.5);
--secondary--6:rgba(240, 240, 240, 0.6);
--secondary--7:rgba(240, 240, 240, 0.7);
--secondary--8:rgba(240, 240, 240, 0.8);
--secondary--9:rgba(240, 240, 240, 0.9);
--success--1:rgba(40, 182, 44, 0.1);
--success--2:rgba(40, 182, 44, 0.2);
--success--3:rgba(40, 182, 44, 0.3);
--success--4:rgba(40, 182, 44, 0.4);
--success--5:rgba(40, 182, 44, 0.5);
--success--6:rgba(40, 182, 44, 0.6);
--success--7:rgba(40, 182, 44, 0.7);
--success--8:rgba(40, 182, 44, 0.8);
--success--9:rgba(40, 182, 44, 0.9);
--info--1:rgba(117, 202, 235, 0.1);
--info--2:rgba(117, 202, 235, 0.2);
--info--3:rgba(117, 202, 235, 0.3);
--info--4:rgba(117, 202, 235, 0.4);
--info--5:rgba(117, 202, 235, 0.5);
--info--6:rgba(117, 202, 235, 0.6);
--info--7:rgba(117, 202, 235, 0.7);
--info--8:rgba(117, 202, 235, 0.8);
--info--9:rgba(117, 202, 235, 0.9);
--warning--1:rgba(255, 133, 27, 0.1);
--warning--2:rgba(255, 133, 27, 0.2);
--warning--3:rgba(255, 133, 27, 0.3);
--warning--4:rgba(255, 133, 27, 0.4);
--warning--5:rgba(255, 133, 27, 0.5);
--warning--6:rgba(255, 133, 27, 0.6);
--warning--7:rgba(255, 133, 27, 0.7);
--warning--8:rgba(255, 133, 27, 0.8);
--warning--9:rgba(255, 133, 27, 0.9);
--danger--1:rgba(255, 65, 54, 0.1);
--danger--2:rgba(255, 65, 54, 0.2);
--danger--3:rgba(255, 65, 54, 0.3);
--danger--4:rgba(255, 65, 54, 0.4);
--danger--5:rgba(255, 65, 54, 0.5);
--danger--6:rgba(255, 65, 54, 0.6);
--danger--7:rgba(255, 65, 54, 0.7);
--danger--8:rgba(255, 65, 54, 0.8);
--danger--9:rgba(255, 65, 54, 0.9);
--light--1:rgba(246, 246, 246, 0.1);
--light--2:rgba(246, 246, 246, 0.2);
--light--3:rgba(246, 246, 246, 0.3);
--light--4:rgba(246, 246, 246, 0.4);
--light--5:rgba(246, 246, 246, 0.5);
--light--6:rgba(246, 246, 246, 0.6);
--light--7:rgba(246, 246, 246, 0.7);
--light--8:rgba(246, 246, 246, 0.8);
--light--9:rgba(246, 246, 246, 0.9);
--dark--1:rgba(85, 85, 85, 0.1);
--dark--2:rgba(85, 85, 85, 0.2);
--dark--3:rgba(85, 85, 85, 0.3);
--dark--4:rgba(85, 85, 85, 0.4);
--dark--5:rgba(85, 85, 85, 0.5);
--dark--6:rgba(85, 85, 85, 0.6);
--dark--7:rgba(85, 85, 85, 0.7);
--dark--8:rgba(85, 85, 85, 0.8);
--dark--9:rgba(85, 85, 85, 0.9);
--theme-scheme--1:#158CBA;
--theme-scheme--2:#3e82bf;
--theme-scheme--3:#6475bc;
--theme-scheme--4:#8566b0;
--theme-scheme--5:#a05599;
--theme-scheme--6:#b0447c;
--theme-scheme-lg--1:#158cba;
--theme-scheme-lg--2:#1dade5;
--theme-scheme-lg--3:#4abeeb;
--theme-scheme-lg--4:#78cef0;
--theme-scheme-lg--5:#b0447c;
--theme-scheme-lg--6:#c36495;
--theme-scheme-lg--7:#d189ae;
--theme-scheme-lg--8:#e0adc7;
--theme-scheme-lg--9:#618f35;
--theme-scheme-lg--10:#7ab443;
--theme-scheme-lg--11:#94c664;
--theme-scheme-lg--12:#aed38a;
--blue:#158CBA;
--indigo:#6610f2;
--purple:#6f42c1;
--pink:#e83e8c;
--red:#FF4136;
--orange:#fd7e14;
--yellow:#FF851B;
--green:#28B62C;
--teal:#20c997;
--cyan:#75CAEB;
--white:#fff;
--gray:#999;
--gray-dark:#333;
--primary:#158CBA;
--secondary:#f0f0f0;
--success:#28B62C;
--info:#75CAEB;
--warning:#FF851B;
--danger:#FF4136;
--light:#f6f6f6;
--dark:#555;
--breakpoint-xs:0;
--breakpoint-sm:576px;
--breakpoint-md:768px;
--breakpoint-lg:992px;
--breakpoint-xl:1200px;
--font-family-sans-serif:"Source Sans Pro", -apple-system, BlinkMacSystemFont, "Segoe UI", Roboto, "Helvetica Neue", Arial, sans-serif, "Apple Color Emoji", "Segoe UI Emoji", "Segoe UI Symbol";
--font-family-monospace:SFMono-Regular, Menlo, Monaco, Consolas, "Liberation Mono", "Courier New", monospace;
--mm-color-background:;
--graphical-mode-icon-display:none;

}
html, body { height: 100%; }
body { margin: 0px; overflow: hidden; }
.lixoftchart-container { display: flex; flex-direction: column; height: 100%; }
.lixoftchart { width: 100%; height: 100%; flex: 1 1 0%; }
.lixoftchart-header { height: 34px; }
.main { flex: 1 1 0%; height: 100%; width: 100%; }
.footer { margin: 0px; }
.checkinit-footer { max-height: 230px; overflow-y: auto; }
.page, .subpage { height: 100%; display: none; }
.page.active, .subpage.active { display: block; }
.axes, .grid { pointer-events: none; }
.axis path, .axis line { fill: none; shape-rendering: crispEdges; }
.tick { font-family: sans-serif; }
.line { fill: none; }
.tick line { stroke-width: 1px; }
.grid line { opacity: 0.2; }
.title { pointer-events: none; font-weight: 400; }
.axis-label { text-anchor: middle; }
.axis-label-unit { font-family: monospace; font-size: smaller; }
.label-subscript { baseline-shift: sub; font-size: 0.8em; }
.zoomable-content, .brushable-content { cursor: crosshair; }
rect.zoom { fill: rgb(221, 221, 221); stroke: steelblue; fill-opacity: 0.5; }
g.brush &gt; rect.selection { stroke-width: 0; }
.handle--custom { fill: rgb(122, 122, 122); fill-opacity: 1; stroke: rgb(122, 122, 122); stroke-width: 2px; display: inline !important; }
.log-filtered { display: none; }
.dot { stroke: none; }
.censObservations.highlighted:not(.lambdaz-observation), .censObservations[data--radius]:not(.lambdaz-observation) { fill: brown !important; }
.spline { fill: none; }
.regressionLine { fill: none; }
.convergence-line { fill: none; }
.percentile-line, .cdf { stroke-width: 1px; }
.bar { shape-rendering: crispEdges; }
.vertical-line, .horizontal-line { shape-rendering: crispEdges; }
.k1, .bound { shape-rendering: crispEdges; }
.outlier.dot { fill: none; }
.boxplot { font-style: normal; font-variant: normal; font-weight: normal; font-stretch: normal; font-size: 10px; line-height: normal; font-family: sans-serif; }
.box-element line, .box-element rect { stroke-opacity: 1; shape-rendering: crispEdges; }
.boxplot .outlier line { fill: none; }
.boxplot .box-underlay { fill: white; fill-opacity: 1; }
.boxplot .label { font-size: 12px; }
.arrow-marker { stroke-width: 0; font-size: 20px; fill: red; dominant-baseline: central; }
.layout-link { padding: 1px 5px !important; }
.sublayout-controls { min-height: 20px; transition: opacity 0.5s ease-in-out; background-color: transparent; opacity: 0.2; cursor: pointer; }
.pagination { transition: opacity 0.5s ease-in-out; }
.sublayout-controls .pagination { opacity: 0; }
.sublayout-controls:hover { transition: none; opacity: 0.9; }
.sublayout-controls:hover .pagination { transition: none; opacity: 1; }
.plot-grid, .subplot-grid { margin: 0px; min-width: 0px; }
.grid-cell { outline: rgb(221, 221, 221) solid 1px; cursor: text; position: absolute; }
.plot-cell { background-color: rgba(119, 33, 111, 0.298039); }
.matrix-diagonal-cell { background-color: rgb(174, 167, 159) !important; }
.plot-cell.selected { background-color: rgb(119, 33, 111); }
.plot-cell:hover, .plot-cell.hovered { background-color: rgb(243, 152, 20); }
.plot-cell.ui-selecting { background-color: rgb(233, 84, 32); }
.cells-selector { cursor: pointer; width: 0px; height: 0px; position: absolute; border: 10px solid rgba(119, 33, 111, 0.298039); }
.cells-selector.selected { border-color: rgb(119, 33, 111); }
.cells-selector.rows, .cells-selector.all { border-top-color: transparent !important; border-bottom-color: transparent !important; border-right-color: transparent !important; }
.cells-selector.cols { border-top-color: transparent !important; border-left-color: transparent !important; border-right-color: transparent !important; }
.cells-selector.all { transform: rotate(-45deg); }
.cells-selector:hover { border-color: rgb(243, 152, 20); }
.layout-grid, .sublayout-grid { padding: 0px; margin: 0px; min-width: 0px; background-color: transparent; border: none; box-shadow: none !important; }
.layout-grid-content { border-collapse: collapse; border: 1px solid rgb(221, 221, 221); }
.layout-cell { background-color: rgba(119, 33, 111, 0.298039); border: 1px solid rgb(221, 221, 221); min-width: 20px; width: 20px; height: 20px; cursor: pointer; }
.layout-cell.selected { background-color: rgb(119, 33, 111); }
.layout-cell.selecting { background-color: rgb(233, 84, 32); }
.layout-container { padding: 10px 15px; align-items: center; }
.layout-controls { display: flex; justify-content: space-between; align-items: center; }
.layout-controls &gt; .layout-controls-wrapper { display: flex; align-items: baseline; }
.layout-controls .btn { border: 0px; border-radius: 0px; white-space: nowrap; padding: 4px 8px !important; }
.layout-controls .btn.toggle-controls-btn { margin-left: 1rem !important; }
.pagination input { color: inherit; background: transparent; border: 0px; outline: none; }
.contrasted-chart-header-btn:not(:hover) { background: rgba(255, 255, 255, 0.2) !important; }
.message-banner { position: fixed; left: 0px; width: 100%; margin-bottom: 0px; z-index: 10; }
.message-banner.top { top: 0px; }
.message-banner.bottom { bottom: 0px; }
.legend { box-shadow: rgba(0, 0, 0, 0.2) 0px 8px 17px 0px, rgba(0, 0, 0, 0.188235) 0px 6px 20px 0px; z-index: 10; }
.legend:not(.no-move) { cursor: move !important; }
.legend-glyph:not(.aa) { shape-rendering: crispEdges; }
.legend-group-label { font-weight: bold; }
.ui-selectable-helper { z-index: 1100; }
.ui-selectable-helper.no-top { border-top: 0px; }
.ui-selectable-helper.no-right { border-right: 0px; }
.ui-selectable-helper.no-bottom { border-bottom: 0px; }
.ui-selectable-helper.no-left { border-left: 0px; }
.print-preview &gt; .modal-dialog { position: absolute; height: auto; bottom: 0px; top: 0px; left: 0px; right: 0px; }
.page-preview { border: 1px dashed rgb(51, 51, 51); margin: 0px auto; }
.page-preview.portrait { height: 60vh; width: 42.42vh; }
.page-preview.landscape { width: 60vw; height: 42.42vw; }
.tooltip-key::after { content: ": "; }
.brushed-out, .bar.brushed-out { fill: rgb(204, 204, 204) !important; }
.infowrapper { pointer-events: none; }
.information { overflow-y: overlay; overflow-x: hidden; padding: 0.5em; font-family: monospace; box-shadow: rgba(0, 0, 0, 0.2) 0px 8px 17px 0px, rgba(0, 0, 0, 0.188235) 0px 6px 20px 0px; display: inline-block; float: right; cursor: move; pointer-events: all; }
.information span { float: left; clear: both; }
.axis path, .axis line, .grid line{
stroke: #636363;
}

.tick text{
fill: #636363;
}

.axis path, .axis line{
stroke-width: 1px;
}

.bar-label{
fill: #000000;
}

.bar-label{
font-size: 10px;
}

.bin-value{
stroke: red;
}

.bin-value{
}

.bin-value{
stroke-width: 1px;
}

.bound{
stroke: red;
}

.bound{
stroke-width: 2px;
}

.bound.bounded{
stroke: limegreen;
}

.baseline{
stroke: #000000;
}

.baseline{
}

.baseline{
stroke-width: 1px;
}

.box-element rect{
fill: #8fbbd9;
}

.boxplot .outlier line{
stroke: #ff0000;
}

.boxplot .outlier line{
stroke-width: 1px;
}

.quartile{
stroke: #000000;
}

.quartile{
stroke-dasharray: 3, 2;
}

.quartile{
stroke-width: 1px;
}

.box-element line{
stroke: #000000;
}

.box-element line{
stroke-width: 1px;
}

.censEvents{
fill: #d44242;
}

.censEvents{
stroke: #d44242;
}

.censObservations{
fill: #d44242;
}
.censObsIntervals{stroke:rgb(212,66,66);stroke-opacity:0.498039;}

.censObsIntervals{
}

.censObsIntervals{
stroke-width: 5px;
}

.convergence-line{
stroke: #4682B4;
}

.cvIndicator-line{
stroke: #990099;
}

.dosingTimes{
stroke: #000000;
}

.dosingTimes{
stroke-dasharray: 8, 8;
}

.dosingTimes{
stroke-width: 2px;
}

line.empirical, path.empirical{
stroke: #4682B4;
}

.dot.empirical{
fill: #4682B4;
}

line.empirical, path.empirical{
}

line.empirical, path.empirical{
stroke-width: 2px;
}

.fisher_linearization&gt;.bar{
fill: #4682B4;
}

.fisher_stochasticApproximation&gt;.bar{
fill: #98abc5;
}

.focus &gt; line, .focus &gt; circle{
stroke: blue;
}

.lixoftchart{
background-color: #ffffff;
}

.sublayout-controls:hover{
background-color: #ffffff;
}

.bar:hover, .band-overlay:hover{
fill: orange !important;
}

g.bar, g.histogram{
fill: #4682B4;
}

g.bar, g.histogram{
stroke: #ffffff;
}

g.bar, g.histogram{
stroke-width: 1px;
}

.information{
background-color: #FFFFCC;
}

.information{
fill: #FFFFCC;
}

.information{
font-size: 12px;
}

.information{
color: #000000;
}

.k1{
stroke: red;
}

.k1{
stroke-width: 1px;
}

.axis-label.global{
fill: #000000;
}

.axis-label.global{
font-size: 14px;
}

.legend-frame{
fill: #ffffff;
}

.legend-frame{
stroke: #000000;
}

.legend-frame{
stroke-width: 0px;
}

.legend text{
fill: #000000;
}

.legend{
font-size: 12px;
}

.ll_importanceSampling&gt;.bar{
fill: #98abc5;
}

.ll_linearization&gt;.bar{
fill: #4682B4;
}

path.median, line.median{
stroke: #000000;
}

path.median, line.median{
stroke-dasharray: 5,3;
}

path.median, line.median{
stroke-width: 1px;
}

.observation{
fill: #4682B4;
}

.observation{
stroke: #4682B4;
}

.observation-line{
stroke-width: 1.5px;
}

.obsStatisticsValues{
font-size: 10px;
}

.outlier.area{
fill: #ff0000;
}

.outlier.dot{
stroke: #ff0000;
}

.outlier.dot{
stroke-width: 1px;
}
.prediction-interval.median{fill:rgb(255,0,0);fill-opacity:0.2;}
.prediction-interval.low, .prediction-interval.up{fill:rgb(0,128,255);fill-opacity:0.298039;}
.plot-background{fill:rgb(250,250,255);fill-opacity:0.6;}
.bar{stroke:rgb(250,250,255);stroke-opacity:0.6;}

.regressionLine{
stroke: #bd2671;
}

.regressionLine{
}

.regressionLine{
stroke-width: 1.5px;
}

.spline{
stroke: #eba213;
}

.spline{
}

.spline{
stroke-width: 1.5px;
}

.axis-label.sublabel, .matrix-diagonal-label{
fill: #000000;
}

.axis-label.sublabel, .matrix-diagonal-label{
font-size: 12px;
}

line.theoretical, path.theoretical{
stroke: #000000;
}

.dot.theoretical{
fill: #000000;
}

line.theoretical, path.theoretical{
stroke-dasharray: 5,3;
}

line.theoretical, path.theoretical{
stroke-width: 1.5px;
}

.tick{
font-size: 10px;
}

.title{
fill: #000000;
}

.title{
font-size: 14px;
}

.axis-label-unit{
fill: #999;
}

.userGuide-dot{
fill: red;
}

.userGuide-line{
stroke: red;
}

.userGuide-dot{
r: 3;
}

.userGuide-line{
}

.userGuide-line{
stroke-width: 1px;
}

.brushed-out, .brushed-out.bar{
fill: #ccc !important;
}
.not-areaOutliers{display:none;}
.not-censObservations{display:none;}
.not-empirical{display:none;}
.not-grid{display:none;}
.hasCensored,.__hasCensored{display:none;}
.hasIOV,.__hasIOV{display:none;}
.not-hasMean{display:none;}
.not-hasMode{display:none;}
.not-isIndivEstimMean{display:none;}
.legend,.__legend{display:none;}
.linkedZoom,.__linkedZoom{display:none;}
.not-observations{display:none;}
.not-piPercentile{display:none;}
.splitted,.__splitted{display:none;}
.theoretical,.__theoretical{display:none;}
.xEqualDomains,.__xEqualDomains{display:none;}
.xLog,.__xLog{display:none;}
.not-yEqualDomains{display:none;}
.yLog,.__yLog{display:none;}
.not-bottomAxisLine{display:none;}
.not-bottomAxisTickLabels{display:none;}
.not-leftAxisLine{display:none;}
.not-leftAxisTickLabels{display:none;}
.rightAxisLine,.__rightAxisLine{display:none;}
.not-rightAxisTickLabels{display:none;}
.topAxisLine,.__topAxisLine{display:none;}
.not-topAxisTickLabels{display:none;}
.freehand-guides-layer,.__freehand-guides-layer{display:none;}
 
      .cdf.theoritical.line {
        stroke-dasharray: 10, 5;
      }
    </style><g class="lixoftchart-scaler"><g class="lixoftchart-translator" transform="translate(50,40)"><g class="x axis" transform="translate(0, 561)"><text class="x axis-label global" x="386.5" y="-10" style="text-anchor: middle;"><tspan class="axis-label-text">y2</tspan><tspan class="axis-label-unit"/></text></g><g class="y axis"><text class="y axis-label global" transform="rotate(-90)" x="-280.5" y="-30" style="text-anchor: middle;"><tspan class="axis-label-text">Cumulative distribution function</tspan><tspan class="axis-label-unit"/></text></g><g class="page plot-page active" data-index="0"><g class="plot-container page-element" width="773" height="521" data-index="0" data-col="0" data-row="0" transform="translate(0,0)"><g class="subpage plot-page active" data-index="0"><g class="plot page-element" width="773" height="521" id="All" data-index="0" transform="translate(0,0)"><rect width="773" height="521" class="plot-background"/><svg class="plot-content zoomable-content" width="773" height="521"><g class="predictionInterval"><g class="low piPercentile"><polygon class="prediction-interval-mask autoscale low prediction-interval" points="35.13636363636364,482.8104714912281 42.2346189164371,471.89917763157894 49.332874196510566,455.875 56.431129476584026,439.59375 63.52938475665749,426.0260416666668 70.62764003673094,412.4583333333333 77.72589531680441,396.1770833333333 84.82415059687787,379.89583333333337 91.92240587695132,369.04166666666663 99.02066115702479,352.76041666666663 106.11891643709826,341.90625 113.21717171717172,325.625 120.31542699724517,309.34375 127.41368227731864,301.2031250000001 134.5119375573921,287.63541666666663 141.61019283746555,276.78125 148.70844811753904,268.6406250000001 155.8067033976125,255.07291666666669 162.90495867768595,249.64583333333331 170.00321395775939,238.79166666666669 177.10146923783287,233.36458333333331 184.19972451790633,222.51041666666669 191.2979797979798,211.65625 198.39623507805325,206.22916666666669 205.49449035812668,200.80208333333331 212.59274563820017,189.94791666666669 219.6910009182736,184.52083333333331 226.7892561983471,173.66666666666669 233.88751147842055,168.23958333333331 240.98576675849404,157.38541666666669 248.0840220385675,151.95833333333331 255.18227731864096,146.53125 262.28053259871444,135.67708333333331 269.3787878787879,130.25 276.47704315886136,124.82291666666669 283.57529843893485,113.96875 290.6735537190082,108.54166666666669 297.77180899908166,103.11458333333331 304.87006427915514,94.97395833333348 311.96831955922863,86.83333333333331 319.0665748393021,84.1197916666668 326.16483011937555,81.40625 333.26308539944904,75.97916666666669 340.36134067952247,70.55208333333331 347.45959595959596,65.125 354.55785123966945,59.697916666666686 361.65610651974293,54.270833333333314 368.7543617998164,54.270833333333314 375.85261707988974,48.84375 382.9508723599632,43.416666666666686 390.04912764003666,43.416666666666686 397.14738292011015,37.989583333333314 404.2456382001836,37.989583333333314 411.34389348025707,32.5625 418.44214876033055,32.5625 425.5404040404039,27.135416666666686 432.6386593204774,27.135416666666686 439.7369146005509,21.708333333333314 446.8351698806244,21.708333333333314 453.9334251606979,16.28125 461.0316804407713,16.28125 468.1299357208448,16.28125 475.2281910009183,10.854166666666686 482.3264462809918,10.854166666666686 489.42470156106526,10.854166666666686 496.5229568411387,5.4270833333332575 503.6212121212121,5.4270833333332575 510.71946740128556,5.4270833333332575 517.8177226813591,5.4270833333332575 524.9159779614325,5.4270833333332575 532.014233241506,0 539.1124885215793,0 546.2107438016528,0 553.3089990817263,0 560.4072543617997,0 567.5055096418732,0 574.6037649219467,0 581.7020202020201,0 588.8002754820935,0 595.8985307621671,0 602.9967860422405,0 610.095041322314,0 617.1932966023875,0 624.2915518824609,0 631.3898071625345,0 638.4880624426079,0 645.5863177226814,0 652.6845730027547,0 659.7828282828283,0 666.8810835629017,0 673.9793388429752,0 681.0775941230487,0 688.1758494031221,0 695.2741046831957,0 702.3723599632691,0 709.4706152433425,0 716.5688705234159,0 723.6671258034893,0 730.7653810835627,0 737.8636363636363,0 737.8636363636363,0 730.7653810835627,0 723.6671258034893,0 716.5688705234159,0 709.4706152433425,0 702.3723599632691,5.4270833333332575 695.2741046831957,5.4270833333332575 688.1758494031221,5.4270833333332575 681.0775941230487,5.4270833333332575 673.9793388429752,5.4270833333332575 666.8810835629017,5.4270833333332575 659.7828282828283,5.4270833333332575 652.6845730027547,5.4270833333332575 645.5863177226814,5.455646929824638 638.4880624426079,10.854166666666686 631.3898071625345,10.854166666666686 624.2915518824609,10.854166666666686 617.1932966023875,10.854166666666686 610.095041322314,10.854166666666686 602.9967860422405,10.854166666666686 595.8985307621671,16.28125 588.8002754820935,16.28125 581.7020202020201,16.28125 574.6037649219467,16.28125 567.5055096418732,21.708333333333314 560.4072543617997,21.708333333333314 553.3089990817263,21.708333333333314 546.2107438016528,27.135416666666686 539.1124885215793,27.135416666666686 532.014233241506,27.27823464912285 524.9159779614325,32.5625 517.8177226813591,32.5625 510.71946740128556,37.989583333333314 503.6212121212121,37.989583333333314 496.5229568411387,40.90307017543864 489.42470156106526,43.416666666666686 482.3264462809918,43.416666666666686 475.2281910009183,48.84375 468.1299357208448,48.84375 461.0316804407713,54.270833333333314 453.9334251606979,54.84210526315792 446.8351698806244,59.697916666666686 439.7369146005509,65.125 432.6386593204774,65.81052631578945 425.5404040404039,70.55208333333331 418.44214876033055,75.97916666666669 411.34389348025707,81.40625 404.2456382001836,82.26315789473688 397.14738292011015,86.83333333333331 390.04912764003666,92.26041666666669 382.9508723599632,97.6875 375.85261707988974,97.6875 368.7543617998164,103.11458333333331 361.65610651974293,108.54166666666669 354.55785123966945,114.56858552631581 347.45959595959596,120.0242324561404 340.36134067952247,130.25 333.26308539944904,135.67708333333331 326.16483011937555,141.10416666666669 319.0665748393021,146.53125 311.96831955922863,151.95833333333331 304.87006427915514,159.04210526315785 297.77180899908166,168.23958333333331 290.6735537190082,173.66666666666669 283.57529843893485,184.52083333333331 276.47704315886136,189.94791666666669 269.3787878787879,200.80208333333331 262.28053259871444,206.22916666666669 255.18227731864096,214.36979166666669 248.0840220385675,222.51041666666669 240.98576675849404,227.9375 233.88751147842055,238.79166666666669 226.7892561983471,246.93229166666669 219.6910009182736,255.07291666666669 212.59274563820017,265.92708333333337 205.49449035812668,274.2105263157895 198.39623507805325,282.20833333333337 191.2979797979798,298.48958333333337 184.19972451790633,303.91666666666663 177.10146923783287,317.484375 170.00321395775939,331.05208333333337 162.90495867768595,341.90625 155.8067033976125,354.6170504385965 148.70844811753904,363.61458333333337 141.61019283746555,374.46875 134.5119375573921,390.0644736842105 127.41368227731864,400.97576754385966 120.31542699724517,415.171875 113.21717171717172,428.7395833333333 106.11891643709826,439.59375 99.02066115702479,450.4479166666667 91.92240587695132,461.3020833333333 84.82415059687787,472.15625 77.72589531680441,483.0104166666667 70.62764003673094,493.8645833333333 63.52938475665749,504.71875 56.431129476584026,510.1458333333333 49.332874196510566,515.5729166666666 42.2346189164371,521 35.13636363636364,521"/></g></g><g class="distribution-functions"><path data-legend="Empirical distribution" class="empirical line autoscale cdf" d="M35.13636363636364,515.6288659793814L42.2346189164371,504.88659793814435L49.332874196510566,488.77319587628864L56.431129476584026,472.659793814433L63.52938475665749,456.54639175257734L70.62764003673094,456.54639175257734L77.72589531680441,424.319587628866L84.82415059687787,402.83505154639175L91.92240587695132,397.4639175257732L99.02066115702479,386.7216494845361L106.11891643709826,375.97938144329896L113.21717171717172,365.2371134020618L120.31542699724517,354.4948453608248L127.41368227731864,333.0103092783505L134.5119375573921,306.1546391752578L141.61019283746555,290.0412371134021L148.70844811753904,284.6701030927835L155.8067033976125,279.29896907216494L162.90495867768595,268.5567010309278L170.00321395775939,263.1855670103093L177.10146923783287,257.8144329896907L184.19972451790633,247.07216494845358L191.2979797979798,230.95876288659792L198.39623507805325,220.21649484536084L205.49449035812668,214.84536082474227L212.59274563820017,214.84536082474227L219.6910009182736,209.4742268041237L226.7892561983471,198.73195876288656L233.88751147842055,193.36082474226805L240.98576675849404,177.2474226804124L248.0840220385675,171.87628865979383L255.18227731864096,171.87628865979383L262.28053259871444,161.1340206185567L269.3787878787879,150.39175257731955L276.47704315886136,145.02061855670104L283.57529843893485,139.64948453608253L290.6735537190082,134.2783505154639L297.77180899908166,134.2783505154639L304.87006427915514,128.9072164948454L311.96831955922863,123.53608247422682L319.0665748393021,123.53608247422682L326.16483011937555,118.16494845360825L333.26308539944904,112.79381443298968L340.36134067952247,112.79381443298968L347.45959595959596,107.42268041237116L354.55785123966945,96.68041237113403L361.65610651974293,85.93814432989689L368.7543617998164,85.93814432989689L375.85261707988974,80.56701030927837L382.9508723599632,69.82474226804123L390.04912764003666,64.45360824742266L397.14738292011015,64.45360824742266L404.2456382001836,53.711340206185525L411.34389348025707,48.34020618556701L418.44214876033055,42.9690721649485L425.5404040404039,37.59793814432987L432.6386593204774,37.59793814432987L439.7369146005509,21.48453608247422L446.8351698806244,21.48453608247422L453.9334251606979,16.113402061855652L461.0316804407713,16.113402061855652L468.1299357208448,16.113402061855652L475.2281910009183,16.113402061855652L482.3264462809918,16.113402061855652L489.42470156106526,16.113402061855652L496.5229568411387,16.113402061855652L503.6212121212121,16.113402061855652L510.71946740128556,16.113402061855652L517.8177226813591,16.113402061855652L524.9159779614325,16.113402061855652L532.014233241506,16.113402061855652L539.1124885215793,16.113402061855652L546.2107438016528,16.113402061855652L553.3089990817263,16.113402061855652L560.4072543617997,16.113402061855652L567.5055096418732,16.113402061855652L574.6037649219467,10.74226804123714L581.7020202020201,10.74226804123714L588.8002754820935,10.74226804123714L595.8985307621671,10.74226804123714L602.9967860422405,10.74226804123714L610.095041322314,10.74226804123714L617.1932966023875,10.74226804123714L624.2915518824609,10.74226804123714L631.3898071625345,10.74226804123714L638.4880624426079,10.74226804123714L645.5863177226814,5.37113402061857L652.6845730027547,5.37113402061857L659.7828282828283,5.37113402061857L666.8810835629017,5.37113402061857L673.9793388429752,5.37113402061857L681.0775941230487,5.37113402061857L688.1758494031221,5.37113402061857L695.2741046831957,5.37113402061857L702.3723599632691,5.37113402061857L709.4706152433425,5.37113402061857L716.5688705234159,5.37113402061857L723.6671258034893,5.37113402061857L730.7653810835627,5.37113402061857L737.8636363636363,0" data-legend-class="empirical" fill="none"/></g><g class="userGuides"/></svg><g class="axes"><g class="bottom axis bottomAxisLine" transform="translate(0,521)" fill="none" text-anchor="middle"><path class="domain" stroke="#000" d="M0.5,6V0.5H773.5V6" fill="none"/><g class="tick" opacity="1" transform="translate(46.116779152419035,0)"><line stroke="#000" y2="3" fill="none"/><text fill="#000" y="6" dy="0.71em" class="bottomAxisTickLabels transformed-label"><tspan class="label-block"><tspan class="label-subblock">5</tspan></tspan></text></g><g class="tick" opacity="1" transform="translate(110.33501148118981,0)"><line stroke="#000" y2="3" fill="none"/><text fill="#000" y="6" dy="0.71em" class="bottomAxisTickLabels transformed-label"><tspan class="label-block"><tspan class="label-subblock">10</tspan></tspan></text></g><g class="tick" opacity="1" transform="translate(174.55324380996058,0)"><line stroke="#000" y2="3" fill="none"/><text fill="#000" y="6" dy="0.71em" class="bottomAxisTickLabels transformed-label"><tspan class="label-block"><tspan class="label-subblock">15</tspan></tspan></text></g><g class="tick" opacity="1" transform="translate(238.7714761387314,0)"><line stroke="#000" y2="3" fill="none"/><text fill="#000" y="6" dy="0.71em" class="bottomAxisTickLabels transformed-label"><tspan class="label-block"><tspan class="label-subblock">20</tspan></tspan></text></g><g class="tick" opacity="1" transform="translate(302.98970846750217,0)"><line stroke="#000" y2="3" fill="none"/><text fill="#000" y="6" dy="0.71em" class="bottomAxisTickLabels transformed-label"><tspan class="label-block"><tspan class="label-subblock">25</tspan></tspan></text></g><g class="tick" opacity="1" transform="translate(367.20794079627296,0)"><line stroke="#000" y2="3" fill="none"/><text fill="#000" y="6" dy="0.71em" class="bottomAxisTickLabels transformed-label"><tspan class="label-block"><tspan class="label-subblock">30</tspan></tspan></text></g><g class="tick" opacity="1" transform="translate(431.4261731250437,0)"><line stroke="#000" y2="3" fill="none"/><text fill="#000" y="6" dy="0.71em" class="bottomAxisTickLabels transformed-label"><tspan class="label-block"><tspan class="label-subblock">35</tspan></tspan></text></g><g class="tick" opacity="1" transform="translate(495.64440545381444,0)"><line stroke="#000" y2="3" fill="none"/><text fill="#000" y="6" dy="0.71em" class="bottomAxisTickLabels transformed-label"><tspan class="label-block"><tspan class="label-subblock">40</tspan></tspan></text></g><g class="tick" opacity="1" transform="translate(559.8626377825852,0)"><line stroke="#000" y2="3" fill="none"/><text fill="#000" y="6" dy="0.71em" class="bottomAxisTickLabels transformed-label"><tspan class="label-block"><tspan class="label-subblock">45</tspan></tspan></text></g><g class="tick" opacity="1" transform="translate(624.0808701113559,0)"><line stroke="#000" y2="3" fill="none"/><text fill="#000" y="6" dy="0.71em" class="bottomAxisTickLabels transformed-label"><tspan class="label-block"><tspan class="label-subblock">50</tspan></tspan></text></g><g class="tick" opacity="1" transform="translate(688.2991024401268,0)"><line stroke="#000" y2="3" fill="none"/><text fill="#000" y="6" dy="0.71em" class="bottomAxisTickLabels transformed-label"><tspan class="label-block"><tspan class="label-subblock">55</tspan></tspan></text></g><g class="tick" opacity="1" transform="translate(752.5173347688975,0)"><line stroke="#000" y2="3" fill="none"/><text fill="#000" y="6" dy="0.71em" class="bottomAxisTickLabels transformed-label"><tspan class="label-block"><tspan class="label-subblock">60</tspan></tspan></text></g></g><g class="left axis leftAxisLine" fill="none" text-anchor="end"><path class="domain" stroke="#000" d="M-6,521.5H0.5V0.5H-6" fill="none"/><g class="tick" opacity="1" transform="translate(0,521.5)"><line stroke="#000" x2="-3" fill="none"/><text fill="#000" x="-6" dy="0.32em" class="leftAxisTickLabels transformed-label"><tspan class="label-block"><tspan class="label-subblock">0</tspan></tspan></text></g><g class="tick" opacity="1" transform="translate(0,469.4)"><line stroke="#000" x2="-3" fill="none"/><text fill="#000" x="-6" dy="0.32em" class="leftAxisTickLabels transformed-label"><tspan class="label-block"><tspan class="label-subblock">0.1</tspan></tspan></text></g><g class="tick" opacity="1" transform="translate(0,417.3)"><line stroke="#000" x2="-3" fill="none"/><text fill="#000" x="-6" dy="0.32em" class="leftAxisTickLabels transformed-label"><tspan class="label-block"><tspan class="label-subblock">0.2</tspan></tspan></text></g><g class="tick" opacity="1" transform="translate(0,365.20000000000005)"><line stroke="#000" x2="-3" fill="none"/><text fill="#000" x="-6" dy="0.32em" class="leftAxisTickLabels transformed-label"><tspan class="label-block"><tspan class="label-subblock">0.3</tspan></tspan></text></g><g class="tick" opacity="1" transform="translate(0,313.1)"><line stroke="#000" x2="-3" fill="none"/><text fill="#000" x="-6" dy="0.32em" class="leftAxisTickLabels transformed-label"><tspan class="label-block"><tspan class="label-subblock">0.4</tspan></tspan></text></g><g class="tick" opacity="1" transform="translate(0,261)"><line stroke="#000" x2="-3" fill="none"/><text fill="#000" x="-6" dy="0.32em" class="leftAxisTickLabels transformed-label"><tspan class="label-block"><tspan class="label-subblock">0.5</tspan></tspan></text></g><g class="tick" opacity="1" transform="translate(0,208.90000000000003)"><line stroke="#000" x2="-3" fill="none"/><text fill="#000" x="-6" dy="0.32em" class="leftAxisTickLabels transformed-label"><tspan class="label-block"><tspan class="label-subblock">0.6</tspan></tspan></text></g><g class="tick" opacity="1" transform="translate(0,156.8)"><line stroke="#000" x2="-3" fill="none"/><text fill="#000" x="-6" dy="0.32em" class="leftAxisTickLabels transformed-label"><tspan class="label-block"><tspan class="label-subblock">0.7</tspan></tspan></text></g><g class="tick" opacity="1" transform="translate(0,104.69999999999999)"><line stroke="#000" x2="-3" fill="none"/><text fill="#000" x="-6" dy="0.32em" class="leftAxisTickLabels transformed-label"><tspan class="label-block"><tspan class="label-subblock">0.8</tspan></tspan></text></g><g class="tick" opacity="1" transform="translate(0,52.599999999999966)"><line stroke="#000" x2="-3" fill="none"/><text fill="#000" x="-6" dy="0.32em" class="leftAxisTickLabels transformed-label"><tspan class="label-block"><tspan class="label-subblock">0.9</tspan></tspan></text></g><g class="tick" opacity="1" transform="translate(0,0.5)"><line stroke="#000" x2="-3" fill="none"/><text fill="#000" x="-6" dy="0.32em" class="leftAxisTickLabels transformed-label"><tspan class="label-block"><tspan class="label-subblock">1</tspan></tspan></text></g></g></g><g class="grid"><g class="vertical" transform="translate(0,521)" fill="none" font-size="10" font-family="sans-serif" text-anchor="middle"><g class="tick" opacity="1" transform="translate(46.116779152419035,0)"><line stroke="#000" y2="-521" fill="none"/></g><g class="tick" opacity="1" transform="translate(110.33501148118981,0)"><line stroke="#000" y2="-521" fill="none"/></g><g class="tick" opacity="1" transform="translate(174.55324380996058,0)"><line stroke="#000" y2="-521" fill="none"/></g><g class="tick" opacity="1" transform="translate(238.7714761387314,0)"><line stroke="#000" y2="-521" fill="none"/></g><g class="tick" opacity="1" transform="translate(302.98970846750217,0)"><line stroke="#000" y2="-521" fill="none"/></g><g class="tick" opacity="1" transform="translate(367.20794079627296,0)"><line stroke="#000" y2="-521" fill="none"/></g><g class="tick" opacity="1" transform="translate(431.4261731250437,0)"><line stroke="#000" y2="-521" fill="none"/></g><g class="tick" opacity="1" transform="translate(495.64440545381444,0)"><line stroke="#000" y2="-521" fill="none"/></g><g class="tick" opacity="1" transform="translate(559.8626377825852,0)"><line stroke="#000" y2="-521" fill="none"/></g><g class="tick" opacity="1" transform="translate(624.0808701113559,0)"><line stroke="#000" y2="-521" fill="none"/></g><g class="tick" opacity="1" transform="translate(688.2991024401268,0)"><line stroke="#000" y2="-521" fill="none"/></g><g class="tick" opacity="1" transform="translate(752.5173347688975,0)"><line stroke="#000" y2="-521" fill="none"/></g></g><g class="horizontal" fill="none" font-size="10" font-family="sans-serif" text-anchor="end"><g class="tick" opacity="1" transform="translate(0,521.5)"><line stroke="#000" x2="773" fill="none"/></g><g class="tick" opacity="1" transform="translate(0,469.4)"><line stroke="#000" x2="773" fill="none"/></g><g class="tick" opacity="1" transform="translate(0,417.3)"><line stroke="#000" x2="773" fill="none"/></g><g class="tick" opacity="1" transform="translate(0,365.20000000000005)"><line stroke="#000" x2="773" fill="none"/></g><g class="tick" opacity="1" transform="translate(0,313.1)"><line stroke="#000" x2="773" fill="none"/></g><g class="tick" opacity="1" transform="translate(0,261)"><line stroke="#000" x2="773" fill="none"/></g><g class="tick" opacity="1" transform="translate(0,208.90000000000003)"><line stroke="#000" x2="773" fill="none"/></g><g class="tick" opacity="1" transform="translate(0,156.8)"><line stroke="#000" x2="773" fill="none"/></g><g class="tick" opacity="1" transform="translate(0,104.69999999999999)"><line stroke="#000" x2="773" fill="none"/></g><g class="tick" opacity="1" transform="translate(0,52.599999999999966)"><line stroke="#000" x2="773" fill="none"/></g><g class="tick" opacity="1" transform="translate(0,0.5)"><line stroke="#000" x2="773" fill="none"/></g></g></g><defs><g id="All-pi-low"><polygon class="prediction-interval autoscale" points="35.13636363636364,482.8104714912281 42.2346189164371,471.89917763157894 49.332874196510566,455.875 56.431129476584026,439.59375 63.52938475665749,426.0260416666668 70.62764003673094,412.4583333333333 77.72589531680441,396.1770833333333 84.82415059687787,379.89583333333337 91.92240587695132,369.04166666666663 99.02066115702479,352.76041666666663 106.11891643709826,341.90625 113.21717171717172,325.625 120.31542699724517,309.34375 127.41368227731864,301.2031250000001 134.5119375573921,287.63541666666663 141.61019283746555,276.78125 148.70844811753904,268.6406250000001 155.8067033976125,255.07291666666669 162.90495867768595,249.64583333333331 170.00321395775939,238.79166666666669 177.10146923783287,233.36458333333331 184.19972451790633,222.51041666666669 191.2979797979798,211.65625 198.39623507805325,206.22916666666669 205.49449035812668,200.80208333333331 212.59274563820017,189.94791666666669 219.6910009182736,184.52083333333331 226.7892561983471,173.66666666666669 233.88751147842055,168.23958333333331 240.98576675849404,157.38541666666669 248.0840220385675,151.95833333333331 255.18227731864096,146.53125 262.28053259871444,135.67708333333331 269.3787878787879,130.25 276.47704315886136,124.82291666666669 283.57529843893485,113.96875 290.6735537190082,108.54166666666669 297.77180899908166,103.11458333333331 304.87006427915514,94.97395833333348 311.96831955922863,86.83333333333331 319.0665748393021,84.1197916666668 326.16483011937555,81.40625 333.26308539944904,75.97916666666669 340.36134067952247,70.55208333333331 347.45959595959596,65.125 354.55785123966945,59.697916666666686 361.65610651974293,54.270833333333314 368.7543617998164,54.270833333333314 375.85261707988974,48.84375 382.9508723599632,43.416666666666686 390.04912764003666,43.416666666666686 397.14738292011015,37.989583333333314 404.2456382001836,37.989583333333314 411.34389348025707,32.5625 418.44214876033055,32.5625 425.5404040404039,27.135416666666686 432.6386593204774,27.135416666666686 439.7369146005509,21.708333333333314 446.8351698806244,21.708333333333314 453.9334251606979,16.28125 461.0316804407713,16.28125 468.1299357208448,16.28125 475.2281910009183,10.854166666666686 482.3264462809918,10.854166666666686 489.42470156106526,10.854166666666686 496.5229568411387,5.4270833333332575 503.6212121212121,5.4270833333332575 510.71946740128556,5.4270833333332575 517.8177226813591,5.4270833333332575 524.9159779614325,5.4270833333332575 532.014233241506,0 539.1124885215793,0 546.2107438016528,0 553.3089990817263,0 560.4072543617997,0 567.5055096418732,0 574.6037649219467,0 581.7020202020201,0 588.8002754820935,0 595.8985307621671,0 602.9967860422405,0 610.095041322314,0 617.1932966023875,0 624.2915518824609,0 631.3898071625345,0 638.4880624426079,0 645.5863177226814,0 652.6845730027547,0 659.7828282828283,0 666.8810835629017,0 673.9793388429752,0 681.0775941230487,0 688.1758494031221,0 695.2741046831957,0 702.3723599632691,0 709.4706152433425,0 716.5688705234159,0 723.6671258034893,0 730.7653810835627,0 737.8636363636363,0 737.8636363636363,0 730.7653810835627,0 723.6671258034893,0 716.5688705234159,0 709.4706152433425,0 702.3723599632691,5.4270833333332575 695.2741046831957,5.4270833333332575 688.1758494031221,5.4270833333332575 681.0775941230487,5.4270833333332575 673.9793388429752,5.4270833333332575 666.8810835629017,5.4270833333332575 659.7828282828283,5.4270833333332575 652.6845730027547,5.4270833333332575 645.5863177226814,5.455646929824638 638.4880624426079,10.854166666666686 631.3898071625345,10.854166666666686 624.2915518824609,10.854166666666686 617.1932966023875,10.854166666666686 610.095041322314,10.854166666666686 602.9967860422405,10.854166666666686 595.8985307621671,16.28125 588.8002754820935,16.28125 581.7020202020201,16.28125 574.6037649219467,16.28125 567.5055096418732,21.708333333333314 560.4072543617997,21.708333333333314 553.3089990817263,21.708333333333314 546.2107438016528,27.135416666666686 539.1124885215793,27.135416666666686 532.014233241506,27.27823464912285 524.9159779614325,32.5625 517.8177226813591,32.5625 510.71946740128556,37.989583333333314 503.6212121212121,37.989583333333314 496.5229568411387,40.90307017543864 489.42470156106526,43.416666666666686 482.3264462809918,43.416666666666686 475.2281910009183,48.84375 468.1299357208448,48.84375 461.0316804407713,54.270833333333314 453.9334251606979,54.84210526315792 446.8351698806244,59.697916666666686 439.7369146005509,65.125 432.6386593204774,65.81052631578945 425.5404040404039,70.55208333333331 418.44214876033055,75.97916666666669 411.34389348025707,81.40625 404.2456382001836,82.26315789473688 397.14738292011015,86.83333333333331 390.04912764003666,92.26041666666669 382.9508723599632,97.6875 375.85261707988974,97.6875 368.7543617998164,103.11458333333331 361.65610651974293,108.54166666666669 354.55785123966945,114.56858552631581 347.45959595959596,120.0242324561404 340.36134067952247,130.25 333.26308539944904,135.67708333333331 326.16483011937555,141.10416666666669 319.0665748393021,146.53125 311.96831955922863,151.95833333333331 304.87006427915514,159.04210526315785 297.77180899908166,168.23958333333331 290.6735537190082,173.66666666666669 283.57529843893485,184.52083333333331 276.47704315886136,189.94791666666669 269.3787878787879,200.80208333333331 262.28053259871444,206.22916666666669 255.18227731864096,214.36979166666669 248.0840220385675,222.51041666666669 240.98576675849404,227.9375 233.88751147842055,238.79166666666669 226.7892561983471,246.93229166666669 219.6910009182736,255.07291666666669 212.59274563820017,265.92708333333337 205.49449035812668,274.2105263157895 198.39623507805325,282.20833333333337 191.2979797979798,298.48958333333337 184.19972451790633,303.91666666666663 177.10146923783287,317.484375 170.00321395775939,331.05208333333337 162.90495867768595,341.90625 155.8067033976125,354.6170504385965 148.70844811753904,363.61458333333337 141.61019283746555,374.46875 134.5119375573921,390.0644736842105 127.41368227731864,400.97576754385966 120.31542699724517,415.171875 113.21717171717172,428.7395833333333 106.11891643709826,439.59375 99.02066115702479,450.4479166666667 91.92240587695132,461.3020833333333 84.82415059687787,472.15625 77.72589531680441,483.0104166666667 70.62764003673094,493.8645833333333 63.52938475665749,504.71875 56.431129476584026,510.1458333333333 49.332874196510566,515.5729166666666 42.2346189164371,521 35.13636363636364,521"/></g><g id="All-pi-low-maskdata"/><mask id="All-pi-low-mask" class="prediction-interval-mask"><rect x="0" y="0" width="100%" height="100%" fill="white"/><use xmlns:xlink="http://www.w3.org/1999/xlink" xlink:href="#All-pi-low-maskdata" fill="black"/></mask><clipPath id="All--freehand-guides-clip" class="freehand-guides-clip"><rect x="0" y="0" width="773" height="521"/></clipPath></defs></g></g><text x="386.5" y="-1em" class="title transformed-label" text-anchor="middle"><tspan class="label-block"/></text></g></g></g></g></svg>
