<svg xmlns="http://www.w3.org/2000/svg" class="lixoftchart conditionalMean" width="720" height="669" style="font-family: &quot;Source Sans Pro&quot;, -apple-system, BlinkMacSystemFont, &quot;Segoe UI&quot;, Roboto, &quot;Helvetica Neue&quot;, Arial, sans-serif, &quot;Apple Color Emoji&quot;, &quot;Segoe UI Emoji&quot;, &quot;Segoe UI Symbol&quot;; font-weight: normal;"><style>svg {
--primary--1:rgba(21, 140, 186, 0.1);
--primary--2:rgba(21, 140, 186, 0.2);
--primary--3:rgba(21, 140, 186, 0.3);
--primary--4:rgba(21, 140, 186, 0.4);
--primary--5:rgba(21, 140, 186, 0.5);
--primary--6:rgba(21, 140, 186, 0.6);
--primary--7:rgba(21, 140, 186, 0.7);
--primary--8:rgba(21, 140, 186, 0.8);
--primary--9:rgba(21, 140, 186, 0.9);
--secondary--1:rgba(240, 240, 240, 0.1);
--secondary--2:rgba(240, 240, 240, 0.2);
--secondary--3:rgba(240, 240, 240, 0.3);
--secondary--4:rgba(240, 240, 240, 0.4);
--secondary--5:rgba(240, 240, 240, 0.5);
--secondary--6:rgba(240, 240, 240, 0.6);
--secondary--7:rgba(240, 240, 240, 0.7);
--secondary--8:rgba(240, 240, 240, 0.8);
--secondary--9:rgba(240, 240, 240, 0.9);
--success--1:rgba(40, 182, 44, 0.1);
--success--2:rgba(40, 182, 44, 0.2);
--success--3:rgba(40, 182, 44, 0.3);
--success--4:rgba(40, 182, 44, 0.4);
--success--5:rgba(40, 182, 44, 0.5);
--success--6:rgba(40, 182, 44, 0.6);
--success--7:rgba(40, 182, 44, 0.7);
--success--8:rgba(40, 182, 44, 0.8);
--success--9:rgba(40, 182, 44, 0.9);
--info--1:rgba(117, 202, 235, 0.1);
--info--2:rgba(117, 202, 235, 0.2);
--info--3:rgba(117, 202, 235, 0.3);
--info--4:rgba(117, 202, 235, 0.4);
--info--5:rgba(117, 202, 235, 0.5);
--info--6:rgba(117, 202, 235, 0.6);
--info--7:rgba(117, 202, 235, 0.7);
--info--8:rgba(117, 202, 235, 0.8);
--info--9:rgba(117, 202, 235, 0.9);
--warning--1:rgba(255, 133, 27, 0.1);
--warning--2:rgba(255, 133, 27, 0.2);
--warning--3:rgba(255, 133, 27, 0.3);
--warning--4:rgba(255, 133, 27, 0.4);
--warning--5:rgba(255, 133, 27, 0.5);
--warning--6:rgba(255, 133, 27, 0.6);
--warning--7:rgba(255, 133, 27, 0.7);
--warning--8:rgba(255, 133, 27, 0.8);
--warning--9:rgba(255, 133, 27, 0.9);
--danger--1:rgba(255, 65, 54, 0.1);
--danger--2:rgba(255, 65, 54, 0.2);
--danger--3:rgba(255, 65, 54, 0.3);
--danger--4:rgba(255, 65, 54, 0.4);
--danger--5:rgba(255, 65, 54, 0.5);
--danger--6:rgba(255, 65, 54, 0.6);
--danger--7:rgba(255, 65, 54, 0.7);
--danger--8:rgba(255, 65, 54, 0.8);
--danger--9:rgba(255, 65, 54, 0.9);
--light--1:rgba(246, 246, 246, 0.1);
--light--2:rgba(246, 246, 246, 0.2);
--light--3:rgba(246, 246, 246, 0.3);
--light--4:rgba(246, 246, 246, 0.4);
--light--5:rgba(246, 246, 246, 0.5);
--light--6:rgba(246, 246, 246, 0.6);
--light--7:rgba(246, 246, 246, 0.7);
--light--8:rgba(246, 246, 246, 0.8);
--light--9:rgba(246, 246, 246, 0.9);
--dark--1:rgba(85, 85, 85, 0.1);
--dark--2:rgba(85, 85, 85, 0.2);
--dark--3:rgba(85, 85, 85, 0.3);
--dark--4:rgba(85, 85, 85, 0.4);
--dark--5:rgba(85, 85, 85, 0.5);
--dark--6:rgba(85, 85, 85, 0.6);
--dark--7:rgba(85, 85, 85, 0.7);
--dark--8:rgba(85, 85, 85, 0.8);
--dark--9:rgba(85, 85, 85, 0.9);
--theme-scheme--1:#158CBA;
--theme-scheme--2:#3e82bf;
--theme-scheme--3:#6475bc;
--theme-scheme--4:#8566b0;
--theme-scheme--5:#a05599;
--theme-scheme--6:#b0447c;
--theme-scheme-lg--1:#158cba;
--theme-scheme-lg--2:#1dade5;
--theme-scheme-lg--3:#4abeeb;
--theme-scheme-lg--4:#78cef0;
--theme-scheme-lg--5:#b0447c;
--theme-scheme-lg--6:#c36495;
--theme-scheme-lg--7:#d189ae;
--theme-scheme-lg--8:#e0adc7;
--theme-scheme-lg--9:#618f35;
--theme-scheme-lg--10:#7ab443;
--theme-scheme-lg--11:#94c664;
--theme-scheme-lg--12:#aed38a;
--blue:#158CBA;
--indigo:#6610f2;
--purple:#6f42c1;
--pink:#e83e8c;
--red:#FF4136;
--orange:#fd7e14;
--yellow:#FF851B;
--green:#28B62C;
--teal:#20c997;
--cyan:#75CAEB;
--white:#fff;
--gray:#999;
--gray-dark:#333;
--primary:#158CBA;
--secondary:#f0f0f0;
--success:#28B62C;
--info:#75CAEB;
--warning:#FF851B;
--danger:#FF4136;
--light:#f6f6f6;
--dark:#555;
--breakpoint-xs:0;
--breakpoint-sm:576px;
--breakpoint-md:768px;
--breakpoint-lg:992px;
--breakpoint-xl:1200px;
--font-family-sans-serif:"Source Sans Pro", -apple-system, BlinkMacSystemFont, "Segoe UI", Roboto, "Helvetica Neue", Arial, sans-serif, "Apple Color Emoji", "Segoe UI Emoji", "Segoe UI Symbol";
--font-family-monospace:SFMono-Regular, Menlo, Monaco, Consolas, "Liberation Mono", "Courier New", monospace;
--mm-color-background:;
--graphical-mode-icon-display:none;

}
html, body { height: 100%; }
body { margin: 0px; overflow: hidden; }
.lixoftchart-container { display: flex; flex-direction: column; height: 100%; }
.lixoftchart { width: 100%; height: 100%; flex: 1 1 0%; }
.lixoftchart-header { height: 34px; }
.main { flex: 1 1 0%; height: 100%; width: 100%; }
.footer { margin: 0px; }
.checkinit-footer { max-height: 230px; overflow-y: auto; }
.page, .subpage { height: 100%; display: none; }
.page.active, .subpage.active { display: block; }
.axes, .grid { pointer-events: none; }
.axis path, .axis line { fill: none; shape-rendering: crispEdges; }
.tick { font-family: sans-serif; }
.line { fill: none; }
.tick line { stroke-width: 1px; }
.grid line { opacity: 0.2; }
.title { pointer-events: none; font-weight: 400; }
.axis-label { text-anchor: middle; }
.axis-label-unit { font-family: monospace; font-size: smaller; }
.label-subscript { baseline-shift: sub; font-size: 0.8em; }
.zoomable-content, .brushable-content { cursor: crosshair; }
rect.zoom { fill: rgb(221, 221, 221); stroke: steelblue; fill-opacity: 0.5; }
g.brush &gt; rect.selection { stroke-width: 0; }
.handle--custom { fill: rgb(122, 122, 122); fill-opacity: 1; stroke: rgb(122, 122, 122); stroke-width: 2px; display: inline !important; }
.log-filtered { display: none; }
.dot { stroke: none; }
.censObservations.highlighted:not(.lambdaz-observation), .censObservations[data--radius]:not(.lambdaz-observation) { fill: brown !important; }
.spline { fill: none; }
.regressionLine { fill: none; }
.convergence-line { fill: none; }
.percentile-line, .cdf { stroke-width: 1px; }
.bar { shape-rendering: crispEdges; }
.vertical-line, .horizontal-line { shape-rendering: crispEdges; }
.k1, .bound { shape-rendering: crispEdges; }
.outlier.dot { fill: none; }
.boxplot { font-style: normal; font-variant: normal; font-weight: normal; font-stretch: normal; font-size: 10px; line-height: normal; font-family: sans-serif; }
.box-element line, .box-element rect { stroke-opacity: 1; shape-rendering: crispEdges; }
.boxplot .outlier line { fill: none; }
.boxplot .box-underlay { fill: white; fill-opacity: 1; }
.boxplot .label { font-size: 12px; }
.arrow-marker { stroke-width: 0; font-size: 20px; fill: red; dominant-baseline: central; }
.layout-link { padding: 1px 5px !important; }
.sublayout-controls { min-height: 20px; transition: opacity 0.5s ease-in-out; background-color: transparent; opacity: 0.2; cursor: pointer; }
.pagination { transition: opacity 0.5s ease-in-out; }
.sublayout-controls .pagination { opacity: 0; }
.sublayout-controls:hover { transition: none; opacity: 0.9; }
.sublayout-controls:hover .pagination { transition: none; opacity: 1; }
.plot-grid, .subplot-grid { margin: 0px; min-width: 0px; }
.grid-cell { outline: rgb(221, 221, 221) solid 1px; cursor: text; position: absolute; }
.plot-cell { background-color: rgba(119, 33, 111, 0.298039); }
.matrix-diagonal-cell { background-color: rgb(174, 167, 159) !important; }
.plot-cell.selected { background-color: rgb(119, 33, 111); }
.plot-cell:hover, .plot-cell.hovered { background-color: rgb(243, 152, 20); }
.plot-cell.ui-selecting { background-color: rgb(233, 84, 32); }
.cells-selector { cursor: pointer; width: 0px; height: 0px; position: absolute; border: 10px solid rgba(119, 33, 111, 0.298039); }
.cells-selector.selected { border-color: rgb(119, 33, 111); }
.cells-selector.rows, .cells-selector.all { border-top-color: transparent !important; border-bottom-color: transparent !important; border-right-color: transparent !important; }
.cells-selector.cols { border-top-color: transparent !important; border-left-color: transparent !important; border-right-color: transparent !important; }
.cells-selector.all { transform: rotate(-45deg); }
.cells-selector:hover { border-color: rgb(243, 152, 20); }
.layout-grid, .sublayout-grid { padding: 0px; margin: 0px; min-width: 0px; background-color: transparent; border: none; box-shadow: none !important; }
.layout-grid-content { border-collapse: collapse; border: 1px solid rgb(221, 221, 221); }
.layout-cell { background-color: rgba(119, 33, 111, 0.298039); border: 1px solid rgb(221, 221, 221); min-width: 20px; width: 20px; height: 20px; cursor: pointer; }
.layout-cell.selected { background-color: rgb(119, 33, 111); }
.layout-cell.selecting { background-color: rgb(233, 84, 32); }
.layout-container { padding: 10px 15px; align-items: center; }
.layout-controls { display: flex; justify-content: space-between; align-items: center; }
.layout-controls &gt; .layout-controls-wrapper { display: flex; align-items: baseline; }
.layout-controls .btn { border: 0px; border-radius: 0px; white-space: nowrap; padding: 4px 8px !important; }
.layout-controls .btn.toggle-controls-btn { margin-left: 1rem !important; }
.pagination input { color: inherit; background: transparent; border: 0px; outline: none; }
.contrasted-chart-header-btn:not(:hover) { background: rgba(255, 255, 255, 0.2) !important; }
.message-banner { position: fixed; left: 0px; width: 100%; margin-bottom: 0px; z-index: 10; }
.message-banner.top { top: 0px; }
.message-banner.bottom { bottom: 0px; }
.legend { box-shadow: rgba(0, 0, 0, 0.2) 0px 8px 17px 0px, rgba(0, 0, 0, 0.188235) 0px 6px 20px 0px; z-index: 10; }
.legend:not(.no-move) { cursor: move !important; }
.legend-glyph:not(.aa) { shape-rendering: crispEdges; }
.legend-group-label { font-weight: bold; }
.ui-selectable-helper { z-index: 1100; }
.ui-selectable-helper.no-top { border-top: 0px; }
.ui-selectable-helper.no-right { border-right: 0px; }
.ui-selectable-helper.no-bottom { border-bottom: 0px; }
.ui-selectable-helper.no-left { border-left: 0px; }
.print-preview &gt; .modal-dialog { position: absolute; height: auto; bottom: 0px; top: 0px; left: 0px; right: 0px; }
.page-preview { border: 1px dashed rgb(51, 51, 51); margin: 0px auto; }
.page-preview.portrait { height: 60vh; width: 42.42vh; }
.page-preview.landscape { width: 60vw; height: 42.42vw; }
.tooltip-key::after { content: ": "; }
.brushed-out, .bar.brushed-out { fill: rgb(204, 204, 204) !important; }
.infowrapper { pointer-events: none; }
.information { overflow-y: overlay; overflow-x: hidden; padding: 0.5em; font-family: monospace; box-shadow: rgba(0, 0, 0, 0.2) 0px 8px 17px 0px, rgba(0, 0, 0, 0.188235) 0px 6px 20px 0px; display: inline-block; float: right; cursor: move; pointer-events: all; }
.information span { float: left; clear: both; }
.axis path, .axis line, .grid line{
stroke: #636363;
}

.tick text{
fill: #636363;
}

.axis path, .axis line{
stroke-width: 1px;
}

.bar-label{
fill: #000000;
}

.bar-label{
font-size: 10px;
}

.bin-value{
stroke: red;
}

.bin-value{
}

.bin-value{
stroke-width: 1px;
}

.bound{
stroke: red;
}

.bound{
stroke-width: 2px;
}

.bound.bounded{
stroke: limegreen;
}

.baseline{
stroke: #000000;
}

.baseline{
}

.baseline{
stroke-width: 1px;
}

.box-element rect{
fill: #8fbbd9;
}

.boxplot .outlier line{
stroke: #ff0000;
}

.boxplot .outlier line{
stroke-width: 1px;
}

.quartile{
stroke: #000000;
}

.quartile{
stroke-dasharray: 3, 2;
}

.quartile{
stroke-width: 1px;
}

.box-element line{
stroke: #000000;
}

.box-element line{
stroke-width: 1px;
}

.censEvents{
fill: #d44242;
}

.censEvents{
stroke: #d44242;
}

.censObservations{
fill: #d44242;
}
.censObsIntervals{stroke:rgb(212,66,66);stroke-opacity:0.498039;}

.censObsIntervals{
}

.censObsIntervals{
stroke-width: 5px;
}

.convergence-line{
stroke: #4682B4;
}

.cvIndicator-line{
stroke: #990099;
}

.dosingTimes{
stroke: #000000;
}

.dosingTimes{
stroke-dasharray: 8, 8;
}

.dosingTimes{
stroke-width: 2px;
}

line.empirical, path.empirical{
stroke: #4682B4;
}

.dot.empirical{
fill: #4682B4;
}

line.empirical, path.empirical{
}

line.empirical, path.empirical{
stroke-width: 2px;
}

.fisher_linearization&gt;.bar{
fill: #4682B4;
}

.fisher_stochasticApproximation&gt;.bar{
fill: #98abc5;
}

.focus &gt; line, .focus &gt; circle{
stroke: blue;
}

.lixoftchart{
background-color: #ffffff;
}

.sublayout-controls:hover{
background-color: #ffffff;
}

.bar:hover, .band-overlay:hover{
fill: orange !important;
}

g.bar, g.histogram{
fill: #4682B4;
}

g.bar, g.histogram{
stroke: #ffffff;
}

g.bar, g.histogram{
stroke-width: 1px;
}

.information{
background-color: #FFFFCC;
}

.information{
fill: #FFFFCC;
}

.information{
font-size: 12px;
}

.information{
color: #000000;
}

.k1{
stroke: red;
}

.k1{
stroke-width: 1px;
}

.axis-label.global{
fill: #000000;
}

.axis-label.global{
font-size: 14px;
}

.legend-frame{
fill: #ffffff;
}

.legend-frame{
stroke: #000000;
}

.legend-frame{
stroke-width: 0px;
}

.legend text{
fill: #000000;
}

.legend{
font-size: 12px;
}

.ll_importanceSampling&gt;.bar{
fill: #98abc5;
}

.ll_linearization&gt;.bar{
fill: #4682B4;
}

path.median, line.median{
stroke: #000000;
}

path.median, line.median{
stroke-dasharray: 5,3;
}

path.median, line.median{
stroke-width: 1px;
}

.observation{
fill: #4682B4;
}

.observation{
stroke: #4682B4;
}

.observation-line{
stroke-width: 1.5px;
}

.obsStatisticsValues{
font-size: 10px;
}

.outlier.area{
fill: #ff0000;
}

.outlier.dot{
stroke: #ff0000;
}

.outlier.dot{
stroke-width: 1px;
}
.prediction-interval.median{fill:rgb(255,0,0);fill-opacity:0.2;}
.prediction-interval.low, .prediction-interval.up{fill:rgb(0,128,255);fill-opacity:0.298039;}
.plot-background{fill:rgb(250,250,255);fill-opacity:0.6;}
.bar{stroke:rgb(250,250,255);stroke-opacity:0.6;}

.regressionLine{
stroke: #bd2671;
}

.regressionLine{
}

.regressionLine{
stroke-width: 1.5px;
}

.spline{
stroke: #eba213;
}

.spline{
}

.spline{
stroke-width: 1.5px;
}

.axis-label.sublabel, .matrix-diagonal-label{
fill: #000000;
}

.axis-label.sublabel, .matrix-diagonal-label{
font-size: 12px;
}

line.theoretical, path.theoretical{
stroke: #000000;
}

.dot.theoretical{
fill: #000000;
}

line.theoretical, path.theoretical{
stroke-dasharray: 5,3;
}

line.theoretical, path.theoretical{
stroke-width: 1.5px;
}

.tick{
font-size: 10px;
}

.title{
fill: #000000;
}

.title{
font-size: 14px;
}

.axis-label-unit{
fill: #999;
}

.userGuide-dot{
fill: red;
}

.userGuide-line{
stroke: red;
}

.userGuide-dot{
r: 3;
}

.userGuide-line{
}

.userGuide-line{
stroke-width: 1px;
}

.brushed-out, .brushed-out.bar{
fill: #ccc !important;
}
.not-censObservations{display:none;}
.not-grid{display:none;}
.hasCensored,.__hasCensored{display:none;}
.hasIOV,.__hasIOV{display:none;}
.not-hasMean{display:none;}
.not-hasMode{display:none;}
.not-isIndivEstimMean{display:none;}
.legend,.__legend{display:none;}
.linkedZoom,.__linkedZoom{display:none;}
.not-observations{display:none;}
.splitted,.__splitted{display:none;}
.xEqualDomains,.__xEqualDomains{display:none;}
.xLog,.__xLog{display:none;}
.yEqualDomains,.__yEqualDomains{display:none;}
.yLog,.__yLog{display:none;}
.not-bottomAxisLine{display:none;}
.not-bottomAxisTickLabels{display:none;}
.not-leftAxisLine{display:none;}
.not-leftAxisTickLabels{display:none;}
.rightAxisLine,.__rightAxisLine{display:none;}
.not-rightAxisTickLabels{display:none;}
.topAxisLine,.__topAxisLine{display:none;}
.not-topAxisTickLabels{display:none;}
.freehand-guides-layer,.__freehand-guides-layer{display:none;}
</style><g class="lixoftchart-scaler"><g class="lixoftchart-translator" transform="translate(50,40)"><g class="x axis" transform="translate(0, 595)"><text class="x axis-label global" x="315" y="-10" style="text-anchor: middle;"><tspan class="axis-label-text"/><tspan class="axis-label-unit"/></text></g><g class="y axis"><text class="y axis-label global" transform="rotate(-90)" x="-297.5" y="-30" style="text-anchor: middle;"><tspan class="axis-label-text"/><tspan class="axis-label-unit"/></text></g><g class="page plot-page active" data-index="0"><g class="plot-container page-element" width="176.66666666666666" height="151.66666666666666" data-index="0" data-col="0" data-row="0" transform="translate(0,0)"><g class="subpage plot-page active" data-index="0"><g class="plot page-element" width="176.66666666666666" height="151.66666666666666" id="Cl" data-index="0" title="E(Cl|y)" transform="translate(0,0)"><rect width="176.66666666666666" height="151.66666666666666" class="plot-background"/><svg class="plot-content zoomable-content" width="176.66666666666666" height="151.66666666666666"><path class="convergence-line line autoscale" stroke="steelblue" d="M8.03030303030303,91.7791732433324L9.738878143133462,86.8572780410258L11.447453255963895,85.36260811345643L13.156028368794324,84.92695141670674L14.864603481624755,85.30645374584891L16.573178594455186,84.96627473033436L18.28175370728562,86.79876189865465L19.99032882011605,86.51895079252932L21.698903932946482,85.72639247043084L23.407479045776913,86.68820406379018L25.116054158607344,87.68329069710006L26.824629271437775,88.0051710677827L28.533204384268213,87.75621253965372L30.241779497098644,87.34451914767374L31.95035460992907,87.21248054166352L33.6589297227595,86.9172987382835L35.36750483558993,87.36108729962213L37.07607994842037,87.10061972198403L38.7846550612508,86.66607936460338L40.49323017408123,86.43144042291546L42.201805286911664,86.37940643131779L43.910380399742095,85.85226521607397L45.618955512572526,85.2198116520018L47.32753062540296,85.00036429994881L49.03610573823339,85.3145653991451L50.74468085106382,85.5020726563874L52.45325596389425,85.3477577072078L54.16183107672468,84.73724526896447L55.870406189555126,84.20636127888032L57.57898130238556,84.25764013058479L59.28755641521599,84.19554066541625L60.99613152804642,84.39176907141344L62.70470664087685,84.47883156536366L64.41328175370728,84.08190252311479L66.12185686653771,83.9119249105896L67.83043197936814,83.39849429055904L69.53900709219857,83.28058040594033L71.247582205029,82.55285041586222L72.95615731785944,82.31144269454003L74.66473243068987,81.82825800790857L76.3733075435203,81.56673400023756L78.08188265635073,80.7232814180717L79.79045776918116,80.13234380831193L81.4990328820116,79.63272300041407L83.20760799484204,78.88154875300992L84.91618310767247,78.63972704191086L86.6247582205029,78.352716490352L88.33333333333333,77.90156652979931L90.04190844616376,77.40403564002881L91.75048355899419,77.13025248741458L93.45905867182462,76.9443316921435L95.16763378465505,76.85572220229636L96.87620889748548,76.60464567508669L98.58478401031591,76.42184303038269L100.29335912314635,76.29843292157437L102.00193423597678,76.32157770744261L103.71050934880721,76.05839626045714L105.41908446163765,75.73323211036058L107.12765957446808,75.70343690918247L108.83623468729851,75.87269371131019L110.54480980012895,75.89894303100695L112.25338491295938,75.87839247070406L113.9619600257898,75.84050279851031L115.67053513862024,75.84385041272228L117.37911025145067,75.66413517795661L119.0876853642811,75.57089667643416L120.79626047711153,75.31187466639959L122.50483558994196,75.45006199089974L124.21341070277239,75.63953771254404L125.92198581560282,75.66351318980095L127.63056092843325,75.52866496018606L129.33913604126369,75.50303109793533L131.04771115409412,75.53233871482183L132.75628626692455,75.69853397477989L134.46486137975498,75.74590714577032L136.1734364925854,75.80668119182018L137.88201160541584,75.90322391209992L139.5905867182463,75.98173653444633L141.29916183107673,76.0639483280365L143.00773694390716,76.26695476662093L144.7163120567376,76.20901440767278L146.42488716956802,76.07028253361742L148.13346228239845,76.14801295254232L149.84203739522889,76.22566640970786L151.55061250805932,76.20382050545562L153.25918762088975,76.32211582151464L154.96776273372018,76.42249255120834L156.6763378465506,76.48000461752397L158.38491295938104,76.424184299334L160.09348807221147,76.450923393485L161.8020631850419,76.37055921062621L163.51063829787233,76.24015972430962L165.21921341070276,76.14373578717525L166.9277885235332,75.83333333333333" fill="none"/><line class="bound min segment autoscale bounded" x1="83.20760799484204" y1="138.5055096418733" x2="168.63636363636363" y2="138.5055096418733" fill="none"/><line class="bound max segment autoscale bounded" x1="83.20760799484204" y1="13.161157024793368" x2="168.63636363636363" y2="13.161157024793368" fill="none"/><g class="userGuides"/></svg><g class="axes"><g class="bottom axis bottomAxisLine" transform="translate(0,151.66666666666666)" fill="none" text-anchor="middle"><path class="domain" stroke="#000" d="M0.5,6V0.5H177.16666666666666V6" fill="none"/><g class="tick" opacity="1" transform="translate(8.53030303030303,0)"><line stroke="#000" y2="3" fill="none"/><text fill="#000" y="6" dy="0.71em" class="bottomAxisTickLabels transformed-label"><tspan class="label-block"><tspan class="label-subblock">0</tspan></tspan></text></g><g class="tick" opacity="1" transform="translate(42.701805286911664,0)"><line stroke="#000" y2="3" fill="none"/><text fill="#000" y="6" dy="0.71em" class="bottomAxisTickLabels transformed-label"><tspan class="label-block"><tspan class="label-subblock">20</tspan></tspan></text></g><g class="tick" opacity="1" transform="translate(76.8733075435203,0)"><line stroke="#000" y2="3" fill="none"/><text fill="#000" y="6" dy="0.71em" class="bottomAxisTickLabels transformed-label"><tspan class="label-block"><tspan class="label-subblock">40</tspan></tspan></text></g><g class="tick" opacity="1" transform="translate(111.04480980012895,0)"><line stroke="#000" y2="3" fill="none"/><text fill="#000" y="6" dy="0.71em" class="bottomAxisTickLabels transformed-label"><tspan class="label-block"><tspan class="label-subblock">60</tspan></tspan></text></g><g class="tick" opacity="1" transform="translate(145.2163120567376,0)"><line stroke="#000" y2="3" fill="none"/><text fill="#000" y="6" dy="0.71em" class="bottomAxisTickLabels transformed-label"><tspan class="label-block"><tspan class="label-subblock">80</tspan></tspan></text></g></g><g class="left axis leftAxisLine" fill="none" text-anchor="end"><path class="domain" stroke="#000" d="M-6,152.16666666666666H0.5V0.5H-6" fill="none"/><g class="tick" opacity="1" transform="translate(0,139.7005587435062)"><line stroke="#000" x2="-3" fill="none"/><text fill="#000" x="-6" dy="0.32em" class="leftAxisTickLabels transformed-label"><tspan class="label-block"><tspan class="label-subblock">10.2</tspan></tspan></text></g><g class="tick" opacity="1" transform="translate(0,91.78840527426232)"><line stroke="#000" x2="-3" fill="none"/><text fill="#000" x="-6" dy="0.32em" class="leftAxisTickLabels transformed-label"><tspan class="label-block"><tspan class="label-subblock">10.4</tspan></tspan></text></g><g class="tick" opacity="1" transform="translate(0,43.87625180501885)"><line stroke="#000" x2="-3" fill="none"/><text fill="#000" x="-6" dy="0.32em" class="leftAxisTickLabels transformed-label"><tspan class="label-block"><tspan class="label-subblock">10.6</tspan></tspan></text></g></g></g><g class="grid"><g class="vertical" transform="translate(0,151.66666666666666)" fill="none" font-size="10" font-family="sans-serif" text-anchor="middle"><g class="tick" opacity="1" transform="translate(8.53030303030303,0)"><line stroke="#000" y2="-151.66666666666666" fill="none"/></g><g class="tick" opacity="1" transform="translate(42.701805286911664,0)"><line stroke="#000" y2="-151.66666666666666" fill="none"/></g><g class="tick" opacity="1" transform="translate(76.8733075435203,0)"><line stroke="#000" y2="-151.66666666666666" fill="none"/></g><g class="tick" opacity="1" transform="translate(111.04480980012895,0)"><line stroke="#000" y2="-151.66666666666666" fill="none"/></g><g class="tick" opacity="1" transform="translate(145.2163120567376,0)"><line stroke="#000" y2="-151.66666666666666" fill="none"/></g></g><g class="horizontal" fill="none" font-size="10" font-family="sans-serif" text-anchor="end"><g class="tick" opacity="1" transform="translate(0,139.7005587435062)"><line stroke="#000" x2="176.66666666666666" fill="none"/></g><g class="tick" opacity="1" transform="translate(0,91.78840527426232)"><line stroke="#000" x2="176.66666666666666" fill="none"/></g><g class="tick" opacity="1" transform="translate(0,43.87625180501885)"><line stroke="#000" x2="176.66666666666666" fill="none"/></g></g></g><defs><clipPath id="Cl--freehand-guides-clip" class="freehand-guides-clip"><rect x="0" y="0" width="176.66666666666666" height="151.66666666666666"/></clipPath></defs></g></g><text x="88.33333333333333" y="-1em" class="title transformed-label" text-anchor="middle"><tspan class="label-block"><tspan class="label-subblock">E(Cl|y)</tspan></tspan></text></g><g class="plot-container page-element" width="176.66666666666666" height="151.66666666666666" data-index="1" data-col="1" data-row="0" transform="translate(226.66666666666666,0)"><g class="subpage plot-page active" data-index="0"><g class="plot page-element" width="176.66666666666666" height="151.66666666666666" id="V1" data-index="0" title="E(V1|y)" transform="translate(0,0)"><rect width="176.66666666666666" height="151.66666666666666" class="plot-background"/><svg class="plot-content zoomable-content" width="176.66666666666666" height="151.66666666666666"><path class="convergence-line line autoscale" stroke="steelblue" d="M8.03030303030303,56.80003253540502L9.738878143133462,54.501025098673836L11.447453255963895,57.473867974285085L13.156028368794324,50.669490951247724L14.864603481624755,46.896501158759406L16.573178594455186,50.96354461652693L18.28175370728562,54.24168046370026L19.99032882011605,55.14997437821344L21.698903932946482,52.041306423544654L23.407479045776913,56.682329495253825L25.116054158607344,61.394324602266224L26.824629271437775,63.83564862739945L28.533204384268213,65.44109947623107L30.241779497098644,63.63453834077755L31.95035460992907,62.685182865698195L33.6589297227595,64.42097475511068L35.36750483558993,67.2069299926689L37.07607994842037,70.01246214335568L38.7846550612508,70.62026595006687L40.49323017408123,70.84595872278737L42.201805286911664,71.91997804115292L43.910380399742095,72.94510796053231L45.618955512572526,74.2740143418516L47.32753062540296,75.47108094641902L49.03610573823339,78.50782925911318L50.74468085106382,81.51775550500408L52.45325596389425,83.40143740533672L54.16183107672468,82.40453100313782L55.870406189555126,81.55926705706543L57.57898130238556,82.50599789390965L59.28755641521599,83.23337627948851L60.99613152804642,84.04494292441495L62.70470664087685,83.9325217879657L64.41328175370728,83.61269652980606L66.12185686653771,83.23021037330139L67.83043197936814,82.34521085489473L69.53900709219857,83.20804214883411L71.247582205029,82.92183531354348L72.95615731785944,83.1774964232076L74.66473243068987,83.84377240363114L76.3733075435203,83.97874515489494L78.08188265635073,83.3325349506691L79.79045776918116,82.05141852617653L81.4990328820116,81.74467179352469L83.20760799484204,80.79527131511337L84.91618310767247,80.52904957022315L86.6247582205029,79.67207785411244L88.33333333333333,79.72446174989526L90.04190844616376,79.36954612973439L91.75048355899419,79.87493741184893L93.45905867182462,79.85673638739966L95.16763378465505,80.09429035614572L96.87620889748548,80.02109821069614L98.58478401031591,79.8406920224367L100.29335912314635,80.06600457545967L102.00193423597678,79.57533177743645L103.71050934880721,79.23145263441263L105.41908446163765,78.93855645593219L107.12765957446808,79.53245292797497L108.83623468729851,79.7372251515049L110.54480980012895,80.16328829594495L112.25338491295938,80.17615849505073L113.9619600257898,80.74517812646575L115.67053513862024,80.98947089138959L117.37911025145067,80.94054926268129L119.0876853642811,79.84386898222898L120.79626047711153,78.56440146029735L122.50483558994196,78.84795554182743L124.21341070277239,78.69829674190682L125.92198581560282,78.09238648306373L127.63056092843325,77.54050448206978L129.33913604126369,77.99949849748207L131.04771115409412,78.21301773911165L132.75628626692455,78.09404889976534L134.46486137975498,78.1410133166528L136.1734364925854,77.82390689775814L137.88201160541584,77.65198448783055L139.5905867182463,77.24125158962471L141.29916183107673,76.46658357208756L143.00773694390716,75.84829448351576L144.7163120567376,75.0545595223912L146.42488716956802,74.58222332829398L148.13346228239845,74.05869899453926L149.84203739522889,73.65548351084612L151.55061250805932,73.366678679729L153.25918762088975,73.0067647375098L154.96776273372018,73.06897096534182L156.6763378465506,73.16780767325268L158.38491295938104,73.18634597584888L160.09348807221147,73.77686446989226L161.8020631850419,74.2642159263677L163.51063829787233,75.15482246528649L165.21921341070276,75.71487382244969L166.9277885235332,75.83333333333333" fill="none"/><line class="bound min segment autoscale bounded" x1="83.20760799484204" y1="138.5055096418732" x2="168.63636363636363" y2="138.5055096418732" fill="none"/><line class="bound max segment autoscale bounded" x1="83.20760799484204" y1="13.161157024793454" x2="168.63636363636363" y2="13.161157024793454" fill="none"/><g class="userGuides"/></svg><g class="axes"><g class="bottom axis bottomAxisLine" transform="translate(0,151.66666666666666)" fill="none" text-anchor="middle"><path class="domain" stroke="#000" d="M0.5,6V0.5H177.16666666666666V6" fill="none"/><g class="tick" opacity="1" transform="translate(8.53030303030303,0)"><line stroke="#000" y2="3" fill="none"/><text fill="#000" y="6" dy="0.71em" class="bottomAxisTickLabels transformed-label"><tspan class="label-block"><tspan class="label-subblock">0</tspan></tspan></text></g><g class="tick" opacity="1" transform="translate(42.701805286911664,0)"><line stroke="#000" y2="3" fill="none"/><text fill="#000" y="6" dy="0.71em" class="bottomAxisTickLabels transformed-label"><tspan class="label-block"><tspan class="label-subblock">20</tspan></tspan></text></g><g class="tick" opacity="1" transform="translate(76.8733075435203,0)"><line stroke="#000" y2="3" fill="none"/><text fill="#000" y="6" dy="0.71em" class="bottomAxisTickLabels transformed-label"><tspan class="label-block"><tspan class="label-subblock">40</tspan></tspan></text></g><g class="tick" opacity="1" transform="translate(111.04480980012895,0)"><line stroke="#000" y2="3" fill="none"/><text fill="#000" y="6" dy="0.71em" class="bottomAxisTickLabels transformed-label"><tspan class="label-block"><tspan class="label-subblock">60</tspan></tspan></text></g><g class="tick" opacity="1" transform="translate(145.2163120567376,0)"><line stroke="#000" y2="3" fill="none"/><text fill="#000" y="6" dy="0.71em" class="bottomAxisTickLabels transformed-label"><tspan class="label-block"><tspan class="label-subblock">80</tspan></tspan></text></g></g><g class="left axis leftAxisLine" fill="none" text-anchor="end"><path class="domain" stroke="#000" d="M-6,152.16666666666666H0.5V0.5H-6" fill="none"/><g class="tick" opacity="1" transform="translate(0,120.95820612661264)"><line stroke="#000" x2="-3" fill="none"/><text fill="#000" x="-6" dy="0.32em" class="leftAxisTickLabels transformed-label"><tspan class="label-block"><tspan class="label-subblock">44</tspan></tspan></text></g><g class="tick" opacity="1" transform="translate(0,64.99770204596902)"><line stroke="#000" x2="-3" fill="none"/><text fill="#000" x="-6" dy="0.32em" class="leftAxisTickLabels transformed-label"><tspan class="label-block"><tspan class="label-subblock">45</tspan></tspan></text></g><g class="tick" opacity="1" transform="translate(0,9.037197965325419)"><line stroke="#000" x2="-3" fill="none"/><text fill="#000" x="-6" dy="0.32em" class="leftAxisTickLabels transformed-label"><tspan class="label-block"><tspan class="label-subblock">46</tspan></tspan></text></g></g></g><g class="grid"><g class="vertical" transform="translate(0,151.66666666666666)" fill="none" font-size="10" font-family="sans-serif" text-anchor="middle"><g class="tick" opacity="1" transform="translate(8.53030303030303,0)"><line stroke="#000" y2="-151.66666666666666" fill="none"/></g><g class="tick" opacity="1" transform="translate(42.701805286911664,0)"><line stroke="#000" y2="-151.66666666666666" fill="none"/></g><g class="tick" opacity="1" transform="translate(76.8733075435203,0)"><line stroke="#000" y2="-151.66666666666666" fill="none"/></g><g class="tick" opacity="1" transform="translate(111.04480980012895,0)"><line stroke="#000" y2="-151.66666666666666" fill="none"/></g><g class="tick" opacity="1" transform="translate(145.2163120567376,0)"><line stroke="#000" y2="-151.66666666666666" fill="none"/></g></g><g class="horizontal" fill="none" font-size="10" font-family="sans-serif" text-anchor="end"><g class="tick" opacity="1" transform="translate(0,120.95820612661264)"><line stroke="#000" x2="176.66666666666666" fill="none"/></g><g class="tick" opacity="1" transform="translate(0,64.99770204596902)"><line stroke="#000" x2="176.66666666666666" fill="none"/></g><g class="tick" opacity="1" transform="translate(0,9.037197965325419)"><line stroke="#000" x2="176.66666666666666" fill="none"/></g></g></g><defs><clipPath id="V1--freehand-guides-clip" class="freehand-guides-clip"><rect x="0" y="0" width="176.66666666666666" height="151.66666666666666"/></clipPath></defs></g></g><text x="88.33333333333333" y="-1em" class="title transformed-label" text-anchor="middle"><tspan class="label-block"><tspan class="label-subblock">E(V1|y)</tspan></tspan></text></g><g class="plot-container page-element" width="176.66666666666666" height="151.66666666666666" data-index="2" data-col="2" data-row="0" transform="translate(453.3333333333333,0)"><g class="subpage plot-page active" data-index="0"><g class="plot page-element" width="176.66666666666666" height="151.66666666666666" id="Q" data-index="0" title="E(Q|y)" transform="translate(0,0)"><rect width="176.66666666666666" height="151.66666666666666" class="plot-background"/><svg class="plot-content zoomable-content" width="176.66666666666666" height="151.66666666666666"><path class="convergence-line line autoscale" stroke="steelblue" d="M8.03030303030303,128.79881267565636L9.738878143133462,133.18747280432444L11.447453255963895,135.74064827149755L13.156028368794324,138.50550964187332L14.864603481624755,136.0455253777725L16.573178594455186,136.15726656961363L18.28175370728562,132.65793153545303L19.99032882011605,124.37474430598066L21.698903932946482,120.49652148695394L23.407479045776913,115.95195946698L25.116054158607344,112.42152773121373L26.824629271437775,111.71687766514718L28.533204384268213,109.10448866291597L30.241779497098644,104.98701494241999L31.95035460992907,102.14036715145558L33.6589297227595,96.89592236416593L35.36750483558993,93.37453127652381L37.07607994842037,88.35019763399046L38.7846550612508,84.29242049618466L40.49323017408123,81.22584322965523L42.201805286911664,79.42414416872869L43.910380399742095,71.1671018924573L45.618955512572526,64.98241730293655L47.32753062540296,62.59854519261704L49.03610573823339,60.18292446967466L50.74468085106382,57.41940381502877L52.45325596389425,55.16921815968426L54.16183107672468,55.019129618530755L55.870406189555126,55.02279352956248L57.57898130238556,54.46264416490982L59.28755641521599,51.59017035991597L60.99613152804642,49.866501296394034L62.70470664087685,48.76043415280492L64.41328175370728,49.05828382691453L66.12185686653771,50.77582246419415L67.83043197936814,52.20749357314557L69.53900709219857,52.498389736758284L71.247582205029,51.49883268599602L72.95615731785944,51.07963258451288L74.66473243068987,51.19054277980422L76.3733075435203,51.88946941570239L78.08188265635073,52.71621958348409L79.79045776918116,52.46658856504506L81.4990328820116,52.599835143160774L83.20760799484204,52.19367287873747L84.91618310767247,53.158555578684016L86.6247582205029,53.86944943865235L88.33333333333333,53.36365525362908L90.04190844616376,50.74597911528829L91.75048355899419,49.86740702194149L93.45905867182462,50.124444452402315L95.16763378465505,51.21880495559934L96.87620889748548,51.370953022537236L98.58478401031591,51.52043994374648L100.29335912314635,51.37063459859807L102.00193423597678,51.088174779942946L103.71050934880721,51.40508091592288L105.41908446163765,51.34215912491321L107.12765957446808,51.13632172185682L108.83623468729851,50.711822916140974L110.54480980012895,49.74046906623852L112.25338491295938,49.440845200208486L113.9619600257898,48.66089045608905L115.67053513862024,48.31634576476219L117.37911025145067,48.03194737232228L119.0876853642811,48.3736574000185L120.79626047711153,49.08143856853819L122.50483558994196,48.574698811452535L124.21341070277239,48.42150465756271L125.92198581560282,48.588206839648635L127.63056092843325,47.87106050076201L129.33913604126369,46.86040646569835L131.04771115409412,45.817144485307324L132.75628626692455,45.419981251679076L134.46486137975498,44.30243845603641L136.1734364925854,43.069948884214554L137.88201160541584,42.86749777181983L139.5905867182463,42.81278732955141L141.29916183107673,43.73218670951712L143.00773694390716,44.328945061025536L144.7163120567376,44.38369951586036L146.42488716956802,43.61538388060953L148.13346228239845,43.250058999520775L149.84203739522889,43.4727878771928L151.55061250805932,43.91394668148614L153.25918762088975,44.585326503191L154.96776273372018,44.70516949189134L156.6763378465506,43.94220509656547L158.38491295938104,43.2967965754971L160.09348807221147,42.43525454272492L161.8020631850419,41.62837419671739L163.51063829787233,40.23203637625096L165.21921341070276,38.97132084949202L166.9277885235332,37.87373840642151" fill="none"/><line class="bound min segment autoscale bounded" x1="83.20760799484204" y1="62.58631978804969" x2="168.63636363636363" y2="62.58631978804969" fill="none"/><line class="bound max segment autoscale bounded" x1="83.20760799484204" y1="13.16115702479334" x2="168.63636363636363" y2="13.16115702479334" fill="none"/><g class="userGuides"/></svg><g class="axes"><g class="bottom axis bottomAxisLine" transform="translate(0,151.66666666666666)" fill="none" text-anchor="middle"><path class="domain" stroke="#000" d="M0.5,6V0.5H177.16666666666666V6" fill="none"/><g class="tick" opacity="1" transform="translate(8.53030303030303,0)"><line stroke="#000" y2="3" fill="none"/><text fill="#000" y="6" dy="0.71em" class="bottomAxisTickLabels transformed-label"><tspan class="label-block"><tspan class="label-subblock">0</tspan></tspan></text></g><g class="tick" opacity="1" transform="translate(42.701805286911664,0)"><line stroke="#000" y2="3" fill="none"/><text fill="#000" y="6" dy="0.71em" class="bottomAxisTickLabels transformed-label"><tspan class="label-block"><tspan class="label-subblock">20</tspan></tspan></text></g><g class="tick" opacity="1" transform="translate(76.8733075435203,0)"><line stroke="#000" y2="3" fill="none"/><text fill="#000" y="6" dy="0.71em" class="bottomAxisTickLabels transformed-label"><tspan class="label-block"><tspan class="label-subblock">40</tspan></tspan></text></g><g class="tick" opacity="1" transform="translate(111.04480980012895,0)"><line stroke="#000" y2="3" fill="none"/><text fill="#000" y="6" dy="0.71em" class="bottomAxisTickLabels transformed-label"><tspan class="label-block"><tspan class="label-subblock">60</tspan></tspan></text></g><g class="tick" opacity="1" transform="translate(145.2163120567376,0)"><line stroke="#000" y2="3" fill="none"/><text fill="#000" y="6" dy="0.71em" class="bottomAxisTickLabels transformed-label"><tspan class="label-block"><tspan class="label-subblock">80</tspan></tspan></text></g></g><g class="left axis leftAxisLine" fill="none" text-anchor="end"><path class="domain" stroke="#000" d="M-6,152.16666666666666H0.5V0.5H-6" fill="none"/><g class="tick" opacity="1" transform="translate(0,152.06909376383814)"><line stroke="#000" x2="-3" fill="none"/><text fill="#000" x="-6" dy="0.32em" class="leftAxisTickLabels transformed-label"><tspan class="label-block"><tspan class="label-subblock">10.5</tspan></tspan></text></g><g class="tick" opacity="1" transform="translate(0,110.41157472061383)"><line stroke="#000" x2="-3" fill="none"/><text fill="#000" x="-6" dy="0.32em" class="leftAxisTickLabels transformed-label"><tspan class="label-block"><tspan class="label-subblock">11</tspan></tspan></text></g><g class="tick" opacity="1" transform="translate(0,68.75405567738952)"><line stroke="#000" x2="-3" fill="none"/><text fill="#000" x="-6" dy="0.32em" class="leftAxisTickLabels transformed-label"><tspan class="label-block"><tspan class="label-subblock">11.5</tspan></tspan></text></g><g class="tick" opacity="1" transform="translate(0,27.096536634165204)"><line stroke="#000" x2="-3" fill="none"/><text fill="#000" x="-6" dy="0.32em" class="leftAxisTickLabels transformed-label"><tspan class="label-block"><tspan class="label-subblock">12</tspan></tspan></text></g></g></g><g class="grid"><g class="vertical" transform="translate(0,151.66666666666666)" fill="none" font-size="10" font-family="sans-serif" text-anchor="middle"><g class="tick" opacity="1" transform="translate(8.53030303030303,0)"><line stroke="#000" y2="-151.66666666666666" fill="none"/></g><g class="tick" opacity="1" transform="translate(42.701805286911664,0)"><line stroke="#000" y2="-151.66666666666666" fill="none"/></g><g class="tick" opacity="1" transform="translate(76.8733075435203,0)"><line stroke="#000" y2="-151.66666666666666" fill="none"/></g><g class="tick" opacity="1" transform="translate(111.04480980012895,0)"><line stroke="#000" y2="-151.66666666666666" fill="none"/></g><g class="tick" opacity="1" transform="translate(145.2163120567376,0)"><line stroke="#000" y2="-151.66666666666666" fill="none"/></g></g><g class="horizontal" fill="none" font-size="10" font-family="sans-serif" text-anchor="end"><g class="tick" opacity="1" transform="translate(0,152.06909376383814)"><line stroke="#000" x2="176.66666666666666" fill="none"/></g><g class="tick" opacity="1" transform="translate(0,110.41157472061383)"><line stroke="#000" x2="176.66666666666666" fill="none"/></g><g class="tick" opacity="1" transform="translate(0,68.75405567738952)"><line stroke="#000" x2="176.66666666666666" fill="none"/></g><g class="tick" opacity="1" transform="translate(0,27.096536634165204)"><line stroke="#000" x2="176.66666666666666" fill="none"/></g></g></g><defs><clipPath id="Q--freehand-guides-clip" class="freehand-guides-clip"><rect x="0" y="0" width="176.66666666666666" height="151.66666666666666"/></clipPath></defs></g></g><text x="88.33333333333333" y="-1em" class="title transformed-label" text-anchor="middle"><tspan class="label-block"><tspan class="label-subblock">E(Q|y)</tspan></tspan></text></g><g class="plot-container page-element" width="176.66666666666666" height="151.66666666666666" data-index="3" data-col="0" data-row="1" transform="translate(0,201.66666666666666)"><g class="subpage plot-page active" data-index="0"><g class="plot page-element" width="176.66666666666666" height="151.66666666666666" id="V2" data-index="0" title="E(V2|y)" transform="translate(0,0)"><rect width="176.66666666666666" height="151.66666666666666" class="plot-background"/><svg class="plot-content zoomable-content" width="176.66666666666666" height="151.66666666666666"><path class="convergence-line line autoscale" stroke="steelblue" d="M8.03030303030303,71.28956853552025L9.738878143133462,71.42758444244097L11.447453255963895,49.37566287554746L13.156028368794324,47.53354741005465L14.864603481624755,48.175331997210776L16.573178594455186,51.6307914739095L18.28175370728562,47.69558360129518L19.99032882011605,36.96850843819972L21.698903932946482,34.43089893851841L23.407479045776913,25.254367784048526L25.116054158607344,17.730439938833655L26.824629271437775,13.161157024793425L28.533204384268213,18.823404258220137L30.241779497098644,19.369121882900572L31.95035460992907,23.90563742032076L33.6589297227595,20.56624596601344L35.36750483558993,19.104751430366406L37.07607994842037,25.723776734424206L38.7846550612508,29.715858360694796L40.49323017408123,23.13427699975864L42.201805286911664,27.375097227920023L43.910380399742095,30.147645371698772L45.618955512572526,35.79780847969563L47.32753062540296,37.969790810682824L49.03610573823339,41.855440885255035L50.74468085106382,41.442577570737896L52.45325596389425,41.20955157528999L54.16183107672468,40.41695684616303L55.870406189555126,36.49506777141433L57.57898130238556,36.33624652214357L59.28755641521599,34.56216177506812L60.99613152804642,30.977421403241024L62.70470664087685,30.74389226622327L64.41328175370728,35.83532673154269L66.12185686653771,38.78450027206944L67.83043197936814,40.02902314080495L69.53900709219857,41.19431075905645L71.247582205029,43.75420374295675L72.95615731785944,48.56537658333852L74.66473243068987,51.278956249131525L76.3733075435203,53.58898960257231L78.08188265635073,57.216651951344886L79.79045776918116,60.088479688553505L81.4990328820116,64.45318087928254L83.20760799484204,68.2513019432165L84.91618310767247,69.91089389538477L86.6247582205029,71.28180921461859L88.33333333333333,73.79778442851806L90.04190844616376,75.74008989796512L91.75048355899419,79.16433535064948L93.45905867182462,83.38680651807272L95.16763378465505,84.29741947877363L96.87620889748548,85.24489251409456L98.58478401031591,87.7929453272377L100.29335912314635,92.26760893839621L102.00193423597678,94.90064852008925L103.71050934880721,97.63449345193654L105.41908446163765,100.60281451304701L107.12765957446808,104.13391279374389L108.83623468729851,107.04386173989306L110.54480980012895,108.32469488094185L112.25338491295938,110.2192742151802L113.9619600257898,110.74418203567811L115.67053513862024,110.29084444981356L117.37911025145067,108.76618268060021L119.0876853642811,107.64122550879006L120.79626047711153,107.07352346058829L122.50483558994196,106.69311754768198L124.21341070277239,107.32870815523624L125.92198581560282,106.73853912818586L127.63056092843325,106.26702649515279L129.33913604126369,105.12846750769589L131.04771115409412,104.10756964984716L132.75628626692455,104.37421565716923L134.46486137975498,104.59747585214483L136.1734364925854,103.53087539064998L137.88201160541584,102.1643341973643L139.5905867182463,100.09863776804845L141.29916183107673,98.28947581664073L143.00773694390716,96.78515808191945L144.7163120567376,94.71181941659665L146.42488716956802,93.42833169250395L148.13346228239845,93.23679523489695L149.84203739522889,92.38064845454437L151.55061250805932,90.5467778976952L153.25918762088975,90.51736321500483L154.96776273372018,89.1759000951694L156.6763378465506,89.16992172863935L158.38491295938104,89.84285022154856L160.09348807221147,90.78476496690904L161.8020631850419,91.23944696748619L163.51063829787233,92.18081063825275L165.21921341070276,92.52308262591335L166.9277885235332,92.77833739457212" fill="none"/><line class="bound min segment autoscale bounded" x1="83.20760799484204" y1="138.50550964187323" x2="168.63636363636363" y2="138.50550964187323" fill="none"/><line class="bound max segment autoscale bounded" x1="83.20760799484204" y1="47.05116514727101" x2="168.63636363636363" y2="47.05116514727101" fill="none"/><g class="userGuides"/></svg><g class="axes"><g class="bottom axis bottomAxisLine" transform="translate(0,151.66666666666666)" fill="none" text-anchor="middle"><path class="domain" stroke="#000" d="M0.5,6V0.5H177.16666666666666V6" fill="none"/><g class="tick" opacity="1" transform="translate(8.53030303030303,0)"><line stroke="#000" y2="3" fill="none"/><text fill="#000" y="6" dy="0.71em" class="bottomAxisTickLabels transformed-label"><tspan class="label-block"><tspan class="label-subblock">0</tspan></tspan></text></g><g class="tick" opacity="1" transform="translate(42.701805286911664,0)"><line stroke="#000" y2="3" fill="none"/><text fill="#000" y="6" dy="0.71em" class="bottomAxisTickLabels transformed-label"><tspan class="label-block"><tspan class="label-subblock">20</tspan></tspan></text></g><g class="tick" opacity="1" transform="translate(76.8733075435203,0)"><line stroke="#000" y2="3" fill="none"/><text fill="#000" y="6" dy="0.71em" class="bottomAxisTickLabels transformed-label"><tspan class="label-block"><tspan class="label-subblock">40</tspan></tspan></text></g><g class="tick" opacity="1" transform="translate(111.04480980012895,0)"><line stroke="#000" y2="3" fill="none"/><text fill="#000" y="6" dy="0.71em" class="bottomAxisTickLabels transformed-label"><tspan class="label-block"><tspan class="label-subblock">60</tspan></tspan></text></g><g class="tick" opacity="1" transform="translate(145.2163120567376,0)"><line stroke="#000" y2="3" fill="none"/><text fill="#000" y="6" dy="0.71em" class="bottomAxisTickLabels transformed-label"><tspan class="label-block"><tspan class="label-subblock">80</tspan></tspan></text></g></g><g class="left axis leftAxisLine" fill="none" text-anchor="end"><path class="domain" stroke="#000" d="M-6,152.16666666666666H0.5V0.5H-6" fill="none"/><g class="tick" opacity="1" transform="translate(0,127.0617374806234)"><line stroke="#000" x2="-3" fill="none"/><text fill="#000" x="-6" dy="0.32em" class="leftAxisTickLabels transformed-label"><tspan class="label-block"><tspan class="label-subblock">68</tspan></tspan></text></g><g class="tick" opacity="1" transform="translate(0,74.25869366279989)"><line stroke="#000" x2="-3" fill="none"/><text fill="#000" x="-6" dy="0.32em" class="leftAxisTickLabels transformed-label"><tspan class="label-block"><tspan class="label-subblock">70</tspan></tspan></text></g><g class="tick" opacity="1" transform="translate(0,21.455649844976364)"><line stroke="#000" x2="-3" fill="none"/><text fill="#000" x="-6" dy="0.32em" class="leftAxisTickLabels transformed-label"><tspan class="label-block"><tspan class="label-subblock">72</tspan></tspan></text></g></g></g><g class="grid"><g class="vertical" transform="translate(0,151.66666666666666)" fill="none" font-size="10" font-family="sans-serif" text-anchor="middle"><g class="tick" opacity="1" transform="translate(8.53030303030303,0)"><line stroke="#000" y2="-151.66666666666666" fill="none"/></g><g class="tick" opacity="1" transform="translate(42.701805286911664,0)"><line stroke="#000" y2="-151.66666666666666" fill="none"/></g><g class="tick" opacity="1" transform="translate(76.8733075435203,0)"><line stroke="#000" y2="-151.66666666666666" fill="none"/></g><g class="tick" opacity="1" transform="translate(111.04480980012895,0)"><line stroke="#000" y2="-151.66666666666666" fill="none"/></g><g class="tick" opacity="1" transform="translate(145.2163120567376,0)"><line stroke="#000" y2="-151.66666666666666" fill="none"/></g></g><g class="horizontal" fill="none" font-size="10" font-family="sans-serif" text-anchor="end"><g class="tick" opacity="1" transform="translate(0,127.0617374806234)"><line stroke="#000" x2="176.66666666666666" fill="none"/></g><g class="tick" opacity="1" transform="translate(0,74.25869366279989)"><line stroke="#000" x2="176.66666666666666" fill="none"/></g><g class="tick" opacity="1" transform="translate(0,21.455649844976364)"><line stroke="#000" x2="176.66666666666666" fill="none"/></g></g></g><defs><clipPath id="V2--freehand-guides-clip" class="freehand-guides-clip"><rect x="0" y="0" width="176.66666666666666" height="151.66666666666666"/></clipPath></defs></g></g><text x="88.33333333333333" y="-1em" class="title transformed-label" text-anchor="middle"><tspan class="label-block"><tspan class="label-subblock">E(V2|y)</tspan></tspan></text></g><g class="plot-container page-element" width="176.66666666666666" height="151.66666666666666" data-index="4" data-col="1" data-row="1" transform="translate(226.66666666666666,201.66666666666666)"><g class="subpage plot-page active" data-index="0"><g class="plot page-element" width="176.66666666666666" height="151.66666666666666" id="Cl_sd" data-index="0" title="sd(Cl|y)" transform="translate(0,0)"><rect width="176.66666666666666" height="151.66666666666666" class="plot-background"/><svg class="plot-content zoomable-content" width="176.66666666666666" height="151.66666666666666"><path class="convergence-line line autoscale" stroke="steelblue" d="M8.03030303030303,13.161157024793397L9.738878143133462,59.60236365922546L11.447453255963895,95.86515687842314L13.156028368794324,111.45182703544401L14.864603481624755,120.41672903501247L16.573178594455186,130.67533891901144L18.28175370728562,122.38586501698423L19.99032882011605,123.82993615683989L21.698903932946482,120.70926214363274L23.407479045776913,119.86353403594401L25.116054158607344,121.19168758352288L26.824629271437775,126.41622666416619L28.533204384268213,130.22978210403525L30.241779497098644,128.88587014270416L31.95035460992907,125.81415445617117L33.6589297227595,122.09284395891011L35.36750483558993,121.23758242040509L37.07607994842037,118.4562378959746L38.7846550612508,115.76730277046369L40.49323017408123,113.72158154279114L42.201805286911664,113.2443677447314L43.910380399742095,115.18632227968315L45.618955512572526,116.10757315847619L47.32753062540296,116.11307211839025L49.03610573823339,111.57943670651125L50.74468085106382,109.18289719610641L52.45325596389425,107.5489820096334L54.16183107672468,110.55021879870901L55.870406189555126,108.953908603855L57.57898130238556,107.41120796748666L59.28755641521599,105.16106110525925L60.99613152804642,103.7525925962486L62.70470664087685,101.18096319659813L64.41328175370728,100.9725544381166L66.12185686653771,102.29185487506703L67.83043197936814,104.79478671114094L69.53900709219857,107.47826509000524L71.247582205029,110.60486234380761L72.95615731785944,113.4047506622959L74.66473243068987,115.8988906724784L76.3733075435203,117.48941575493808L78.08188265635073,118.07256292685128L79.79045776918116,118.58004571958168L81.4990328820116,120.00469757842473L83.20760799484204,121.90198897270628L84.91618310767247,124.66967413279235L86.6247582205029,125.95303649513L88.33333333333333,126.89599215373734L90.04190844616376,128.05201913729604L91.75048355899419,130.09369645509355L93.45905867182462,131.70627541170424L95.16763378465505,132.9236261267428L96.87620889748548,132.40560555458694L98.58478401031591,132.92254263765716L100.29335912314635,135.0172184932028L102.00193423597678,136.94904834720987L103.71050934880721,138.0203223246656L105.41908446163765,136.922996537921L107.12765957446808,136.89483471256196L108.83623468729851,137.29878309590958L110.54480980012895,137.27570338644293L112.25338491295938,137.10586532773615L113.9619600257898,136.6801503018995L115.67053513862024,136.8495438315675L117.37911025145067,137.06599230336883L119.0876853642811,138.25619637203707L120.79626047711153,137.4437416344712L122.50483558994196,135.67010606024175L124.21341070277239,133.35976618705564L125.92198581560282,130.79713548900625L127.63056092843325,130.29601857627134L129.33913604126369,129.81100711670723L131.04771115409412,129.3767352797979L132.75628626692455,128.81040157218808L134.46486137975498,128.85867295475194L136.1734364925854,129.1984185408763L137.88201160541584,129.1060041314407L139.5905867182463,128.86521004439618L141.29916183107673,129.17351265053355L143.00773694390716,129.43277104581009L144.7163120567376,129.95697892507278L146.42488716956802,130.1723565758091L148.13346228239845,130.3839567753255L149.84203739522889,130.72716950188888L151.55061250805932,131.27474540846598L153.25918762088975,131.0088541049157L154.96776273372018,130.14179083890065L156.6763378465506,128.58059944907703L158.38491295938104,126.22373087067507L160.09348807221147,124.48652645064362L161.8020631850419,124.27832762989681L163.51063829787233,124.41794477378971L165.21921341070276,124.57265169759138L166.9277885235332,123.4482420668374" fill="none"/><line class="bound min segment autoscale bounded" x1="83.20760799484204" y1="138.50550964187326" x2="168.63636363636363" y2="138.50550964187326" fill="none"/><line class="bound max segment autoscale bounded" x1="83.20760799484204" y1="108.39097449180153" x2="168.63636363636363" y2="108.39097449180153" fill="none"/><g class="userGuides"/></svg><g class="axes"><g class="bottom axis bottomAxisLine" transform="translate(0,151.66666666666666)" fill="none" text-anchor="middle"><path class="domain" stroke="#000" d="M0.5,6V0.5H177.16666666666666V6" fill="none"/><g class="tick" opacity="1" transform="translate(8.53030303030303,0)"><line stroke="#000" y2="3" fill="none"/><text fill="#000" y="6" dy="0.71em" class="bottomAxisTickLabels transformed-label"><tspan class="label-block"><tspan class="label-subblock">0</tspan></tspan></text></g><g class="tick" opacity="1" transform="translate(42.701805286911664,0)"><line stroke="#000" y2="3" fill="none"/><text fill="#000" y="6" dy="0.71em" class="bottomAxisTickLabels transformed-label"><tspan class="label-block"><tspan class="label-subblock">20</tspan></tspan></text></g><g class="tick" opacity="1" transform="translate(76.8733075435203,0)"><line stroke="#000" y2="3" fill="none"/><text fill="#000" y="6" dy="0.71em" class="bottomAxisTickLabels transformed-label"><tspan class="label-block"><tspan class="label-subblock">40</tspan></tspan></text></g><g class="tick" opacity="1" transform="translate(111.04480980012895,0)"><line stroke="#000" y2="3" fill="none"/><text fill="#000" y="6" dy="0.71em" class="bottomAxisTickLabels transformed-label"><tspan class="label-block"><tspan class="label-subblock">60</tspan></tspan></text></g><g class="tick" opacity="1" transform="translate(145.2163120567376,0)"><line stroke="#000" y2="3" fill="none"/><text fill="#000" y="6" dy="0.71em" class="bottomAxisTickLabels transformed-label"><tspan class="label-block"><tspan class="label-subblock">80</tspan></tspan></text></g></g><g class="left axis leftAxisLine" fill="none" text-anchor="end"><path class="domain" stroke="#000" d="M-6,152.16666666666666H0.5V0.5H-6" fill="none"/><g class="tick" opacity="1" transform="translate(0,143.4412807278453)"><line stroke="#000" x2="-3" fill="none"/><text fill="#000" x="-6" dy="0.32em" class="leftAxisTickLabels transformed-label"><tspan class="label-block"><tspan class="label-subblock">0.04</tspan></tspan></text></g><g class="tick" opacity="1" transform="translate(0,70.59157268529229)"><line stroke="#000" x2="-3" fill="none"/><text fill="#000" x="-6" dy="0.32em" class="leftAxisTickLabels transformed-label"><tspan class="label-block"><tspan class="label-subblock">0.045</tspan></tspan></text></g></g></g><g class="grid"><g class="vertical" transform="translate(0,151.66666666666666)" fill="none" font-size="10" font-family="sans-serif" text-anchor="middle"><g class="tick" opacity="1" transform="translate(8.53030303030303,0)"><line stroke="#000" y2="-151.66666666666666" fill="none"/></g><g class="tick" opacity="1" transform="translate(42.701805286911664,0)"><line stroke="#000" y2="-151.66666666666666" fill="none"/></g><g class="tick" opacity="1" transform="translate(76.8733075435203,0)"><line stroke="#000" y2="-151.66666666666666" fill="none"/></g><g class="tick" opacity="1" transform="translate(111.04480980012895,0)"><line stroke="#000" y2="-151.66666666666666" fill="none"/></g><g class="tick" opacity="1" transform="translate(145.2163120567376,0)"><line stroke="#000" y2="-151.66666666666666" fill="none"/></g></g><g class="horizontal" fill="none" font-size="10" font-family="sans-serif" text-anchor="end"><g class="tick" opacity="1" transform="translate(0,143.4412807278453)"><line stroke="#000" x2="176.66666666666666" fill="none"/></g><g class="tick" opacity="1" transform="translate(0,70.59157268529229)"><line stroke="#000" x2="176.66666666666666" fill="none"/></g></g></g><defs><clipPath id="Cl_sd--freehand-guides-clip" class="freehand-guides-clip"><rect x="0" y="0" width="176.66666666666666" height="151.66666666666666"/></clipPath></defs></g></g><text x="88.33333333333333" y="-1em" class="title transformed-label" text-anchor="middle"><tspan class="label-block"><tspan class="label-subblock">sd(Cl|y)</tspan></tspan></text></g><g class="plot-container page-element" width="176.66666666666666" height="151.66666666666666" data-index="5" data-col="2" data-row="1" transform="translate(453.3333333333333,201.66666666666666)"><g class="subpage plot-page active" data-index="0"><g class="plot page-element" width="176.66666666666666" height="151.66666666666666" id="V1_sd" data-index="0" title="sd(V1|y)" transform="translate(0,0)"><rect width="176.66666666666666" height="151.66666666666666" class="plot-background"/><svg class="plot-content zoomable-content" width="176.66666666666666" height="151.66666666666666"><path class="convergence-line line autoscale" stroke="steelblue" d="M8.03030303030303,13.161157024793454L9.738878143133462,103.16948348596917L11.447453255963895,131.74537225773787L13.156028368794324,138.50550964187326L14.864603481624755,128.66275494827835L16.573178594455186,130.41199014477095L18.28175370728562,130.2685928112615L19.99032882011605,118.68750123202172L21.698903932946482,110.25686821230327L23.407479045776913,117.52687113562334L25.116054158607344,123.92676669767172L26.824629271437775,126.78905760629438L28.533204384268213,127.41075871350117L30.241779497098644,129.0616039837269L31.95035460992907,129.406273147751L33.6589297227595,128.03592256151686L35.36750483558993,123.65988842444992L37.07607994842037,123.88122111943066L38.7846550612508,125.20781066247957L40.49323017408123,123.06111568022257L42.201805286911664,121.21381248161079L43.910380399742095,121.3830837304591L45.618955512572526,122.53323810126169L47.32753062540296,122.95783580475248L49.03610573823339,122.40275165767562L50.74468085106382,122.09752728697244L52.45325596389425,123.25784303295836L54.16183107672468,124.20593272491206L55.870406189555126,124.08728677625574L57.57898130238556,123.18212171746238L59.28755641521599,122.59258712831924L60.99613152804642,118.70880278859065L62.70470664087685,118.25006178368145L64.41328175370728,116.97156140631284L66.12185686653771,117.16386478438585L67.83043197936814,118.05989607408975L69.53900709219857,119.91236373894435L71.247582205029,116.91276622907786L72.95615731785944,115.45841336320895L74.66473243068987,113.8955308606993L76.3733075435203,112.96213585882153L78.08188265635073,113.46174788558051L79.79045776918116,113.21939338201075L81.4990328820116,112.72195426183437L83.20760799484204,112.546642890622L84.91618310767247,111.74833077807078L86.6247582205029,110.85893187963055L88.33333333333333,109.23730253629242L90.04190844616376,108.13286288808646L91.75048355899419,108.47995263926786L93.45905867182462,108.3112402174817L95.16763378465505,108.05118170146825L96.87620889748548,108.1570017759202L98.58478401031591,108.7540176765185L100.29335912314635,107.97964068761713L102.00193423597678,107.50946005649547L103.71050934880721,107.5670618129189L105.41908446163765,107.99082033204354L107.12765957446808,108.40619807750565L108.83623468729851,108.28653308399072L110.54480980012895,108.06076823082606L112.25338491295938,107.73601695991941L113.9619600257898,108.46983905930978L115.67053513862024,109.91011722154119L117.37911025145067,109.6771017734624L119.0876853642811,109.13986173973711L120.79626047711153,109.56479254609653L122.50483558994196,110.40498077850519L124.21341070277239,109.76726723960331L125.92198581560282,109.75960120590193L127.63056092843325,108.81351684786446L129.33913604126369,108.78393909582226L131.04771115409412,108.32618608311252L132.75628626692455,106.36593924639615L134.46486137975498,104.97681946689107L136.1734364925854,104.55343159276832L137.88201160541584,102.03639570765611L139.5905867182463,101.44164628632042L141.29916183107673,102.01545066893678L143.00773694390716,102.08511067618133L144.7163120567376,102.50856666236228L146.42488716956802,102.45078879259302L148.13346228239845,102.41456189662094L149.84203739522889,103.46938052341534L151.55061250805932,103.12907317156727L153.25918762088975,104.13575214801178L154.96776273372018,104.83368315849427L156.6763378465506,105.2036631062585L158.38491295938104,105.38579640429441L160.09348807221147,105.18615079202466L161.8020631850419,105.39363886167051L163.51063829787233,105.16324570552257L165.21921341070276,104.32975977378845L166.9277885235332,103.42914935557246" fill="none"/><line class="bound min segment autoscale bounded" x1="83.20760799484204" y1="116.07939382405668" x2="168.63636363636363" y2="116.07939382405668" fill="none"/><line class="bound max segment autoscale bounded" x1="83.20760799484204" y1="90.77890488708823" x2="168.63636363636363" y2="90.77890488708823" fill="none"/><g class="userGuides"/></svg><g class="axes"><g class="bottom axis bottomAxisLine" transform="translate(0,151.66666666666666)" fill="none" text-anchor="middle"><path class="domain" stroke="#000" d="M0.5,6V0.5H177.16666666666666V6" fill="none"/><g class="tick" opacity="1" transform="translate(8.53030303030303,0)"><line stroke="#000" y2="3" fill="none"/><text fill="#000" y="6" dy="0.71em" class="bottomAxisTickLabels transformed-label"><tspan class="label-block"><tspan class="label-subblock">0</tspan></tspan></text></g><g class="tick" opacity="1" transform="translate(42.701805286911664,0)"><line stroke="#000" y2="3" fill="none"/><text fill="#000" y="6" dy="0.71em" class="bottomAxisTickLabels transformed-label"><tspan class="label-block"><tspan class="label-subblock">20</tspan></tspan></text></g><g class="tick" opacity="1" transform="translate(76.8733075435203,0)"><line stroke="#000" y2="3" fill="none"/><text fill="#000" y="6" dy="0.71em" class="bottomAxisTickLabels transformed-label"><tspan class="label-block"><tspan class="label-subblock">40</tspan></tspan></text></g><g class="tick" opacity="1" transform="translate(111.04480980012895,0)"><line stroke="#000" y2="3" fill="none"/><text fill="#000" y="6" dy="0.71em" class="bottomAxisTickLabels transformed-label"><tspan class="label-block"><tspan class="label-subblock">60</tspan></tspan></text></g><g class="tick" opacity="1" transform="translate(145.2163120567376,0)"><line stroke="#000" y2="3" fill="none"/><text fill="#000" y="6" dy="0.71em" class="bottomAxisTickLabels transformed-label"><tspan class="label-block"><tspan class="label-subblock">80</tspan></tspan></text></g></g><g class="left axis leftAxisLine" fill="none" text-anchor="end"><path class="domain" stroke="#000" d="M-6,152.16666666666666H0.5V0.5H-6" fill="none"/><g class="tick" opacity="1" transform="translate(0,125.61721235793257)"><line stroke="#000" x2="-3" fill="none"/><text fill="#000" x="-6" dy="0.32em" class="leftAxisTickLabels transformed-label"><tspan class="label-block"><tspan class="label-subblock">0.11</tspan></tspan></text></g><g class="tick" opacity="1" transform="translate(0,81.58796547274991)"><line stroke="#000" x2="-3" fill="none"/><text fill="#000" x="-6" dy="0.32em" class="leftAxisTickLabels transformed-label"><tspan class="label-block"><tspan class="label-subblock">0.12</tspan></tspan></text></g><g class="tick" opacity="1" transform="translate(0,37.5587185875672)"><line stroke="#000" x2="-3" fill="none"/><text fill="#000" x="-6" dy="0.32em" class="leftAxisTickLabels transformed-label"><tspan class="label-block"><tspan class="label-subblock">0.13</tspan></tspan></text></g></g></g><g class="grid"><g class="vertical" transform="translate(0,151.66666666666666)" fill="none" font-size="10" font-family="sans-serif" text-anchor="middle"><g class="tick" opacity="1" transform="translate(8.53030303030303,0)"><line stroke="#000" y2="-151.66666666666666" fill="none"/></g><g class="tick" opacity="1" transform="translate(42.701805286911664,0)"><line stroke="#000" y2="-151.66666666666666" fill="none"/></g><g class="tick" opacity="1" transform="translate(76.8733075435203,0)"><line stroke="#000" y2="-151.66666666666666" fill="none"/></g><g class="tick" opacity="1" transform="translate(111.04480980012895,0)"><line stroke="#000" y2="-151.66666666666666" fill="none"/></g><g class="tick" opacity="1" transform="translate(145.2163120567376,0)"><line stroke="#000" y2="-151.66666666666666" fill="none"/></g></g><g class="horizontal" fill="none" font-size="10" font-family="sans-serif" text-anchor="end"><g class="tick" opacity="1" transform="translate(0,125.61721235793257)"><line stroke="#000" x2="176.66666666666666" fill="none"/></g><g class="tick" opacity="1" transform="translate(0,81.58796547274991)"><line stroke="#000" x2="176.66666666666666" fill="none"/></g><g class="tick" opacity="1" transform="translate(0,37.5587185875672)"><line stroke="#000" x2="176.66666666666666" fill="none"/></g></g></g><defs><clipPath id="V1_sd--freehand-guides-clip" class="freehand-guides-clip"><rect x="0" y="0" width="176.66666666666666" height="151.66666666666666"/></clipPath></defs></g></g><text x="88.33333333333333" y="-1em" class="title transformed-label" text-anchor="middle"><tspan class="label-block"><tspan class="label-subblock">sd(V1|y)</tspan></tspan></text></g><g class="plot-container page-element" width="176.66666666666666" height="151.66666666666666" data-index="6" data-col="0" data-row="2" transform="translate(0,403.3333333333333)"><g class="subpage plot-page active" data-index="0"><g class="plot page-element" width="176.66666666666666" height="151.66666666666666" id="Q_sd" data-index="0" title="sd(Q|y)" transform="translate(0,0)"><rect width="176.66666666666666" height="151.66666666666666" class="plot-background"/><svg class="plot-content zoomable-content" width="176.66666666666666" height="151.66666666666666"><path class="convergence-line line autoscale" stroke="steelblue" d="M8.03030303030303,13.161157024793368L9.738878143133462,74.44183841632297L11.447453255963895,104.87434442212938L13.156028368794324,113.36803172098023L14.864603481624755,111.12281264032615L16.573178594455186,118.57802178747755L18.28175370728562,128.74625415141278L19.99032882011605,128.69020022908757L21.698903932946482,132.38806815398632L23.407479045776913,129.07684924354942L25.116054158607344,131.0371135962144L26.824629271437775,134.50372315426574L28.533204384268213,136.3962411503571L30.241779497098644,138.5055096418733L31.95035460992907,133.74191806276505L33.6589297227595,127.67000876937931L35.36750483558993,123.5182883854554L37.07607994842037,118.70578824832543L38.7846550612508,113.20032664827991L40.49323017408123,106.40856520778767L42.201805286911664,101.99547077155127L43.910380399742095,94.23411518920469L45.618955512572526,89.63310630460565L47.32753062540296,87.60008157384372L49.03610573823339,88.04678243490581L50.74468085106382,89.20154609755366L52.45325596389425,90.35863469800026L54.16183107672468,93.46565809678432L55.870406189555126,93.83971078990822L57.57898130238556,93.6307739958387L59.28755641521599,89.17759859368385L60.99613152804642,85.20607319444562L62.70470664087685,83.10568487335455L64.41328175370728,81.32616811203899L66.12185686653771,81.13961099742046L67.83043197936814,83.07669799626726L69.53900709219857,84.61200036829536L71.247582205029,84.46219935634137L72.95615731785944,82.89415944148804L74.66473243068987,83.01327982250505L76.3733075435203,84.09067620689021L78.08188265635073,85.08087695287804L79.79045776918116,85.43973102073507L81.4990328820116,86.23762138053259L83.20760799484204,86.81940026526134L84.91618310767247,87.70921495766746L86.6247582205029,87.67485389734719L88.33333333333333,86.99668408749777L90.04190844616376,85.8390911029299L91.75048355899419,85.49528724290792L93.45905867182462,85.81497708778267L95.16763378465505,85.80292915461104L96.87620889748548,85.69709256185835L98.58478401031591,86.61616656838639L100.29335912314635,86.62749350735785L102.00193423597678,86.31101951503203L103.71050934880721,86.82691819014258L105.41908446163765,86.6903478765211L107.12765957446808,86.49736598505663L108.83623468729851,86.51481966780419L110.54480980012895,85.66590134127576L112.25338491295938,84.91964161608797L113.9619600257898,84.41000902059811L115.67053513862024,85.17111604250869L117.37911025145067,85.46991362191147L119.0876853642811,86.30861332796661L120.79626047711153,86.54507299074275L122.50483558994196,86.50273481475887L124.21341070277239,86.75803751388706L125.92198581560282,87.41797827913177L127.63056092843325,86.308538099662L129.33913604126369,85.0348172444133L131.04771115409412,83.7268831954704L132.75628626692455,82.24866111855663L134.46486137975498,81.01164048568347L136.1734364925854,79.39836201316326L137.88201160541584,78.86534184739287L139.5905867182463,79.24600564150415L141.29916183107673,79.72757423747363L143.00773694390716,79.82606783864634L144.7163120567376,80.6966613560846L146.42488716956802,81.14000292415048L148.13346228239845,80.96764936734718L149.84203739522889,81.24019810640966L151.55061250805932,81.28382861362641L153.25918762088975,81.37002301260368L154.96776273372018,81.54433322158945L156.6763378465506,81.36584779504763L158.38491295938104,81.06178485629722L160.09348807221147,81.09345206089213L161.8020631850419,81.14405971368024L163.51063829787233,80.9455065852301L165.21921341070276,80.60122850751843L166.9277885235332,80.31308815709585" fill="none"/><line class="bound min segment autoscale bounded" x1="83.20760799484204" y1="91.72815989685566" x2="168.63636363636363" y2="91.72815989685566" fill="none"/><line class="bound max segment autoscale bounded" x1="83.20760799484204" y1="68.89801641733605" x2="168.63636363636363" y2="68.89801641733605" fill="none"/><g class="userGuides"/></svg><g class="axes"><g class="bottom axis bottomAxisLine" transform="translate(0,151.66666666666666)" fill="none" text-anchor="middle"><path class="domain" stroke="#000" d="M0.5,6V0.5H177.16666666666666V6" fill="none"/><g class="tick" opacity="1" transform="translate(8.53030303030303,0)"><line stroke="#000" y2="3" fill="none"/><text fill="#000" y="6" dy="0.71em" class="bottomAxisTickLabels transformed-label"><tspan class="label-block"><tspan class="label-subblock">0</tspan></tspan></text></g><g class="tick" opacity="1" transform="translate(42.701805286911664,0)"><line stroke="#000" y2="3" fill="none"/><text fill="#000" y="6" dy="0.71em" class="bottomAxisTickLabels transformed-label"><tspan class="label-block"><tspan class="label-subblock">20</tspan></tspan></text></g><g class="tick" opacity="1" transform="translate(76.8733075435203,0)"><line stroke="#000" y2="3" fill="none"/><text fill="#000" y="6" dy="0.71em" class="bottomAxisTickLabels transformed-label"><tspan class="label-block"><tspan class="label-subblock">40</tspan></tspan></text></g><g class="tick" opacity="1" transform="translate(111.04480980012895,0)"><line stroke="#000" y2="3" fill="none"/><text fill="#000" y="6" dy="0.71em" class="bottomAxisTickLabels transformed-label"><tspan class="label-block"><tspan class="label-subblock">60</tspan></tspan></text></g><g class="tick" opacity="1" transform="translate(145.2163120567376,0)"><line stroke="#000" y2="3" fill="none"/><text fill="#000" y="6" dy="0.71em" class="bottomAxisTickLabels transformed-label"><tspan class="label-block"><tspan class="label-subblock">80</tspan></tspan></text></g></g><g class="left axis leftAxisLine" fill="none" text-anchor="end"><path class="domain" stroke="#000" d="M-6,152.16666666666666H0.5V0.5H-6" fill="none"/><g class="tick" opacity="1" transform="translate(0,105.78744724388991)"><line stroke="#000" x2="-3" fill="none"/><text fill="#000" x="-6" dy="0.32em" class="leftAxisTickLabels transformed-label"><tspan class="label-block"><tspan class="label-subblock">0.3</tspan></tspan></text></g><g class="tick" opacity="1" transform="translate(0,33.84936215995667)"><line stroke="#000" x2="-3" fill="none"/><text fill="#000" x="-6" dy="0.32em" class="leftAxisTickLabels transformed-label"><tspan class="label-block"><tspan class="label-subblock">0.35</tspan></tspan></text></g></g></g><g class="grid"><g class="vertical" transform="translate(0,151.66666666666666)" fill="none" font-size="10" font-family="sans-serif" text-anchor="middle"><g class="tick" opacity="1" transform="translate(8.53030303030303,0)"><line stroke="#000" y2="-151.66666666666666" fill="none"/></g><g class="tick" opacity="1" transform="translate(42.701805286911664,0)"><line stroke="#000" y2="-151.66666666666666" fill="none"/></g><g class="tick" opacity="1" transform="translate(76.8733075435203,0)"><line stroke="#000" y2="-151.66666666666666" fill="none"/></g><g class="tick" opacity="1" transform="translate(111.04480980012895,0)"><line stroke="#000" y2="-151.66666666666666" fill="none"/></g><g class="tick" opacity="1" transform="translate(145.2163120567376,0)"><line stroke="#000" y2="-151.66666666666666" fill="none"/></g></g><g class="horizontal" fill="none" font-size="10" font-family="sans-serif" text-anchor="end"><g class="tick" opacity="1" transform="translate(0,105.78744724388991)"><line stroke="#000" x2="176.66666666666666" fill="none"/></g><g class="tick" opacity="1" transform="translate(0,33.84936215995667)"><line stroke="#000" x2="176.66666666666666" fill="none"/></g></g></g><defs><clipPath id="Q_sd--freehand-guides-clip" class="freehand-guides-clip"><rect x="0" y="0" width="176.66666666666666" height="151.66666666666666"/></clipPath></defs></g></g><text x="88.33333333333333" y="-1em" class="title transformed-label" text-anchor="middle"><tspan class="label-block"><tspan class="label-subblock">sd(Q|y)</tspan></tspan></text></g><g class="plot-container page-element" width="176.66666666666666" height="151.66666666666666" data-index="7" data-col="1" data-row="2" transform="translate(226.66666666666666,403.3333333333333)"><g class="subpage plot-page active" data-index="0"><g class="plot page-element" width="176.66666666666666" height="151.66666666666666" id="V2_sd" data-index="0" title="sd(V2|y)" transform="translate(0,0)"><rect width="176.66666666666666" height="151.66666666666666" class="plot-background"/><svg class="plot-content zoomable-content" width="176.66666666666666" height="151.66666666666666"><path class="convergence-line line autoscale" stroke="steelblue" d="M8.03030303030303,13.161157024793425L9.738878143133462,76.56842789996709L11.447453255963895,99.25509689040916L13.156028368794324,103.31355743943291L14.864603481624755,108.68450665477354L16.573178594455186,111.8308162063704L18.28175370728562,118.76546744257531L19.99032882011605,117.72481424771591L21.698903932946482,113.94735602712905L23.407479045776913,115.51542696885768L25.116054158607344,117.40784609928946L26.824629271437775,117.27887597194061L28.533204384268213,118.88614561879338L30.241779497098644,117.13958021168305L31.95035460992907,117.0617114057178L33.6589297227595,117.24223553658273L35.36750483558993,117.14641333701405L37.07607994842037,116.54055948522088L38.7846550612508,116.78287701616586L40.49323017408123,118.49639527884568L42.201805286911664,118.33207463310734L43.910380399742095,117.89275775038564L45.618955512572526,117.22799378376602L47.32753062540296,117.48937871926438L49.03610573823339,117.20848425607267L50.74468085106382,117.57255760876352L52.45325596389425,118.63186046287234L54.16183107672468,118.48010557203774L55.870406189555126,117.6494105289298L57.57898130238556,117.22772774691421L59.28755641521599,115.18889430462602L60.99613152804642,112.79890816109202L62.70470664087685,110.78469896399602L64.41328175370728,111.37290052195138L66.12185686653771,112.01809592364381L67.83043197936814,112.88906033552323L69.53900709219857,112.65912096079884L71.247582205029,112.61555833777282L72.95615731785944,113.37631255692631L74.66473243068987,115.120746946019L76.3733075435203,116.17068916873353L78.08188265635073,117.37178570560738L79.79045776918116,119.26035386527786L81.4990328820116,120.75993959419226L83.20760799484204,121.93638306267384L84.91618310767247,123.31358730028444L86.6247582205029,124.1472070189455L88.33333333333333,125.45584583052047L90.04190844616376,126.49758805265131L91.75048355899419,127.11661073597963L93.45905867182462,127.74940079425322L95.16763378465505,128.70066570566294L96.87620889748548,129.4881039194957L98.58478401031591,130.4250408074655L100.29335912314635,131.181446820391L102.00193423597678,131.2873661725349L103.71050934880721,131.96477194063866L105.41908446163765,132.90889428387163L107.12765957446808,133.71143071653034L108.83623468729851,134.594917495682L110.54480980012895,135.58366607613624L112.25338491295938,136.3481641144936L113.9619600257898,136.9373047877129L115.67053513862024,136.50303931299075L117.37911025145067,136.61138866966175L119.0876853642811,136.87866971121912L120.79626047711153,136.72796861970318L122.50483558994196,136.3597403936079L124.21341070277239,135.7037606667228L125.92198581560282,135.04094346680995L127.63056092843325,134.74634340710816L129.33913604126369,134.50312339936647L131.04771115409412,134.79111166140572L132.75628626692455,134.57494889790644L134.46486137975498,134.24729821919556L136.1734364925854,133.77060261648194L137.88201160541584,133.01640523110234L139.5905867182463,132.00032801066646L141.29916183107673,131.1993135085366L143.00773694390716,131.01918042689584L144.7163120567376,131.22995007828138L146.42488716956802,131.19120041071153L148.13346228239845,130.73281678671532L149.84203739522889,130.54979274581441L151.55061250805932,130.37045809202368L153.25918762088975,130.45734266641523L154.96776273372018,130.3047388127871L156.6763378465506,129.94319472285116L158.38491295938104,129.7170042372252L160.09348807221147,129.50533081042826L161.8020631850419,129.6761339576088L163.51063829787233,129.95983876433291L165.21921341070276,130.0943446914973L166.9277885235332,129.96149139358013" fill="none"/><line class="bound min segment autoscale bounded" x1="83.20760799484204" y1="138.50550964187326" x2="168.63636363636363" y2="138.50550964187326" fill="none"/><line class="bound max segment autoscale bounded" x1="83.20760799484204" y1="121.41747314528703" x2="168.63636363636363" y2="121.41747314528703" fill="none"/><g class="userGuides"/></svg><g class="axes"><g class="bottom axis bottomAxisLine" transform="translate(0,151.66666666666666)" fill="none" text-anchor="middle"><path class="domain" stroke="#000" d="M0.5,6V0.5H177.16666666666666V6" fill="none"/><g class="tick" opacity="1" transform="translate(8.53030303030303,0)"><line stroke="#000" y2="3" fill="none"/><text fill="#000" y="6" dy="0.71em" class="bottomAxisTickLabels transformed-label"><tspan class="label-block"><tspan class="label-subblock">0</tspan></tspan></text></g><g class="tick" opacity="1" transform="translate(42.701805286911664,0)"><line stroke="#000" y2="3" fill="none"/><text fill="#000" y="6" dy="0.71em" class="bottomAxisTickLabels transformed-label"><tspan class="label-block"><tspan class="label-subblock">20</tspan></tspan></text></g><g class="tick" opacity="1" transform="translate(76.8733075435203,0)"><line stroke="#000" y2="3" fill="none"/><text fill="#000" y="6" dy="0.71em" class="bottomAxisTickLabels transformed-label"><tspan class="label-block"><tspan class="label-subblock">40</tspan></tspan></text></g><g class="tick" opacity="1" transform="translate(111.04480980012895,0)"><line stroke="#000" y2="3" fill="none"/><text fill="#000" y="6" dy="0.71em" class="bottomAxisTickLabels transformed-label"><tspan class="label-block"><tspan class="label-subblock">60</tspan></tspan></text></g><g class="tick" opacity="1" transform="translate(145.2163120567376,0)"><line stroke="#000" y2="3" fill="none"/><text fill="#000" y="6" dy="0.71em" class="bottomAxisTickLabels transformed-label"><tspan class="label-block"><tspan class="label-subblock">80</tspan></tspan></text></g></g><g class="left axis leftAxisLine" fill="none" text-anchor="end"><path class="domain" stroke="#000" d="M-6,152.16666666666666H0.5V0.5H-6" fill="none"/><g class="tick" opacity="1" transform="translate(0,144.0657443807374)"><line stroke="#000" x2="-3" fill="none"/><text fill="#000" x="-6" dy="0.32em" class="leftAxisTickLabels transformed-label"><tspan class="label-block"><tspan class="label-subblock">0.4</tspan></tspan></text></g><g class="tick" opacity="1" transform="translate(0,103.04618476266654)"><line stroke="#000" x2="-3" fill="none"/><text fill="#000" x="-6" dy="0.32em" class="leftAxisTickLabels transformed-label"><tspan class="label-block"><tspan class="label-subblock">0.45</tspan></tspan></text></g><g class="tick" opacity="1" transform="translate(0,62.026625144595684)"><line stroke="#000" x2="-3" fill="none"/><text fill="#000" x="-6" dy="0.32em" class="leftAxisTickLabels transformed-label"><tspan class="label-block"><tspan class="label-subblock">0.5</tspan></tspan></text></g><g class="tick" opacity="1" transform="translate(0,21.00706552652477)"><line stroke="#000" x2="-3" fill="none"/><text fill="#000" x="-6" dy="0.32em" class="leftAxisTickLabels transformed-label"><tspan class="label-block"><tspan class="label-subblock">0.55</tspan></tspan></text></g></g></g><g class="grid"><g class="vertical" transform="translate(0,151.66666666666666)" fill="none" font-size="10" font-family="sans-serif" text-anchor="middle"><g class="tick" opacity="1" transform="translate(8.53030303030303,0)"><line stroke="#000" y2="-151.66666666666666" fill="none"/></g><g class="tick" opacity="1" transform="translate(42.701805286911664,0)"><line stroke="#000" y2="-151.66666666666666" fill="none"/></g><g class="tick" opacity="1" transform="translate(76.8733075435203,0)"><line stroke="#000" y2="-151.66666666666666" fill="none"/></g><g class="tick" opacity="1" transform="translate(111.04480980012895,0)"><line stroke="#000" y2="-151.66666666666666" fill="none"/></g><g class="tick" opacity="1" transform="translate(145.2163120567376,0)"><line stroke="#000" y2="-151.66666666666666" fill="none"/></g></g><g class="horizontal" fill="none" font-size="10" font-family="sans-serif" text-anchor="end"><g class="tick" opacity="1" transform="translate(0,144.0657443807374)"><line stroke="#000" x2="176.66666666666666" fill="none"/></g><g class="tick" opacity="1" transform="translate(0,103.04618476266654)"><line stroke="#000" x2="176.66666666666666" fill="none"/></g><g class="tick" opacity="1" transform="translate(0,62.026625144595684)"><line stroke="#000" x2="176.66666666666666" fill="none"/></g><g class="tick" opacity="1" transform="translate(0,21.00706552652477)"><line stroke="#000" x2="176.66666666666666" fill="none"/></g></g></g><defs><clipPath id="V2_sd--freehand-guides-clip" class="freehand-guides-clip"><rect x="0" y="0" width="176.66666666666666" height="151.66666666666666"/></clipPath></defs></g></g><text x="88.33333333333333" y="-1em" class="title transformed-label" text-anchor="middle"><tspan class="label-block"><tspan class="label-subblock">sd(V2|y)</tspan></tspan></text></g></g></g></g></svg>
