<svg xmlns="http://www.w3.org/2000/svg" class="lixoftchart NPC" width="720" height="669" style="font-family: &quot;Source Sans Pro&quot;, -apple-system, BlinkMacSystemFont, &quot;Segoe UI&quot;, Roboto, &quot;Helvetica Neue&quot;, Arial, sans-serif, &quot;Apple Color Emoji&quot;, &quot;Segoe UI Emoji&quot;, &quot;Segoe UI Symbol&quot;; font-weight: normal;"><style>svg {
--primary--1:rgba(21, 140, 186, 0.1);
--primary--2:rgba(21, 140, 186, 0.2);
--primary--3:rgba(21, 140, 186, 0.3);
--primary--4:rgba(21, 140, 186, 0.4);
--primary--5:rgba(21, 140, 186, 0.5);
--primary--6:rgba(21, 140, 186, 0.6);
--primary--7:rgba(21, 140, 186, 0.7);
--primary--8:rgba(21, 140, 186, 0.8);
--primary--9:rgba(21, 140, 186, 0.9);
--secondary--1:rgba(240, 240, 240, 0.1);
--secondary--2:rgba(240, 240, 240, 0.2);
--secondary--3:rgba(240, 240, 240, 0.3);
--secondary--4:rgba(240, 240, 240, 0.4);
--secondary--5:rgba(240, 240, 240, 0.5);
--secondary--6:rgba(240, 240, 240, 0.6);
--secondary--7:rgba(240, 240, 240, 0.7);
--secondary--8:rgba(240, 240, 240, 0.8);
--secondary--9:rgba(240, 240, 240, 0.9);
--success--1:rgba(40, 182, 44, 0.1);
--success--2:rgba(40, 182, 44, 0.2);
--success--3:rgba(40, 182, 44, 0.3);
--success--4:rgba(40, 182, 44, 0.4);
--success--5:rgba(40, 182, 44, 0.5);
--success--6:rgba(40, 182, 44, 0.6);
--success--7:rgba(40, 182, 44, 0.7);
--success--8:rgba(40, 182, 44, 0.8);
--success--9:rgba(40, 182, 44, 0.9);
--info--1:rgba(117, 202, 235, 0.1);
--info--2:rgba(117, 202, 235, 0.2);
--info--3:rgba(117, 202, 235, 0.3);
--info--4:rgba(117, 202, 235, 0.4);
--info--5:rgba(117, 202, 235, 0.5);
--info--6:rgba(117, 202, 235, 0.6);
--info--7:rgba(117, 202, 235, 0.7);
--info--8:rgba(117, 202, 235, 0.8);
--info--9:rgba(117, 202, 235, 0.9);
--warning--1:rgba(255, 133, 27, 0.1);
--warning--2:rgba(255, 133, 27, 0.2);
--warning--3:rgba(255, 133, 27, 0.3);
--warning--4:rgba(255, 133, 27, 0.4);
--warning--5:rgba(255, 133, 27, 0.5);
--warning--6:rgba(255, 133, 27, 0.6);
--warning--7:rgba(255, 133, 27, 0.7);
--warning--8:rgba(255, 133, 27, 0.8);
--warning--9:rgba(255, 133, 27, 0.9);
--danger--1:rgba(255, 65, 54, 0.1);
--danger--2:rgba(255, 65, 54, 0.2);
--danger--3:rgba(255, 65, 54, 0.3);
--danger--4:rgba(255, 65, 54, 0.4);
--danger--5:rgba(255, 65, 54, 0.5);
--danger--6:rgba(255, 65, 54, 0.6);
--danger--7:rgba(255, 65, 54, 0.7);
--danger--8:rgba(255, 65, 54, 0.8);
--danger--9:rgba(255, 65, 54, 0.9);
--light--1:rgba(246, 246, 246, 0.1);
--light--2:rgba(246, 246, 246, 0.2);
--light--3:rgba(246, 246, 246, 0.3);
--light--4:rgba(246, 246, 246, 0.4);
--light--5:rgba(246, 246, 246, 0.5);
--light--6:rgba(246, 246, 246, 0.6);
--light--7:rgba(246, 246, 246, 0.7);
--light--8:rgba(246, 246, 246, 0.8);
--light--9:rgba(246, 246, 246, 0.9);
--dark--1:rgba(85, 85, 85, 0.1);
--dark--2:rgba(85, 85, 85, 0.2);
--dark--3:rgba(85, 85, 85, 0.3);
--dark--4:rgba(85, 85, 85, 0.4);
--dark--5:rgba(85, 85, 85, 0.5);
--dark--6:rgba(85, 85, 85, 0.6);
--dark--7:rgba(85, 85, 85, 0.7);
--dark--8:rgba(85, 85, 85, 0.8);
--dark--9:rgba(85, 85, 85, 0.9);
--theme-scheme--1:#158CBA;
--theme-scheme--2:#3e82bf;
--theme-scheme--3:#6475bc;
--theme-scheme--4:#8566b0;
--theme-scheme--5:#a05599;
--theme-scheme--6:#b0447c;
--theme-scheme-lg--1:#158cba;
--theme-scheme-lg--2:#1dade5;
--theme-scheme-lg--3:#4abeeb;
--theme-scheme-lg--4:#78cef0;
--theme-scheme-lg--5:#b0447c;
--theme-scheme-lg--6:#c36495;
--theme-scheme-lg--7:#d189ae;
--theme-scheme-lg--8:#e0adc7;
--theme-scheme-lg--9:#618f35;
--theme-scheme-lg--10:#7ab443;
--theme-scheme-lg--11:#94c664;
--theme-scheme-lg--12:#aed38a;
--blue:#158CBA;
--indigo:#6610f2;
--purple:#6f42c1;
--pink:#e83e8c;
--red:#FF4136;
--orange:#fd7e14;
--yellow:#FF851B;
--green:#28B62C;
--teal:#20c997;
--cyan:#75CAEB;
--white:#fff;
--gray:#999;
--gray-dark:#333;
--primary:#158CBA;
--secondary:#f0f0f0;
--success:#28B62C;
--info:#75CAEB;
--warning:#FF851B;
--danger:#FF4136;
--light:#f6f6f6;
--dark:#555;
--breakpoint-xs:0;
--breakpoint-sm:576px;
--breakpoint-md:768px;
--breakpoint-lg:992px;
--breakpoint-xl:1200px;
--font-family-sans-serif:"Source Sans Pro", -apple-system, BlinkMacSystemFont, "Segoe UI", Roboto, "Helvetica Neue", Arial, sans-serif, "Apple Color Emoji", "Segoe UI Emoji", "Segoe UI Symbol";
--font-family-monospace:SFMono-Regular, Menlo, Monaco, Consolas, "Liberation Mono", "Courier New", monospace;
--mm-color-background:;
--graphical-mode-icon-display:none;

}
html, body { height: 100%; }
body { margin: 0px; overflow: hidden; }
.lixoftchart-container { display: flex; flex-direction: column; height: 100%; }
.lixoftchart { width: 100%; height: 100%; flex: 1 1 0%; }
.lixoftchart-header { height: 34px; }
.main { flex: 1 1 0%; height: 100%; width: 100%; }
.footer { margin: 0px; }
.checkinit-footer { max-height: 230px; overflow-y: auto; }
.page, .subpage { height: 100%; display: none; }
.page.active, .subpage.active { display: block; }
.axes, .grid { pointer-events: none; }
.axis path, .axis line { fill: none; shape-rendering: crispEdges; }
.tick { font-family: sans-serif; }
.line { fill: none; }
.tick line { stroke-width: 1px; }
.grid line { opacity: 0.2; }
.title { pointer-events: none; font-weight: 400; }
.axis-label { text-anchor: middle; }
.axis-label-unit { font-family: monospace; font-size: smaller; }
.label-subscript { baseline-shift: sub; font-size: 0.8em; }
.zoomable-content, .brushable-content { cursor: crosshair; }
rect.zoom { fill: rgb(221, 221, 221); stroke: steelblue; fill-opacity: 0.5; }
g.brush &gt; rect.selection { stroke-width: 0; }
.handle--custom { fill: rgb(122, 122, 122); fill-opacity: 1; stroke: rgb(122, 122, 122); stroke-width: 2px; display: inline !important; }
.log-filtered { display: none; }
.dot { stroke: none; }
.censObservations.highlighted:not(.lambdaz-observation), .censObservations[data--radius]:not(.lambdaz-observation) { fill: brown !important; }
.spline { fill: none; }
.regressionLine { fill: none; }
.convergence-line { fill: none; }
.percentile-line, .cdf { stroke-width: 1px; }
.bar { shape-rendering: crispEdges; }
.vertical-line, .horizontal-line { shape-rendering: crispEdges; }
.k1, .bound { shape-rendering: crispEdges; }
.outlier.dot { fill: none; }
.boxplot { font-style: normal; font-variant: normal; font-weight: normal; font-stretch: normal; font-size: 10px; line-height: normal; font-family: sans-serif; }
.box-element line, .box-element rect { stroke-opacity: 1; shape-rendering: crispEdges; }
.boxplot .outlier line { fill: none; }
.boxplot .box-underlay { fill: white; fill-opacity: 1; }
.boxplot .label { font-size: 12px; }
.arrow-marker { stroke-width: 0; font-size: 20px; fill: red; dominant-baseline: central; }
.layout-link { padding: 1px 5px !important; }
.sublayout-controls { min-height: 20px; transition: opacity 0.5s ease-in-out; background-color: transparent; opacity: 0.2; cursor: pointer; }
.pagination { transition: opacity 0.5s ease-in-out; }
.sublayout-controls .pagination { opacity: 0; }
.sublayout-controls:hover { transition: none; opacity: 0.9; }
.sublayout-controls:hover .pagination { transition: none; opacity: 1; }
.plot-grid, .subplot-grid { margin: 0px; min-width: 0px; }
.grid-cell { outline: rgb(221, 221, 221) solid 1px; cursor: text; position: absolute; }
.plot-cell { background-color: rgba(119, 33, 111, 0.298039); }
.matrix-diagonal-cell { background-color: rgb(174, 167, 159) !important; }
.plot-cell.selected { background-color: rgb(119, 33, 111); }
.plot-cell:hover, .plot-cell.hovered { background-color: rgb(243, 152, 20); }
.plot-cell.ui-selecting { background-color: rgb(233, 84, 32); }
.cells-selector { cursor: pointer; width: 0px; height: 0px; position: absolute; border: 10px solid rgba(119, 33, 111, 0.298039); }
.cells-selector.selected { border-color: rgb(119, 33, 111); }
.cells-selector.rows, .cells-selector.all { border-top-color: transparent !important; border-bottom-color: transparent !important; border-right-color: transparent !important; }
.cells-selector.cols { border-top-color: transparent !important; border-left-color: transparent !important; border-right-color: transparent !important; }
.cells-selector.all { transform: rotate(-45deg); }
.cells-selector:hover { border-color: rgb(243, 152, 20); }
.layout-grid, .sublayout-grid { padding: 0px; margin: 0px; min-width: 0px; background-color: transparent; border: none; box-shadow: none !important; }
.layout-grid-content { border-collapse: collapse; border: 1px solid rgb(221, 221, 221); }
.layout-cell { background-color: rgba(119, 33, 111, 0.298039); border: 1px solid rgb(221, 221, 221); min-width: 20px; width: 20px; height: 20px; cursor: pointer; }
.layout-cell.selected { background-color: rgb(119, 33, 111); }
.layout-cell.selecting { background-color: rgb(233, 84, 32); }
.layout-container { padding: 10px 15px; align-items: center; }
.layout-controls { display: flex; justify-content: space-between; align-items: center; }
.layout-controls &gt; .layout-controls-wrapper { display: flex; align-items: baseline; }
.layout-controls .btn { border: 0px; border-radius: 0px; white-space: nowrap; padding: 4px 8px !important; }
.layout-controls .btn.toggle-controls-btn { margin-left: 1rem !important; }
.pagination input { color: inherit; background: transparent; border: 0px; outline: none; }
.contrasted-chart-header-btn:not(:hover) { background: rgba(255, 255, 255, 0.2) !important; }
.message-banner { position: fixed; left: 0px; width: 100%; margin-bottom: 0px; z-index: 10; }
.message-banner.top { top: 0px; }
.message-banner.bottom { bottom: 0px; }
.legend { box-shadow: rgba(0, 0, 0, 0.2) 0px 8px 17px 0px, rgba(0, 0, 0, 0.188235) 0px 6px 20px 0px; z-index: 10; }
.legend:not(.no-move) { cursor: move !important; }
.legend-glyph:not(.aa) { shape-rendering: crispEdges; }
.legend-group-label { font-weight: bold; }
.ui-selectable-helper { z-index: 1100; }
.ui-selectable-helper.no-top { border-top: 0px; }
.ui-selectable-helper.no-right { border-right: 0px; }
.ui-selectable-helper.no-bottom { border-bottom: 0px; }
.ui-selectable-helper.no-left { border-left: 0px; }
.print-preview &gt; .modal-dialog { position: absolute; height: auto; bottom: 0px; top: 0px; left: 0px; right: 0px; }
.page-preview { border: 1px dashed rgb(51, 51, 51); margin: 0px auto; }
.page-preview.portrait { height: 60vh; width: 42.42vh; }
.page-preview.landscape { width: 60vw; height: 42.42vw; }
.tooltip-key::after { content: ": "; }
.brushed-out, .bar.brushed-out { fill: rgb(204, 204, 204) !important; }
.infowrapper { pointer-events: none; }
.information { overflow-y: overlay; overflow-x: hidden; padding: 0.5em; font-family: monospace; box-shadow: rgba(0, 0, 0, 0.2) 0px 8px 17px 0px, rgba(0, 0, 0, 0.188235) 0px 6px 20px 0px; display: inline-block; float: right; cursor: move; pointer-events: all; }
.information span { float: left; clear: both; }
.axis path, .axis line, .grid line{
stroke: #636363;
}

.tick text{
fill: #636363;
}

.axis path, .axis line{
stroke-width: 1px;
}

.bar-label{
fill: #000000;
}

.bar-label{
font-size: 10px;
}

.bin-value{
stroke: red;
}

.bin-value{
}

.bin-value{
stroke-width: 1px;
}

.bound{
stroke: red;
}

.bound{
stroke-width: 2px;
}

.bound.bounded{
stroke: limegreen;
}

.baseline{
stroke: #000000;
}

.baseline{
}

.baseline{
stroke-width: 1px;
}

.box-element rect{
fill: #8fbbd9;
}

.boxplot .outlier line{
stroke: #ff0000;
}

.boxplot .outlier line{
stroke-width: 1px;
}

.quartile{
stroke: #000000;
}

.quartile{
stroke-dasharray: 3, 2;
}

.quartile{
stroke-width: 1px;
}

.box-element line{
stroke: #000000;
}

.box-element line{
stroke-width: 1px;
}

.censEvents{
fill: #d44242;
}

.censEvents{
stroke: #d44242;
}

.censObservations{
fill: #d44242;
}
.censObsIntervals{stroke:rgb(212,66,66);stroke-opacity:0.498039;}

.censObsIntervals{
}

.censObsIntervals{
stroke-width: 5px;
}

.convergence-line{
stroke: #4682B4;
}

.cvIndicator-line{
stroke: #990099;
}

.dosingTimes{
stroke: #000000;
}

.dosingTimes{
stroke-dasharray: 8, 8;
}

.dosingTimes{
stroke-width: 2px;
}

line.empirical, path.empirical{
stroke: #4682B4;
}

.dot.empirical{
fill: #4682B4;
}

line.empirical, path.empirical{
}

line.empirical, path.empirical{
stroke-width: 2px;
}

.fisher_linearization&gt;.bar{
fill: #4682B4;
}

.fisher_stochasticApproximation&gt;.bar{
fill: #98abc5;
}

.focus &gt; line, .focus &gt; circle{
stroke: blue;
}

.lixoftchart{
background-color: #ffffff;
}

.sublayout-controls:hover{
background-color: #ffffff;
}

.bar:hover, .band-overlay:hover{
fill: orange !important;
}

g.bar, g.histogram{
fill: #4682B4;
}

g.bar, g.histogram{
stroke: #ffffff;
}

g.bar, g.histogram{
stroke-width: 1px;
}

.information{
background-color: #FFFFCC;
}

.information{
fill: #FFFFCC;
}

.information{
font-size: 12px;
}

.information{
color: #000000;
}

.k1{
stroke: red;
}

.k1{
stroke-width: 1px;
}

.axis-label.global{
fill: #000000;
}

.axis-label.global{
font-size: 14px;
}

.legend-frame{
fill: #ffffff;
}

.legend-frame{
stroke: #000000;
}

.legend-frame{
stroke-width: 0px;
}

.legend text{
fill: #000000;
}

.legend{
font-size: 12px;
}

.ll_importanceSampling&gt;.bar{
fill: #98abc5;
}

.ll_linearization&gt;.bar{
fill: #4682B4;
}

path.median, line.median{
stroke: #000000;
}

path.median, line.median{
stroke-dasharray: 5,3;
}

path.median, line.median{
stroke-width: 1px;
}

.observation{
fill: #4682B4;
}

.observation{
stroke: #4682B4;
}

.observation-line{
stroke-width: 1.5px;
}

.obsStatisticsValues{
font-size: 10px;
}

.outlier.area{
fill: #ff0000;
}

.outlier.dot{
stroke: #ff0000;
}

.outlier.dot{
stroke-width: 1px;
}
.prediction-interval.median{fill:rgb(255,0,0);fill-opacity:0.2;}
.prediction-interval.low, .prediction-interval.up{fill:rgb(0,128,255);fill-opacity:0.298039;}
.plot-background{fill:rgb(250,250,255);fill-opacity:0.6;}
.bar{stroke:rgb(250,250,255);stroke-opacity:0.6;}

.regressionLine{
stroke: #bd2671;
}

.regressionLine{
}

.regressionLine{
stroke-width: 1.5px;
}

.spline{
stroke: #eba213;
}

.spline{
}

.spline{
stroke-width: 1.5px;
}

.axis-label.sublabel, .matrix-diagonal-label{
fill: #000000;
}

.axis-label.sublabel, .matrix-diagonal-label{
font-size: 12px;
}

line.theoretical, path.theoretical{
stroke: #000000;
}

.dot.theoretical{
fill: #000000;
}

line.theoretical, path.theoretical{
stroke-dasharray: 5,3;
}

line.theoretical, path.theoretical{
stroke-width: 1.5px;
}

.tick{
font-size: 10px;
}

.title{
fill: #000000;
}

.title{
font-size: 14px;
}

.axis-label-unit{
fill: #999;
}

.userGuide-dot{
fill: red;
}

.userGuide-line{
stroke: red;
}

.userGuide-dot{
r: 3;
}

.userGuide-line{
}

.userGuide-line{
stroke-width: 1px;
}

.brushed-out, .brushed-out.bar{
fill: #ccc !important;
}
.not-areaOutliers{display:none;}
.not-censObservations{display:none;}
.not-empirical{display:none;}
.not-grid{display:none;}
.hasCensored,.__hasCensored{display:none;}
.hasIOV,.__hasIOV{display:none;}
.not-hasMean{display:none;}
.not-hasMode{display:none;}
.not-isIndivEstimMean{display:none;}
.legend,.__legend{display:none;}
.linkedZoom,.__linkedZoom{display:none;}
.not-observations{display:none;}
.not-piPercentile{display:none;}
.splitted,.__splitted{display:none;}
.theoretical,.__theoretical{display:none;}
.xEqualDomains,.__xEqualDomains{display:none;}
.xLog,.__xLog{display:none;}
.not-yEqualDomains{display:none;}
.yLog,.__yLog{display:none;}
.not-bottomAxisLine{display:none;}
.not-bottomAxisTickLabels{display:none;}
.not-leftAxisLine{display:none;}
.not-leftAxisTickLabels{display:none;}
.rightAxisLine,.__rightAxisLine{display:none;}
.not-rightAxisTickLabels{display:none;}
.topAxisLine,.__topAxisLine{display:none;}
.not-topAxisTickLabels{display:none;}
.freehand-guides-layer,.__freehand-guides-layer{display:none;}
 
      .cdf.theoritical.line {
        stroke-dasharray: 10, 5;
      }
    </style><g class="lixoftchart-scaler"><g class="lixoftchart-translator" transform="translate(50,40)"><g class="x axis" transform="translate(0, 595)"><text class="x axis-label global" x="315" y="-10" style="text-anchor: middle;"><tspan class="axis-label-text">y1</tspan><tspan class="axis-label-unit"/></text></g><g class="y axis"><text class="y axis-label global" transform="rotate(-90)" x="-297.5" y="-30" style="text-anchor: middle;"><tspan class="axis-label-text">Cumulative distribution function</tspan><tspan class="axis-label-unit"/></text></g><g class="page plot-page active" data-index="0"><g class="plot-container page-element" width="630" height="555" data-index="0" data-col="0" data-row="0" transform="translate(0,0)"><g class="subpage plot-page active" data-index="0"><g class="plot page-element" width="630" height="555" id="All" data-index="0" transform="translate(0,0)"><rect width="630" height="555" class="plot-background"/><svg class="plot-content zoomable-content" width="630" height="555"><g class="predictionInterval"><g class="low piPercentile"><polygon class="prediction-interval-mask autoscale low prediction-interval" points="28.636363636363637,555 34.421487603305785,548.9003623188406 40.206611570247944,542.5973782771536 45.991735537190074,536.5 51.776859504132226,530.86671393123 57.56198347107438,523.4659090909091 63.34710743801652,515.8235294117648 69.13223140495867,503.9655172413793 74.91735537190083,491.9318181818182 80.70247933884296,480.5842696629214 86.48760330578513,468.6666666666667 92.27272727272727,455.5587881219904 98.05785123966942,440.92885375494075 103.84297520661157,423.2834101382489 109.62809917355372,414.6551724137931 115.41322314049586,397.7648475120386 121.19834710743802,385.66112531969316 126.98347107438018,371.0164835164836 132.76859504132233,357.66666666666663 138.55371900826447,344.48275862068965 144.33884297520663,333 150.12396694214877,319.4533468559838 155.90909090909096,309.7674418604651 161.6942148760331,296.6404598308668 167.4793388429752,287.0689655172414 173.26446280991738,271.40036231884056 179.04958677685954,264.59302325581393 184.83471074380168,257.145737327189 190.61983471074382,246.65143280632412 196.40495867768598,236.96629213483146 202.19008264462812,226.32314328582146 207.9752066115703,218.8385158087275 213.76033057851242,210.63836752509826 219.54545454545456,201.54095904095908 225.33057851239673,191.16666666666669 231.11570247933884,182.93238011988018 236.90082644628097,178.3928571428571 242.68595041322317,169.48601147776185 248.47107438016533,159.9080459770115 254.25619834710744,154.88372093023258 260.0413223140496,148.43023255813955 265.8264462809917,143.6470588235294 271.61157024793386,136.3921568627452 277.39669421487605,130.04411764705884 283.1818181818182,125.53571428571428 288.9669421487603,121.51808242220352 294.75206611570246,116.66472868217056 300.53719008264466,112.32142857142856 306.32231404958674,109.7093023255814 312.10743801652893,104.83333333333331 317.89256198347107,97.94117647058823 323.67768595041326,91.41176470588232 329.4628099173554,89.31034482758622 335.2479338842975,83.89534883720933 341.0330578512397,79.28571428571433 346.8181818181818,75.68181818181819 352.60330578512395,69.77370689655169 358.38842975206614,66.613082765846 364.1735537190083,65.85829493087562 369.95867768595036,61.991407982261705 375.74380165289256,57.413793103448256 381.5289256198347,56.12359550561797 387.3140495867769,51.627906976744214 393.099173553719,45.97794117647061 398.88429752066116,45.17441860465118 404.6694214876033,43.17199654278306 410.45454545454544,38.94870041039678 416.2396694214876,37.62831971399385 422.02479338842977,35.22745571658618 427.8099173553719,31.896551724137908 433.5950413223141,31.35693309499493 439.3801652892562,28.295807453416273 445.1652892561983,25.81395348837202 450.9504132231405,24.943820224719047 456.73553719008265,19.821428571428555 462.52066115702473,19.13793103448279 468.305785123967,18.920454545454504 474.09090909090907,18.0999645515775 479.8760330578512,12.832798716920593 485.66115702479334,12.613636363636374 491.4462809917355,12.333333333333371 497.23140495867756,9.336180124223688 503.0165289256198,6.529411764705856 508.80165289256195,6.379310344827559 514.5867768595041,6.3430642633228445 520.3719008264463,6.166666666666629 526.1570247933884,6.132783882783883 531.9421487603305,6.0657548972766335 537.7272727272727,0 543.5123966942148,0 549.297520661157,0 555.0826446280992,0 560.8677685950413,0 566.6528925619833,0 572.4380165289256,0 578.2231404958677,0 584.0082644628098,0 589.7933884297521,0 595.5785123966941,0 601.3636363636364,0 601.3636363636364,0 595.5785123966941,6.529411764705856 589.7933884297521,12.686128526645803 584.0082644628098,13.21428571428578 578.2231404958677,18.603932584269614 572.4380165289256,20.182559506317943 566.6528925619833,24.805243445692895 560.8677685950413,25.51724137931035 555.0826446280992,27.578703703703695 549.297520661157,31.35693309499493 543.5123966942148,32.64705882352939 537.7272727272727,36.7967032967033 531.9421487603305,38.058385579937294 526.1570247933884,39.64285714285711 520.3719008264463,43.40917602996251 514.5867768595041,44.91479550922219 508.80165289256195,47.3780487804878 503.0165289256198,50.454545454545496 497.23140495867756,51.627906976744214 491.4462809917355,56.12359550561797 485.66115702479334,59.1144957983193 479.8760330578512,62.01310861423224 474.09090909090907,64.16399358460308 468.305785123967,66.87717770034845 462.52066115702473,70.17241379310343 456.73553719008265,74.45121951219511 450.9504132231405,76.11677115987465 445.1652892561983,81.06741573033707 439.3801652892562,83.41319165998402 433.5950413223141,87.64558783228284 427.8099173553719,89.19220945083015 422.02479338842977,93.5393258426966 416.2396694214876,98.66666666666669 410.45454545454544,101.21674057649665 404.6694214876033,104.83333333333331 398.88429752066116,109.74476105290063 393.099173553719,114.82758620689651 387.3140495867769,118.4831460674157 381.5289256198347,121.90364513535246 375.74380165289256,127.83156498673742 369.95867768595036,133.96551724137936 364.1735537190083,135.5162601626016 358.38842975206614,140.34482758620692 352.60330578512395,145.2069805194805 346.8181818181818,150.5132788559755 341.0330578512397,155.78480405590574 335.2479338842975,160.40763052208837 329.4628099173554,168.3707865168539 323.67768595041326,173.45542635658916 317.89256198347107,178.62068965517244 312.10743801652893,185 306.32231404958674,191.60714285714283 300.53719008264466,199.80435066631827 294.75206611570246,204.47967980295567 288.9669421487603,213.47050994676385 283.1818181818182,219.4186046511628 277.39669421487605,224.49438202247188 271.61157024793386,235.97453371592547 265.8264462809917,240.5 260.0413223140496,245.59923361522198 254.25619834710744,256.1837678721615 248.47107438016533,261.7309182487408 242.68595041322317,272.82183908045977 236.90082644628097,280.6896551724138 231.11570247933884,290.406976744186 225.33057851239673,297.32142857142856 219.54545454545456,309.7674418604651 213.76033057851242,314.80900876232204 207.9752066115703,325.5528485757121 202.19008264462812,333.6306818181818 196.40495867768598,344.83284272497895 190.61983471074382,355.43288675429733 184.83471074380168,365.79545454545456 179.04958677685954,374.4578313253012 173.26446280991738,385.93225380039655 167.4793388429752,397.36847643097644 161.6942148760331,409.9431818181818 155.90909090909096,422.5568181818182 150.12396694214877,433.0884121892542 144.33884297520663,443.37640449438203 138.55371900826447,456.3333333333333 132.76859504132233,466.70454545454544 126.98347107438018,477.51218140929535 121.19834710743802,486.442987931752 115.41322314049586,496.57694938440494 109.62809917355372,504.82890704800815 103.84297520661157,516.0512995896033 98.05785123966942,524.3360805860806 92.27272727272727,532.7823435843054 86.48760330578513,541.6245644599303 80.70247933884296,542.7344322344322 74.91735537190083,548.7640449438202 69.13223140495867,555 63.34710743801652,555 57.56198347107438,555 51.776859504132226,555 45.991735537190074,555 40.206611570247944,555 34.421487603305785,555 28.636363636363637,555"/></g></g><g class="distribution-functions"><path data-legend="Empirical distribution" class="empirical line autoscale cdf" d="M28.636363636363637,549.2783505154639L34.421487603305785,543.5567010309278L40.206611570247944,543.5567010309278L45.991735537190074,543.5567010309278L51.776859504132226,537.8350515463917L57.56198347107438,537.8350515463917L63.34710743801652,532.1134020618557L69.13223140495867,532.1134020618557L74.91735537190083,520.6701030927835L80.70247933884296,514.9484536082474L86.48760330578513,509.22680412371136L92.27272727272727,503.50515463917526L98.05785123966942,497.78350515463916L103.84297520661157,492.0618556701031L109.62809917355372,486.340206185567L115.41322314049586,469.17525773195877L121.19834710743802,452.0103092783505L126.98347107438018,452.0103092783505L132.76859504132233,446.2886597938144L138.55371900826447,423.4020618556701L144.33884297520663,423.4020618556701L150.12396694214877,417.680412371134L155.90909090909096,389.07216494845363L161.6942148760331,371.90721649484533L167.4793388429752,371.90721649484533L173.26446280991738,366.1855670103093L179.04958677685954,354.74226804123714L184.83471074380168,337.57731958762884L190.61983471074382,331.85567010309273L196.40495867768598,314.69072164948454L202.19008264462812,314.69072164948454L207.9752066115703,308.96907216494844L213.76033057851242,303.24742268041234L219.54545454545456,291.8041237113402L225.33057851239673,286.08247422680415L231.11570247933884,274.63917525773195L236.90082644628097,268.9175257731959L242.68595041322317,263.1958762886598L248.47107438016533,234.5876288659794L254.25619834710744,223.1443298969072L260.0413223140496,205.97938144329896L265.8264462809917,205.97938144329896L271.61157024793386,200.25773195876292L277.39669421487605,183.09278350515467L283.1818181818182,171.64948453608247L288.9669421487603,160.20618556701032L294.75206611570246,154.48453608247422L300.53719008264466,154.48453608247422L306.32231404958674,154.48453608247422L312.10743801652893,154.48453608247422L317.89256198347107,148.76288659793818L323.67768595041326,143.04123711340202L329.4628099173554,143.04123711340202L335.2479338842975,131.59793814432993L341.0330578512397,125.87628865979377L346.8181818181818,120.15463917525773L352.60330578512395,120.15463917525773L358.38842975206614,120.15463917525773L364.1735537190083,114.43298969072168L369.95867768595036,108.71134020618553L375.74380165289256,108.71134020618553L381.5289256198347,102.98969072164948L387.3140495867769,97.26804123711344L393.099173553719,97.26804123711344L398.88429752066116,85.82474226804123L404.6694214876033,80.10309278350519L410.45454545454544,74.38144329896903L416.2396694214876,68.65979381443299L422.02479338842977,68.65979381443299L427.8099173553719,68.65979381443299L433.5950413223141,62.93814432989694L439.3801652892562,45.773195876288696L445.1652892561983,45.773195876288696L450.9504132231405,45.773195876288696L456.73553719008265,34.329896907216494L462.52066115702473,34.329896907216494L468.305785123967,34.329896907216494L474.09090909090907,34.329896907216494L479.8760330578512,28.608247422680392L485.66115702479334,28.608247422680392L491.4462809917355,22.88659793814429L497.23140495867756,22.88659793814429L503.0165289256198,22.88659793814429L508.80165289256195,17.164948453608304L514.5867768595041,17.164948453608304L520.3719008264463,17.164948453608304L526.1570247933884,17.164948453608304L531.9421487603305,17.164948453608304L537.7272727272727,17.164948453608304L543.5123966942148,17.164948453608304L549.297520661157,11.443298969072202L555.0826446280992,11.443298969072202L560.8677685950413,11.443298969072202L566.6528925619833,11.443298969072202L572.4380165289256,11.443298969072202L578.2231404958677,11.443298969072202L584.0082644628098,5.721649484536101L589.7933884297521,5.721649484536101L595.5785123966941,5.721649484536101L601.3636363636364,0" data-legend-class="empirical" fill="none"/></g><g class="userGuides"/></svg><g class="axes"><g class="bottom axis bottomAxisLine" transform="translate(0,555)" fill="none" text-anchor="middle"><path class="domain" stroke="#000" d="M0.5,6V0.5H630.5V6" fill="none"/><g class="tick" opacity="1" transform="translate(10.891392213205345,0)"><line stroke="#000" y2="3" fill="none"/><text fill="#000" y="6" dy="0.71em" class="bottomAxisTickLabels transformed-label"><tspan class="label-block"><tspan class="label-subblock">0</tspan></tspan></text></g><g class="tick" opacity="1" transform="translate(81.9387887208311,0)"><line stroke="#000" y2="3" fill="none"/><text fill="#000" y="6" dy="0.71em" class="bottomAxisTickLabels transformed-label"><tspan class="label-block"><tspan class="label-subblock">5</tspan></tspan></text></g><g class="tick" opacity="1" transform="translate(152.98618522845686,0)"><line stroke="#000" y2="3" fill="none"/><text fill="#000" y="6" dy="0.71em" class="bottomAxisTickLabels transformed-label"><tspan class="label-block"><tspan class="label-subblock">10</tspan></tspan></text></g><g class="tick" opacity="1" transform="translate(224.0335817360826,0)"><line stroke="#000" y2="3" fill="none"/><text fill="#000" y="6" dy="0.71em" class="bottomAxisTickLabels transformed-label"><tspan class="label-block"><tspan class="label-subblock">15</tspan></tspan></text></g><g class="tick" opacity="1" transform="translate(295.08097824370833,0)"><line stroke="#000" y2="3" fill="none"/><text fill="#000" y="6" dy="0.71em" class="bottomAxisTickLabels transformed-label"><tspan class="label-block"><tspan class="label-subblock">20</tspan></tspan></text></g><g class="tick" opacity="1" transform="translate(366.1283747513341,0)"><line stroke="#000" y2="3" fill="none"/><text fill="#000" y="6" dy="0.71em" class="bottomAxisTickLabels transformed-label"><tspan class="label-block"><tspan class="label-subblock">25</tspan></tspan></text></g><g class="tick" opacity="1" transform="translate(437.17577125895986,0)"><line stroke="#000" y2="3" fill="none"/><text fill="#000" y="6" dy="0.71em" class="bottomAxisTickLabels transformed-label"><tspan class="label-block"><tspan class="label-subblock">30</tspan></tspan></text></g><g class="tick" opacity="1" transform="translate(508.2231677665855,0)"><line stroke="#000" y2="3" fill="none"/><text fill="#000" y="6" dy="0.71em" class="bottomAxisTickLabels transformed-label"><tspan class="label-block"><tspan class="label-subblock">35</tspan></tspan></text></g><g class="tick" opacity="1" transform="translate(579.2705642742113,0)"><line stroke="#000" y2="3" fill="none"/><text fill="#000" y="6" dy="0.71em" class="bottomAxisTickLabels transformed-label"><tspan class="label-block"><tspan class="label-subblock">40</tspan></tspan></text></g></g><g class="left axis leftAxisLine" fill="none" text-anchor="end"><path class="domain" stroke="#000" d="M-6,555.5H0.5V0.5H-6" fill="none"/><g class="tick" opacity="1" transform="translate(0,555.5)"><line stroke="#000" x2="-3" fill="none"/><text fill="#000" x="-6" dy="0.32em" class="leftAxisTickLabels transformed-label"><tspan class="label-block"><tspan class="label-subblock">0</tspan></tspan></text></g><g class="tick" opacity="1" transform="translate(0,500)"><line stroke="#000" x2="-3" fill="none"/><text fill="#000" x="-6" dy="0.32em" class="leftAxisTickLabels transformed-label"><tspan class="label-block"><tspan class="label-subblock">0.1</tspan></tspan></text></g><g class="tick" opacity="1" transform="translate(0,444.5)"><line stroke="#000" x2="-3" fill="none"/><text fill="#000" x="-6" dy="0.32em" class="leftAxisTickLabels transformed-label"><tspan class="label-block"><tspan class="label-subblock">0.2</tspan></tspan></text></g><g class="tick" opacity="1" transform="translate(0,389)"><line stroke="#000" x2="-3" fill="none"/><text fill="#000" x="-6" dy="0.32em" class="leftAxisTickLabels transformed-label"><tspan class="label-block"><tspan class="label-subblock">0.3</tspan></tspan></text></g><g class="tick" opacity="1" transform="translate(0,333.5)"><line stroke="#000" x2="-3" fill="none"/><text fill="#000" x="-6" dy="0.32em" class="leftAxisTickLabels transformed-label"><tspan class="label-block"><tspan class="label-subblock">0.4</tspan></tspan></text></g><g class="tick" opacity="1" transform="translate(0,278)"><line stroke="#000" x2="-3" fill="none"/><text fill="#000" x="-6" dy="0.32em" class="leftAxisTickLabels transformed-label"><tspan class="label-block"><tspan class="label-subblock">0.5</tspan></tspan></text></g><g class="tick" opacity="1" transform="translate(0,222.5)"><line stroke="#000" x2="-3" fill="none"/><text fill="#000" x="-6" dy="0.32em" class="leftAxisTickLabels transformed-label"><tspan class="label-block"><tspan class="label-subblock">0.6</tspan></tspan></text></g><g class="tick" opacity="1" transform="translate(0,167)"><line stroke="#000" x2="-3" fill="none"/><text fill="#000" x="-6" dy="0.32em" class="leftAxisTickLabels transformed-label"><tspan class="label-block"><tspan class="label-subblock">0.7</tspan></tspan></text></g><g class="tick" opacity="1" transform="translate(0,111.5)"><line stroke="#000" x2="-3" fill="none"/><text fill="#000" x="-6" dy="0.32em" class="leftAxisTickLabels transformed-label"><tspan class="label-block"><tspan class="label-subblock">0.8</tspan></tspan></text></g><g class="tick" opacity="1" transform="translate(0,56)"><line stroke="#000" x2="-3" fill="none"/><text fill="#000" x="-6" dy="0.32em" class="leftAxisTickLabels transformed-label"><tspan class="label-block"><tspan class="label-subblock">0.9</tspan></tspan></text></g><g class="tick" opacity="1" transform="translate(0,0.5)"><line stroke="#000" x2="-3" fill="none"/><text fill="#000" x="-6" dy="0.32em" class="leftAxisTickLabels transformed-label"><tspan class="label-block"><tspan class="label-subblock">1</tspan></tspan></text></g></g></g><g class="grid"><g class="vertical" transform="translate(0,555)" fill="none" font-size="10" font-family="sans-serif" text-anchor="middle"><g class="tick" opacity="1" transform="translate(10.891392213205345,0)"><line stroke="#000" y2="-555" fill="none"/></g><g class="tick" opacity="1" transform="translate(81.9387887208311,0)"><line stroke="#000" y2="-555" fill="none"/></g><g class="tick" opacity="1" transform="translate(152.98618522845686,0)"><line stroke="#000" y2="-555" fill="none"/></g><g class="tick" opacity="1" transform="translate(224.0335817360826,0)"><line stroke="#000" y2="-555" fill="none"/></g><g class="tick" opacity="1" transform="translate(295.08097824370833,0)"><line stroke="#000" y2="-555" fill="none"/></g><g class="tick" opacity="1" transform="translate(366.1283747513341,0)"><line stroke="#000" y2="-555" fill="none"/></g><g class="tick" opacity="1" transform="translate(437.17577125895986,0)"><line stroke="#000" y2="-555" fill="none"/></g><g class="tick" opacity="1" transform="translate(508.2231677665855,0)"><line stroke="#000" y2="-555" fill="none"/></g><g class="tick" opacity="1" transform="translate(579.2705642742113,0)"><line stroke="#000" y2="-555" fill="none"/></g></g><g class="horizontal" fill="none" font-size="10" font-family="sans-serif" text-anchor="end"><g class="tick" opacity="1" transform="translate(0,555.5)"><line stroke="#000" x2="630" fill="none"/></g><g class="tick" opacity="1" transform="translate(0,500)"><line stroke="#000" x2="630" fill="none"/></g><g class="tick" opacity="1" transform="translate(0,444.5)"><line stroke="#000" x2="630" fill="none"/></g><g class="tick" opacity="1" transform="translate(0,389)"><line stroke="#000" x2="630" fill="none"/></g><g class="tick" opacity="1" transform="translate(0,333.5)"><line stroke="#000" x2="630" fill="none"/></g><g class="tick" opacity="1" transform="translate(0,278)"><line stroke="#000" x2="630" fill="none"/></g><g class="tick" opacity="1" transform="translate(0,222.5)"><line stroke="#000" x2="630" fill="none"/></g><g class="tick" opacity="1" transform="translate(0,167)"><line stroke="#000" x2="630" fill="none"/></g><g class="tick" opacity="1" transform="translate(0,111.5)"><line stroke="#000" x2="630" fill="none"/></g><g class="tick" opacity="1" transform="translate(0,56)"><line stroke="#000" x2="630" fill="none"/></g><g class="tick" opacity="1" transform="translate(0,0.5)"><line stroke="#000" x2="630" fill="none"/></g></g></g><defs><g id="All-pi-low"><polygon class="prediction-interval autoscale" points="28.636363636363637,555 34.421487603305785,548.9003623188406 40.206611570247944,542.5973782771536 45.991735537190074,536.5 51.776859504132226,530.86671393123 57.56198347107438,523.4659090909091 63.34710743801652,515.8235294117648 69.13223140495867,503.9655172413793 74.91735537190083,491.9318181818182 80.70247933884296,480.5842696629214 86.48760330578513,468.6666666666667 92.27272727272727,455.5587881219904 98.05785123966942,440.92885375494075 103.84297520661157,423.2834101382489 109.62809917355372,414.6551724137931 115.41322314049586,397.7648475120386 121.19834710743802,385.66112531969316 126.98347107438018,371.0164835164836 132.76859504132233,357.66666666666663 138.55371900826447,344.48275862068965 144.33884297520663,333 150.12396694214877,319.4533468559838 155.90909090909096,309.7674418604651 161.6942148760331,296.6404598308668 167.4793388429752,287.0689655172414 173.26446280991738,271.40036231884056 179.04958677685954,264.59302325581393 184.83471074380168,257.145737327189 190.61983471074382,246.65143280632412 196.40495867768598,236.96629213483146 202.19008264462812,226.32314328582146 207.9752066115703,218.8385158087275 213.76033057851242,210.63836752509826 219.54545454545456,201.54095904095908 225.33057851239673,191.16666666666669 231.11570247933884,182.93238011988018 236.90082644628097,178.3928571428571 242.68595041322317,169.48601147776185 248.47107438016533,159.9080459770115 254.25619834710744,154.88372093023258 260.0413223140496,148.43023255813955 265.8264462809917,143.6470588235294 271.61157024793386,136.3921568627452 277.39669421487605,130.04411764705884 283.1818181818182,125.53571428571428 288.9669421487603,121.51808242220352 294.75206611570246,116.66472868217056 300.53719008264466,112.32142857142856 306.32231404958674,109.7093023255814 312.10743801652893,104.83333333333331 317.89256198347107,97.94117647058823 323.67768595041326,91.41176470588232 329.4628099173554,89.31034482758622 335.2479338842975,83.89534883720933 341.0330578512397,79.28571428571433 346.8181818181818,75.68181818181819 352.60330578512395,69.77370689655169 358.38842975206614,66.613082765846 364.1735537190083,65.85829493087562 369.95867768595036,61.991407982261705 375.74380165289256,57.413793103448256 381.5289256198347,56.12359550561797 387.3140495867769,51.627906976744214 393.099173553719,45.97794117647061 398.88429752066116,45.17441860465118 404.6694214876033,43.17199654278306 410.45454545454544,38.94870041039678 416.2396694214876,37.62831971399385 422.02479338842977,35.22745571658618 427.8099173553719,31.896551724137908 433.5950413223141,31.35693309499493 439.3801652892562,28.295807453416273 445.1652892561983,25.81395348837202 450.9504132231405,24.943820224719047 456.73553719008265,19.821428571428555 462.52066115702473,19.13793103448279 468.305785123967,18.920454545454504 474.09090909090907,18.0999645515775 479.8760330578512,12.832798716920593 485.66115702479334,12.613636363636374 491.4462809917355,12.333333333333371 497.23140495867756,9.336180124223688 503.0165289256198,6.529411764705856 508.80165289256195,6.379310344827559 514.5867768595041,6.3430642633228445 520.3719008264463,6.166666666666629 526.1570247933884,6.132783882783883 531.9421487603305,6.0657548972766335 537.7272727272727,0 543.5123966942148,0 549.297520661157,0 555.0826446280992,0 560.8677685950413,0 566.6528925619833,0 572.4380165289256,0 578.2231404958677,0 584.0082644628098,0 589.7933884297521,0 595.5785123966941,0 601.3636363636364,0 601.3636363636364,0 595.5785123966941,6.529411764705856 589.7933884297521,12.686128526645803 584.0082644628098,13.21428571428578 578.2231404958677,18.603932584269614 572.4380165289256,20.182559506317943 566.6528925619833,24.805243445692895 560.8677685950413,25.51724137931035 555.0826446280992,27.578703703703695 549.297520661157,31.35693309499493 543.5123966942148,32.64705882352939 537.7272727272727,36.7967032967033 531.9421487603305,38.058385579937294 526.1570247933884,39.64285714285711 520.3719008264463,43.40917602996251 514.5867768595041,44.91479550922219 508.80165289256195,47.3780487804878 503.0165289256198,50.454545454545496 497.23140495867756,51.627906976744214 491.4462809917355,56.12359550561797 485.66115702479334,59.1144957983193 479.8760330578512,62.01310861423224 474.09090909090907,64.16399358460308 468.305785123967,66.87717770034845 462.52066115702473,70.17241379310343 456.73553719008265,74.45121951219511 450.9504132231405,76.11677115987465 445.1652892561983,81.06741573033707 439.3801652892562,83.41319165998402 433.5950413223141,87.64558783228284 427.8099173553719,89.19220945083015 422.02479338842977,93.5393258426966 416.2396694214876,98.66666666666669 410.45454545454544,101.21674057649665 404.6694214876033,104.83333333333331 398.88429752066116,109.74476105290063 393.099173553719,114.82758620689651 387.3140495867769,118.4831460674157 381.5289256198347,121.90364513535246 375.74380165289256,127.83156498673742 369.95867768595036,133.96551724137936 364.1735537190083,135.5162601626016 358.38842975206614,140.34482758620692 352.60330578512395,145.2069805194805 346.8181818181818,150.5132788559755 341.0330578512397,155.78480405590574 335.2479338842975,160.40763052208837 329.4628099173554,168.3707865168539 323.67768595041326,173.45542635658916 317.89256198347107,178.62068965517244 312.10743801652893,185 306.32231404958674,191.60714285714283 300.53719008264466,199.80435066631827 294.75206611570246,204.47967980295567 288.9669421487603,213.47050994676385 283.1818181818182,219.4186046511628 277.39669421487605,224.49438202247188 271.61157024793386,235.97453371592547 265.8264462809917,240.5 260.0413223140496,245.59923361522198 254.25619834710744,256.1837678721615 248.47107438016533,261.7309182487408 242.68595041322317,272.82183908045977 236.90082644628097,280.6896551724138 231.11570247933884,290.406976744186 225.33057851239673,297.32142857142856 219.54545454545456,309.7674418604651 213.76033057851242,314.80900876232204 207.9752066115703,325.5528485757121 202.19008264462812,333.6306818181818 196.40495867768598,344.83284272497895 190.61983471074382,355.43288675429733 184.83471074380168,365.79545454545456 179.04958677685954,374.4578313253012 173.26446280991738,385.93225380039655 167.4793388429752,397.36847643097644 161.6942148760331,409.9431818181818 155.90909090909096,422.5568181818182 150.12396694214877,433.0884121892542 144.33884297520663,443.37640449438203 138.55371900826447,456.3333333333333 132.76859504132233,466.70454545454544 126.98347107438018,477.51218140929535 121.19834710743802,486.442987931752 115.41322314049586,496.57694938440494 109.62809917355372,504.82890704800815 103.84297520661157,516.0512995896033 98.05785123966942,524.3360805860806 92.27272727272727,532.7823435843054 86.48760330578513,541.6245644599303 80.70247933884296,542.7344322344322 74.91735537190083,548.7640449438202 69.13223140495867,555 63.34710743801652,555 57.56198347107438,555 51.776859504132226,555 45.991735537190074,555 40.206611570247944,555 34.421487603305785,555 28.636363636363637,555"/></g><g id="All-pi-low-maskdata"/><mask id="All-pi-low-mask" class="prediction-interval-mask"><rect x="0" y="0" width="100%" height="100%" fill="white"/><use xmlns:xlink="http://www.w3.org/1999/xlink" xlink:href="#All-pi-low-maskdata" fill="black"/></mask><clipPath id="All--freehand-guides-clip" class="freehand-guides-clip"><rect x="0" y="0" width="630" height="555"/></clipPath></defs></g></g><text x="315" y="-1em" class="title transformed-label" text-anchor="middle"><tspan class="label-block"/></text></g></g></g></g></svg>
