<svg xmlns="http://www.w3.org/2000/svg" class="lixoftchart conditionalMean" width="720" height="669" style="font-family: &quot;Source Sans Pro&quot;, -apple-system, BlinkMacSystemFont, &quot;Segoe UI&quot;, Roboto, &quot;Helvetica Neue&quot;, Arial, sans-serif, &quot;Apple Color Emoji&quot;, &quot;Segoe UI Emoji&quot;, &quot;Segoe UI Symbol&quot;; font-weight: normal;"><style>svg {
--primary--1:rgba(21, 140, 186, 0.1);
--primary--2:rgba(21, 140, 186, 0.2);
--primary--3:rgba(21, 140, 186, 0.3);
--primary--4:rgba(21, 140, 186, 0.4);
--primary--5:rgba(21, 140, 186, 0.5);
--primary--6:rgba(21, 140, 186, 0.6);
--primary--7:rgba(21, 140, 186, 0.7);
--primary--8:rgba(21, 140, 186, 0.8);
--primary--9:rgba(21, 140, 186, 0.9);
--secondary--1:rgba(240, 240, 240, 0.1);
--secondary--2:rgba(240, 240, 240, 0.2);
--secondary--3:rgba(240, 240, 240, 0.3);
--secondary--4:rgba(240, 240, 240, 0.4);
--secondary--5:rgba(240, 240, 240, 0.5);
--secondary--6:rgba(240, 240, 240, 0.6);
--secondary--7:rgba(240, 240, 240, 0.7);
--secondary--8:rgba(240, 240, 240, 0.8);
--secondary--9:rgba(240, 240, 240, 0.9);
--success--1:rgba(40, 182, 44, 0.1);
--success--2:rgba(40, 182, 44, 0.2);
--success--3:rgba(40, 182, 44, 0.3);
--success--4:rgba(40, 182, 44, 0.4);
--success--5:rgba(40, 182, 44, 0.5);
--success--6:rgba(40, 182, 44, 0.6);
--success--7:rgba(40, 182, 44, 0.7);
--success--8:rgba(40, 182, 44, 0.8);
--success--9:rgba(40, 182, 44, 0.9);
--info--1:rgba(117, 202, 235, 0.1);
--info--2:rgba(117, 202, 235, 0.2);
--info--3:rgba(117, 202, 235, 0.3);
--info--4:rgba(117, 202, 235, 0.4);
--info--5:rgba(117, 202, 235, 0.5);
--info--6:rgba(117, 202, 235, 0.6);
--info--7:rgba(117, 202, 235, 0.7);
--info--8:rgba(117, 202, 235, 0.8);
--info--9:rgba(117, 202, 235, 0.9);
--warning--1:rgba(255, 133, 27, 0.1);
--warning--2:rgba(255, 133, 27, 0.2);
--warning--3:rgba(255, 133, 27, 0.3);
--warning--4:rgba(255, 133, 27, 0.4);
--warning--5:rgba(255, 133, 27, 0.5);
--warning--6:rgba(255, 133, 27, 0.6);
--warning--7:rgba(255, 133, 27, 0.7);
--warning--8:rgba(255, 133, 27, 0.8);
--warning--9:rgba(255, 133, 27, 0.9);
--danger--1:rgba(255, 65, 54, 0.1);
--danger--2:rgba(255, 65, 54, 0.2);
--danger--3:rgba(255, 65, 54, 0.3);
--danger--4:rgba(255, 65, 54, 0.4);
--danger--5:rgba(255, 65, 54, 0.5);
--danger--6:rgba(255, 65, 54, 0.6);
--danger--7:rgba(255, 65, 54, 0.7);
--danger--8:rgba(255, 65, 54, 0.8);
--danger--9:rgba(255, 65, 54, 0.9);
--light--1:rgba(246, 246, 246, 0.1);
--light--2:rgba(246, 246, 246, 0.2);
--light--3:rgba(246, 246, 246, 0.3);
--light--4:rgba(246, 246, 246, 0.4);
--light--5:rgba(246, 246, 246, 0.5);
--light--6:rgba(246, 246, 246, 0.6);
--light--7:rgba(246, 246, 246, 0.7);
--light--8:rgba(246, 246, 246, 0.8);
--light--9:rgba(246, 246, 246, 0.9);
--dark--1:rgba(85, 85, 85, 0.1);
--dark--2:rgba(85, 85, 85, 0.2);
--dark--3:rgba(85, 85, 85, 0.3);
--dark--4:rgba(85, 85, 85, 0.4);
--dark--5:rgba(85, 85, 85, 0.5);
--dark--6:rgba(85, 85, 85, 0.6);
--dark--7:rgba(85, 85, 85, 0.7);
--dark--8:rgba(85, 85, 85, 0.8);
--dark--9:rgba(85, 85, 85, 0.9);
--theme-scheme--1:#158CBA;
--theme-scheme--2:#3e82bf;
--theme-scheme--3:#6475bc;
--theme-scheme--4:#8566b0;
--theme-scheme--5:#a05599;
--theme-scheme--6:#b0447c;
--theme-scheme-lg--1:#158cba;
--theme-scheme-lg--2:#1dade5;
--theme-scheme-lg--3:#4abeeb;
--theme-scheme-lg--4:#78cef0;
--theme-scheme-lg--5:#b0447c;
--theme-scheme-lg--6:#c36495;
--theme-scheme-lg--7:#d189ae;
--theme-scheme-lg--8:#e0adc7;
--theme-scheme-lg--9:#618f35;
--theme-scheme-lg--10:#7ab443;
--theme-scheme-lg--11:#94c664;
--theme-scheme-lg--12:#aed38a;
--blue:#158CBA;
--indigo:#6610f2;
--purple:#6f42c1;
--pink:#e83e8c;
--red:#FF4136;
--orange:#fd7e14;
--yellow:#FF851B;
--green:#28B62C;
--teal:#20c997;
--cyan:#75CAEB;
--white:#fff;
--gray:#999;
--gray-dark:#333;
--primary:#158CBA;
--secondary:#f0f0f0;
--success:#28B62C;
--info:#75CAEB;
--warning:#FF851B;
--danger:#FF4136;
--light:#f6f6f6;
--dark:#555;
--breakpoint-xs:0;
--breakpoint-sm:576px;
--breakpoint-md:768px;
--breakpoint-lg:992px;
--breakpoint-xl:1200px;
--font-family-sans-serif:"Source Sans Pro", -apple-system, BlinkMacSystemFont, "Segoe UI", Roboto, "Helvetica Neue", Arial, sans-serif, "Apple Color Emoji", "Segoe UI Emoji", "Segoe UI Symbol";
--font-family-monospace:SFMono-Regular, Menlo, Monaco, Consolas, "Liberation Mono", "Courier New", monospace;
--mm-color-background:;
--graphical-mode-icon-display:none;

}
html, body { height: 100%; }
body { margin: 0px; overflow: hidden; }
.lixoftchart-container { display: flex; flex-direction: column; height: 100%; }
.lixoftchart { width: 100%; height: 100%; flex: 1 1 0%; }
.lixoftchart-header { height: 34px; }
.main { flex: 1 1 0%; height: 100%; width: 100%; }
.footer { margin: 0px; }
.checkinit-footer { max-height: 230px; overflow-y: auto; }
.page, .subpage { height: 100%; display: none; }
.page.active, .subpage.active { display: block; }
.axes, .grid { pointer-events: none; }
.axis path, .axis line { fill: none; shape-rendering: crispEdges; }
.tick { font-family: sans-serif; }
.line { fill: none; }
.tick line { stroke-width: 1px; }
.grid line { opacity: 0.2; }
.title { pointer-events: none; font-weight: 400; }
.axis-label { text-anchor: middle; }
.axis-label-unit { font-family: monospace; font-size: smaller; }
.label-subscript { baseline-shift: sub; font-size: 0.8em; }
.zoomable-content, .brushable-content { cursor: crosshair; }
rect.zoom { fill: rgb(221, 221, 221); stroke: steelblue; fill-opacity: 0.5; }
g.brush &gt; rect.selection { stroke-width: 0; }
.handle--custom { fill: rgb(122, 122, 122); fill-opacity: 1; stroke: rgb(122, 122, 122); stroke-width: 2px; display: inline !important; }
.log-filtered { display: none; }
.dot { stroke: none; }
.censObservations.highlighted:not(.lambdaz-observation), .censObservations[data--radius]:not(.lambdaz-observation) { fill: brown !important; }
.spline { fill: none; }
.regressionLine { fill: none; }
.convergence-line { fill: none; }
.percentile-line, .cdf { stroke-width: 1px; }
.bar { shape-rendering: crispEdges; }
.vertical-line, .horizontal-line { shape-rendering: crispEdges; }
.k1, .bound { shape-rendering: crispEdges; }
.outlier.dot { fill: none; }
.boxplot { font-style: normal; font-variant: normal; font-weight: normal; font-stretch: normal; font-size: 10px; line-height: normal; font-family: sans-serif; }
.box-element line, .box-element rect { stroke-opacity: 1; shape-rendering: crispEdges; }
.boxplot .outlier line { fill: none; }
.boxplot .box-underlay { fill: white; fill-opacity: 1; }
.boxplot .label { font-size: 12px; }
.arrow-marker { stroke-width: 0; font-size: 20px; fill: red; dominant-baseline: central; }
.layout-link { padding: 1px 5px !important; }
.sublayout-controls { min-height: 20px; transition: opacity 0.5s ease-in-out; background-color: transparent; opacity: 0.2; cursor: pointer; }
.pagination { transition: opacity 0.5s ease-in-out; }
.sublayout-controls .pagination { opacity: 0; }
.sublayout-controls:hover { transition: none; opacity: 0.9; }
.sublayout-controls:hover .pagination { transition: none; opacity: 1; }
.plot-grid, .subplot-grid { margin: 0px; min-width: 0px; }
.grid-cell { outline: rgb(221, 221, 221) solid 1px; cursor: text; position: absolute; }
.plot-cell { background-color: rgba(119, 33, 111, 0.298039); }
.matrix-diagonal-cell { background-color: rgb(174, 167, 159) !important; }
.plot-cell.selected { background-color: rgb(119, 33, 111); }
.plot-cell:hover, .plot-cell.hovered { background-color: rgb(243, 152, 20); }
.plot-cell.ui-selecting { background-color: rgb(233, 84, 32); }
.cells-selector { cursor: pointer; width: 0px; height: 0px; position: absolute; border: 10px solid rgba(119, 33, 111, 0.298039); }
.cells-selector.selected { border-color: rgb(119, 33, 111); }
.cells-selector.rows, .cells-selector.all { border-top-color: transparent !important; border-bottom-color: transparent !important; border-right-color: transparent !important; }
.cells-selector.cols { border-top-color: transparent !important; border-left-color: transparent !important; border-right-color: transparent !important; }
.cells-selector.all { transform: rotate(-45deg); }
.cells-selector:hover { border-color: rgb(243, 152, 20); }
.layout-grid, .sublayout-grid { padding: 0px; margin: 0px; min-width: 0px; background-color: transparent; border: none; box-shadow: none !important; }
.layout-grid-content { border-collapse: collapse; border: 1px solid rgb(221, 221, 221); }
.layout-cell { background-color: rgba(119, 33, 111, 0.298039); border: 1px solid rgb(221, 221, 221); min-width: 20px; width: 20px; height: 20px; cursor: pointer; }
.layout-cell.selected { background-color: rgb(119, 33, 111); }
.layout-cell.selecting { background-color: rgb(233, 84, 32); }
.layout-container { padding: 10px 15px; align-items: center; }
.layout-controls { display: flex; justify-content: space-between; align-items: center; }
.layout-controls &gt; .layout-controls-wrapper { display: flex; align-items: baseline; }
.layout-controls .btn { border: 0px; border-radius: 0px; white-space: nowrap; padding: 4px 8px !important; }
.layout-controls .btn.toggle-controls-btn { margin-left: 1rem !important; }
.pagination input { color: inherit; background: transparent; border: 0px; outline: none; }
.contrasted-chart-header-btn:not(:hover) { background: rgba(255, 255, 255, 0.2) !important; }
.message-banner { position: fixed; left: 0px; width: 100%; margin-bottom: 0px; z-index: 10; }
.message-banner.top { top: 0px; }
.message-banner.bottom { bottom: 0px; }
.legend { box-shadow: rgba(0, 0, 0, 0.2) 0px 8px 17px 0px, rgba(0, 0, 0, 0.188235) 0px 6px 20px 0px; z-index: 10; }
.legend:not(.no-move) { cursor: move !important; }
.legend-glyph:not(.aa) { shape-rendering: crispEdges; }
.legend-group-label { font-weight: bold; }
.ui-selectable-helper { z-index: 1100; }
.ui-selectable-helper.no-top { border-top: 0px; }
.ui-selectable-helper.no-right { border-right: 0px; }
.ui-selectable-helper.no-bottom { border-bottom: 0px; }
.ui-selectable-helper.no-left { border-left: 0px; }
.print-preview &gt; .modal-dialog { position: absolute; height: auto; bottom: 0px; top: 0px; left: 0px; right: 0px; }
.page-preview { border: 1px dashed rgb(51, 51, 51); margin: 0px auto; }
.page-preview.portrait { height: 60vh; width: 42.42vh; }
.page-preview.landscape { width: 60vw; height: 42.42vw; }
.tooltip-key::after { content: ": "; }
.brushed-out, .bar.brushed-out { fill: rgb(204, 204, 204) !important; }
.infowrapper { pointer-events: none; }
.information { overflow-y: overlay; overflow-x: hidden; padding: 0.5em; font-family: monospace; box-shadow: rgba(0, 0, 0, 0.2) 0px 8px 17px 0px, rgba(0, 0, 0, 0.188235) 0px 6px 20px 0px; display: inline-block; float: right; cursor: move; pointer-events: all; }
.information span { float: left; clear: both; }
.axis path, .axis line, .grid line{
stroke: #636363;
}

.tick text{
fill: #636363;
}

.axis path, .axis line{
stroke-width: 1px;
}

.bar-label{
fill: #000000;
}

.bar-label{
font-size: 10px;
}

.bin-value{
stroke: red;
}

.bin-value{
}

.bin-value{
stroke-width: 1px;
}

.bound{
stroke: red;
}

.bound{
stroke-width: 2px;
}

.bound.bounded{
stroke: limegreen;
}

.baseline{
stroke: #000000;
}

.baseline{
}

.baseline{
stroke-width: 1px;
}

.box-element rect{
fill: #8fbbd9;
}

.boxplot .outlier line{
stroke: #ff0000;
}

.boxplot .outlier line{
stroke-width: 1px;
}

.quartile{
stroke: #000000;
}

.quartile{
stroke-dasharray: 3, 2;
}

.quartile{
stroke-width: 1px;
}

.box-element line{
stroke: #000000;
}

.box-element line{
stroke-width: 1px;
}

.censEvents{
fill: #d44242;
}

.censEvents{
stroke: #d44242;
}

.censObservations{
fill: #d44242;
}
.censObsIntervals{stroke:rgb(212,66,66);stroke-opacity:0.498039;}

.censObsIntervals{
}

.censObsIntervals{
stroke-width: 5px;
}

.convergence-line{
stroke: #4682B4;
}

.cvIndicator-line{
stroke: #990099;
}

.dosingTimes{
stroke: #000000;
}

.dosingTimes{
stroke-dasharray: 8, 8;
}

.dosingTimes{
stroke-width: 2px;
}

line.empirical, path.empirical{
stroke: #4682B4;
}

.dot.empirical{
fill: #4682B4;
}

line.empirical, path.empirical{
}

line.empirical, path.empirical{
stroke-width: 2px;
}

.fisher_linearization&gt;.bar{
fill: #4682B4;
}

.fisher_stochasticApproximation&gt;.bar{
fill: #98abc5;
}

.focus &gt; line, .focus &gt; circle{
stroke: blue;
}

.lixoftchart{
background-color: #ffffff;
}

.sublayout-controls:hover{
background-color: #ffffff;
}

.bar:hover, .band-overlay:hover{
fill: orange !important;
}

g.bar, g.histogram{
fill: #4682B4;
}

g.bar, g.histogram{
stroke: #ffffff;
}

g.bar, g.histogram{
stroke-width: 1px;
}

.information{
background-color: #FFFFCC;
}

.information{
fill: #FFFFCC;
}

.information{
font-size: 12px;
}

.information{
color: #000000;
}

.k1{
stroke: red;
}

.k1{
stroke-width: 1px;
}

.axis-label.global{
fill: #000000;
}

.axis-label.global{
font-size: 14px;
}

.legend-frame{
fill: #ffffff;
}

.legend-frame{
stroke: #000000;
}

.legend-frame{
stroke-width: 0px;
}

.legend text{
fill: #000000;
}

.legend{
font-size: 12px;
}

.ll_importanceSampling&gt;.bar{
fill: #98abc5;
}

.ll_linearization&gt;.bar{
fill: #4682B4;
}

path.median, line.median{
stroke: #000000;
}

path.median, line.median{
stroke-dasharray: 5,3;
}

path.median, line.median{
stroke-width: 1px;
}

.observation{
fill: #4682B4;
}

.observation{
stroke: #4682B4;
}

.observation-line{
stroke-width: 1.5px;
}

.obsStatisticsValues{
font-size: 10px;
}

.outlier.area{
fill: #ff0000;
}

.outlier.dot{
stroke: #ff0000;
}

.outlier.dot{
stroke-width: 1px;
}
.prediction-interval.median{fill:rgb(255,0,0);fill-opacity:0.2;}
.prediction-interval.low, .prediction-interval.up{fill:rgb(0,128,255);fill-opacity:0.298039;}
.plot-background{fill:rgb(250,250,255);fill-opacity:0.6;}
.bar{stroke:rgb(250,250,255);stroke-opacity:0.6;}

.regressionLine{
stroke: #bd2671;
}

.regressionLine{
}

.regressionLine{
stroke-width: 1.5px;
}

.spline{
stroke: #eba213;
}

.spline{
}

.spline{
stroke-width: 1.5px;
}

.axis-label.sublabel, .matrix-diagonal-label{
fill: #000000;
}

.axis-label.sublabel, .matrix-diagonal-label{
font-size: 12px;
}

line.theoretical, path.theoretical{
stroke: #000000;
}

.dot.theoretical{
fill: #000000;
}

line.theoretical, path.theoretical{
stroke-dasharray: 5,3;
}

line.theoretical, path.theoretical{
stroke-width: 1.5px;
}

.tick{
font-size: 10px;
}

.title{
fill: #000000;
}

.title{
font-size: 14px;
}

.axis-label-unit{
fill: #999;
}

.userGuide-dot{
fill: red;
}

.userGuide-line{
stroke: red;
}

.userGuide-dot{
r: 3;
}

.userGuide-line{
}

.userGuide-line{
stroke-width: 1px;
}

.brushed-out, .brushed-out.bar{
fill: #ccc !important;
}
.not-censObservations{display:none;}
.not-grid{display:none;}
.hasCensored,.__hasCensored{display:none;}
.hasIOV,.__hasIOV{display:none;}
.not-hasMean{display:none;}
.not-hasMode{display:none;}
.not-isIndivEstimMean{display:none;}
.legend,.__legend{display:none;}
.linkedZoom,.__linkedZoom{display:none;}
.not-observations{display:none;}
.splitted,.__splitted{display:none;}
.xEqualDomains,.__xEqualDomains{display:none;}
.xLog,.__xLog{display:none;}
.yEqualDomains,.__yEqualDomains{display:none;}
.yLog,.__yLog{display:none;}
.not-bottomAxisLine{display:none;}
.not-bottomAxisTickLabels{display:none;}
.not-leftAxisLine{display:none;}
.not-leftAxisTickLabels{display:none;}
.rightAxisLine,.__rightAxisLine{display:none;}
.not-rightAxisTickLabels{display:none;}
.topAxisLine,.__topAxisLine{display:none;}
.not-topAxisTickLabels{display:none;}
.freehand-guides-layer,.__freehand-guides-layer{display:none;}
</style><g class="lixoftchart-scaler"><g class="lixoftchart-translator" transform="translate(50,40)"><g class="x axis" transform="translate(0, 595)"><text class="x axis-label global" x="315" y="-10" style="text-anchor: middle;"><tspan class="axis-label-text"/><tspan class="axis-label-unit"/></text></g><g class="y axis"><text class="y axis-label global" transform="rotate(-90)" x="-297.5" y="-30" style="text-anchor: middle;"><tspan class="axis-label-text"/><tspan class="axis-label-unit"/></text></g><g class="page plot-page active" data-index="0"><g class="plot-container page-element" width="176.66666666666666" height="151.66666666666666" data-index="0" data-col="0" data-row="0" transform="translate(0,0)"><g class="subpage plot-page active" data-index="0"><g class="plot page-element" width="176.66666666666666" height="151.66666666666666" id="Cl" data-index="0" title="E(Cl|y)" transform="translate(0,0)"><rect width="176.66666666666666" height="151.66666666666666" class="plot-background"/><svg class="plot-content zoomable-content" width="176.66666666666666" height="151.66666666666666"><path class="convergence-line line autoscale" stroke="steelblue" d="M8.03030303030303,80.38482000582374L10.089355089355088,75.68411045719736L12.148407148407145,76.90020690171895L14.207459207459205,79.10438637912588L16.266511266511262,80.31718778017411L18.325563325563323,80.45038257674383L20.384615384615383,82.02901410804337L22.443667443667444,82.61726499220777L24.5027195027195,82.2669107031956L26.561771561771558,82.36148918606833L28.620823620823614,82.4439034033113L30.679875679875675,81.77598296733429L32.738927738927735,81.01558170050257L34.79797979797979,80.17653221957538L36.85703185703185,80.31599323833679L38.916083916083906,80.55035419290991L40.97513597513596,81.26795148690722L43.03418803418802,80.58701304027089L45.093240093240084,80.59791364446289L47.15229215229214,80.13179378134733L49.2113442113442,79.62309844649779L51.270396270396255,78.8967282489026L53.32944832944832,79.30050017443531L55.388500388500375,79.46964064489872L57.44755244755243,79.80264185952646L59.50660450660449,80.21686353553169L61.565656565656546,80.66305292330578L63.62470862470862,80.91099266505675L65.68376068376067,80.44211734456762L67.74281274281273,80.24900772978323L69.8018648018648,80.37603027633212L71.86091686091684,80.33350053751926L73.91996891996891,79.8086318593788L75.97902097902096,79.59339885021762L78.03807303807302,79.64347652717512L80.09712509712507,79.40622163848892L82.15617715617714,79.5373190130499L84.21522921522919,79.15391175540697L86.27428127428125,79.0044265449256L88.33333333333331,78.7281617772058L90.39238539238538,78.62005562389982L92.45143745143743,78.23819848436202L94.51048951048949,77.81048019760115L96.56954156954154,77.62228503706363L98.6285936285936,77.3835398419933L100.68764568764566,77.37924669234556L102.74669774669772,77.4515521776591L104.8057498057498,77.34792458283383L106.86480186480183,77.5097434245378L108.92385392385391,77.56898997296122L110.98290598290596,77.56217296993476L113.04195804195803,77.59578695034327L115.10101010101008,77.39117156666364L117.16006216006214,77.47844988388788L119.21911421911419,77.39053687430054L121.27816627816625,77.43190032965157L123.3372183372183,77.32695464862387L125.39627039627037,77.24396472810666L127.45532245532243,77.1741468393547L129.51437451437448,77.2898552725491L131.57342657342656,77.2319659215399L133.6324786324786,77.28695366594012L135.69153069153066,77.20035900038118L137.75058275058274,77.04047677245066L139.80963480963482,76.76706219805664L141.86868686868686,76.66980464727634L143.92773892773891,76.55037023244006L145.98679098679096,76.40213007865458L148.04584304584304,76.42611187625808L150.1048951048951,76.41277334049356L152.16394716394714,76.21808507527052L154.2229992229992,76.09985666361935L156.28205128205127,76.13265146825164L158.34110334110332,76.07116169808322L160.40015540015537,75.89419356183305L162.45920745920742,75.7647445948312L164.5182595182595,75.75630948959163L166.57731157731158,75.83333333333333" fill="none"/><line class="bound min segment autoscale bounded" x1="65.68376068376067" y1="138.50550964187352" x2="168.63636363636363" y2="138.50550964187352" fill="none"/><line class="bound max segment autoscale bounded" x1="65.68376068376067" y1="13.161157024793113" x2="168.63636363636363" y2="13.161157024793113" fill="none"/><g class="userGuides"/></svg><g class="axes"><g class="bottom axis bottomAxisLine" transform="translate(0,151.66666666666666)" fill="none" text-anchor="middle"><path class="domain" stroke="#000" d="M0.5,6V0.5H177.16666666666666V6" fill="none"/><g class="tick" opacity="1" transform="translate(8.53030303030303,0)"><line stroke="#000" y2="3" fill="none"/><text fill="#000" y="6" dy="0.71em" class="bottomAxisTickLabels transformed-label"><tspan class="label-block"><tspan class="label-subblock">0</tspan></tspan></text></g><g class="tick" opacity="1" transform="translate(49.7113442113442,0)"><line stroke="#000" y2="3" fill="none"/><text fill="#000" y="6" dy="0.71em" class="bottomAxisTickLabels transformed-label"><tspan class="label-block"><tspan class="label-subblock">20</tspan></tspan></text></g><g class="tick" opacity="1" transform="translate(90.89238539238538,0)"><line stroke="#000" y2="3" fill="none"/><text fill="#000" y="6" dy="0.71em" class="bottomAxisTickLabels transformed-label"><tspan class="label-block"><tspan class="label-subblock">40</tspan></tspan></text></g><g class="tick" opacity="1" transform="translate(132.07342657342656,0)"><line stroke="#000" y2="3" fill="none"/><text fill="#000" y="6" dy="0.71em" class="bottomAxisTickLabels transformed-label"><tspan class="label-block"><tspan class="label-subblock">60</tspan></tspan></text></g><g class="tick" opacity="1" transform="translate(173.25446775446773,0)"><line stroke="#000" y2="3" fill="none"/><text fill="#000" y="6" dy="0.71em" class="bottomAxisTickLabels transformed-label"><tspan class="label-block"><tspan class="label-subblock">80</tspan></tspan></text></g></g><g class="left axis leftAxisLine" fill="none" text-anchor="end"><path class="domain" stroke="#000" d="M-6,152.16666666666666H0.5V0.5H-6" fill="none"/><g class="tick" opacity="1" transform="translate(0,121.90394721937217)"><line stroke="#000" x2="-3" fill="none"/><text fill="#000" x="-6" dy="0.32em" class="leftAxisTickLabels transformed-label"><tspan class="label-block"><tspan class="label-subblock">10.4</tspan></tspan></text></g><g class="tick" opacity="1" transform="translate(0,74.57093878753435)"><line stroke="#000" x2="-3" fill="none"/><text fill="#000" x="-6" dy="0.32em" class="leftAxisTickLabels transformed-label"><tspan class="label-block"><tspan class="label-subblock">10.6</tspan></tspan></text></g><g class="tick" opacity="1" transform="translate(0,27.237930355696093)"><line stroke="#000" x2="-3" fill="none"/><text fill="#000" x="-6" dy="0.32em" class="leftAxisTickLabels transformed-label"><tspan class="label-block"><tspan class="label-subblock">10.8</tspan></tspan></text></g></g></g><g class="grid"><g class="vertical" transform="translate(0,151.66666666666666)" fill="none" font-size="10" font-family="sans-serif" text-anchor="middle"><g class="tick" opacity="1" transform="translate(8.53030303030303,0)"><line stroke="#000" y2="-151.66666666666666" fill="none"/></g><g class="tick" opacity="1" transform="translate(49.7113442113442,0)"><line stroke="#000" y2="-151.66666666666666" fill="none"/></g><g class="tick" opacity="1" transform="translate(90.89238539238538,0)"><line stroke="#000" y2="-151.66666666666666" fill="none"/></g><g class="tick" opacity="1" transform="translate(132.07342657342656,0)"><line stroke="#000" y2="-151.66666666666666" fill="none"/></g><g class="tick" opacity="1" transform="translate(173.25446775446773,0)"><line stroke="#000" y2="-151.66666666666666" fill="none"/></g></g><g class="horizontal" fill="none" font-size="10" font-family="sans-serif" text-anchor="end"><g class="tick" opacity="1" transform="translate(0,121.90394721937217)"><line stroke="#000" x2="176.66666666666666" fill="none"/></g><g class="tick" opacity="1" transform="translate(0,74.57093878753435)"><line stroke="#000" x2="176.66666666666666" fill="none"/></g><g class="tick" opacity="1" transform="translate(0,27.237930355696093)"><line stroke="#000" x2="176.66666666666666" fill="none"/></g></g></g><defs><clipPath id="Cl--freehand-guides-clip" class="freehand-guides-clip"><rect x="0" y="0" width="176.66666666666666" height="151.66666666666666"/></clipPath></defs></g></g><text x="88.33333333333333" y="-1em" class="title transformed-label" text-anchor="middle"><tspan class="label-block"><tspan class="label-subblock">E(Cl|y)</tspan></tspan></text></g><g class="plot-container page-element" width="176.66666666666666" height="151.66666666666666" data-index="1" data-col="1" data-row="0" transform="translate(226.66666666666666,0)"><g class="subpage plot-page active" data-index="0"><g class="plot page-element" width="176.66666666666666" height="151.66666666666666" id="V1" data-index="0" title="E(V1|y)" transform="translate(0,0)"><rect width="176.66666666666666" height="151.66666666666666" class="plot-background"/><svg class="plot-content zoomable-content" width="176.66666666666666" height="151.66666666666666"><path class="convergence-line line autoscale" stroke="steelblue" d="M8.03030303030303,95.5611551000406L10.089355089355088,84.96023095254534L12.148407148407145,82.7267241456417L14.207459207459205,73.3321574005594L16.266511266511262,70.00109072311805L18.325563325563323,68.16981153184625L20.384615384615383,69.933863441887L22.443667443667444,69.65880606750888L24.5027195027195,67.23448520697337L26.561771561771558,66.88303662185656L28.620823620823614,68.54766781436346L30.679875679875675,70.29118750117388L32.738927738927735,74.10694904336725L34.79797979797979,74.0559847265288L36.85703185703185,74.51583073073222L38.916083916083906,76.4763686514561L40.97513597513596,78.95537524092386L43.03418803418802,79.13125124815913L45.093240093240084,79.86404896448616L47.15229215229214,80.14328827022509L49.2113442113442,81.37629438342071L51.270396270396255,81.35998911324613L53.32944832944832,80.94858870852073L55.388500388500375,80.10316042857983L57.44755244755243,79.27024013274186L59.50660450660449,78.52768513466819L61.565656565656546,77.55834796833932L63.62470862470862,76.80218152142291L65.68376068376067,75.48306688978451L67.74281274281273,76.13941252654254L69.8018648018648,76.88029846331436L71.86091686091684,78.43439006565305L73.91996891996891,79.97477984301469L75.97902097902096,80.71565705586656L78.03807303807302,80.14660568527071L80.09712509712507,78.80956515660479L82.15617715617714,78.15602661559818L84.21522921522919,77.7671903827406L86.27428127428125,77.85611873062284L88.33333333333331,78.85356608388832L90.39238539238538,78.39413819414959L92.45143745143743,78.51810254376652L94.51048951048949,78.35876293982662L96.56954156954154,79.2519438706469L98.6285936285936,79.86689690048502L100.68764568764566,80.62967202451402L102.74669774669772,79.70301899447904L104.8057498057498,78.94462206478572L106.86480186480183,77.47657931617194L108.92385392385391,76.64458906884774L110.98290598290596,75.70079250166248L113.04195804195803,76.13286396164501L115.10101010101008,76.02169253551243L117.16006216006214,76.43178204482956L119.21911421911419,77.16496896064417L121.27816627816625,76.99953878094296L123.3372183372183,76.80581900514515L125.39627039627037,76.72310009946332L127.45532245532243,77.03968040941794L129.51437451437448,76.8533112396749L131.57342657342656,76.49242638400783L133.6324786324786,76.24775456930574L135.69153069153066,76.39037898608323L137.75058275058274,75.9546154178414L139.80963480963482,75.35177855771812L141.86868686868686,74.2226387229404L143.92773892773891,74.21360673810236L145.98679098679096,75.11840602818273L148.04584304584304,75.54304123513074L150.1048951048951,76.01949969559121L152.16394716394714,76.16321683326899L154.2229992229992,77.54535907279012L156.28205128205127,78.18187996282965L158.34110334110332,78.11284918921727L160.40015540015537,77.94416859174018L162.45920745920742,77.36998861607393L164.5182595182595,76.67187545206554L166.57731157731158,75.83333333333333" fill="none"/><line class="bound min segment autoscale bounded" x1="65.68376068376067" y1="138.5055096418734" x2="168.63636363636363" y2="138.5055096418734" fill="none"/><line class="bound max segment autoscale bounded" x1="65.68376068376067" y1="13.161157024793255" x2="168.63636363636363" y2="13.161157024793255" fill="none"/><g class="userGuides"/></svg><g class="axes"><g class="bottom axis bottomAxisLine" transform="translate(0,151.66666666666666)" fill="none" text-anchor="middle"><path class="domain" stroke="#000" d="M0.5,6V0.5H177.16666666666666V6" fill="none"/><g class="tick" opacity="1" transform="translate(8.53030303030303,0)"><line stroke="#000" y2="3" fill="none"/><text fill="#000" y="6" dy="0.71em" class="bottomAxisTickLabels transformed-label"><tspan class="label-block"><tspan class="label-subblock">0</tspan></tspan></text></g><g class="tick" opacity="1" transform="translate(49.7113442113442,0)"><line stroke="#000" y2="3" fill="none"/><text fill="#000" y="6" dy="0.71em" class="bottomAxisTickLabels transformed-label"><tspan class="label-block"><tspan class="label-subblock">20</tspan></tspan></text></g><g class="tick" opacity="1" transform="translate(90.89238539238538,0)"><line stroke="#000" y2="3" fill="none"/><text fill="#000" y="6" dy="0.71em" class="bottomAxisTickLabels transformed-label"><tspan class="label-block"><tspan class="label-subblock">40</tspan></tspan></text></g><g class="tick" opacity="1" transform="translate(132.07342657342656,0)"><line stroke="#000" y2="3" fill="none"/><text fill="#000" y="6" dy="0.71em" class="bottomAxisTickLabels transformed-label"><tspan class="label-block"><tspan class="label-subblock">60</tspan></tspan></text></g><g class="tick" opacity="1" transform="translate(173.25446775446773,0)"><line stroke="#000" y2="3" fill="none"/><text fill="#000" y="6" dy="0.71em" class="bottomAxisTickLabels transformed-label"><tspan class="label-block"><tspan class="label-subblock">80</tspan></tspan></text></g></g><g class="left axis leftAxisLine" fill="none" text-anchor="end"><path class="domain" stroke="#000" d="M-6,152.16666666666666H0.5V0.5H-6" fill="none"/><g class="tick" opacity="1" transform="translate(0,106.81105282072005)"><line stroke="#000" x2="-3" fill="none"/><text fill="#000" x="-6" dy="0.32em" class="leftAxisTickLabels transformed-label"><tspan class="label-block"><tspan class="label-subblock">42</tspan></tspan></text></g><g class="tick" opacity="1" transform="translate(0,47.84892584800072)"><line stroke="#000" x2="-3" fill="none"/><text fill="#000" x="-6" dy="0.32em" class="leftAxisTickLabels transformed-label"><tspan class="label-block"><tspan class="label-subblock">43</tspan></tspan></text></g></g></g><g class="grid"><g class="vertical" transform="translate(0,151.66666666666666)" fill="none" font-size="10" font-family="sans-serif" text-anchor="middle"><g class="tick" opacity="1" transform="translate(8.53030303030303,0)"><line stroke="#000" y2="-151.66666666666666" fill="none"/></g><g class="tick" opacity="1" transform="translate(49.7113442113442,0)"><line stroke="#000" y2="-151.66666666666666" fill="none"/></g><g class="tick" opacity="1" transform="translate(90.89238539238538,0)"><line stroke="#000" y2="-151.66666666666666" fill="none"/></g><g class="tick" opacity="1" transform="translate(132.07342657342656,0)"><line stroke="#000" y2="-151.66666666666666" fill="none"/></g><g class="tick" opacity="1" transform="translate(173.25446775446773,0)"><line stroke="#000" y2="-151.66666666666666" fill="none"/></g></g><g class="horizontal" fill="none" font-size="10" font-family="sans-serif" text-anchor="end"><g class="tick" opacity="1" transform="translate(0,106.81105282072005)"><line stroke="#000" x2="176.66666666666666" fill="none"/></g><g class="tick" opacity="1" transform="translate(0,47.84892584800072)"><line stroke="#000" x2="176.66666666666666" fill="none"/></g></g></g><defs><clipPath id="V1--freehand-guides-clip" class="freehand-guides-clip"><rect x="0" y="0" width="176.66666666666666" height="151.66666666666666"/></clipPath></defs></g></g><text x="88.33333333333333" y="-1em" class="title transformed-label" text-anchor="middle"><tspan class="label-block"><tspan class="label-subblock">E(V1|y)</tspan></tspan></text></g><g class="plot-container page-element" width="176.66666666666666" height="151.66666666666666" data-index="2" data-col="2" data-row="0" transform="translate(453.3333333333333,0)"><g class="subpage plot-page active" data-index="0"><g class="plot page-element" width="176.66666666666666" height="151.66666666666666" id="Q" data-index="0" title="E(Q|y)" transform="translate(0,0)"><rect width="176.66666666666666" height="151.66666666666666" class="plot-background"/><svg class="plot-content zoomable-content" width="176.66666666666666" height="151.66666666666666"><path class="convergence-line line autoscale" stroke="steelblue" d="M8.03030303030303,111.5626768585876L10.089355089355088,108.7638331252319L12.148407148407145,118.04005253885848L14.207459207459205,138.5055096418733L16.266511266511262,132.7624279849719L18.325563325563323,134.33968786586254L20.384615384615383,128.99770793883124L22.443667443667444,122.11532801467777L24.5027195027195,126.20322766334189L26.561771561771558,128.88769680869012L28.620823620823614,122.09074656735888L30.679875679875675,122.7255639667541L32.738927738927735,116.84429329581357L34.79797979797979,105.33902837649327L36.85703185703185,100.67413526951262L38.916083916083906,95.30444584716525L40.97513597513596,93.25408321412945L43.03418803418802,86.51712169871902L45.093240093240084,82.99720764675139L47.15229215229214,78.09809711897078L49.2113442113442,73.34375493917995L51.270396270396255,65.26934354042534L53.32944832944832,61.34859274164218L55.388500388500375,64.64652348310135L57.44755244755243,69.25311171349225L59.50660450660449,74.00339605346798L61.565656565656546,76.2614872027575L63.62470862470862,77.93924063590244L65.68376068376067,78.87581686177425L67.74281274281273,78.63298019275344L69.8018648018648,79.56639514225292L71.86091686091684,78.68137989417406L73.91996891996891,74.43532533211828L75.97902097902096,74.0809685515838L78.03807303807302,74.93103833965722L80.09712509712507,76.33296779552806L82.15617715617714,76.00217805583861L84.21522921522919,73.92754672068975L86.27428127428125,73.37253935523096L88.33333333333331,70.48957044294211L90.39238539238538,70.66283619778488L92.45143745143743,70.40020710480272L94.51048951048949,67.03846690482342L96.56954156954154,65.10856521552878L98.6285936285936,63.71034787733406L100.68764568764566,63.849029599767604L102.74669774669772,66.92106374772455L104.8057498057498,68.99005785870526L106.86480186480183,69.21597415958087L108.92385392385391,70.95519538742481L110.98290598290596,72.3379664547372L113.04195804195803,72.63557842981655L115.10101010101008,72.31552384340829L117.16006216006214,72.41131241933091L119.21911421911419,70.62089958567154L121.27816627816625,69.13511256597252L123.3372183372183,68.5427026374959L125.39627039627037,68.53656505630076L127.45532245532243,69.37189709452375L129.51437451437448,70.11728461058131L131.57342657342656,70.28528107479558L133.6324786324786,70.59785428917567L135.69153069153066,70.47630087908024L137.75058275058274,70.7932238653599L139.80963480963482,70.90003797105688L141.86868686868686,72.44638937236272L143.92773892773891,72.95583934300986L145.98679098679096,71.99464907938868L148.04584304584304,71.2162634005496L150.1048951048951,70.29283360081145L152.16394716394714,67.59948417541479L154.2229992229992,65.118434373189L156.28205128205127,62.424714500798984L158.34110334110332,60.26208164182121L160.40015540015537,56.740196740406134L162.45920745920742,55.17481357698975L164.5182595182595,55.95333296583037L166.57731157731158,57.254774422382624" fill="none"/><line class="bound min segment autoscale bounded" x1="65.68376068376067" y1="101.34839181997188" x2="168.63636363636363" y2="101.34839181997188" fill="none"/><line class="bound max segment autoscale bounded" x1="65.68376068376067" y1="13.161157024793368" x2="168.63636363636363" y2="13.161157024793368" fill="none"/><g class="userGuides"/></svg><g class="axes"><g class="bottom axis bottomAxisLine" transform="translate(0,151.66666666666666)" fill="none" text-anchor="middle"><path class="domain" stroke="#000" d="M0.5,6V0.5H177.16666666666666V6" fill="none"/><g class="tick" opacity="1" transform="translate(8.53030303030303,0)"><line stroke="#000" y2="3" fill="none"/><text fill="#000" y="6" dy="0.71em" class="bottomAxisTickLabels transformed-label"><tspan class="label-block"><tspan class="label-subblock">0</tspan></tspan></text></g><g class="tick" opacity="1" transform="translate(49.7113442113442,0)"><line stroke="#000" y2="3" fill="none"/><text fill="#000" y="6" dy="0.71em" class="bottomAxisTickLabels transformed-label"><tspan class="label-block"><tspan class="label-subblock">20</tspan></tspan></text></g><g class="tick" opacity="1" transform="translate(90.89238539238538,0)"><line stroke="#000" y2="3" fill="none"/><text fill="#000" y="6" dy="0.71em" class="bottomAxisTickLabels transformed-label"><tspan class="label-block"><tspan class="label-subblock">40</tspan></tspan></text></g><g class="tick" opacity="1" transform="translate(132.07342657342656,0)"><line stroke="#000" y2="3" fill="none"/><text fill="#000" y="6" dy="0.71em" class="bottomAxisTickLabels transformed-label"><tspan class="label-block"><tspan class="label-subblock">60</tspan></tspan></text></g><g class="tick" opacity="1" transform="translate(173.25446775446773,0)"><line stroke="#000" y2="3" fill="none"/><text fill="#000" y="6" dy="0.71em" class="bottomAxisTickLabels transformed-label"><tspan class="label-block"><tspan class="label-subblock">80</tspan></tspan></text></g></g><g class="left axis leftAxisLine" fill="none" text-anchor="end"><path class="domain" stroke="#000" d="M-6,152.16666666666666H0.5V0.5H-6" fill="none"/><g class="tick" opacity="1" transform="translate(0,137.08416102440043)"><line stroke="#000" x2="-3" fill="none"/><text fill="#000" x="-6" dy="0.32em" class="leftAxisTickLabels transformed-label"><tspan class="label-block"><tspan class="label-subblock">13.5</tspan></tspan></text></g><g class="tick" opacity="1" transform="translate(0,74.69840882804672)"><line stroke="#000" x2="-3" fill="none"/><text fill="#000" x="-6" dy="0.32em" class="leftAxisTickLabels transformed-label"><tspan class="label-block"><tspan class="label-subblock">14</tspan></tspan></text></g><g class="tick" opacity="1" transform="translate(0,12.312656631693045)"><line stroke="#000" x2="-3" fill="none"/><text fill="#000" x="-6" dy="0.32em" class="leftAxisTickLabels transformed-label"><tspan class="label-block"><tspan class="label-subblock">14.5</tspan></tspan></text></g></g></g><g class="grid"><g class="vertical" transform="translate(0,151.66666666666666)" fill="none" font-size="10" font-family="sans-serif" text-anchor="middle"><g class="tick" opacity="1" transform="translate(8.53030303030303,0)"><line stroke="#000" y2="-151.66666666666666" fill="none"/></g><g class="tick" opacity="1" transform="translate(49.7113442113442,0)"><line stroke="#000" y2="-151.66666666666666" fill="none"/></g><g class="tick" opacity="1" transform="translate(90.89238539238538,0)"><line stroke="#000" y2="-151.66666666666666" fill="none"/></g><g class="tick" opacity="1" transform="translate(132.07342657342656,0)"><line stroke="#000" y2="-151.66666666666666" fill="none"/></g><g class="tick" opacity="1" transform="translate(173.25446775446773,0)"><line stroke="#000" y2="-151.66666666666666" fill="none"/></g></g><g class="horizontal" fill="none" font-size="10" font-family="sans-serif" text-anchor="end"><g class="tick" opacity="1" transform="translate(0,137.08416102440043)"><line stroke="#000" x2="176.66666666666666" fill="none"/></g><g class="tick" opacity="1" transform="translate(0,74.69840882804672)"><line stroke="#000" x2="176.66666666666666" fill="none"/></g><g class="tick" opacity="1" transform="translate(0,12.312656631693045)"><line stroke="#000" x2="176.66666666666666" fill="none"/></g></g></g><defs><clipPath id="Q--freehand-guides-clip" class="freehand-guides-clip"><rect x="0" y="0" width="176.66666666666666" height="151.66666666666666"/></clipPath></defs></g></g><text x="88.33333333333333" y="-1em" class="title transformed-label" text-anchor="middle"><tspan class="label-block"><tspan class="label-subblock">E(Q|y)</tspan></tspan></text></g><g class="plot-container page-element" width="176.66666666666666" height="151.66666666666666" data-index="3" data-col="0" data-row="1" transform="translate(0,201.66666666666666)"><g class="subpage plot-page active" data-index="0"><g class="plot page-element" width="176.66666666666666" height="151.66666666666666" id="V2" data-index="0" title="E(V2|y)" transform="translate(0,0)"><rect width="176.66666666666666" height="151.66666666666666" class="plot-background"/><svg class="plot-content zoomable-content" width="176.66666666666666" height="151.66666666666666"><path class="convergence-line line autoscale" stroke="steelblue" d="M8.03030303030303,39.32773394232005L10.089355089355088,76.52853575319038L12.148407148407145,73.69818975401245L14.207459207459205,88.86939770272302L16.266511266511262,97.66963387777145L18.325563325563323,108.28777554667613L20.384615384615383,108.71218729598756L22.443667443667444,102.79720955980284L24.5027195027195,99.33888081778926L26.561771561771558,99.67997029257415L28.620823620823614,98.41333049546995L30.679875679875675,93.34242862348819L32.738927738927735,96.0142709576001L34.79797979797979,95.37732716828616L36.85703185703185,96.62868131829896L38.916083916083906,95.3407160163253L40.97513597513596,93.64070704432311L43.03418803418802,93.20283891065748L45.093240093240084,94.61526628434183L47.15229215229214,93.31718361175639L49.2113442113442,95.1832682035809L51.270396270396255,93.34464559783697L53.32944832944832,96.31230381984747L55.388500388500375,95.51662285061764L57.44755244755243,96.72086690879378L59.50660450660449,93.53150997558868L61.565656565656546,89.20535634093483L63.62470862470862,84.08869411725102L65.68376068376067,82.24202256454363L67.74281274281273,82.81952346852911L69.8018648018648,81.70862544650237L71.86091686091684,78.1898089975606L73.91996891996891,77.80355420823541L75.97902097902096,78.19508164628758L78.03807303807302,79.64075093577402L80.09712509712507,78.54811387597668L82.15617715617714,78.72154362184212L84.21522921522919,76.81639335366117L86.27428127428125,75.9932938295729L88.33333333333331,74.22353159393721L90.39238539238538,72.11345535061542L92.45143745143743,70.18988376827792L94.51048951048949,65.96246248038769L96.56954156954154,66.2983232604149L98.6285936285936,66.77928251117149L100.68764568764566,65.96276598972476L102.74669774669772,65.14170924228247L104.8057498057498,64.03030807546834L106.86480186480183,64.33839515260058L108.92385392385391,65.60482073547284L110.98290598290596,66.4233591818072L113.04195804195803,66.28975283716234L115.10101010101008,66.48638347670781L117.16006216006214,66.52135009933623L119.21911421911419,68.31176566670004L121.27816627816625,69.65172001946762L123.3372183372183,71.0750550805914L125.39627039627037,72.70499972236064L127.45532245532243,74.51673500107522L129.51437451437448,75.27373188471014L131.57342657342656,75.067737449731L133.6324786324786,76.3397362176563L135.69153069153066,76.54845033100773L137.75058275058274,77.44220265535256L139.80963480963482,78.15060682598168L141.86868686868686,77.69937907626588L143.92773892773891,76.61560078813916L145.98679098679096,77.30633025718247L148.04584304584304,77.52611375421594L150.1048951048951,77.94783778382305L152.16394716394714,78.45295265571303L154.2229992229992,77.38561474953315L156.28205128205127,77.39163178857581L158.34110334110332,77.54270459091654L160.40015540015537,76.96970126106233L162.45920745920742,76.26383632362027L164.5182595182595,76.12787225792016L166.57731157731158,75.83333333333333" fill="none"/><line class="bound min segment autoscale bounded" x1="65.68376068376067" y1="138.50550964187343" x2="168.63636363636363" y2="138.50550964187343" fill="none"/><line class="bound max segment autoscale bounded" x1="65.68376068376067" y1="13.161157024793255" x2="168.63636363636363" y2="13.161157024793255" fill="none"/><g class="userGuides"/></svg><g class="axes"><g class="bottom axis bottomAxisLine" transform="translate(0,151.66666666666666)" fill="none" text-anchor="middle"><path class="domain" stroke="#000" d="M0.5,6V0.5H177.16666666666666V6" fill="none"/><g class="tick" opacity="1" transform="translate(8.53030303030303,0)"><line stroke="#000" y2="3" fill="none"/><text fill="#000" y="6" dy="0.71em" class="bottomAxisTickLabels transformed-label"><tspan class="label-block"><tspan class="label-subblock">0</tspan></tspan></text></g><g class="tick" opacity="1" transform="translate(49.7113442113442,0)"><line stroke="#000" y2="3" fill="none"/><text fill="#000" y="6" dy="0.71em" class="bottomAxisTickLabels transformed-label"><tspan class="label-block"><tspan class="label-subblock">20</tspan></tspan></text></g><g class="tick" opacity="1" transform="translate(90.89238539238538,0)"><line stroke="#000" y2="3" fill="none"/><text fill="#000" y="6" dy="0.71em" class="bottomAxisTickLabels transformed-label"><tspan class="label-block"><tspan class="label-subblock">40</tspan></tspan></text></g><g class="tick" opacity="1" transform="translate(132.07342657342656,0)"><line stroke="#000" y2="3" fill="none"/><text fill="#000" y="6" dy="0.71em" class="bottomAxisTickLabels transformed-label"><tspan class="label-block"><tspan class="label-subblock">60</tspan></tspan></text></g><g class="tick" opacity="1" transform="translate(173.25446775446773,0)"><line stroke="#000" y2="3" fill="none"/><text fill="#000" y="6" dy="0.71em" class="bottomAxisTickLabels transformed-label"><tspan class="label-block"><tspan class="label-subblock">80</tspan></tspan></text></g></g><g class="left axis leftAxisLine" fill="none" text-anchor="end"><path class="domain" stroke="#000" d="M-6,152.16666666666666H0.5V0.5H-6" fill="none"/><g class="tick" opacity="1" transform="translate(0,117.24135062367787)"><line stroke="#000" x2="-3" fill="none"/><text fill="#000" x="-6" dy="0.32em" class="leftAxisTickLabels transformed-label"><tspan class="label-block"><tspan class="label-subblock">50</tspan></tspan></text></g><g class="tick" opacity="1" transform="translate(0,67.92176992265271)"><line stroke="#000" x2="-3" fill="none"/><text fill="#000" x="-6" dy="0.32em" class="leftAxisTickLabels transformed-label"><tspan class="label-block"><tspan class="label-subblock">51</tspan></tspan></text></g><g class="tick" opacity="1" transform="translate(0,18.602189221627526)"><line stroke="#000" x2="-3" fill="none"/><text fill="#000" x="-6" dy="0.32em" class="leftAxisTickLabels transformed-label"><tspan class="label-block"><tspan class="label-subblock">52</tspan></tspan></text></g></g></g><g class="grid"><g class="vertical" transform="translate(0,151.66666666666666)" fill="none" font-size="10" font-family="sans-serif" text-anchor="middle"><g class="tick" opacity="1" transform="translate(8.53030303030303,0)"><line stroke="#000" y2="-151.66666666666666" fill="none"/></g><g class="tick" opacity="1" transform="translate(49.7113442113442,0)"><line stroke="#000" y2="-151.66666666666666" fill="none"/></g><g class="tick" opacity="1" transform="translate(90.89238539238538,0)"><line stroke="#000" y2="-151.66666666666666" fill="none"/></g><g class="tick" opacity="1" transform="translate(132.07342657342656,0)"><line stroke="#000" y2="-151.66666666666666" fill="none"/></g><g class="tick" opacity="1" transform="translate(173.25446775446773,0)"><line stroke="#000" y2="-151.66666666666666" fill="none"/></g></g><g class="horizontal" fill="none" font-size="10" font-family="sans-serif" text-anchor="end"><g class="tick" opacity="1" transform="translate(0,117.24135062367787)"><line stroke="#000" x2="176.66666666666666" fill="none"/></g><g class="tick" opacity="1" transform="translate(0,67.92176992265271)"><line stroke="#000" x2="176.66666666666666" fill="none"/></g><g class="tick" opacity="1" transform="translate(0,18.602189221627526)"><line stroke="#000" x2="176.66666666666666" fill="none"/></g></g></g><defs><clipPath id="V2--freehand-guides-clip" class="freehand-guides-clip"><rect x="0" y="0" width="176.66666666666666" height="151.66666666666666"/></clipPath></defs></g></g><text x="88.33333333333333" y="-1em" class="title transformed-label" text-anchor="middle"><tspan class="label-block"><tspan class="label-subblock">E(V2|y)</tspan></tspan></text></g><g class="plot-container page-element" width="176.66666666666666" height="151.66666666666666" data-index="4" data-col="1" data-row="1" transform="translate(226.66666666666666,201.66666666666666)"><g class="subpage plot-page active" data-index="0"><g class="plot page-element" width="176.66666666666666" height="151.66666666666666" id="Cl_sd" data-index="0" title="sd(Cl|y)" transform="translate(0,0)"><rect width="176.66666666666666" height="151.66666666666666" class="plot-background"/><svg class="plot-content zoomable-content" width="176.66666666666666" height="151.66666666666666"><path class="convergence-line line autoscale" stroke="steelblue" d="M8.03030303030303,13.161157024793368L10.089355089355088,65.733206555297L12.148407148407145,77.12675775472339L14.207459207459205,97.41555045113955L16.266511266511262,109.70566053133031L18.325563325563323,123.66983637437332L20.384615384615383,132.5154799011759L22.443667443667444,131.35700964424925L24.5027195027195,130.35297077414978L26.561771561771558,122.48850860612498L28.620823620823614,124.12930452237669L30.679875679875675,128.47377409993175L32.738927738927735,129.95071295257324L34.79797979797979,130.7359277606305L36.85703185703185,131.14154532660876L38.916083916083906,132.87794180587215L40.97513597513596,132.625613257848L43.03418803418802,133.73950998493473L45.093240093240084,131.29945179001015L47.15229215229214,132.33969988529006L49.2113442113442,132.61273473213208L51.270396270396255,133.61651698217037L53.32944832944832,132.75963643900062L55.388500388500375,132.97330183204804L57.44755244755243,131.6163905877008L59.50660450660449,131.7352968233261L61.565656565656546,132.53631725827762L63.62470862470862,133.54789022511443L65.68376068376067,132.15298745210265L67.74281274281273,130.81704328926594L69.8018648018648,131.41121923563435L71.86091686091684,130.4900947290626L73.91996891996891,129.8282273049812L75.97902097902096,130.22782303553888L78.03807303807302,131.95281372122366L80.09712509712507,133.42217478450655L82.15617715617714,133.69410781067444L84.21522921522919,132.81851076315792L86.27428127428125,132.84890680848457L88.33333333333331,131.87917890498187L90.39238539238538,131.63420601582754L92.45143745143743,131.52622216433812L94.51048951048949,129.3982121653295L96.56954156954154,130.04172562731006L98.6285936285936,129.69784193337287L100.68764568764566,131.18505295547135L102.74669774669772,130.73564474129887L104.8057498057498,131.0894231010511L106.86480186480183,131.3281595508014L108.92385392385391,131.34375234275234L110.98290598290596,131.43173752658095L113.04195804195803,130.7269903414269L115.10101010101008,131.32959632491378L117.16006216006214,131.80392096541385L119.21911421911419,132.59530058143824L121.27816627816625,133.31011802189082L123.3372183372183,132.87304553704575L125.39627039627037,131.949875730464L127.45532245532243,131.12482649148993L129.51437451437448,130.40610724510097L131.57342657342656,130.61493727305168L133.6324786324786,130.25039790291106L135.69153069153066,130.3910055124104L137.75058275058274,130.55962037993314L139.80963480963482,130.58231116406498L141.86868686868686,130.40280795587714L143.92773892773891,129.2855866157736L145.98679098679096,128.2374472763865L148.04584304584304,128.07567069782348L150.1048951048951,127.67860722072476L152.16394716394714,126.8423814259589L154.2229992229992,126.71022762230062L156.28205128205127,126.76556888630546L158.34110334110332,126.81480980387305L160.40015540015537,127.11060875624813L162.45920745920742,127.70698410548617L164.5182595182595,128.36346162813928L166.57731157731158,128.340818380991" fill="none"/><line class="bound min segment autoscale bounded" x1="65.68376068376067" y1="138.5055096418733" x2="168.63636363636363" y2="138.5055096418733" fill="none"/><line class="bound max segment autoscale bounded" x1="65.68376068376067" y1="118.1761271201087" x2="168.63636363636363" y2="118.1761271201087" fill="none"/><g class="userGuides"/></svg><g class="axes"><g class="bottom axis bottomAxisLine" transform="translate(0,151.66666666666666)" fill="none" text-anchor="middle"><path class="domain" stroke="#000" d="M0.5,6V0.5H177.16666666666666V6" fill="none"/><g class="tick" opacity="1" transform="translate(8.53030303030303,0)"><line stroke="#000" y2="3" fill="none"/><text fill="#000" y="6" dy="0.71em" class="bottomAxisTickLabels transformed-label"><tspan class="label-block"><tspan class="label-subblock">0</tspan></tspan></text></g><g class="tick" opacity="1" transform="translate(49.7113442113442,0)"><line stroke="#000" y2="3" fill="none"/><text fill="#000" y="6" dy="0.71em" class="bottomAxisTickLabels transformed-label"><tspan class="label-block"><tspan class="label-subblock">20</tspan></tspan></text></g><g class="tick" opacity="1" transform="translate(90.89238539238538,0)"><line stroke="#000" y2="3" fill="none"/><text fill="#000" y="6" dy="0.71em" class="bottomAxisTickLabels transformed-label"><tspan class="label-block"><tspan class="label-subblock">40</tspan></tspan></text></g><g class="tick" opacity="1" transform="translate(132.07342657342656,0)"><line stroke="#000" y2="3" fill="none"/><text fill="#000" y="6" dy="0.71em" class="bottomAxisTickLabels transformed-label"><tspan class="label-block"><tspan class="label-subblock">60</tspan></tspan></text></g><g class="tick" opacity="1" transform="translate(173.25446775446773,0)"><line stroke="#000" y2="3" fill="none"/><text fill="#000" y="6" dy="0.71em" class="bottomAxisTickLabels transformed-label"><tspan class="label-block"><tspan class="label-subblock">80</tspan></tspan></text></g></g><g class="left axis leftAxisLine" fill="none" text-anchor="end"><path class="domain" stroke="#000" d="M-6,152.16666666666666H0.5V0.5H-6" fill="none"/><g class="tick" opacity="1" transform="translate(0,79.89481312434862)"><line stroke="#000" x2="-3" fill="none"/><text fill="#000" x="-6" dy="0.32em" class="leftAxisTickLabels transformed-label"><tspan class="label-block"><tspan class="label-subblock">0.03</tspan></tspan></text></g><g class="tick" opacity="1" transform="translate(0,3.9725371756927643)"><line stroke="#000" x2="-3" fill="none"/><text fill="#000" x="-6" dy="0.32em" class="leftAxisTickLabels transformed-label"><tspan class="label-block"><tspan class="label-subblock">0.035</tspan></tspan></text></g></g></g><g class="grid"><g class="vertical" transform="translate(0,151.66666666666666)" fill="none" font-size="10" font-family="sans-serif" text-anchor="middle"><g class="tick" opacity="1" transform="translate(8.53030303030303,0)"><line stroke="#000" y2="-151.66666666666666" fill="none"/></g><g class="tick" opacity="1" transform="translate(49.7113442113442,0)"><line stroke="#000" y2="-151.66666666666666" fill="none"/></g><g class="tick" opacity="1" transform="translate(90.89238539238538,0)"><line stroke="#000" y2="-151.66666666666666" fill="none"/></g><g class="tick" opacity="1" transform="translate(132.07342657342656,0)"><line stroke="#000" y2="-151.66666666666666" fill="none"/></g><g class="tick" opacity="1" transform="translate(173.25446775446773,0)"><line stroke="#000" y2="-151.66666666666666" fill="none"/></g></g><g class="horizontal" fill="none" font-size="10" font-family="sans-serif" text-anchor="end"><g class="tick" opacity="1" transform="translate(0,79.89481312434862)"><line stroke="#000" x2="176.66666666666666" fill="none"/></g><g class="tick" opacity="1" transform="translate(0,3.9725371756927643)"><line stroke="#000" x2="176.66666666666666" fill="none"/></g></g></g><defs><clipPath id="Cl_sd--freehand-guides-clip" class="freehand-guides-clip"><rect x="0" y="0" width="176.66666666666666" height="151.66666666666666"/></clipPath></defs></g></g><text x="88.33333333333333" y="-1em" class="title transformed-label" text-anchor="middle"><tspan class="label-block"><tspan class="label-subblock">sd(Cl|y)</tspan></tspan></text></g><g class="plot-container page-element" width="176.66666666666666" height="151.66666666666666" data-index="5" data-col="2" data-row="1" transform="translate(453.3333333333333,201.66666666666666)"><g class="subpage plot-page active" data-index="0"><g class="plot page-element" width="176.66666666666666" height="151.66666666666666" id="V1_sd" data-index="0" title="sd(V1|y)" transform="translate(0,0)"><rect width="176.66666666666666" height="151.66666666666666" class="plot-background"/><svg class="plot-content zoomable-content" width="176.66666666666666" height="151.66666666666666"><path class="convergence-line line autoscale" stroke="steelblue" d="M8.03030303030303,13.161157024793425L10.089355089355088,91.42375949968513L12.148407148407145,129.02068431807248L14.207459207459205,138.50550964187323L16.266511266511262,108.48362460093225L18.325563325563323,100.01933933397277L20.384615384615383,98.7262726068854L22.443667443667444,101.1285932994704L24.5027195027195,103.5220276620219L26.561771561771558,109.35862497633485L28.620823620823614,114.05600613207744L30.679875679875675,117.71755050536895L32.738927738927735,110.67542845352094L34.79797979797979,108.32084099280058L36.85703185703185,106.01222688003682L38.916083916083906,100.26394577673406L40.97513597513596,89.85027596401183L43.03418803418802,83.69687010541024L45.093240093240084,80.84595752623636L47.15229215229214,75.58724580260103L49.2113442113442,74.70583521188176L51.270396270396255,73.67682380983764L53.32944832944832,77.00474078662998L55.388500388500375,77.46267193183522L57.44755244755243,78.99461200162386L59.50660450660449,81.84374235367962L61.565656565656546,85.12305781701814L63.62470862470862,87.30406641596521L65.68376068376067,87.48387296572972L67.74281274281273,87.55553937028535L69.8018648018648,88.81271773623882L71.86091686091684,89.49568637741308L73.91996891996891,90.18212346756042L75.97902097902096,90.68098698347302L78.03807303807302,90.7795431047069L80.09712509712507,92.08561391487996L82.15617715617714,94.05250305825629L84.21522921522919,92.28108969092705L86.27428127428125,91.44574041380827L88.33333333333331,91.27603412249206L90.39238539238538,91.1753335463718L92.45143745143743,91.55560782480813L94.51048951048949,90.10312633334237L96.56954156954154,91.49419959527724L98.6285936285936,92.38321588265894L100.68764568764566,92.18917496588288L102.74669774669772,91.94026204002222L104.8057498057498,93.11015583221058L106.86480186480183,94.72753379124416L108.92385392385391,97.03016443252356L110.98290598290596,98.6904187883449L113.04195804195803,99.894476479314L115.10101010101008,99.60454547669025L117.16006216006214,99.5416685036065L119.21911421911419,98.84776156004003L121.27816627816625,97.7926812075784L123.3372183372183,97.51553954870676L125.39627039627037,98.95397776775042L127.45532245532243,99.42942692140824L129.51437451437448,100.54943409231561L131.57342657342656,100.18156077120797L133.6324786324786,100.1777434289533L135.69153069153066,99.64919063743065L137.75058275058274,101.13506972849437L139.80963480963482,101.85459040733471L141.86868686868686,102.56459187141287L143.92773892773891,103.54503674692992L145.98679098679096,105.2252723506911L148.04584304584304,104.88981310167115L150.1048951048951,106.22416932400733L152.16394716394714,105.51806182623204L154.2229992229992,104.21504365921476L156.28205128205127,103.53178627833151L158.34110334110332,101.31634152406549L160.40015540015537,99.20200328806504L162.45920745920742,99.03037365693461L164.5182595182595,98.40596368760093L166.57731157731158,98.05494807478516" fill="none"/><line class="bound min segment autoscale bounded" x1="65.68376068376067" y1="111.19718421321812" x2="168.63636363636363" y2="111.19718421321812" fill="none"/><line class="bound max segment autoscale bounded" x1="65.68376068376067" y1="84.91271193635218" x2="168.63636363636363" y2="84.91271193635218" fill="none"/><g class="userGuides"/></svg><g class="axes"><g class="bottom axis bottomAxisLine" transform="translate(0,151.66666666666666)" fill="none" text-anchor="middle"><path class="domain" stroke="#000" d="M0.5,6V0.5H177.16666666666666V6" fill="none"/><g class="tick" opacity="1" transform="translate(8.53030303030303,0)"><line stroke="#000" y2="3" fill="none"/><text fill="#000" y="6" dy="0.71em" class="bottomAxisTickLabels transformed-label"><tspan class="label-block"><tspan class="label-subblock">0</tspan></tspan></text></g><g class="tick" opacity="1" transform="translate(49.7113442113442,0)"><line stroke="#000" y2="3" fill="none"/><text fill="#000" y="6" dy="0.71em" class="bottomAxisTickLabels transformed-label"><tspan class="label-block"><tspan class="label-subblock">20</tspan></tspan></text></g><g class="tick" opacity="1" transform="translate(90.89238539238538,0)"><line stroke="#000" y2="3" fill="none"/><text fill="#000" y="6" dy="0.71em" class="bottomAxisTickLabels transformed-label"><tspan class="label-block"><tspan class="label-subblock">40</tspan></tspan></text></g><g class="tick" opacity="1" transform="translate(132.07342657342656,0)"><line stroke="#000" y2="3" fill="none"/><text fill="#000" y="6" dy="0.71em" class="bottomAxisTickLabels transformed-label"><tspan class="label-block"><tspan class="label-subblock">60</tspan></tspan></text></g><g class="tick" opacity="1" transform="translate(173.25446775446773,0)"><line stroke="#000" y2="3" fill="none"/><text fill="#000" y="6" dy="0.71em" class="bottomAxisTickLabels transformed-label"><tspan class="label-block"><tspan class="label-subblock">80</tspan></tspan></text></g></g><g class="left axis leftAxisLine" fill="none" text-anchor="end"><path class="domain" stroke="#000" d="M-6,152.16666666666666H0.5V0.5H-6" fill="none"/><g class="tick" opacity="1" transform="translate(0,141.00964639125618)"><line stroke="#000" x2="-3" fill="none"/><text fill="#000" x="-6" dy="0.32em" class="leftAxisTickLabels transformed-label"><tspan class="label-block"><tspan class="label-subblock">0.11</tspan></tspan></text></g><g class="tick" opacity="1" transform="translate(0,97.07921482572462)"><line stroke="#000" x2="-3" fill="none"/><text fill="#000" x="-6" dy="0.32em" class="leftAxisTickLabels transformed-label"><tspan class="label-block"><tspan class="label-subblock">0.12</tspan></tspan></text></g><g class="tick" opacity="1" transform="translate(0,53.148783260192985)"><line stroke="#000" x2="-3" fill="none"/><text fill="#000" x="-6" dy="0.32em" class="leftAxisTickLabels transformed-label"><tspan class="label-block"><tspan class="label-subblock">0.13</tspan></tspan></text></g><g class="tick" opacity="1" transform="translate(0,9.21835169466135)"><line stroke="#000" x2="-3" fill="none"/><text fill="#000" x="-6" dy="0.32em" class="leftAxisTickLabels transformed-label"><tspan class="label-block"><tspan class="label-subblock">0.14</tspan></tspan></text></g></g></g><g class="grid"><g class="vertical" transform="translate(0,151.66666666666666)" fill="none" font-size="10" font-family="sans-serif" text-anchor="middle"><g class="tick" opacity="1" transform="translate(8.53030303030303,0)"><line stroke="#000" y2="-151.66666666666666" fill="none"/></g><g class="tick" opacity="1" transform="translate(49.7113442113442,0)"><line stroke="#000" y2="-151.66666666666666" fill="none"/></g><g class="tick" opacity="1" transform="translate(90.89238539238538,0)"><line stroke="#000" y2="-151.66666666666666" fill="none"/></g><g class="tick" opacity="1" transform="translate(132.07342657342656,0)"><line stroke="#000" y2="-151.66666666666666" fill="none"/></g><g class="tick" opacity="1" transform="translate(173.25446775446773,0)"><line stroke="#000" y2="-151.66666666666666" fill="none"/></g></g><g class="horizontal" fill="none" font-size="10" font-family="sans-serif" text-anchor="end"><g class="tick" opacity="1" transform="translate(0,141.00964639125618)"><line stroke="#000" x2="176.66666666666666" fill="none"/></g><g class="tick" opacity="1" transform="translate(0,97.07921482572462)"><line stroke="#000" x2="176.66666666666666" fill="none"/></g><g class="tick" opacity="1" transform="translate(0,53.148783260192985)"><line stroke="#000" x2="176.66666666666666" fill="none"/></g><g class="tick" opacity="1" transform="translate(0,9.21835169466135)"><line stroke="#000" x2="176.66666666666666" fill="none"/></g></g></g><defs><clipPath id="V1_sd--freehand-guides-clip" class="freehand-guides-clip"><rect x="0" y="0" width="176.66666666666666" height="151.66666666666666"/></clipPath></defs></g></g><text x="88.33333333333333" y="-1em" class="title transformed-label" text-anchor="middle"><tspan class="label-block"><tspan class="label-subblock">sd(V1|y)</tspan></tspan></text></g><g class="plot-container page-element" width="176.66666666666666" height="151.66666666666666" data-index="6" data-col="0" data-row="2" transform="translate(0,403.3333333333333)"><g class="subpage plot-page active" data-index="0"><g class="plot page-element" width="176.66666666666666" height="151.66666666666666" id="Q_sd" data-index="0" title="sd(Q|y)" transform="translate(0,0)"><rect width="176.66666666666666" height="151.66666666666666" class="plot-background"/><svg class="plot-content zoomable-content" width="176.66666666666666" height="151.66666666666666"><path class="convergence-line line autoscale" stroke="steelblue" d="M8.03030303030303,13.161157024793397L10.089355089355088,69.84748407565996L12.148407148407145,105.62339217191715L14.207459207459205,115.53102547568754L16.266511266511262,117.62273930499337L18.325563325563323,122.56537479784535L20.384615384615383,126.52475233272745L22.443667443667444,131.5661993536201L24.5027195027195,131.90710342845523L26.561771561771558,131.59500168717562L28.620823620823614,131.52210980608325L30.679875679875675,129.409590516288L32.738927738927735,126.65596017635715L34.79797979797979,123.8394865371589L36.85703185703185,123.17420081594307L38.916083916083906,120.66003867197684L40.97513597513596,119.42777386368634L43.03418803418802,118.41026988342244L45.093240093240084,117.38446155074546L47.15229215229214,116.82248826285762L49.2113442113442,115.8735137911992L51.270396270396255,114.250552161518L53.32944832944832,113.75735648673432L55.388500388500375,114.12113455762777L57.44755244755243,115.59793739125732L59.50660450660449,117.13095845291929L61.565656565656546,118.99230896934682L63.62470862470862,120.73488997242615L65.68376068376067,121.55735871214412L67.74281274281273,123.0146763395972L69.8018648018648,123.56847825850463L71.86091686091684,123.52902320171596L73.91996891996891,124.39959361998729L75.97902097902096,124.46153389677283L78.03807303807302,124.73986035681583L80.09712509712507,125.11470140541768L82.15617715617714,126.59488309806842L84.21522921522919,126.52697037632353L86.27428127428125,126.36087071019519L88.33333333333331,125.74708979369906L90.39238539238538,126.03786396932054L92.45143745143743,126.44898138385315L94.51048951048949,126.90508590684342L96.56954156954154,127.89638004954682L98.6285936285936,128.60158417914403L100.68764568764566,128.99838593232008L102.74669774669772,129.3926359007573L104.8057498057498,129.8665477618611L106.86480186480183,129.39640171040037L108.92385392385391,129.91415181021816L110.98290598290596,130.4746815031704L113.04195804195803,131.00604441191257L115.10101010101008,131.34562278606202L117.16006216006214,131.86446254568108L119.21911421911419,132.15451856413614L121.27816627816625,131.7559132176784L123.3372183372183,131.51154913043374L125.39627039627037,131.6592660859213L127.45532245532243,131.99167779635346L129.51437451437448,132.91926445857894L131.57342657342656,132.46966424978768L133.6324786324786,131.82462519474024L135.69153069153066,131.34046235324223L137.75058275058274,131.61125926537306L139.80963480963482,132.03847718234167L141.86868686868686,132.3436825891778L143.92773892773891,132.84767887272844L145.98679098679096,133.12138066259317L148.04584304584304,133.37497641063197L150.1048951048951,133.78447460970685L152.16394716394714,133.3389437046443L154.2229992229992,132.6860824652932L156.28205128205127,132.08575170093422L158.34110334110332,130.99372750950968L160.40015540015537,129.80989529440723L162.45920745920742,129.48185488241245L164.5182595182595,129.57125602721322L166.57731157731158,129.94282531355833" fill="none"/><line class="bound min segment autoscale bounded" x1="65.68376068376067" y1="138.50550964187326" x2="168.63636363636363" y2="138.50550964187326" fill="none"/><line class="bound max segment autoscale bounded" x1="65.68376068376067" y1="121.3801409852434" x2="168.63636363636363" y2="121.3801409852434" fill="none"/><g class="userGuides"/></svg><g class="axes"><g class="bottom axis bottomAxisLine" transform="translate(0,151.66666666666666)" fill="none" text-anchor="middle"><path class="domain" stroke="#000" d="M0.5,6V0.5H177.16666666666666V6" fill="none"/><g class="tick" opacity="1" transform="translate(8.53030303030303,0)"><line stroke="#000" y2="3" fill="none"/><text fill="#000" y="6" dy="0.71em" class="bottomAxisTickLabels transformed-label"><tspan class="label-block"><tspan class="label-subblock">0</tspan></tspan></text></g><g class="tick" opacity="1" transform="translate(49.7113442113442,0)"><line stroke="#000" y2="3" fill="none"/><text fill="#000" y="6" dy="0.71em" class="bottomAxisTickLabels transformed-label"><tspan class="label-block"><tspan class="label-subblock">20</tspan></tspan></text></g><g class="tick" opacity="1" transform="translate(90.89238539238538,0)"><line stroke="#000" y2="3" fill="none"/><text fill="#000" y="6" dy="0.71em" class="bottomAxisTickLabels transformed-label"><tspan class="label-block"><tspan class="label-subblock">40</tspan></tspan></text></g><g class="tick" opacity="1" transform="translate(132.07342657342656,0)"><line stroke="#000" y2="3" fill="none"/><text fill="#000" y="6" dy="0.71em" class="bottomAxisTickLabels transformed-label"><tspan class="label-block"><tspan class="label-subblock">60</tspan></tspan></text></g><g class="tick" opacity="1" transform="translate(173.25446775446773,0)"><line stroke="#000" y2="3" fill="none"/><text fill="#000" y="6" dy="0.71em" class="bottomAxisTickLabels transformed-label"><tspan class="label-block"><tspan class="label-subblock">80</tspan></tspan></text></g></g><g class="left axis leftAxisLine" fill="none" text-anchor="end"><path class="domain" stroke="#000" d="M-6,152.16666666666666H0.5V0.5H-6" fill="none"/><g class="tick" opacity="1" transform="translate(0,116.67091349593773)"><line stroke="#000" x2="-3" fill="none"/><text fill="#000" x="-6" dy="0.32em" class="leftAxisTickLabels transformed-label"><tspan class="label-block"><tspan class="label-subblock">0.35</tspan></tspan></text></g><g class="tick" opacity="1" transform="translate(0,65.7738727887638)"><line stroke="#000" x2="-3" fill="none"/><text fill="#000" x="-6" dy="0.32em" class="leftAxisTickLabels transformed-label"><tspan class="label-block"><tspan class="label-subblock">0.4</tspan></tspan></text></g><g class="tick" opacity="1" transform="translate(0,14.876832081589896)"><line stroke="#000" x2="-3" fill="none"/><text fill="#000" x="-6" dy="0.32em" class="leftAxisTickLabels transformed-label"><tspan class="label-block"><tspan class="label-subblock">0.45</tspan></tspan></text></g></g></g><g class="grid"><g class="vertical" transform="translate(0,151.66666666666666)" fill="none" font-size="10" font-family="sans-serif" text-anchor="middle"><g class="tick" opacity="1" transform="translate(8.53030303030303,0)"><line stroke="#000" y2="-151.66666666666666" fill="none"/></g><g class="tick" opacity="1" transform="translate(49.7113442113442,0)"><line stroke="#000" y2="-151.66666666666666" fill="none"/></g><g class="tick" opacity="1" transform="translate(90.89238539238538,0)"><line stroke="#000" y2="-151.66666666666666" fill="none"/></g><g class="tick" opacity="1" transform="translate(132.07342657342656,0)"><line stroke="#000" y2="-151.66666666666666" fill="none"/></g><g class="tick" opacity="1" transform="translate(173.25446775446773,0)"><line stroke="#000" y2="-151.66666666666666" fill="none"/></g></g><g class="horizontal" fill="none" font-size="10" font-family="sans-serif" text-anchor="end"><g class="tick" opacity="1" transform="translate(0,116.67091349593773)"><line stroke="#000" x2="176.66666666666666" fill="none"/></g><g class="tick" opacity="1" transform="translate(0,65.7738727887638)"><line stroke="#000" x2="176.66666666666666" fill="none"/></g><g class="tick" opacity="1" transform="translate(0,14.876832081589896)"><line stroke="#000" x2="176.66666666666666" fill="none"/></g></g></g><defs><clipPath id="Q_sd--freehand-guides-clip" class="freehand-guides-clip"><rect x="0" y="0" width="176.66666666666666" height="151.66666666666666"/></clipPath></defs></g></g><text x="88.33333333333333" y="-1em" class="title transformed-label" text-anchor="middle"><tspan class="label-block"><tspan class="label-subblock">sd(Q|y)</tspan></tspan></text></g><g class="plot-container page-element" width="176.66666666666666" height="151.66666666666666" data-index="7" data-col="1" data-row="2" transform="translate(226.66666666666666,403.3333333333333)"><g class="subpage plot-page active" data-index="0"><g class="plot page-element" width="176.66666666666666" height="151.66666666666666" id="V2_sd" data-index="0" title="sd(V2|y)" transform="translate(0,0)"><rect width="176.66666666666666" height="151.66666666666666" class="plot-background"/><svg class="plot-content zoomable-content" width="176.66666666666666" height="151.66666666666666"><path class="convergence-line line autoscale" stroke="steelblue" d="M8.03030303030303,13.161157024793397L10.089355089355088,83.66176459004849L12.148407148407145,104.78040283759665L14.207459207459205,117.92803366283988L16.266511266511262,119.62486812132789L18.325563325563323,121.88566122980075L20.384615384615383,124.9906893264845L22.443667443667444,119.67337332516894L24.5027195027195,114.14283008174834L26.561771561771558,110.59423788206627L28.620823620823614,112.32976751264437L30.679875679875675,115.33200173349177L32.738927738927735,120.62776349762179L34.79797979797979,121.70969452182433L36.85703185703185,123.74118114235972L38.916083916083906,124.82745580036966L40.97513597513596,125.75243097400505L43.03418803418802,128.15703786884038L45.093240093240084,129.69357659802014L47.15229215229214,133.5604473638001L49.2113442113442,136.0833016500426L51.270396270396255,136.15330847292174L53.32944832944832,135.92314172978212L55.388500388500375,134.81132234724586L57.44755244755243,134.1937869003993L59.50660450660449,133.16895270761668L61.565656565656546,131.41828461992785L63.62470862470862,130.12614520054956L65.68376068376067,129.42103649927324L67.74281274281273,129.30254638839068L69.8018648018648,127.99253449209569L71.86091686091684,125.80484559034836L73.91996891996891,124.94793144953651L75.97902097902096,125.73804445213817L78.03807303807302,125.79446291058332L80.09712509712507,125.76202854875784L82.15617715617714,125.6358237470401L84.21522921522919,125.31369085111173L86.27428127428125,125.24727371361799L88.33333333333331,125.07834072272293L90.39238539238538,125.74534086945661L92.45143745143743,126.56022172995837L94.51048951048949,126.58310828774091L96.56954156954154,127.52499063533855L98.6285936285936,129.1259440519728L100.68764568764566,129.98884413805683L102.74669774669772,130.23249615521647L104.8057498057498,129.65747141085657L106.86480186480183,130.0899510398012L108.92385392385391,130.65383312078924L110.98290598290596,131.47231992782542L113.04195804195803,131.63340993209462L115.10101010101008,131.6530073977807L117.16006216006214,132.10119747204894L119.21911421911419,131.5271269066714L121.27816627816625,132.02465632768582L123.3372183372183,131.95494255999506L125.39627039627037,132.57823609593044L127.45532245532243,132.68277357075408L129.51437451437448,133.15992080465142L131.57342657342656,133.52284215747784L133.6324786324786,133.24469301760104L135.69153069153066,133.54047757851785L137.75058275058274,132.90533111790666L139.80963480963482,132.89513107839497L141.86868686868686,131.945184367891L143.92773892773891,131.43867424832627L145.98679098679096,131.22190767971313L148.04584304584304,131.35212654743196L150.1048951048951,131.84136253401806L152.16394716394714,132.08494830787154L154.2229992229992,131.7308300063734L156.28205128205127,131.47046237004264L158.34110334110332,131.17140686754365L160.40015540015537,131.37817264808484L162.45920745920742,131.103422804263L164.5182595182595,130.8522882345169L166.57731157731158,130.6328954443554" fill="none"/><line class="bound min segment autoscale bounded" x1="65.68376068376067" y1="138.50550964187326" x2="168.63636363636363" y2="138.50550964187326" fill="none"/><line class="bound max segment autoscale bounded" x1="65.68376068376067" y1="122.76028124683754" x2="168.63636363636363" y2="122.76028124683754" fill="none"/><g class="userGuides"/></svg><g class="axes"><g class="bottom axis bottomAxisLine" transform="translate(0,151.66666666666666)" fill="none" text-anchor="middle"><path class="domain" stroke="#000" d="M0.5,6V0.5H177.16666666666666V6" fill="none"/><g class="tick" opacity="1" transform="translate(8.53030303030303,0)"><line stroke="#000" y2="3" fill="none"/><text fill="#000" y="6" dy="0.71em" class="bottomAxisTickLabels transformed-label"><tspan class="label-block"><tspan class="label-subblock">0</tspan></tspan></text></g><g class="tick" opacity="1" transform="translate(49.7113442113442,0)"><line stroke="#000" y2="3" fill="none"/><text fill="#000" y="6" dy="0.71em" class="bottomAxisTickLabels transformed-label"><tspan class="label-block"><tspan class="label-subblock">20</tspan></tspan></text></g><g class="tick" opacity="1" transform="translate(90.89238539238538,0)"><line stroke="#000" y2="3" fill="none"/><text fill="#000" y="6" dy="0.71em" class="bottomAxisTickLabels transformed-label"><tspan class="label-block"><tspan class="label-subblock">40</tspan></tspan></text></g><g class="tick" opacity="1" transform="translate(132.07342657342656,0)"><line stroke="#000" y2="3" fill="none"/><text fill="#000" y="6" dy="0.71em" class="bottomAxisTickLabels transformed-label"><tspan class="label-block"><tspan class="label-subblock">60</tspan></tspan></text></g><g class="tick" opacity="1" transform="translate(173.25446775446773,0)"><line stroke="#000" y2="3" fill="none"/><text fill="#000" y="6" dy="0.71em" class="bottomAxisTickLabels transformed-label"><tspan class="label-block"><tspan class="label-subblock">80</tspan></tspan></text></g></g><g class="left axis leftAxisLine" fill="none" text-anchor="end"><path class="domain" stroke="#000" d="M-6,152.16666666666666H0.5V0.5H-6" fill="none"/><g class="tick" opacity="1" transform="translate(0,145.06754459106804)"><line stroke="#000" x2="-3" fill="none"/><text fill="#000" x="-6" dy="0.32em" class="leftAxisTickLabels transformed-label"><tspan class="label-block"><tspan class="label-subblock">0.18</tspan></tspan></text></g><g class="tick" opacity="1" transform="translate(0,111.62644250729011)"><line stroke="#000" x2="-3" fill="none"/><text fill="#000" x="-6" dy="0.32em" class="leftAxisTickLabels transformed-label"><tspan class="label-block"><tspan class="label-subblock">0.2</tspan></tspan></text></g><g class="tick" opacity="1" transform="translate(0,78.18534042351223)"><line stroke="#000" x2="-3" fill="none"/><text fill="#000" x="-6" dy="0.32em" class="leftAxisTickLabels transformed-label"><tspan class="label-block"><tspan class="label-subblock">0.22</tspan></tspan></text></g><g class="tick" opacity="1" transform="translate(0,44.74423833973434)"><line stroke="#000" x2="-3" fill="none"/><text fill="#000" x="-6" dy="0.32em" class="leftAxisTickLabels transformed-label"><tspan class="label-block"><tspan class="label-subblock">0.24</tspan></tspan></text></g><g class="tick" opacity="1" transform="translate(0,11.303136255956389)"><line stroke="#000" x2="-3" fill="none"/><text fill="#000" x="-6" dy="0.32em" class="leftAxisTickLabels transformed-label"><tspan class="label-block"><tspan class="label-subblock">0.26</tspan></tspan></text></g></g></g><g class="grid"><g class="vertical" transform="translate(0,151.66666666666666)" fill="none" font-size="10" font-family="sans-serif" text-anchor="middle"><g class="tick" opacity="1" transform="translate(8.53030303030303,0)"><line stroke="#000" y2="-151.66666666666666" fill="none"/></g><g class="tick" opacity="1" transform="translate(49.7113442113442,0)"><line stroke="#000" y2="-151.66666666666666" fill="none"/></g><g class="tick" opacity="1" transform="translate(90.89238539238538,0)"><line stroke="#000" y2="-151.66666666666666" fill="none"/></g><g class="tick" opacity="1" transform="translate(132.07342657342656,0)"><line stroke="#000" y2="-151.66666666666666" fill="none"/></g><g class="tick" opacity="1" transform="translate(173.25446775446773,0)"><line stroke="#000" y2="-151.66666666666666" fill="none"/></g></g><g class="horizontal" fill="none" font-size="10" font-family="sans-serif" text-anchor="end"><g class="tick" opacity="1" transform="translate(0,145.06754459106804)"><line stroke="#000" x2="176.66666666666666" fill="none"/></g><g class="tick" opacity="1" transform="translate(0,111.62644250729011)"><line stroke="#000" x2="176.66666666666666" fill="none"/></g><g class="tick" opacity="1" transform="translate(0,78.18534042351223)"><line stroke="#000" x2="176.66666666666666" fill="none"/></g><g class="tick" opacity="1" transform="translate(0,44.74423833973434)"><line stroke="#000" x2="176.66666666666666" fill="none"/></g><g class="tick" opacity="1" transform="translate(0,11.303136255956389)"><line stroke="#000" x2="176.66666666666666" fill="none"/></g></g></g><defs><clipPath id="V2_sd--freehand-guides-clip" class="freehand-guides-clip"><rect x="0" y="0" width="176.66666666666666" height="151.66666666666666"/></clipPath></defs></g></g><text x="88.33333333333333" y="-1em" class="title transformed-label" text-anchor="middle"><tspan class="label-block"><tspan class="label-subblock">sd(V2|y)</tspan></tspan></text></g></g></g></g></svg>
